<svg width="73" height="56" viewBox="0 0 73 56" fill="none" xmlns="http://www.w3.org/2000/svg">
<path d="M37.966 55.5C37.383 55.038 36.7981 54.5777 36.2169 54.1133C35.8455 53.8166 35.4783 53.5145 35.075 53.1868C35.0147 53.3915 35.0545 53.5557 35.0563 53.7163C35.0599 54.044 35.0695 54.3712 35.0786 54.6989C35.0918 55.2063 35.1021 55.22 35.6453 55.4003H34.2308C34.7174 55.3621 34.6264 54.9896 34.6354 54.6911C34.6589 53.9569 34.6668 53.2226 34.683 52.4883C34.6849 52.4012 34.6565 52.2818 34.7403 52.2394C34.8476 52.1845 34.9164 52.3045 34.9893 52.363C35.8238 53.0298 36.6558 53.6996 37.4891 54.3682C37.5657 54.4297 37.6446 54.4864 37.7568 54.5711C37.7568 54.2553 37.7604 53.9754 37.7556 53.696C37.7514 53.4477 37.7297 53.1999 37.7309 52.9522C37.7321 52.6376 37.7484 52.3236 37.2901 52.3051H38.5485C38.0962 52.3773 38.1879 52.7355 38.1692 53.0322C38.118 53.8536 38.1782 54.6792 38.086 55.5H37.9654H37.966Z" fill="#D3AF6E"/>
<path d="M26.6839 15.3839C24.0075 15.375 21.8773 13.2695 21.8864 10.6417C21.8954 8.00615 24.0352 5.89651 26.6936 5.90128C29.3646 5.90606 31.4785 8.02824 31.4688 10.696C31.4592 13.2976 29.3212 15.3929 26.6845 15.3845L26.6839 15.3839Z" fill="#D3AF6E"/>
<path d="M45.8367 16.711C48.5143 16.7211 50.6355 18.8439 50.6222 21.5003C50.6095 24.0965 48.4504 26.2223 45.8433 26.2068C43.1404 26.19 41.0277 24.078 41.0386 21.403C41.0488 18.8242 43.22 16.7014 45.8373 16.7116L45.8367 16.711Z" fill="#D3AF6E"/>
<path d="M36.2477 31.6014C33.5236 31.5752 31.4308 29.4572 31.461 26.7577C31.4899 24.1872 33.6798 22.0925 36.311 22.1182C38.9783 22.1445 41.0699 24.2822 41.0446 26.9547C41.0199 29.5318 38.8572 31.6265 36.2471 31.6014H36.2477Z" fill="#D3AF6E"/>
<path d="M41.0464 5.25657C41.0416 7.88437 38.8855 10.0042 36.2338 9.98864C33.5893 9.97312 31.4555 7.84975 31.4616 5.24045C31.4676 2.57325 33.6159 0.492261 36.3556 0.500022C38.941 0.507782 41.0506 2.64727 41.0464 5.25657Z" fill="#D3AF6E"/>
<path d="M45.8403 15.3839C43.1892 15.3887 41.0404 13.2791 41.038 10.6686C41.035 8.02764 43.1693 5.90248 45.8253 5.90128C48.4926 5.90009 50.6144 8.00257 50.6216 10.6542C50.6288 13.2743 48.5011 15.3792 45.8403 15.3845V15.3839Z" fill="#D3AF6E"/>
<path d="M36.2609 11.3151C38.9132 11.3097 41.041 13.4122 41.0452 16.0424C41.0494 18.6982 38.9181 20.8001 36.2223 20.7989C33.6068 20.7977 31.4634 18.666 31.4622 16.0645C31.461 13.4265 33.5887 11.3199 36.2609 11.3151Z" fill="#D3AF6E"/>
<path d="M31.4682 21.4747C31.4694 24.0917 29.3284 26.2079 26.6809 26.2073C24.0377 26.2062 21.8882 24.0846 21.8846 21.4735C21.8816 18.8427 24.031 16.708 26.6815 16.7104C29.3441 16.7128 31.467 18.8254 31.4682 21.4747Z" fill="#D3AF6E"/>
<path d="M48.7664 36.3723C50.1007 36.3705 51.4331 36.3246 52.7662 36.4744C55.2274 36.7502 57.0531 38.3154 57.4721 40.5731C57.9689 43.2504 56.8203 46.6961 52.6613 47.3933C51.5507 47.5796 50.4395 47.5432 49.3301 47.4381C48.2671 47.3372 47.2054 47.3647 46.1418 47.3885C45.9977 47.3915 45.7541 47.4668 45.7547 47.2429C45.7547 47.0775 45.9917 47.1139 46.1321 47.1038C46.6965 47.0638 46.7996 46.9778 46.893 46.4251C46.9726 45.9535 46.9889 45.4753 46.9907 45.0001C47.0004 42.7347 46.998 40.4692 46.9955 38.2038C46.9955 37.9363 46.9732 37.6677 46.9503 37.4009C46.9081 36.9114 46.7067 36.7114 46.2153 36.6618C46.0459 36.6445 45.8753 36.6362 45.7059 36.6183C45.6209 36.6093 45.5009 36.6195 45.5147 36.4875C45.5268 36.3753 45.6347 36.3687 45.7258 36.3646C45.8361 36.3592 45.9464 36.361 46.0568 36.361C46.96 36.3586 47.8632 36.4201 48.7664 36.3735V36.3723ZM48.8664 42.1938C48.8875 42.9699 48.8285 44.3506 48.9219 45.7302C48.9527 46.1857 49.1643 46.4722 49.5912 46.6137C49.7425 46.6638 49.8975 46.7086 50.0542 46.7385C50.7934 46.8782 51.5338 46.8346 52.2712 46.7283C53.8955 46.4937 55.0339 45.4604 55.4125 43.8892C55.5271 43.414 55.5638 42.9287 55.5789 42.4416C55.6193 41.1002 55.3558 39.8382 54.4357 38.8085C53.0592 37.2683 51.2498 36.94 49.2837 37.109C48.9702 37.1358 48.8604 37.288 48.8628 37.5967C48.8743 38.9279 48.8677 40.2585 48.8677 42.1938H48.8664Z" fill="#D3AF6E"/>
<path d="M5.80255 47.5915C3.80684 47.5079 1.95161 46.6286 0.752981 44.6414C-0.535487 42.5048 -0.135742 39.803 1.68692 37.9543C4.0872 35.5199 8.23297 35.3993 10.6718 37.6934C13.0679 39.9469 13.051 43.5925 10.6314 45.8287C9.35563 47.0077 7.83624 47.5766 5.80255 47.5915ZM10.3155 42.2153C10.3095 41.6017 10.2618 41.0387 10.134 40.4847C9.67519 38.4999 8.15278 36.6977 5.61926 36.8356C4.22045 36.912 3.17195 37.5412 2.62871 38.8276C1.95583 40.4215 1.96488 42.0738 2.5256 43.6904C3.04413 45.184 4.02691 46.2824 5.63252 46.7086C7.72892 47.265 9.431 46.3128 10.0418 44.2587C10.245 43.5752 10.2914 42.8744 10.3161 42.2153H10.3155Z" fill="#D3AF6E"/>
<path d="M19.8346 41.8189C19.8587 43.4218 19.7773 44.9386 19.9033 46.4531C19.9371 46.8591 20.1469 47.0375 20.5714 47.0853C20.7704 47.108 20.9711 47.1157 21.1707 47.133C21.2449 47.1396 21.3172 47.1671 21.3094 47.2554C21.3028 47.3295 21.2515 47.3814 21.1695 47.3874C21.1098 47.3915 21.0489 47.3921 20.9892 47.3915C19.6953 47.379 18.4008 47.3557 17.1069 47.3915C17.0467 47.3933 16.9864 47.3903 16.9267 47.3874C16.8362 47.3826 16.7681 47.342 16.7669 47.2459C16.7657 47.1557 16.8429 47.1372 16.914 47.1295C17.0334 47.1163 17.1534 47.1086 17.2734 47.1002C17.6538 47.0734 17.784 46.9683 17.8835 46.603C17.9788 46.2543 17.983 45.895 17.9902 45.5386C18.0427 42.946 18.0367 40.3534 17.9987 37.7614C17.9987 37.7316 17.9969 37.7017 17.9957 37.6719C17.9559 36.8582 17.7852 36.6947 16.9677 36.6463C16.8193 36.6374 16.5504 36.7281 16.5577 36.4881C16.5643 36.2786 16.8199 36.3687 16.9622 36.3699C18.1862 36.3783 19.4095 36.4165 20.6335 36.3658C20.7233 36.3622 20.8144 36.3675 20.9036 36.3783C20.9681 36.3855 21.014 36.4278 21.02 36.4947C21.0266 36.5651 20.9814 36.6081 20.9163 36.6183C20.7879 36.6374 20.6576 36.6487 20.5286 36.6636C20.1469 36.706 19.9365 36.8732 19.9009 37.2295C19.7701 38.5434 19.8636 39.8603 19.8376 41.1635C19.9347 41.1993 19.9661 41.1498 19.9968 41.1175C21.1026 39.9517 22.2717 38.8455 23.3111 37.6188C23.4329 37.4755 23.5469 37.3197 23.6325 37.1537C23.7446 36.9364 23.7615 36.7263 23.4528 36.6409C23.3678 36.6177 23.3093 36.5747 23.3292 36.472C23.3467 36.3813 23.4148 36.3729 23.4872 36.3699C23.5571 36.3669 23.6277 36.361 23.6976 36.3652C24.6906 36.4213 25.6831 36.3902 26.6761 36.3652C26.7659 36.3628 26.857 36.3652 26.9456 36.3795C27.0101 36.3896 27.0457 36.4469 27.0457 36.5102C27.0457 36.5639 27.0077 36.6021 26.9565 36.6177C26.9088 36.632 26.8588 36.6433 26.8093 36.6451C25.9188 36.6708 25.2224 37.1114 24.6135 37.6952C23.5252 38.7387 22.461 39.8072 21.3787 40.8573C21.2364 40.9957 21.2491 41.0823 21.3685 41.2172C22.8716 42.912 24.3711 44.6097 26.0683 46.1212C26.6749 46.6609 27.3677 47.0495 28.2045 47.1271C28.2841 47.1342 28.4065 47.1229 28.3939 47.2608C28.3836 47.3778 28.2883 47.3915 28.1931 47.3909C27.3803 47.3868 26.567 47.4005 25.7548 47.3718C25.1374 47.3503 24.6279 47.0489 24.1751 46.6501C23.2044 45.7947 22.3977 44.7894 21.5445 43.8265C20.9826 43.1931 20.4454 42.5383 19.8352 41.8201L19.8346 41.8189Z" fill="#D3AF6E"/>
<path d="M61.979 47.3915C61.4376 47.3915 60.8956 47.3927 60.3541 47.3909C60.2366 47.3909 60.084 47.4118 60.0816 47.2405C60.0792 47.0966 60.2341 47.1151 60.3149 47.1193C61.2266 47.1671 61.6263 46.5988 61.9248 45.8657C63.1662 42.8135 64.4197 39.766 65.6702 36.7174C65.7305 36.5711 65.7908 36.4207 65.8782 36.2899C65.9928 36.1186 66.1531 36.1138 66.2689 36.2822C66.3744 36.4362 66.4498 36.6129 66.5215 36.786C67.6864 39.6018 68.8476 42.4189 70.0113 45.2353C70.1819 45.6484 70.3634 46.0561 70.6124 46.4316C70.8964 46.859 71.2726 47.1169 71.8074 47.1056C71.8876 47.1038 71.9678 47.1157 72.0474 47.1223C72.1216 47.1283 72.1843 47.1426 72.1873 47.2387C72.1909 47.3486 72.1258 47.373 72.036 47.3766C71.9455 47.3802 71.8557 47.3885 71.7652 47.388C70.7716 47.3844 69.7786 47.3796 68.7849 47.373C68.6951 47.373 68.6041 47.3629 68.516 47.3468C68.4437 47.3336 68.3412 47.3581 68.3219 47.2489C68.3026 47.1372 68.3991 47.1259 68.472 47.1002C68.6625 47.034 68.6734 46.8973 68.6119 46.7397C68.2369 45.778 67.8576 44.8181 67.4856 43.8558C67.4332 43.7197 67.3427 43.6809 67.2095 43.6814C66.1857 43.6856 65.1625 43.6904 64.1387 43.688C64.0067 43.688 63.9337 43.737 63.8891 43.8516C63.5654 44.6837 63.1746 45.4908 62.9377 46.354C62.79 46.8919 62.9564 47.0942 63.5153 47.1145C63.5852 47.1169 63.657 47.1092 63.7257 47.1205C63.8029 47.1336 63.9301 47.0942 63.9138 47.2423C63.9024 47.3468 63.8312 47.3921 63.7239 47.3897C63.323 47.3796 62.9214 47.3712 62.5205 47.3641C62.3402 47.3611 62.1599 47.3641 61.979 47.3641V47.3915ZM65.6822 39.1332C65.212 40.3773 64.767 41.5557 64.3202 42.7329C64.2497 42.9185 64.3534 42.9269 64.4945 42.9263C65.2873 42.9227 66.0802 42.9162 66.873 42.9275C67.1052 42.9305 67.0853 42.8415 67.0268 42.6827C66.7314 41.8822 66.4462 41.0775 66.1459 40.2788C66.0102 39.9182 65.9059 39.5434 65.6822 39.1332Z" fill="#D3AF6E"/>
<path d="M32.6168 47.3444C32.0072 47.3927 31.4459 47.3987 30.884 47.3891C30.773 47.3874 30.635 47.3939 30.6374 47.2435C30.6398 47.1098 30.7803 47.1128 30.8725 47.1175C31.7456 47.1623 32.1676 46.643 32.4612 45.9218C33.7069 42.8612 34.9634 39.8048 36.2163 36.7466C36.2615 36.6362 36.3019 36.5234 36.3568 36.4183C36.4159 36.3055 36.472 36.1741 36.6275 36.1676C36.803 36.1598 36.859 36.3079 36.9223 36.4266C36.9971 36.5663 37.0562 36.715 37.1165 36.8618C38.2826 39.6872 39.4474 42.5132 40.6141 45.3386C40.7769 45.7332 40.9596 46.1182 41.202 46.4746C41.4805 46.8847 41.8525 47.1098 42.3584 47.105C42.4482 47.1044 42.5387 47.114 42.6285 47.1229C42.7033 47.1301 42.7714 47.1587 42.7726 47.2441C42.7738 47.3151 42.7093 47.3426 42.6514 47.3575C42.5845 47.3748 42.5139 47.3891 42.4446 47.3891C41.3913 47.3844 40.3374 47.3778 39.284 47.3689C39.1942 47.3683 39.1044 47.3509 39.0151 47.3372C38.9603 47.3289 38.8855 47.3474 38.871 47.2662C38.8553 47.1796 38.9181 47.1301 38.985 47.114C39.2623 47.0471 39.2286 46.8722 39.152 46.677C38.789 45.7535 38.4236 44.8312 38.0667 43.9053C38.0034 43.7411 37.9142 43.6815 37.7345 43.6827C36.7409 43.6898 35.7478 43.6838 34.7542 43.6832C34.6354 43.6832 34.5148 43.6653 34.457 43.8188C34.1332 44.682 33.7171 45.5117 33.4886 46.4089C33.3644 46.8979 33.5314 47.0972 34.0403 47.1116C34.1103 47.1134 34.182 47.1074 34.2507 47.1175C34.3394 47.1307 34.4732 47.0883 34.4678 47.2483C34.463 47.3868 34.3569 47.3939 34.2514 47.3915C33.8504 47.3832 33.4488 47.3748 33.0479 47.3641C32.8875 47.3599 32.7271 47.3503 32.6156 47.3456L32.6168 47.3444ZM36.3158 39.2276C36.2826 39.2216 36.2489 39.215 36.2157 39.2091C35.7514 40.4328 35.2878 41.6566 34.8145 42.9042H37.6736C37.2136 41.659 36.765 40.443 36.3158 39.2276Z" fill="#D3AF6E"/>
<path d="M26.6086 54.6195C27.0722 53.8637 27.5178 53.136 27.9658 52.4101C28.0158 52.329 28.0448 52.1941 28.1593 52.2054C28.3046 52.2197 28.2751 52.3737 28.2944 52.4698C28.4379 53.1999 28.579 53.93 28.7074 54.6625C28.7749 55.0475 28.8436 55.411 29.3953 55.3764C28.9618 55.4534 28.5536 55.4481 28.1448 55.3824C28.0755 55.3711 28.093 55.3167 28.0942 55.2666C28.1032 54.6374 27.8874 54.0416 27.8331 53.4208C27.6908 53.4106 27.6776 53.5217 27.6372 53.5867C27.2983 54.1258 26.9685 54.6702 26.6309 55.2099C26.4741 55.4606 26.4283 55.4582 26.2583 55.223C25.8453 54.6505 25.5028 54.0345 25.0837 53.3659C24.9831 53.9879 24.8932 54.5371 24.8058 55.0863C24.7847 55.2206 24.8595 55.2863 24.9849 55.3149C25.0566 55.3317 25.1507 55.2958 25.2031 55.4152H23.9912C24.4712 55.3042 24.4036 54.8845 24.4736 54.5514C24.6243 53.8333 24.7582 53.1116 24.8986 52.391C24.9137 52.314 24.9107 52.2191 25.0108 52.2024C25.1121 52.1851 25.1398 52.2818 25.1802 52.3457C25.5981 53.0113 26.0141 53.6781 26.4307 54.3437C26.4826 54.4267 26.5374 54.5079 26.6098 54.6189L26.6086 54.6195Z" fill="#D3AF6E"/>
<path d="M48.5198 55.3824C48.1152 55.4642 47.7191 55.4487 47.3235 55.4158C47.2542 55.4099 47.1746 55.4027 47.2349 55.2934C47.2801 55.2123 47.2307 55.14 47.1927 55.0702C47.0661 54.8368 47.0372 54.4714 46.8111 54.3897C46.474 54.2679 46.0785 54.3407 45.7077 54.361C45.6082 54.3664 45.5762 54.4374 45.5401 54.509C45.4737 54.6422 45.3996 54.7723 45.3399 54.909C45.1922 55.2463 45.206 55.2731 45.5431 55.4057H44.283C44.9046 55.3084 44.9703 54.7383 45.2018 54.3192C45.5334 53.7193 45.8313 53.1008 46.1484 52.4925C46.2045 52.3845 46.2226 52.2066 46.3781 52.2155C46.5204 52.2239 46.5506 52.3934 46.6085 52.5045C47.0076 53.2716 47.4037 54.0398 47.7987 54.8093C47.9506 55.1048 48.1375 55.3525 48.5192 55.383L48.5198 55.3824ZM46.2401 53.059C46.0568 53.4369 45.9 53.7605 45.7258 54.1192C46.0278 54.1192 46.2841 54.1127 46.5397 54.1216C46.726 54.1282 46.7049 54.0482 46.6465 53.9276C46.518 53.6614 46.3956 53.3927 46.2401 53.059Z" fill="#D3AF6E"/>
<path d="M30.931 55.4122H29.6847L29.6437 55.3334C30.1406 55.3716 30.2569 55.0081 30.4179 54.6947C30.799 53.9527 31.1782 53.2095 31.5574 52.4663C31.6117 52.36 31.6563 52.2114 31.7775 52.2042C31.8897 52.1982 31.9126 52.3552 31.9602 52.4454C32.3003 53.0859 32.6252 53.7342 32.9731 54.3706C33.2022 54.789 33.312 55.3287 33.9487 55.3967C33.5254 55.4618 33.1221 55.4445 32.7187 55.4248C32.6512 55.4212 32.5879 55.3949 32.6331 55.3185C32.7 55.2051 32.6222 55.1269 32.58 55.0445C32.4636 54.8165 32.4287 54.4732 32.2038 54.3909C31.8637 54.2673 31.4706 54.3497 31.1004 54.3538C31.0015 54.355 30.9702 54.435 30.9352 54.5049C30.8689 54.638 30.8044 54.7723 30.7423 54.9078C30.635 55.1434 30.6981 55.3114 30.9316 55.4116L30.931 55.4122ZM32.123 54.1222C31.968 53.7617 31.8342 53.4321 31.6226 53.0871C31.473 53.4023 31.3458 53.6781 31.2114 53.9503C31.1535 54.0673 31.1499 54.1294 31.3114 54.1246C31.5677 54.1174 31.8245 54.1228 32.123 54.1228V54.1222Z" fill="#D3AF6E"/>
<path d="M41.378 55.3418C41.7892 55.3579 41.835 55.1436 41.8314 54.8613C41.8236 54.2368 41.8368 53.6124 41.8405 52.9874C41.8425 52.6507 41.6771 52.4227 41.3442 52.3033H42.971C42.9692 52.3158 42.9667 52.3481 42.9637 52.3481C42.5839 52.3564 42.5248 52.5886 42.5332 52.9056C42.5501 53.5199 42.5459 54.1348 42.5459 54.7496C42.5459 55.0081 42.6412 55.1663 42.9288 55.1627C43.0282 55.1615 43.1283 55.1926 43.2272 55.1902C43.5667 55.1806 43.9212 55.1955 44.081 54.7628C44.2028 55.2588 44.0948 55.4081 43.6541 55.4146C43.0035 55.4242 42.353 55.4331 41.7024 55.4409C41.6162 55.4421 41.5239 55.463 41.378 55.3418Z" fill="#D3AF6E"/>
<path d="M39.2461 52.2902H40.681C40.227 52.3821 40.3157 52.7337 40.3138 53.0352C40.3108 53.5999 40.3 54.1652 40.3187 54.7293C40.3392 55.3394 40.3108 55.2582 40.8251 55.3615C40.6762 55.4415 39.527 55.4642 39.2237 55.3675C39.6289 55.3525 39.6096 55.0869 39.6102 54.8266C39.6126 54.2028 39.6211 53.5784 39.6247 52.9546C39.6259 52.671 39.6838 52.3493 39.2454 52.2908L39.2461 52.2902Z" fill="#D3AF6E"/>
<path d="M50.3629 53.2871C50.9731 53.2865 51.4108 53.7127 51.4138 54.3103C51.4169 54.8989 50.9683 55.3496 50.375 55.3555C49.7775 55.3615 49.3012 54.9132 49.2994 54.3431C49.2975 53.7467 49.76 53.2877 50.3635 53.2871H50.3629ZM49.8854 54.8827C50.0132 54.7323 49.9825 54.5807 49.9867 54.4356C49.9915 54.287 50.0114 54.1324 49.9789 53.9909C49.924 53.7527 50.0241 53.7002 50.2315 53.7276C50.3304 53.7408 50.4317 53.742 50.5281 53.764C50.7307 53.8106 50.8103 53.9754 50.706 54.1222C50.5022 54.4094 50.7078 54.5556 50.8664 54.7174C51.0075 54.8612 51.1166 54.8404 51.1811 54.6266C51.2951 54.2488 51.1811 53.8303 50.882 53.607C50.5758 53.3778 50.1802 53.3665 49.8733 53.5784C49.5544 53.7981 49.4121 54.2249 49.5478 54.6123C49.6569 54.9239 49.8794 55.1364 50.2134 55.1914C50.5058 55.2397 50.7705 55.1711 51.0141 54.9024C50.8061 54.8863 50.6674 54.8451 50.5703 54.712C50.4926 54.6052 50.4214 54.3932 50.2906 54.4559C50.1447 54.5252 50.2562 54.7168 50.2906 54.8547C50.2918 54.8601 50.2821 54.8678 50.2707 54.8839H49.8866L49.8854 54.8827ZM50.2249 54.0792C50.2815 54.1443 50.1573 54.3126 50.3605 54.3019C50.4944 54.2947 50.5088 54.1903 50.507 54.087C50.5052 53.9682 50.4522 53.8524 50.3328 53.8464C50.1603 53.8375 50.2713 53.9927 50.2249 54.0798V54.0792Z" fill="#D3AF6E"/>
</svg>
