<svg width="56" height="43" viewBox="0 0 56 43" fill="none" xmlns="http://www.w3.org/2000/svg">
<path d="M29.4524 42.8337C29.0001 42.4752 28.5464 42.1182 28.0955 41.7579C27.8074 41.5277 27.5226 41.2934 27.2097 41.0392C27.1629 41.198 27.1937 41.3254 27.1952 41.4499C27.198 41.7042 27.2054 41.9579 27.2125 42.2122C27.2227 42.6058 27.2307 42.6165 27.6521 42.7563H26.5548C26.9323 42.7267 26.8617 42.4377 26.8687 42.2062C26.8869 41.6366 26.893 41.067 26.9056 40.4974C26.907 40.4297 26.885 40.3371 26.9501 40.3042C27.0333 40.2616 27.0866 40.3547 27.1432 40.4001C27.7906 40.9174 28.436 41.437 29.0824 41.9556C29.1418 42.0033 29.2031 42.0473 29.2901 42.1131C29.2901 41.8681 29.2929 41.6509 29.2892 41.4342C29.2859 41.2415 29.2691 41.0494 29.27 40.8572C29.2709 40.6131 29.2836 40.3695 28.9281 40.3552H29.9042C29.5534 40.4112 29.6245 40.6891 29.61 40.9192C29.5703 41.5564 29.6171 42.1969 29.5455 42.8337H29.452H29.4524Z" fill="#D3AF6E"/>
<path d="M20.7003 11.7133C18.624 11.7064 16.9715 10.073 16.9785 8.0345C16.9855 5.98995 18.6455 4.35337 20.7077 4.35708C22.7798 4.36078 24.4196 6.00708 24.4122 8.07664C24.4047 10.0948 22.7461 11.7203 20.7007 11.7138L20.7003 11.7133Z" fill="#D3AF6E"/>
<path d="M35.5582 12.7428C37.6354 12.7506 39.2808 14.3974 39.2705 16.4582C39.2607 18.4722 37.5858 20.1212 35.5633 20.1092C33.4665 20.0962 31.8276 18.4578 31.836 16.3827C31.8439 14.3821 33.5282 12.7354 35.5586 12.7432L35.5582 12.7428Z" fill="#D3AF6E"/>
<path d="M28.1194 24.2942C26.0062 24.2738 24.3827 22.6307 24.4061 20.5366C24.4285 18.5426 26.1273 16.9176 28.1685 16.9375C30.2377 16.9579 31.8603 18.6162 31.8406 20.6895C31.8215 22.6886 30.1437 24.3136 28.1189 24.2942H28.1194Z" fill="#D3AF6E"/>
<path d="M31.8421 3.85694C31.8383 5.89547 30.1657 7.53992 28.1086 7.52788C26.0572 7.51584 24.4019 5.86862 24.4065 3.84443C24.4112 1.77533 26.0777 0.160989 28.2031 0.167009C30.2087 0.173029 31.8453 1.83276 31.8421 3.85694Z" fill="#D3AF6E"/>
<path d="M35.561 11.7133C33.5044 11.717 31.8374 10.0805 31.8355 8.05534C31.8332 6.00662 33.4889 4.358 35.5493 4.35708C37.6185 4.35615 39.2645 5.98717 39.2701 8.04423C39.2757 10.0767 37.6251 11.7096 35.561 11.7138V11.7133Z" fill="#D3AF6E"/>
<path d="M28.1297 8.55687C30.1872 8.5527 31.8378 10.1837 31.8411 12.2241C31.8444 14.2844 30.191 15.915 28.0998 15.914C26.0707 15.9131 24.408 14.2594 24.407 12.2412C24.4061 10.1948 26.0567 8.56058 28.1297 8.55687Z" fill="#D3AF6E"/>
<path d="M24.4117 16.4383C24.4126 18.4685 22.7517 20.1101 20.6979 20.1097C18.6474 20.1087 16.9799 18.4629 16.9771 16.4373C16.9748 14.3965 18.6422 12.7405 20.6984 12.7423C22.7639 12.7442 24.4108 14.383 24.4117 16.4383Z" fill="#D3AF6E"/>
<path d="M37.8309 27.9952C38.8659 27.9938 39.8996 27.9582 40.9338 28.0744C42.8431 28.2884 44.2593 29.5026 44.5844 31.254C44.9698 33.331 44.0788 36.004 40.8524 36.5448C39.9908 36.6893 39.1288 36.6611 38.2682 36.5796C37.4436 36.5013 36.6199 36.5226 35.7948 36.5411C35.683 36.5435 35.4941 36.6018 35.4946 36.4281C35.4946 36.2999 35.6784 36.3281 35.7873 36.3202C36.2251 36.2892 36.3051 36.2225 36.3776 35.7937C36.4394 35.4279 36.452 35.0569 36.4534 34.6883C36.4609 32.9309 36.459 31.1734 36.4571 29.416C36.4571 29.2085 36.4398 29.0001 36.4221 28.7931C36.3893 28.4134 36.2331 28.2583 35.8519 28.2198C35.7205 28.2064 35.5881 28.1999 35.4567 28.186C35.3907 28.1791 35.2976 28.1869 35.3084 28.0846C35.3178 27.9975 35.4015 27.9924 35.4721 27.9892C35.5577 27.985 35.6433 27.9864 35.7289 27.9864C36.4295 27.9846 37.1302 28.0323 37.8309 27.9961V27.9952ZM37.9085 32.5113C37.9249 33.1133 37.879 34.1845 37.9515 35.2547C37.9754 35.608 38.1396 35.8303 38.4707 35.94C38.5881 35.9789 38.7083 36.0137 38.8299 36.0368C39.4034 36.1452 39.9777 36.1114 40.5498 36.029C41.8098 35.847 42.6929 35.0454 42.9867 33.8265C43.0755 33.4579 43.1041 33.0814 43.1157 32.7035C43.1471 31.6629 42.9427 30.6839 42.2289 29.8851C41.1611 28.6903 39.7574 28.4356 38.2322 28.5667C37.989 28.5875 37.9038 28.7056 37.9057 28.945C37.9146 29.9777 37.9094 31.01 37.9094 32.5113H37.9085Z" fill="#D3AF6E"/>
<path d="M4.50137 36.6986C2.95318 36.6338 1.51398 35.9516 0.584131 34.41C-0.415408 32.7526 -0.105303 30.6566 1.30864 29.2224C3.17068 27.3339 6.38679 27.2404 8.27876 29.02C10.1375 30.7682 10.1244 33.5963 8.24742 35.3311C7.2577 36.2457 6.07902 36.687 4.50137 36.6986ZM8.00233 32.528C7.99765 32.0519 7.9607 31.6152 7.86154 31.1855C7.5056 29.6457 6.32458 28.2476 4.35918 28.3546C3.27405 28.4139 2.46066 28.902 2.03924 29.8999C1.51725 31.1364 1.52427 32.4182 1.95926 33.6723C2.3615 34.8309 3.1239 35.683 4.36947 36.0137C5.99577 36.4453 7.31617 35.7066 7.78998 34.1131C7.9476 33.5829 7.98362 33.0392 8.0028 32.528H8.00233Z" fill="#D3AF6E"/>
<path d="M15.3868 32.2205C15.4056 33.4639 15.3424 34.6406 15.4402 35.8155C15.4664 36.1304 15.6291 36.2688 15.9584 36.3059C16.1128 36.3235 16.2685 36.3295 16.4233 36.3429C16.4809 36.348 16.537 36.3693 16.5309 36.4379C16.5258 36.4953 16.486 36.5356 16.4224 36.5402C16.3761 36.5435 16.3289 36.5439 16.2826 36.5435C15.2788 36.5337 14.2746 36.5157 13.2708 36.5435C13.2241 36.5448 13.1773 36.5425 13.131 36.5402C13.0608 36.5365 13.008 36.505 13.007 36.4305C13.0061 36.3605 13.066 36.3462 13.1212 36.3402C13.2138 36.33 13.3069 36.324 13.3999 36.3175C13.6951 36.2966 13.7961 36.2151 13.8733 35.9317C13.9472 35.6613 13.9504 35.3825 13.9561 35.106C13.9968 33.0948 13.9921 31.0836 13.9626 29.0728C13.9626 29.0497 13.9612 29.0265 13.9603 29.0034C13.9294 28.3722 13.797 28.2453 13.1628 28.2078C13.0477 28.2008 12.8391 28.2712 12.8447 28.0851C12.8499 27.9225 13.0482 27.9924 13.1586 27.9934C14.1081 27.9998 15.0571 28.0295 16.0066 27.9901C16.0763 27.9873 16.1469 27.9915 16.2161 27.9998C16.2662 28.0054 16.3017 28.0383 16.3064 28.0901C16.3116 28.1448 16.2765 28.1781 16.226 28.186C16.1263 28.2008 16.0253 28.2096 15.9252 28.2212C15.6291 28.2541 15.4659 28.3838 15.4383 28.6602C15.3368 29.6795 15.4093 30.7011 15.3892 31.712C15.4645 31.7398 15.4888 31.7014 15.5127 31.6763C16.3705 30.7719 17.2774 29.9138 18.0838 28.9622C18.1783 28.851 18.2667 28.7301 18.3331 28.6014C18.4201 28.4328 18.4332 28.2698 18.1937 28.2036C18.1277 28.1855 18.0824 28.1522 18.0978 28.0726C18.1114 28.0022 18.1642 27.9957 18.2204 27.9934C18.2746 27.991 18.3293 27.9864 18.3836 27.9897C19.1539 28.0332 19.9238 28.0091 20.6942 27.9897C20.7639 27.9878 20.8345 27.9897 20.9033 28.0008C20.9533 28.0086 20.9809 28.0531 20.9809 28.1022C20.9809 28.1439 20.9514 28.1735 20.9117 28.1856C20.8747 28.1967 20.8359 28.2055 20.7975 28.2069C20.1067 28.2268 19.5665 28.5685 19.0941 29.0214C18.2498 29.8309 17.4243 30.6599 16.5847 31.4744C16.4743 31.5819 16.4841 31.649 16.5768 31.7537C17.7428 33.0684 18.906 34.3854 20.2227 35.558C20.6932 35.9766 21.2307 36.2781 21.8799 36.3383C21.9416 36.3439 22.0366 36.3351 22.0267 36.442C22.0188 36.5328 21.9449 36.5435 21.871 36.543C21.2405 36.5398 20.6095 36.5504 19.9795 36.5282C19.5005 36.5115 19.1053 36.2776 18.754 35.9683C18.001 35.3047 17.3752 34.5248 16.7133 33.7779C16.2774 33.2865 15.8607 32.7785 15.3873 32.2214L15.3868 32.2205Z" fill="#D3AF6E"/>
<path d="M48.0807 36.5435C47.6607 36.5435 47.2402 36.5444 46.8202 36.543C46.729 36.543 46.6106 36.5592 46.6087 36.4263C46.6069 36.3147 46.7271 36.329 46.7898 36.3323C47.497 36.3693 47.8071 35.9285 48.0386 35.3598C49.0017 32.992 49.9741 30.6279 50.9441 28.2629C50.9909 28.1494 51.0377 28.0327 51.1055 27.9313C51.1944 27.7984 51.3188 27.7947 51.4086 27.9253C51.4904 28.0448 51.5489 28.1818 51.6046 28.3161C52.5082 30.5006 53.4091 32.6859 54.3118 34.8708C54.4442 35.1912 54.5849 35.5075 54.7781 35.7988C54.9984 36.1304 55.2903 36.3304 55.7052 36.3216C55.7674 36.3202 55.8296 36.3295 55.8913 36.3346C55.9488 36.3392 55.9975 36.3503 55.9998 36.4249C56.0026 36.5101 55.9521 36.5291 55.8824 36.5319C55.8123 36.5347 55.7426 36.5411 55.6724 36.5407C54.9016 36.5379 54.1312 36.5342 53.3604 36.5291C53.2907 36.5291 53.2201 36.5212 53.1518 36.5087C53.0957 36.4985 53.0162 36.5175 53.0012 36.4328C52.9862 36.3462 53.0611 36.3374 53.1177 36.3175C53.2655 36.2661 53.2739 36.16 53.2262 36.0378C52.9353 35.2917 52.6411 34.5471 52.3525 33.8006C52.3118 33.695 52.2416 33.6649 52.1382 33.6653C51.344 33.6686 50.5503 33.6723 49.7561 33.6704C49.6537 33.6704 49.5971 33.7084 49.5625 33.7973C49.3113 34.4429 49.0082 35.069 48.8244 35.7386C48.7098 36.1558 48.8389 36.3128 49.2725 36.3286C49.3267 36.3304 49.3824 36.3244 49.4357 36.3332C49.4956 36.3434 49.5943 36.3128 49.5816 36.4277C49.5728 36.5087 49.5176 36.5439 49.4343 36.5421C49.1233 36.5342 48.8118 36.5277 48.5007 36.5222C48.3609 36.5198 48.221 36.5222 48.0807 36.5222V36.5435ZM50.9535 30.137C50.5887 31.1021 50.2435 32.0163 49.8969 32.9295C49.8422 33.0735 49.9226 33.08 50.0321 33.0795C50.6471 33.0767 51.2622 33.0716 51.8773 33.0804C52.0573 33.0828 52.0419 33.0138 51.9965 32.8906C51.7673 32.2696 51.5461 31.6453 51.3132 31.0257C51.2079 30.746 51.127 30.4552 50.9535 30.137Z" fill="#D3AF6E"/>
<path d="M25.3027 36.5069C24.8298 36.5444 24.3944 36.549 23.9585 36.5416C23.8724 36.5402 23.7653 36.5453 23.7672 36.4286C23.769 36.3249 23.878 36.3272 23.9496 36.3309C24.6269 36.3656 24.9543 35.9627 25.182 35.4033C26.1484 33.029 27.1231 30.658 28.0951 28.2856C28.1301 28.1999 28.1615 28.1124 28.2041 28.0309C28.2499 27.9434 28.2934 27.8415 28.4141 27.8364C28.5502 27.8304 28.5937 27.9452 28.6428 28.0374C28.7008 28.1457 28.7466 28.261 28.7934 28.375C29.698 30.5668 30.6016 32.7591 31.5067 34.9509C31.633 35.257 31.7747 35.5557 31.9627 35.8322C32.1788 36.1503 32.4674 36.3249 32.8598 36.3212C32.9295 36.3207 32.9997 36.3281 33.0694 36.3351C33.1274 36.3406 33.1802 36.3629 33.1812 36.4291C33.1821 36.4842 33.1321 36.5055 33.0872 36.5171C33.0352 36.5305 32.9805 36.5416 32.9267 36.5416C32.1096 36.5379 31.292 36.5328 30.4749 36.5259C30.4052 36.5254 30.3355 36.512 30.2663 36.5013C30.2237 36.4948 30.1657 36.5092 30.1545 36.4462C30.1423 36.3791 30.191 36.3406 30.2429 36.3281C30.458 36.2763 30.4318 36.1406 30.3724 35.9891C30.0909 35.2727 29.8074 34.5573 29.5305 33.839C29.4814 33.7116 29.4122 33.6653 29.2728 33.6663C28.502 33.6718 27.7316 33.6672 26.9608 33.6667C26.8687 33.6667 26.7751 33.6528 26.7302 33.7718C26.4791 34.4415 26.1563 35.0852 25.9791 35.7812C25.8827 36.1605 26.0123 36.3152 26.407 36.3263C26.4613 36.3277 26.5169 36.323 26.5703 36.3309C26.639 36.3411 26.7429 36.3082 26.7387 36.4323C26.7349 36.5398 26.6526 36.5453 26.5707 36.5435C26.2597 36.537 25.9482 36.5305 25.6371 36.5222C25.5127 36.5189 25.3883 36.5115 25.3018 36.5078L25.3027 36.5069ZM28.1722 30.2102C28.1465 30.2056 28.1203 30.2005 28.0946 30.1958C27.7344 31.1452 27.3748 32.0945 27.0076 33.0624H29.2256C28.8687 32.0964 28.5207 31.1531 28.1722 30.2102Z" fill="#D3AF6E"/>
<path d="M20.6418 42.1506C21.0015 41.5643 21.3471 40.9998 21.6947 40.4367C21.7335 40.3737 21.7559 40.269 21.8448 40.2778C21.9575 40.289 21.9346 40.4084 21.9496 40.483C22.0609 41.0494 22.1703 41.6157 22.27 42.1839C22.3223 42.4826 22.3757 42.7647 22.8036 42.7378C22.4673 42.7975 22.1507 42.7934 21.8336 42.7424C21.7798 42.7336 21.7933 42.6915 21.7943 42.6526C21.8013 42.1645 21.6338 41.7023 21.5918 41.2207C21.4814 41.2128 21.4711 41.299 21.4397 41.3494C21.1769 41.7676 20.921 42.19 20.6591 42.6086C20.5375 42.8031 20.5019 42.8012 20.37 42.6188C20.0496 42.1747 19.784 41.6968 19.4589 41.1781C19.3808 41.6606 19.3111 42.0867 19.2433 42.5127C19.2269 42.6169 19.2849 42.6679 19.3822 42.6901C19.4379 42.7031 19.5108 42.6753 19.5515 42.7679H18.6114C18.9837 42.6818 18.9313 42.3562 18.9856 42.0978C19.1025 41.5407 19.2063 40.9808 19.3153 40.4219C19.327 40.3621 19.3247 40.2885 19.4023 40.2755C19.4809 40.2621 19.5024 40.3371 19.5337 40.3867C19.8579 40.903 20.1806 41.4203 20.5038 41.9366C20.544 42.001 20.5866 42.064 20.6427 42.1501L20.6418 42.1506Z" fill="#D3AF6E"/>
<path d="M37.6396 42.7424C37.3257 42.8059 37.0184 42.7938 36.7116 42.7684C36.6578 42.7637 36.5961 42.7582 36.6428 42.6734C36.6779 42.6104 36.6396 42.5544 36.6101 42.5002C36.5119 42.3192 36.4894 42.0357 36.314 41.9723C36.0526 41.8778 35.7457 41.9343 35.4581 41.9501C35.3809 41.9542 35.3561 42.0093 35.328 42.0649C35.2766 42.1682 35.2191 42.2691 35.1728 42.3752C35.0582 42.6368 35.0689 42.6577 35.3304 42.7605H34.3528C34.8351 42.685 34.886 42.2427 35.0656 41.9177C35.3229 41.4522 35.554 40.9725 35.8 40.5006C35.8435 40.4168 35.8575 40.2788 35.9782 40.2857C36.0886 40.2922 36.112 40.4237 36.1569 40.5099C36.4665 41.1049 36.7738 41.7009 37.0802 42.2979C37.198 42.5271 37.343 42.7193 37.6391 42.7429L37.6396 42.7424ZM35.8711 40.9401C35.7289 41.2332 35.6073 41.4842 35.4721 41.7625C35.7064 41.7625 35.9052 41.7574 36.1035 41.7644C36.2481 41.7695 36.2317 41.7074 36.1863 41.6139C36.0867 41.4073 35.9918 41.1989 35.8711 40.9401Z" fill="#D3AF6E"/>
<path d="M23.9949 42.7656H23.0282L22.9963 42.7045C23.3818 42.7341 23.472 42.4521 23.5969 42.2089C23.8925 41.6333 24.1867 41.0568 24.4809 40.4802C24.523 40.3978 24.5576 40.2825 24.6516 40.2769C24.7386 40.2723 24.7564 40.3941 24.7934 40.464C25.0572 40.9609 25.3093 41.4638 25.5791 41.9575C25.7569 42.2821 25.842 42.7007 26.3359 42.7535C26.0076 42.804 25.6947 42.7906 25.3818 42.7753C25.3294 42.7725 25.2803 42.7522 25.3153 42.6929C25.3673 42.6049 25.3069 42.5442 25.2742 42.4803C25.1839 42.3034 25.1568 42.0371 24.9823 41.9732C24.7185 41.8774 24.4136 41.9413 24.1264 41.9445C24.0497 41.9454 24.0254 42.0075 23.9982 42.0617C23.9468 42.165 23.8967 42.2691 23.8486 42.3743C23.7653 42.557 23.8142 42.6873 23.9954 42.7651L23.9949 42.7656ZM24.9197 41.7648C24.7994 41.4851 24.6956 41.2295 24.5314 40.9618C24.4154 41.2063 24.3167 41.4203 24.2124 41.6315C24.1675 41.7222 24.1647 41.7704 24.2901 41.7667C24.4889 41.7611 24.6881 41.7653 24.9197 41.7653V41.7648Z" fill="#D3AF6E"/>
<path d="M32.0993 42.7109C32.4183 42.7234 32.4538 42.5572 32.451 42.3381C32.445 41.8538 32.4552 41.3694 32.458 40.8845C32.4596 40.6233 32.3313 40.4464 32.0731 40.3538H33.335C33.3336 40.3635 33.3318 40.3885 33.3294 40.3885C33.0348 40.395 32.9889 40.5751 32.9955 40.8211C33.0086 41.2976 33.0053 41.7746 33.0053 42.2515C33.0053 42.4521 33.0792 42.5748 33.3023 42.572C33.3795 42.5711 33.4571 42.5952 33.5338 42.5933C33.7972 42.5859 34.0722 42.5975 34.1961 42.2617C34.2906 42.6466 34.2069 42.7623 33.865 42.7674C33.3603 42.7748 32.8556 42.7818 32.3509 42.7878C32.2841 42.7887 32.2125 42.8049 32.0993 42.7109Z" fill="#D3AF6E"/>
<path d="M30.4454 40.3436H31.5586C31.2064 40.4149 31.2752 40.6877 31.2738 40.9215C31.2714 41.3596 31.263 41.7982 31.2775 42.2358C31.2934 42.7091 31.2714 42.6461 31.6704 42.7262C31.5549 42.7883 30.6634 42.8059 30.4281 42.7308C30.7424 42.7193 30.7275 42.5132 30.7279 42.3113C30.7298 41.8274 30.7363 41.343 30.7391 40.859C30.7401 40.6391 30.785 40.3894 30.4449 40.3441L30.4454 40.3436Z" fill="#D3AF6E"/>
<path d="M39.0694 41.117C39.5428 41.1165 39.8823 41.4472 39.8847 41.9107C39.887 42.3673 39.539 42.717 39.0788 42.7216C38.6152 42.7262 38.2457 42.3784 38.2443 41.9362C38.2429 41.4735 38.6017 41.1174 39.0699 41.117H39.0694ZM38.699 42.3548C38.7981 42.2381 38.7743 42.1205 38.7775 42.008C38.7813 41.8926 38.7967 41.7727 38.7715 41.663C38.7289 41.4782 38.8065 41.4374 38.9674 41.4587C39.0442 41.4689 39.1227 41.4698 39.1976 41.487C39.3547 41.5231 39.4165 41.6509 39.3356 41.7648C39.1775 41.9876 39.337 42.101 39.46 42.2265C39.5694 42.3381 39.6541 42.3219 39.7041 42.1562C39.7925 41.863 39.7041 41.5384 39.4721 41.3652C39.2345 41.1874 38.9277 41.1786 38.6896 41.343C38.4422 41.5134 38.3318 41.8445 38.437 42.145C38.5217 42.3868 38.6943 42.5516 38.9534 42.5942C39.1803 42.6317 39.3856 42.5785 39.5746 42.3701C39.4132 42.3576 39.3056 42.3256 39.2303 42.2224C39.17 42.1395 39.1148 41.9751 39.0133 42.0237C38.9001 42.0774 38.9866 42.2261 39.0133 42.333C39.0142 42.3372 39.0067 42.3432 38.9979 42.3557H38.6999L38.699 42.3548ZM38.9623 41.7315C39.0063 41.782 38.9099 41.9126 39.0675 41.9042C39.1714 41.8987 39.1826 41.8176 39.1812 41.7375C39.1798 41.6454 39.1386 41.5555 39.046 41.5509C38.9123 41.5439 38.9983 41.6643 38.9623 41.732V41.7315Z" fill="#D3AF6E"/>
</svg>
