<svg width="17" height="17" viewBox="0 0 17 17" fill="none" xmlns="http://www.w3.org/2000/svg">
<path d="M14.4394 14.3328C15.8934 12.855 16.7083 10.8649 16.7083 8.79167C16.7083 6.71846 15.8934 4.72832 14.4394 3.2505C14.4257 3.22909 14.4075 3.21091 14.3861 3.19722C14.3724 3.17581 14.3542 3.15763 14.3328 3.14394C12.855 1.6899 10.8649 0.875 8.79167 0.875C6.71846 0.875 4.72832 1.6899 3.2505 3.14394C3.22909 3.15763 3.21091 3.17581 3.19722 3.19722C3.17581 3.21091 3.15763 3.22909 3.14394 3.2505C1.6899 4.72832 0.875 6.71846 0.875 8.79167C0.875 10.8649 1.6899 12.855 3.14394 14.3328L3.19722 14.3861C3.21091 14.4075 3.22909 14.4257 3.2505 14.4394C4.72832 15.8934 6.71846 16.7083 8.79167 16.7083C10.8649 16.7083 12.855 15.8934 14.3328 14.4394C14.3542 14.4257 14.3724 14.4075 14.3861 14.3861C14.4075 14.3724 14.4257 14.3542 14.4394 14.3328ZM2.124 9.40059H3.95837C4.06797 10.2669 4.40988 11.0875 4.94787 11.7754L3.6463 13.0769C2.7761 12.0352 2.24495 10.7525 2.124 9.40059ZM3.6463 4.5064L4.94787 5.80796C4.40988 6.49582 4.06797 7.3164 3.95837 8.18275H2.124C2.24495 6.83081 2.7761 5.54809 3.6463 4.5064ZM15.4593 8.18275H13.625C13.5154 7.3164 13.1735 6.49582 12.6355 5.80796L13.937 4.5064C14.8072 5.54809 15.3384 6.83081 15.4593 8.18275ZM8.79167 12.4452C8.06907 12.4452 7.3627 12.2309 6.76188 11.8295C6.16107 11.428 5.69279 10.8574 5.41626 10.1898C5.13973 9.52221 5.06738 8.78761 5.20835 8.0789C5.34933 7.37019 5.69729 6.7192 6.20824 6.20824C6.7192 5.69729 7.37019 5.34933 8.0789 5.20835C8.78761 5.06738 9.52221 5.13973 10.1898 5.41626C10.8574 5.69279 11.428 6.16107 11.8295 6.76188C12.2309 7.3627 12.4452 8.06907 12.4452 8.79167C12.4452 9.76064 12.0603 10.6899 11.3751 11.3751C10.6899 12.0603 9.76064 12.4452 8.79167 12.4452ZM11.7754 4.94787C11.0875 4.40988 10.2669 4.06797 9.40059 3.95837V2.124C10.7525 2.24495 12.0352 2.7761 13.0769 3.6463L11.7754 4.94787ZM8.18275 3.95837C7.3164 4.06797 6.49582 4.40988 5.80796 4.94787L4.5064 3.6463C5.54809 2.7761 6.83081 2.24495 8.18275 2.124V3.95837ZM5.80796 12.6355C6.49582 13.1735 7.3164 13.5154 8.18275 13.625V15.4593C6.83081 15.3384 5.54809 14.8072 4.5064 13.937L5.80796 12.6355ZM9.40059 13.625C10.2669 13.5154 11.0875 13.1735 11.7754 12.6355L13.0769 13.937C12.0352 14.8072 10.7525 15.3384 9.40059 15.4593V13.625ZM12.6355 11.7754C13.1735 11.0875 13.5154 10.2669 13.625 9.40059H15.4593C15.3384 10.7525 14.8072 12.0352 13.937 13.0769L12.6355 11.7754Z" fill="#D3AF6E"/>
</svg>
