<svg width="1920" height="499" viewBox="0 0 1920 499" fill="none" xmlns="http://www.w3.org/2000/svg">
<path d="M1384.5 165.536L1384.5 165.518V165.5V105H1510V202.567C1510 247.577 1482.49 282.914 1445.89 307.048C1409.28 331.186 1363.74 344 1328.05 344H961H585.949C550.215 344 506.412 334.285 471.576 313.277C436.762 292.282 411 260.081 411 215.067V174.533V105H534.168V165.011C534.168 195.169 544.804 220.385 564.315 238.728C582.527 255.856 607.843 264 635.5 264H961.498H961.5L1286 264.5L1286.02 264.5L1286.05 264.499C1342.19 261.804 1382.48 221.06 1384.5 165.536Z" stroke="white" stroke-width="2" stroke-miterlimit="10"/>
<path d="M1283.65 254H637.35C612.896 254 590.817 245.834 574.858 230.636C558.908 215.445 549 193.163 549 164.785V105H1372V164.785C1372 214.071 1332.44 254 1283.65 254Z" stroke="white" stroke-width="2" stroke-miterlimit="10"/>
<path fill-rule="evenodd" clip-rule="evenodd" d="M1509 202.567C1509 247.121 1481.78 282.187 1445.34 306.214C1408.89 330.246 1363.53 343 1328.05 343H585.949C550.366 343 506.749 333.32 472.093 312.421C437.983 291.85 412.742 260.554 412.016 217H412V104H260V274.81C260 356.65 336.11 423 430 423H1480.88C1574.77 423 1660.88 356.65 1660.88 274.81V104H1509V202.567ZM1511 202.567V106H1658.88V274.81C1658.88 314.992 1637.74 351.508 1604.83 378.038C1571.93 404.568 1527.37 421 1480.88 421H430C336.948 421 262 355.296 262 274.81V106H410V215.067C410 306 514.177 345 585.949 345H1328.05C1399.82 345 1511 293.5 1511 202.567Z" fill="white"/>
<path fill-rule="evenodd" clip-rule="evenodd" d="M1658.88 274.81C1658.88 314.992 1637.74 351.508 1604.83 378.038C1571.93 404.568 1527.37 421 1480.88 421H430C336.948 421 262 355.296 262 274.81V104H0V301C0 409.798 88.22 498 197.04 498H1722.96C1831.78 498 1920 409.798 1920 301V104H1658.88L1658.88 274.81ZM1660.88 274.81V106H1918V301C1918 408.693 1830.68 496 1722.96 496H197.04C89.3242 496 2 408.693 2 301V106H260V274.81C260 356.65 336.11 423 430 423H1480.88C1574.77 423 1660.88 356.65 1660.88 274.81Z" fill="white"/>
<rect x="1353" y="1" width="566" height="92" stroke="white" stroke-width="2"/>
<path fill-rule="evenodd" clip-rule="evenodd" d="M1354 2H1446.34V22H1448.34V2V0H1446.34H1354H1352V2V22H1354V2Z" fill="white"/>
<path d="M1373.99 18.21C1373.99 18.0195 1373.96 17.8486 1373.9 17.6973C1373.85 17.541 1373.74 17.3994 1373.59 17.2725C1373.44 17.1406 1373.23 17.0112 1372.96 16.8843C1372.68 16.7573 1372.33 16.6255 1371.89 16.4888C1371.41 16.3325 1370.95 16.1567 1370.52 15.9614C1370.09 15.7661 1369.71 15.5391 1369.37 15.2803C1369.05 15.0166 1368.79 14.7114 1368.6 14.3647C1368.41 14.0181 1368.32 13.6152 1368.32 13.1562C1368.32 12.7119 1368.42 12.3091 1368.61 11.9478C1368.81 11.5815 1369.08 11.269 1369.43 11.0103C1369.78 10.7466 1370.2 10.5439 1370.68 10.4023C1371.16 10.2607 1371.69 10.1899 1372.27 10.1899C1373.05 10.1899 1373.74 10.3315 1374.32 10.6147C1374.91 10.8979 1375.36 11.2861 1375.69 11.7793C1376.01 12.2725 1376.18 12.8364 1376.18 13.4712H1374C1374 13.1587 1373.93 12.8853 1373.8 12.6509C1373.67 12.4116 1373.48 12.2236 1373.21 12.0869C1372.95 11.9502 1372.63 11.8818 1372.23 11.8818C1371.85 11.8818 1371.53 11.9404 1371.28 12.0576C1371.02 12.1699 1370.83 12.3237 1370.71 12.519C1370.58 12.7095 1370.52 12.9243 1370.52 13.1636C1370.52 13.3442 1370.56 13.5078 1370.65 13.6543C1370.74 13.8008 1370.88 13.9375 1371.06 14.0645C1371.24 14.1914 1371.46 14.311 1371.72 14.4233C1371.99 14.5356 1372.29 14.6455 1372.64 14.7529C1373.22 14.9287 1373.73 15.1265 1374.17 15.3462C1374.62 15.5659 1374.99 15.8125 1375.28 16.0859C1375.58 16.3594 1375.81 16.6694 1375.96 17.0161C1376.11 17.3628 1376.19 17.7559 1376.19 18.1953C1376.19 18.6592 1376.09 19.0742 1375.91 19.4404C1375.73 19.8066 1375.47 20.1167 1375.13 20.3706C1374.79 20.6245 1374.38 20.8174 1373.91 20.9492C1373.43 21.0811 1372.9 21.147 1372.32 21.147C1371.79 21.147 1371.27 21.0786 1370.76 20.9419C1370.25 20.8003 1369.78 20.5879 1369.36 20.3047C1368.94 20.0215 1368.61 19.6602 1368.36 19.2207C1368.11 18.7812 1367.99 18.2612 1367.99 17.6606H1370.19C1370.19 17.9927 1370.25 18.2734 1370.35 18.5029C1370.45 18.7324 1370.59 18.918 1370.78 19.0596C1370.97 19.2012 1371.19 19.3037 1371.45 19.3672C1371.72 19.4307 1372.01 19.4624 1372.32 19.4624C1372.7 19.4624 1373.01 19.4087 1373.26 19.3013C1373.5 19.1938 1373.69 19.0449 1373.8 18.8545C1373.93 18.6641 1373.99 18.4492 1373.99 18.21ZM1380.02 10.3364V21.0005H1377.83V10.3364H1380.02ZM1385.35 21.0005H1383.03L1383.04 19.2866H1385.35C1385.92 19.2866 1386.41 19.1572 1386.81 18.8984C1387.2 18.6348 1387.5 18.2515 1387.7 17.7485C1387.9 17.2456 1388.01 16.6377 1388.01 15.9248V15.4048C1388.01 14.8579 1387.95 14.377 1387.83 13.9619C1387.72 13.5469 1387.55 13.1978 1387.33 12.9146C1387.1 12.6313 1386.82 12.4189 1386.5 12.2773C1386.17 12.1309 1385.79 12.0576 1385.37 12.0576H1382.98V10.3364H1385.37C1386.08 10.3364 1386.73 10.4585 1387.33 10.7026C1387.92 10.9419 1388.44 11.2861 1388.87 11.7354C1389.31 12.1846 1389.64 12.7217 1389.87 13.3467C1390.11 13.9668 1390.23 14.6577 1390.23 15.4194V15.9248C1390.23 16.6816 1390.11 17.3726 1389.87 17.9976C1389.64 18.6226 1389.31 19.1597 1388.87 19.6089C1388.44 20.0532 1387.93 20.3975 1387.33 20.6416C1386.73 20.8809 1386.07 21.0005 1385.35 21.0005ZM1384.27 10.3364V21.0005H1382.07V10.3364H1384.27ZM1398.99 19.2866V21.0005H1393.31V19.2866H1398.99ZM1394.03 10.3364V21.0005H1391.83V10.3364H1394.03ZM1398.25 14.6797V16.3496H1393.31V14.6797H1398.25ZM1398.98 10.3364V12.0576H1393.31V10.3364H1398.98ZM1408.18 16.3203H1405.44L1405.42 14.8115H1407.72C1408.13 14.8115 1408.46 14.7603 1408.72 14.6577C1408.98 14.5503 1409.17 14.3965 1409.3 14.1963C1409.43 13.9912 1409.5 13.7422 1409.5 13.4492C1409.5 13.1172 1409.43 12.8486 1409.31 12.6436C1409.18 12.4385 1408.99 12.2896 1408.73 12.1968C1408.47 12.104 1408.13 12.0576 1407.72 12.0576H1406.2V21.0005H1404V10.3364L1407.72 10.3364C1408.34 10.3364 1408.9 10.395 1409.39 10.5122C1409.88 10.6294 1410.3 10.8076 1410.64 11.0469C1410.98 11.2861 1411.24 11.5889 1411.42 11.9551C1411.6 12.3164 1411.69 12.7461 1411.69 13.2441C1411.69 13.6836 1411.59 14.0889 1411.39 14.46C1411.2 14.8311 1410.89 15.1338 1410.46 15.3682C1410.04 15.6025 1409.49 15.7319 1408.81 15.7563L1408.18 16.3203ZM1408.08 21.0005H1404.84L1405.69 19.2866H1408.08C1408.47 19.2866 1408.78 19.2256 1409.03 19.1035C1409.27 18.9766 1409.45 18.8057 1409.57 18.5908C1409.69 18.376 1409.74 18.1294 1409.74 17.8511C1409.74 17.5386 1409.69 17.2676 1409.58 17.0381C1409.48 16.8086 1409.31 16.6328 1409.09 16.5107C1408.86 16.3838 1408.55 16.3203 1408.18 16.3203H1406.06L1406.08 14.8115H1408.71L1409.22 15.4048C1409.87 15.395 1410.39 15.5098 1410.78 15.749C1411.19 15.9834 1411.48 16.2886 1411.66 16.6646C1411.84 17.0405 1411.93 17.4434 1411.93 17.873C1411.93 18.5566 1411.79 19.1328 1411.49 19.6016C1411.19 20.0654 1410.75 20.4146 1410.18 20.6489C1409.61 20.8833 1408.91 21.0005 1408.08 21.0005ZM1420.74 19.2866V21.0005H1415.06V19.2866H1420.74ZM1415.78 10.3364V21.0005H1413.58V10.3364H1415.78ZM1420 14.6797V16.3496H1415.06V14.6797H1420ZM1420.73 10.3364V12.0576H1415.06V10.3364H1420.73ZM1426.93 10.3364V21.0005H1424.74V10.3364H1426.93ZM1430.22 10.3364V12.0576H1421.51V10.3364H1430.22Z" fill="white"/>
<path fill-rule="evenodd" clip-rule="evenodd" d="M1448.34 2H1540.68V22H1542.68V2V0H1540.68H1448.34H1446.34V2V22H1448.34V2Z" fill="white"/>
<path d="M1495.44 10.2266H1495.75V11.9111H1495.62C1495.07 11.9111 1494.57 11.9941 1494.14 12.1602C1493.7 12.3262 1493.33 12.563 1493.03 12.8706C1492.73 13.1733 1492.5 13.5396 1492.34 13.9692C1492.19 14.3989 1492.11 14.8799 1492.11 15.4121V17.1846C1492.11 17.5654 1492.15 17.9023 1492.22 18.1953C1492.3 18.4834 1492.41 18.7251 1492.55 18.9204C1492.69 19.1108 1492.87 19.2549 1493.06 19.3525C1493.26 19.4453 1493.48 19.4917 1493.72 19.4917C1493.95 19.4917 1494.16 19.4429 1494.34 19.3452C1494.53 19.2476 1494.69 19.1108 1494.83 18.9351C1494.96 18.7544 1495.06 18.5444 1495.13 18.3052C1495.21 18.061 1495.24 17.7949 1495.24 17.5068C1495.24 17.2188 1495.21 16.9526 1495.13 16.7085C1495.06 16.4644 1494.96 16.2544 1494.83 16.0786C1494.69 15.8979 1494.52 15.7588 1494.33 15.6611C1494.13 15.5635 1493.91 15.5146 1493.67 15.5146C1493.34 15.5146 1493.04 15.5928 1492.79 15.749C1492.54 15.9004 1492.35 16.0957 1492.2 16.335C1492.06 16.5742 1491.99 16.8257 1491.98 17.0894L1491.34 16.6792C1491.35 16.3032 1491.43 15.9468 1491.57 15.6099C1491.72 15.2729 1491.92 14.9751 1492.17 14.7163C1492.43 14.4526 1492.74 14.2476 1493.1 14.1011C1493.47 13.9497 1493.87 13.874 1494.33 13.874C1494.83 13.874 1495.26 13.9692 1495.64 14.1597C1496.02 14.3501 1496.34 14.6113 1496.59 14.9434C1496.84 15.2754 1497.04 15.6587 1497.16 16.0933C1497.29 16.5278 1497.35 16.9917 1497.35 17.4849C1497.35 18.0024 1497.27 18.4834 1497.1 18.9277C1496.93 19.3721 1496.69 19.7603 1496.37 20.0923C1496.06 20.4243 1495.68 20.6831 1495.24 20.8687C1494.8 21.0542 1494.31 21.147 1493.76 21.147C1493.2 21.147 1492.68 21.0444 1492.22 20.8394C1491.76 20.6294 1491.36 20.3364 1491.03 19.9604C1490.7 19.5845 1490.44 19.1377 1490.26 18.6201C1490.09 18.1025 1490 17.5361 1490 16.9209V16.1006C1490 15.2412 1490.12 14.4551 1490.37 13.7422C1490.63 13.0244 1490.99 12.4043 1491.46 11.8818C1491.94 11.3545 1492.51 10.9468 1493.18 10.6587C1493.85 10.3706 1494.6 10.2266 1495.44 10.2266Z" fill="white"/>
<path fill-rule="evenodd" clip-rule="evenodd" d="M1542.68 2H1635.02V22H1637.02V2V0H1635.02H1542.68H1540.68V2V22H1542.68V2Z" fill="white"/>
<path d="M1586.91 16.1445L1585.23 15.7417L1585.83 10.3364H1591.83V12.043H1587.57L1587.31 14.4087C1587.45 14.3257 1587.66 14.2378 1587.95 14.145C1588.24 14.0474 1588.56 13.9985 1588.92 13.9985C1589.44 13.9985 1589.89 14.0791 1590.29 14.2402C1590.69 14.4014 1591.03 14.6357 1591.31 14.9434C1591.6 15.251 1591.81 15.627 1591.96 16.0713C1592.1 16.5156 1592.18 17.0186 1592.18 17.5801C1592.18 18.0537 1592.1 18.5054 1591.96 18.9351C1591.81 19.3599 1591.59 19.7407 1591.29 20.0776C1590.99 20.4097 1590.62 20.6709 1590.17 20.8613C1589.72 21.0518 1589.19 21.147 1588.57 21.147C1588.11 21.147 1587.67 21.0786 1587.24 20.9419C1586.82 20.8052 1586.43 20.6025 1586.09 20.334C1585.75 20.0654 1585.48 19.7407 1585.28 19.3599C1585.08 18.9741 1584.97 18.5347 1584.96 18.0415H1587.06C1587.09 18.3442 1587.16 18.6055 1587.29 18.8252C1587.42 19.04 1587.6 19.2061 1587.81 19.3232C1588.03 19.4404 1588.28 19.499 1588.57 19.499C1588.83 19.499 1589.06 19.4478 1589.25 19.3452C1589.44 19.2427 1589.6 19.1011 1589.72 18.9204C1589.83 18.7349 1589.92 18.52 1589.97 18.2759C1590.03 18.0269 1590.06 17.7583 1590.06 17.4702C1590.06 17.1821 1590.03 16.9209 1589.96 16.6865C1589.89 16.4521 1589.78 16.2495 1589.64 16.0786C1589.5 15.9077 1589.32 15.7759 1589.1 15.6831C1588.89 15.5903 1588.63 15.5439 1588.35 15.5439C1587.96 15.5439 1587.65 15.605 1587.44 15.7271C1587.23 15.8491 1587.05 15.9883 1586.91 16.1445Z" fill="white"/>
<path fill-rule="evenodd" clip-rule="evenodd" d="M1637.02 2H1729.36V22H1731.36V2V0H1729.36H1637.02H1635.02V2V22H1637.02V2Z" fill="white"/>
<path d="M1681.09 14.7529H1682.21C1682.58 14.7529 1682.87 14.6919 1683.11 14.5698C1683.34 14.4429 1683.52 14.2671 1683.63 14.0425C1683.75 13.813 1683.8 13.5469 1683.8 13.2441C1683.8 12.9707 1683.75 12.729 1683.64 12.519C1683.54 12.3042 1683.38 12.1382 1683.17 12.021C1682.95 11.8989 1682.68 11.8379 1682.35 11.8379C1682.09 11.8379 1681.86 11.8892 1681.64 11.9917C1681.42 12.0942 1681.24 12.2383 1681.11 12.4238C1680.98 12.6094 1680.91 12.834 1680.91 13.0977H1678.79C1678.79 12.5117 1678.95 12.0015 1679.26 11.5669C1679.58 11.1323 1680 10.793 1680.54 10.5488C1681.07 10.3047 1681.66 10.1826 1682.29 10.1826C1683.02 10.1826 1683.65 10.2998 1684.19 10.5342C1684.73 10.7637 1685.16 11.103 1685.46 11.5522C1685.76 12.0015 1685.91 12.5581 1685.91 13.2222C1685.91 13.5591 1685.83 13.8862 1685.68 14.2036C1685.52 14.5161 1685.3 14.7993 1685 15.0532C1684.72 15.3022 1684.37 15.5024 1683.95 15.6538C1683.54 15.8003 1683.07 15.8735 1682.55 15.8735H1681.09V14.7529ZM1681.09 16.3569V15.2656H1682.55C1683.13 15.2656 1683.64 15.3315 1684.08 15.4634C1684.52 15.5952 1684.89 15.7856 1685.19 16.0347C1685.49 16.2788 1685.71 16.5693 1685.86 16.9062C1686.01 17.2383 1686.09 17.6069 1686.09 18.0122C1686.09 18.5103 1685.99 18.9546 1685.8 19.3452C1685.61 19.731 1685.34 20.0581 1685 20.3267C1684.66 20.5952 1684.26 20.8003 1683.8 20.9419C1683.34 21.0786 1682.84 21.147 1682.29 21.147C1681.85 21.147 1681.4 21.0859 1680.97 20.9639C1680.54 20.8369 1680.15 20.6489 1679.8 20.3999C1679.45 20.146 1679.17 19.8286 1678.96 19.4478C1678.76 19.062 1678.65 18.6055 1678.65 18.0781H1680.77C1680.77 18.3516 1680.84 18.5957 1680.98 18.8105C1681.11 19.0254 1681.3 19.1938 1681.54 19.3159C1681.78 19.438 1682.06 19.499 1682.35 19.499C1682.69 19.499 1682.98 19.438 1683.22 19.3159C1683.46 19.189 1683.65 19.0132 1683.77 18.7886C1683.91 18.5591 1683.97 18.293 1683.97 17.9902C1683.97 17.5996 1683.9 17.2871 1683.76 17.0527C1683.62 16.8135 1683.42 16.6377 1683.15 16.5254C1682.89 16.4131 1682.58 16.3569 1682.21 16.3569H1681.09Z" fill="white"/>
<path fill-rule="evenodd" clip-rule="evenodd" d="M1731.36 2H1823.7V22H1825.7V2V0H1823.7H1731.36H1729.36V2V22H1731.36V2Z" fill="white"/>
<path d="M1781.22 19.3525V21.0005H1773.93V19.5942L1777.38 15.8955C1777.72 15.5098 1778 15.1704 1778.2 14.8774C1778.4 14.5796 1778.54 14.3135 1778.63 14.0791C1778.72 13.8398 1778.77 13.6128 1778.77 13.3979C1778.77 13.0757 1778.71 12.7998 1778.61 12.5703C1778.5 12.3359 1778.34 12.1553 1778.13 12.0283C1777.92 11.9014 1777.67 11.8379 1777.37 11.8379C1777.05 11.8379 1776.77 11.916 1776.53 12.0723C1776.3 12.2285 1776.13 12.4458 1776.01 12.7241C1775.89 13.0024 1775.83 13.3174 1775.83 13.6689H1773.71C1773.71 13.0342 1773.86 12.4531 1774.17 11.9258C1774.47 11.3936 1774.9 10.9712 1775.45 10.6587C1776 10.3413 1776.66 10.1826 1777.41 10.1826C1778.16 10.1826 1778.79 10.3047 1779.3 10.5488C1779.82 10.7881 1780.21 11.1348 1780.47 11.5889C1780.74 12.0381 1780.88 12.5752 1780.88 13.2002C1780.88 13.5518 1780.82 13.896 1780.71 14.2329C1780.6 14.5649 1780.43 14.897 1780.22 15.229C1780.02 15.5562 1779.77 15.8882 1779.48 16.2251C1779.18 16.562 1778.86 16.9111 1778.5 17.2725L1776.65 19.3525H1781.22Z" fill="white"/>
<path fill-rule="evenodd" clip-rule="evenodd" d="M1825.7 2H1918V22H1920V2V0H1918H1825.7H1823.7V2V22H1825.7V2Z" fill="white"/>
<path d="M1874.19 10.3145V21.0005H1872.08V12.7461L1869.54 13.5518V11.8892L1873.96 10.3145H1874.19Z" fill="white"/>
<path d="M1549.6 43.608V38.296H1552.29V43.608H1555.23V46.264H1552.29V61.144C1552.29 63.3413 1551.17 64.44 1548.93 64.44H1544.61L1544.06 61.784C1544.72 61.848 1545.38 61.9013 1546.05 61.944C1546.71 61.9653 1547.35 61.976 1547.97 61.976C1549.05 61.976 1549.6 61.4747 1549.6 60.472V46.264H1541.63V43.608H1549.6ZM1531.81 45.656C1533.45 47.448 1535.01 49.2507 1536.48 51.064C1537.37 48.76 1537.89 46.264 1538.01 43.576H1530.46V40.984H1540.45V42.968C1540.38 46.744 1539.62 50.2 1538.17 53.336C1538.75 54.0827 1539.28 54.8187 1539.77 55.544C1540.26 56.2693 1540.74 56.9947 1541.21 57.72L1539.2 59.672C1538.88 59.0533 1538.51 58.4347 1538.11 57.816C1537.7 57.1973 1537.28 56.568 1536.83 55.928C1536.06 57.1653 1535.17 58.3493 1534.14 59.48C1533.12 60.6107 1531.99 61.72 1530.75 62.808L1529.21 60.408C1530.51 59.4693 1531.66 58.4453 1532.64 57.336C1533.62 56.2053 1534.48 54.9893 1535.23 53.688C1533.69 51.6187 1531.94 49.5173 1529.98 47.384L1531.81 45.656ZM1543.55 49.112C1545.38 51.3947 1546.8 53.4213 1547.81 55.192L1545.66 56.664C1544.59 54.8293 1543.21 52.8027 1541.5 50.584L1543.55 49.112ZM1569.94 50.2V46.616C1571.05 45.9333 1572.14 45.2187 1573.2 44.472C1574.29 43.7253 1575.35 42.8827 1576.37 41.944H1561.2V39.416H1579.99V41.944C1577.9 44.0347 1575.43 46.0293 1572.6 47.928V50.2H1583.16V52.856H1572.6V61.528C1572.6 63.384 1571.67 64.312 1569.81 64.312H1564.88L1564.12 61.72C1564.82 61.7627 1565.56 61.784 1566.32 61.784C1567.11 61.784 1567.93 61.784 1568.79 61.784C1569.56 61.784 1569.94 61.4213 1569.94 60.696V52.856H1558.2V50.2H1569.94Z" fill="#CB5460"/>
<circle cx="1611.81" cy="52" r="16" fill="#CB5460"/>
<path d="M1612.63 51.662V47.878H1614.5V51.662H1619.56V53.444H1614.5V58.57H1620.5V60.352H1606.53V58.57H1612.63V53.444H1607.7V51.662H1612.63ZM1612.6 42.972C1612.75 43.2947 1612.9 43.6393 1613.07 44.006C1613.23 44.358 1613.37 44.7247 1613.51 45.106H1620.5V46.888H1606.2V51.024C1606.11 55.2333 1605.48 58.5847 1604.29 61.078L1602.73 59.692C1603.77 57.5947 1604.3 54.7053 1604.31 51.024V45.106H1611.5C1611.36 44.798 1611.2 44.4973 1611.04 44.204C1610.88 43.896 1610.71 43.5953 1610.54 43.302L1612.6 42.972Z" fill="white"/>
<path d="M1649.05 52.7188H1643.25L1643.22 49.8594H1648.28C1649.14 49.8594 1649.86 49.7344 1650.45 49.4844C1651.06 49.224 1651.52 48.8542 1651.83 48.375C1652.14 47.8854 1652.3 47.2969 1652.3 46.6094C1652.3 45.849 1652.15 45.2292 1651.86 44.75C1651.57 44.2708 1651.12 43.9219 1650.52 43.7031C1649.92 43.4844 1649.16 43.375 1648.23 43.375H1644.44V63H1640.52V40.25H1648.23C1649.48 40.25 1650.6 40.3698 1651.58 40.6094C1652.57 40.849 1653.41 41.224 1654.09 41.7344C1654.79 42.2344 1655.32 42.8698 1655.67 43.6406C1656.04 44.4115 1656.22 45.3281 1656.22 46.3906C1656.22 47.3281 1655.99 48.1875 1655.55 48.9688C1655.1 49.7396 1654.44 50.3698 1653.56 50.8594C1652.69 51.349 1651.6 51.6406 1650.3 51.7344L1649.05 52.7188ZM1648.88 63H1642.02L1643.78 59.8906H1648.88C1649.76 59.8906 1650.5 59.7448 1651.09 59.4531C1651.69 59.151 1652.13 58.7396 1652.42 58.2188C1652.72 57.6875 1652.88 57.0677 1652.88 56.3594C1652.88 55.6198 1652.74 54.9792 1652.48 54.4375C1652.22 53.8854 1651.81 53.4635 1651.25 53.1719C1650.69 52.8698 1649.95 52.7188 1649.05 52.7188H1644.64L1644.67 49.8594H1650.41L1651.3 50.9375C1652.55 50.9792 1653.57 51.2552 1654.38 51.7656C1655.19 52.276 1655.79 52.9375 1656.19 53.75C1656.58 54.5625 1656.78 55.4375 1656.78 56.375C1656.78 57.8229 1656.46 59.0365 1655.83 60.0156C1655.2 60.9948 1654.3 61.7396 1653.12 62.25C1651.95 62.75 1650.53 63 1648.88 63ZM1660.52 61.125C1660.52 60.5417 1660.71 60.0521 1661.11 59.6562C1661.51 59.25 1662.04 59.0469 1662.72 59.0469C1663.41 59.0469 1663.94 59.25 1664.33 59.6562C1664.72 60.0521 1664.92 60.5417 1664.92 61.125C1664.92 61.7083 1664.72 62.1979 1664.33 62.5938C1663.94 62.9896 1663.41 63.1875 1662.72 63.1875C1662.04 63.1875 1661.51 62.9896 1661.11 62.5938C1660.71 62.1979 1660.52 61.7083 1660.52 61.125ZM1686.25 54.5156H1680.33V51.4062H1686.25C1687.28 51.4062 1688.11 51.2396 1688.75 50.9062C1689.39 50.5729 1689.85 50.1146 1690.14 49.5312C1690.44 48.9375 1690.59 48.2604 1690.59 47.5C1690.59 46.7812 1690.44 46.1094 1690.14 45.4844C1689.85 44.849 1689.39 44.3385 1688.75 43.9531C1688.11 43.5677 1687.28 43.375 1686.25 43.375H1681.53V63H1677.61V40.25H1686.25C1688.01 40.25 1689.51 40.5625 1690.73 41.1875C1691.97 41.8021 1692.92 42.6562 1693.56 43.75C1694.21 44.8333 1694.53 46.0729 1694.53 47.4688C1694.53 48.9375 1694.21 50.1979 1693.56 51.25C1692.92 52.3021 1691.97 53.1094 1690.73 53.6719C1689.51 54.2344 1688.01 54.5156 1686.25 54.5156ZM1704.53 43.2812L1697.73 63H1693.62L1702.19 40.25H1704.81L1704.53 43.2812ZM1710.22 63L1703.41 43.2812L1703.11 40.25H1705.75L1714.34 63H1710.22ZM1709.89 54.5625V57.6719H1697.52V54.5625H1709.89ZM1721.08 40.25V63H1717.16V40.25H1721.08ZM1725.95 40.25H1734C1735.73 40.25 1737.2 40.5104 1738.42 41.0312C1739.64 41.5521 1740.57 42.3229 1741.22 43.3438C1741.88 44.3542 1742.2 45.6042 1742.2 47.0938C1742.2 48.2292 1741.99 49.2292 1741.58 50.0938C1741.16 50.9583 1740.57 51.6875 1739.81 52.2812C1739.05 52.8646 1738.15 53.3177 1737.09 53.6406L1735.91 54.2188H1728.67L1728.64 51.1094H1734.06C1735 51.1094 1735.78 50.9427 1736.41 50.6094C1737.03 50.276 1737.5 49.8229 1737.81 49.25C1738.14 48.6667 1738.3 48.0104 1738.3 47.2812C1738.3 46.4896 1738.14 45.8021 1737.83 45.2188C1737.53 44.625 1737.06 44.1719 1736.42 43.8594C1735.79 43.5365 1734.98 43.375 1734 43.375H1729.88V63H1725.95V40.25ZM1738.94 63L1733.59 52.7812L1737.7 52.7656L1743.12 62.7969V63H1738.94Z" fill="#CB5460"/>
<rect x="1" y="1" width="566" height="92" stroke="white" stroke-width="2"/>
<path fill-rule="evenodd" clip-rule="evenodd" d="M2 2H94.3392V22H96.3392V2V0H94.3392H2H0V2V22H2V2Z" fill="white"/>
<path d="M21.9878 18.2095C21.9878 18.019 21.9585 17.8481 21.8999 17.6968C21.8462 17.5405 21.7437 17.3989 21.5923 17.272C21.4409 17.1401 21.2285 17.0107 20.9551 16.8838C20.6816 16.7568 20.3276 16.625 19.8931 16.4883C19.4097 16.332 18.9507 16.1562 18.5161 15.9609C18.0864 15.7656 17.7056 15.5386 17.3735 15.2798C17.0464 15.0161 16.7876 14.7109 16.5972 14.3643C16.4116 14.0176 16.3188 13.6147 16.3188 13.1558C16.3188 12.7114 16.4165 12.3086 16.6118 11.9473C16.8071 11.5811 17.0806 11.2686 17.4321 11.0098C17.7837 10.7461 18.1987 10.5435 18.6772 10.4019C19.1606 10.2603 19.6904 10.1895 20.2666 10.1895C21.0527 10.1895 21.7388 10.3311 22.3247 10.6143C22.9106 10.8975 23.3647 11.2856 23.687 11.7788C24.0142 12.272 24.1777 12.8359 24.1777 13.4707H21.9951C21.9951 13.1582 21.9292 12.8848 21.7974 12.6504C21.6704 12.4111 21.4751 12.2231 21.2114 12.0864C20.9526 11.9497 20.6255 11.8813 20.23 11.8813C19.8491 11.8813 19.5317 11.9399 19.2778 12.0571C19.0239 12.1694 18.8335 12.3232 18.7065 12.5186C18.5796 12.709 18.5161 12.9238 18.5161 13.1631C18.5161 13.3438 18.5601 13.5073 18.6479 13.6538C18.7407 13.8003 18.8774 13.937 19.0581 14.064C19.2388 14.1909 19.4609 14.3105 19.7246 14.4229C19.9883 14.5352 20.2935 14.645 20.6401 14.7524C21.2212 14.9282 21.7314 15.126 22.1709 15.3457C22.6152 15.5654 22.9863 15.812 23.2842 16.0854C23.582 16.3589 23.8066 16.6689 23.958 17.0156C24.1094 17.3623 24.1851 17.7554 24.1851 18.1948C24.1851 18.6587 24.0947 19.0737 23.9141 19.4399C23.7334 19.8062 23.4722 20.1162 23.1304 20.3701C22.7886 20.624 22.3809 20.8169 21.9072 20.9487C21.4336 21.0806 20.9038 21.1465 20.3179 21.1465C19.7905 21.1465 19.2705 21.0781 18.7578 20.9414C18.2451 20.7998 17.7788 20.5874 17.3589 20.3042C16.9438 20.021 16.6118 19.6597 16.3628 19.2202C16.1138 18.7808 15.9893 18.2607 15.9893 17.6602H18.1938C18.1938 17.9922 18.2451 18.2729 18.3477 18.5024C18.4502 18.7319 18.5942 18.9175 18.7798 19.0591C18.9702 19.2007 19.1948 19.3032 19.4536 19.3667C19.7173 19.4302 20.0054 19.4619 20.3179 19.4619C20.6987 19.4619 21.0112 19.4082 21.2554 19.3008C21.5044 19.1934 21.6875 19.0444 21.8047 18.854C21.9268 18.6636 21.9878 18.4487 21.9878 18.2095ZM28.0156 10.3359V21H25.8257V10.3359H28.0156ZM33.3477 21H31.0259L31.0405 19.2861H33.3477C33.9238 19.2861 34.4097 19.1567 34.8052 18.8979C35.2007 18.6343 35.4985 18.251 35.6987 17.748C35.9038 17.2451 36.0063 16.6372 36.0063 15.9243V15.4043C36.0063 14.8574 35.9478 14.3765 35.8306 13.9614C35.7183 13.5464 35.5498 13.1973 35.3252 12.9141C35.1006 12.6309 34.8247 12.4185 34.4976 12.2769C34.1704 12.1304 33.7944 12.0571 33.3696 12.0571H30.9819V10.3359H33.3696C34.0825 10.3359 34.7344 10.458 35.3252 10.7021C35.9209 10.9414 36.436 11.2856 36.8706 11.7349C37.3052 12.1841 37.6396 12.7212 37.874 13.3462C38.1133 13.9663 38.2329 14.6572 38.2329 15.4189V15.9243C38.2329 16.6812 38.1133 17.3721 37.874 17.9971C37.6396 18.6221 37.3052 19.1592 36.8706 19.6084C36.4409 20.0527 35.9258 20.397 35.3252 20.6411C34.7295 20.8804 34.0703 21 33.3477 21ZM32.271 10.3359V21H30.0737V10.3359H32.271ZM46.9854 19.2861V21H41.3091V19.2861H46.9854ZM42.0269 10.3359V21H39.8296V10.3359H42.0269ZM46.2456 14.6792V16.3491H41.3091V14.6792H46.2456ZM46.978 10.3359V12.0571H41.3091V10.3359H46.978ZM56.1772 16.3198H53.438L53.4233 14.811H55.7231C56.1284 14.811 56.4604 14.7598 56.7192 14.6572C56.978 14.5498 57.1709 14.396 57.2979 14.1958C57.4297 13.9907 57.4956 13.7417 57.4956 13.4487C57.4956 13.1167 57.4321 12.8481 57.3052 12.6431C57.1831 12.438 56.9902 12.2891 56.7266 12.1963C56.4678 12.1035 56.1333 12.0571 55.7231 12.0571H54.1997V21H52.0024V10.3359L55.7231 10.3359C56.3433 10.3359 56.8975 10.3945 57.3857 10.5117C57.8789 10.6289 58.2964 10.8071 58.6382 11.0464C58.98 11.2856 59.2412 11.5884 59.4219 11.9546C59.6025 12.3159 59.6929 12.7456 59.6929 13.2437C59.6929 13.6831 59.5928 14.0884 59.3926 14.4595C59.1973 14.8306 58.8872 15.1333 58.4624 15.3677C58.0425 15.6021 57.4932 15.7314 56.8145 15.7559L56.1772 16.3198ZM56.082 21H52.8374L53.6943 19.2861H56.082C56.4678 19.2861 56.7827 19.2251 57.0269 19.103C57.271 18.9761 57.4517 18.8052 57.5688 18.5903C57.686 18.3755 57.7446 18.1289 57.7446 17.8506C57.7446 17.5381 57.6909 17.2671 57.5835 17.0376C57.481 16.8081 57.3149 16.6323 57.0854 16.5103C56.856 16.3833 56.5532 16.3198 56.1772 16.3198H54.0605L54.0752 14.811H56.7119L57.2173 15.4043C57.8667 15.3945 58.3892 15.5093 58.7847 15.7485C59.1851 15.9829 59.4756 16.2881 59.6562 16.6641C59.8418 17.04 59.9346 17.4429 59.9346 17.8726C59.9346 18.5562 59.7856 19.1323 59.4878 19.6011C59.1899 20.0649 58.7529 20.4141 58.1768 20.6484C57.6055 20.8828 56.9072 21 56.082 21ZM68.7383 19.2861V21H63.062V19.2861H68.7383ZM63.7798 10.3359V21H61.5825V10.3359H63.7798ZM67.9985 14.6792V16.3491H63.062V14.6792H67.9985ZM68.731 10.3359V12.0571H63.062V10.3359H68.731ZM74.9346 10.3359V21H72.7446V10.3359H74.9346ZM78.2158 10.3359V12.0571H69.5146V10.3359H78.2158Z" fill="white"/>
<path fill-rule="evenodd" clip-rule="evenodd" d="M96.3394 2H188.679V22H190.679V2V0H188.679H96.3394H94.3394V2V22H96.3394V2Z" fill="white"/>
<path d="M143.441 10.2266H143.749V11.9111H143.624C143.067 11.9111 142.572 11.9941 142.137 12.1602C141.703 12.3262 141.334 12.563 141.031 12.8706C140.733 13.1733 140.504 13.5396 140.343 13.9692C140.187 14.3989 140.108 14.8799 140.108 15.4121V17.1846C140.108 17.5654 140.145 17.9023 140.218 18.1953C140.296 18.4834 140.406 18.7251 140.548 18.9204C140.694 19.1108 140.865 19.2549 141.061 19.3525C141.256 19.4453 141.476 19.4917 141.72 19.4917C141.949 19.4917 142.157 19.4429 142.342 19.3452C142.533 19.2476 142.694 19.1108 142.826 18.9351C142.962 18.7544 143.065 18.5444 143.133 18.3052C143.207 18.061 143.243 17.7949 143.243 17.5068C143.243 17.2188 143.207 16.9526 143.133 16.7085C143.065 16.4644 142.962 16.2544 142.826 16.0786C142.689 15.8979 142.523 15.7588 142.328 15.6611C142.132 15.5635 141.913 15.5146 141.668 15.5146C141.336 15.5146 141.043 15.5928 140.79 15.749C140.541 15.9004 140.345 16.0957 140.204 16.335C140.062 16.5742 139.986 16.8257 139.977 17.0894L139.339 16.6792C139.354 16.3032 139.432 15.9468 139.574 15.6099C139.72 15.2729 139.92 14.9751 140.174 14.7163C140.433 14.4526 140.743 14.2476 141.104 14.1011C141.466 13.9497 141.874 13.874 142.328 13.874C142.826 13.874 143.263 13.9692 143.639 14.1597C144.02 14.3501 144.337 14.6113 144.591 14.9434C144.845 15.2754 145.035 15.6587 145.162 16.0933C145.289 16.5278 145.353 16.9917 145.353 17.4849C145.353 18.0024 145.267 18.4834 145.096 18.9277C144.93 19.3721 144.688 19.7603 144.371 20.0923C144.059 20.4243 143.683 20.6831 143.243 20.8687C142.804 21.0542 142.311 21.147 141.764 21.147C141.197 21.147 140.682 21.0444 140.218 20.8394C139.759 20.6294 139.364 20.3364 139.032 19.9604C138.7 19.5845 138.443 19.1377 138.263 18.6201C138.087 18.1025 137.999 17.5361 137.999 16.9209V16.1006C137.999 15.2412 138.124 14.4551 138.373 13.7422C138.626 13.0244 138.99 12.4043 139.464 11.8818C139.938 11.3545 140.509 10.9468 141.178 10.6587C141.847 10.3706 142.601 10.2266 143.441 10.2266Z" fill="white"/>
<path fill-rule="evenodd" clip-rule="evenodd" d="M190.678 2H283.017V22H285.017V2V0H283.017H190.678H188.678V2V22H190.678V2Z" fill="white"/>
<path d="M234.911 16.1445L233.226 15.7417L233.834 10.3364H239.825V12.043H235.57L235.306 14.4087C235.448 14.3257 235.663 14.2378 235.951 14.145C236.239 14.0474 236.561 13.9985 236.917 13.9985C237.435 13.9985 237.894 14.0791 238.294 14.2402C238.695 14.4014 239.034 14.6357 239.312 14.9434C239.596 15.251 239.811 15.627 239.957 16.0713C240.104 16.5156 240.177 17.0186 240.177 17.5801C240.177 18.0537 240.104 18.5054 239.957 18.9351C239.811 19.3599 239.588 19.7407 239.291 20.0776C238.993 20.4097 238.619 20.6709 238.17 20.8613C237.721 21.0518 237.188 21.147 236.573 21.147C236.114 21.147 235.67 21.0786 235.24 20.9419C234.815 20.8052 234.432 20.6025 234.09 20.334C233.753 20.0654 233.482 19.7407 233.277 19.3599C233.077 18.9741 232.972 18.5347 232.962 18.0415H235.057C235.086 18.3442 235.165 18.6055 235.292 18.8252C235.423 19.04 235.597 19.2061 235.812 19.3232C236.026 19.4404 236.278 19.499 236.566 19.499C236.834 19.499 237.064 19.4478 237.254 19.3452C237.445 19.2427 237.599 19.1011 237.716 18.9204C237.833 18.7349 237.918 18.52 237.972 18.2759C238.031 18.0269 238.06 17.7583 238.06 17.4702C238.06 17.1821 238.026 16.9209 237.958 16.6865C237.889 16.4521 237.784 16.2495 237.643 16.0786C237.501 15.9077 237.32 15.7759 237.101 15.6831C236.886 15.5903 236.634 15.5439 236.346 15.5439C235.956 15.5439 235.653 15.605 235.438 15.7271C235.228 15.8491 235.052 15.9883 234.911 16.1445Z" fill="white"/>
<path fill-rule="evenodd" clip-rule="evenodd" d="M285.018 2H377.357V22H379.357V2V0H377.357H285.018H283.018V2V22H285.018V2Z" fill="white"/>
<path d="M329.086 14.7529H330.214C330.576 14.7529 330.874 14.6919 331.108 14.5698C331.342 14.4429 331.516 14.2671 331.628 14.0425C331.745 13.813 331.804 13.5469 331.804 13.2441C331.804 12.9707 331.75 12.729 331.643 12.519C331.54 12.3042 331.381 12.1382 331.167 12.021C330.952 11.8989 330.681 11.8379 330.354 11.8379C330.095 11.8379 329.855 11.8892 329.636 11.9917C329.416 12.0942 329.24 12.2383 329.108 12.4238C328.977 12.6094 328.911 12.834 328.911 13.0977H326.794C326.794 12.5117 326.95 12.0015 327.263 11.5669C327.58 11.1323 328.005 10.793 328.537 10.5488C329.069 10.3047 329.655 10.1826 330.295 10.1826C331.018 10.1826 331.65 10.2998 332.192 10.5342C332.734 10.7637 333.156 11.103 333.459 11.5522C333.762 12.0015 333.913 12.5581 333.913 13.2222C333.913 13.5591 333.835 13.8862 333.679 14.2036C333.522 14.5161 333.298 14.7993 333.005 15.0532C332.717 15.3022 332.365 15.5024 331.95 15.6538C331.535 15.8003 331.069 15.8735 330.551 15.8735H329.086V14.7529ZM329.086 16.3569V15.2656H330.551C331.132 15.2656 331.643 15.3315 332.082 15.4634C332.521 15.5952 332.89 15.7856 333.188 16.0347C333.486 16.2788 333.71 16.5693 333.862 16.9062C334.013 17.2383 334.089 17.6069 334.089 18.0122C334.089 18.5103 333.994 18.9546 333.803 19.3452C333.613 19.731 333.344 20.0581 332.998 20.3267C332.656 20.5952 332.255 20.8003 331.796 20.9419C331.337 21.0786 330.837 21.147 330.295 21.147C329.846 21.147 329.404 21.0859 328.969 20.9639C328.54 20.8369 328.149 20.6489 327.797 20.3999C327.451 20.146 327.172 19.8286 326.962 19.4478C326.757 19.062 326.655 18.6055 326.655 18.0781H328.771C328.771 18.3516 328.84 18.5957 328.977 18.8105C329.113 19.0254 329.301 19.1938 329.541 19.3159C329.785 19.438 330.056 19.499 330.354 19.499C330.69 19.499 330.979 19.438 331.218 19.3159C331.462 19.189 331.647 19.0132 331.774 18.7886C331.906 18.5591 331.972 18.293 331.972 17.9902C331.972 17.5996 331.901 17.2871 331.76 17.0527C331.618 16.8135 331.416 16.6377 331.152 16.5254C330.888 16.4131 330.576 16.3569 330.214 16.3569H329.086Z" fill="white"/>
<path fill-rule="evenodd" clip-rule="evenodd" d="M379.357 2H471.696V22H473.696V2V0H471.696H379.357H377.357V2V22H379.357V2Z" fill="white"/>
<path d="M429.221 19.3525V21.0005H421.926V19.5942L425.375 15.8955C425.722 15.5098 425.996 15.1704 426.196 14.8774C426.396 14.5796 426.54 14.3135 426.628 14.0791C426.721 13.8398 426.767 13.6128 426.767 13.3979C426.767 13.0757 426.713 12.7998 426.606 12.5703C426.499 12.3359 426.34 12.1553 426.13 12.0283C425.925 11.9014 425.671 11.8379 425.368 11.8379C425.046 11.8379 424.768 11.916 424.533 12.0723C424.304 12.2285 424.128 12.4458 424.006 12.7241C423.889 13.0024 423.83 13.3174 423.83 13.6689H421.713C421.713 13.0342 421.865 12.4531 422.167 11.9258C422.47 11.3936 422.897 10.9712 423.449 10.6587C424.001 10.3413 424.655 10.1826 425.412 10.1826C426.159 10.1826 426.789 10.3047 427.302 10.5488C427.819 10.7881 428.21 11.1348 428.474 11.5889C428.742 12.0381 428.876 12.5752 428.876 13.2002C428.876 13.5518 428.82 13.896 428.708 14.2329C428.596 14.5649 428.435 14.897 428.225 15.229C428.02 15.5562 427.771 15.8882 427.478 16.2251C427.185 16.562 426.86 16.9111 426.503 17.2725L424.65 19.3525H429.221Z" fill="white"/>
<path fill-rule="evenodd" clip-rule="evenodd" d="M473.696 2H566.036V22H568.036V2V0H566.036H473.696H471.696V2V22H473.696V2Z" fill="white"/>
<path d="M520.794 10.3145V21.0005H518.685V12.7461L516.151 13.5518V11.8892L520.567 10.3145H520.794Z" fill="white"/>
<path d="M200.597 43.608V38.296H203.285V43.608H206.229V46.264H203.285V61.144C203.285 63.3413 202.165 64.44 199.925 64.44H195.605L195.061 61.784C195.722 61.848 196.384 61.9013 197.045 61.944C197.706 61.9653 198.346 61.976 198.965 61.976C200.053 61.976 200.597 61.4747 200.597 60.472V46.264H192.629V43.608H200.597ZM182.805 45.656C184.448 47.448 186.005 49.2507 187.477 51.064C188.373 48.76 188.885 46.264 189.013 43.576H181.461V40.984H191.445V42.968C191.381 46.744 190.624 50.2 189.173 53.336C189.749 54.0827 190.282 54.8187 190.773 55.544C191.264 56.2693 191.744 56.9947 192.213 57.72L190.197 59.672C189.877 59.0533 189.514 58.4347 189.109 57.816C188.704 57.1973 188.277 56.568 187.829 55.928C187.061 57.1653 186.165 58.3493 185.141 59.48C184.117 60.6107 182.986 61.72 181.749 62.808L180.213 60.408C181.514 59.4693 182.656 58.4453 183.637 57.336C184.618 56.2053 185.482 54.9893 186.229 53.688C184.693 51.6187 182.944 49.5173 180.981 47.384L182.805 45.656ZM194.549 49.112C196.384 51.3947 197.802 53.4213 198.805 55.192L196.661 56.664C195.594 54.8293 194.208 52.8027 192.501 50.584L194.549 49.112ZM220.94 50.2V46.616C222.049 45.9333 223.137 45.2187 224.204 44.472C225.292 43.7253 226.348 42.8827 227.372 41.944H212.204V39.416H230.988V41.944C228.897 44.0347 226.433 46.0293 223.596 47.928V50.2H234.156V52.856H223.596V61.528C223.596 63.384 222.668 64.312 220.812 64.312H215.884L215.116 61.72C215.82 61.7627 216.556 61.784 217.324 61.784C218.113 61.784 218.935 61.784 219.788 61.784C220.556 61.784 220.94 61.4213 220.94 60.696V52.856H209.196V50.2H220.94Z" fill="#4C8CED"/>
<circle cx="262.812" cy="52" r="16" fill="#4C8CED"/>
<path d="M261.998 49.374V46.558H263.714V49.374H267.454V51.046H263.714V51.64C264.609 52.3587 265.43 53.0773 266.178 53.796C266.926 54.5147 267.608 55.2333 268.224 55.952L267.058 57.162C266.207 56.062 265.093 54.8887 263.714 53.642V59.934H261.998V52.674C260.913 54.83 259.644 56.5827 258.192 57.932L257.092 56.15C258.896 54.8593 260.355 53.158 261.47 51.046H258.016V49.374H261.998ZM266.948 60.902L266.508 59.208L268.202 59.252C268.745 59.252 269.016 58.9073 269.016 58.218V45.546H261.646V43.896H270.754V58.724C270.754 60.176 270.021 60.902 268.554 60.902H266.948ZM256.476 46.272V61.078H254.738V46.272H256.476ZM257.84 42.862C258.221 43.3167 258.581 43.786 258.918 44.27C259.27 44.7393 259.585 45.2453 259.864 45.788L258.346 46.558C258.038 45.986 257.708 45.458 257.356 44.974C257.019 44.4753 256.667 44.006 256.3 43.566L257.84 42.862Z" fill="white"/>
<path d="M300.312 54.5156H294.391V51.4062H300.312C301.344 51.4062 302.177 51.2396 302.812 50.9062C303.448 50.5729 303.911 50.1146 304.203 49.5312C304.505 48.9375 304.656 48.2604 304.656 47.5C304.656 46.7812 304.505 46.1094 304.203 45.4844C303.911 44.849 303.448 44.3385 302.812 43.9531C302.177 43.5677 301.344 43.375 300.312 43.375H295.594V63H291.672V40.25H300.312C302.073 40.25 303.568 40.5625 304.797 41.1875C306.036 41.8021 306.979 42.6562 307.625 43.75C308.271 44.8333 308.594 46.0729 308.594 47.4688C308.594 48.9375 308.271 50.1979 307.625 51.25C306.979 52.3021 306.036 53.1094 304.797 53.6719C303.568 54.2344 302.073 54.5156 300.312 54.5156ZM306.359 61.125C306.359 60.5417 306.557 60.0521 306.953 59.6562C307.349 59.25 307.885 59.0469 308.562 59.0469C309.25 59.0469 309.786 59.25 310.172 59.6562C310.568 60.0521 310.766 60.5417 310.766 61.125C310.766 61.7083 310.568 62.1979 310.172 62.5938C309.786 62.9896 309.25 63.1875 308.562 63.1875C307.885 63.1875 307.349 62.9896 306.953 62.5938C306.557 62.1979 306.359 61.7083 306.359 61.125ZM332.094 54.5156H326.172V51.4062H332.094C333.125 51.4062 333.958 51.2396 334.594 50.9062C335.229 50.5729 335.693 50.1146 335.984 49.5312C336.286 48.9375 336.438 48.2604 336.438 47.5C336.438 46.7812 336.286 46.1094 335.984 45.4844C335.693 44.849 335.229 44.3385 334.594 43.9531C333.958 43.5677 333.125 43.375 332.094 43.375H327.375V63H323.453V40.25H332.094C333.854 40.25 335.349 40.5625 336.578 41.1875C337.818 41.8021 338.76 42.6562 339.406 43.75C340.052 44.8333 340.375 46.0729 340.375 47.4688C340.375 48.9375 340.052 50.1979 339.406 51.25C338.76 52.3021 337.818 53.1094 336.578 53.6719C335.349 54.2344 333.854 54.5156 332.094 54.5156ZM350.375 43.2812L343.578 63H339.469L348.031 40.25H350.656L350.375 43.2812ZM356.062 63L349.25 43.2812L348.953 40.25H351.594L360.188 63H356.062ZM355.734 54.5625V57.6719H343.359V54.5625H355.734ZM366.922 40.25V63H363V40.25H366.922ZM371.797 40.25H379.844C381.573 40.25 383.047 40.5104 384.266 41.0312C385.484 41.5521 386.417 42.3229 387.062 43.3438C387.719 44.3542 388.047 45.6042 388.047 47.0938C388.047 48.2292 387.839 49.2292 387.422 50.0938C387.005 50.9583 386.417 51.6875 385.656 52.2812C384.896 52.8646 383.99 53.3177 382.938 53.6406L381.75 54.2188H374.516L374.484 51.1094H379.906C380.844 51.1094 381.625 50.9427 382.25 50.6094C382.875 50.276 383.344 49.8229 383.656 49.25C383.979 48.6667 384.141 48.0104 384.141 47.2812C384.141 46.4896 383.984 45.8021 383.672 45.2188C383.37 44.625 382.901 44.1719 382.266 43.8594C381.63 43.5365 380.823 43.375 379.844 43.375H375.719V63H371.797V40.25ZM384.781 63L379.438 52.7812L383.547 52.7656L388.969 62.7969V63H384.781Z" fill="#4C8CED"/>
<path d="M565.5 238.5L45 424.5" stroke="white" stroke-width="2" stroke-miterlimit="10"/>
<path d="M646.5 203L665 194" stroke="white" stroke-width="2" stroke-miterlimit="10" stroke-linecap="round"/>
<path d="M1273.5 203L1255 194" stroke="white" stroke-width="2" stroke-miterlimit="10" stroke-linecap="round"/>
<path d="M1355 237L1875.5 423.5" stroke="white" stroke-width="2" stroke-miterlimit="10"/>
<path d="M960 264.56V498" stroke="white" stroke-width="2" stroke-miterlimit="10"/>
<path d="M960 194V210" stroke="white" stroke-width="2" stroke-miterlimit="10" stroke-linecap="round"/>
<path d="M1172 264L1378.5 498" stroke="white" stroke-width="2" stroke-miterlimit="10"/>
<path d="M748.5 264L542 498" stroke="white" stroke-width="2" stroke-miterlimit="10"/>
<path d="M788 210L803 194" stroke="white" stroke-width="2" stroke-miterlimit="10" stroke-linecap="round"/>
<path d="M1132.5 210L1118 194" stroke="white" stroke-width="2" stroke-miterlimit="10" stroke-linecap="round"/>
<path d="M1702.03 127.203V150H1697.53V132.391L1692.12 134.109V130.562L1701.55 127.203H1702.03Z" fill="white"/>
<path d="M1291.8 128.703V143H1289.99V130.959L1286.35 132.287V130.656L1291.52 128.703H1291.8Z" fill="white" fill-opacity="0.2"/>
<path d="M612.22 128.94C612.14 128.727 612.067 128.52 612 128.32C611.933 128.12 611.86 127.913 611.78 127.7L613.46 127.42C613.54 127.66 613.613 127.907 613.68 128.16C613.747 128.4 613.813 128.66 613.88 128.94H619.88V130.5H616.98C616.9 130.807 616.8 131.1 616.68 131.38C616.573 131.66 616.46 131.933 616.34 132.2H620.02V135.14H618.36V133.74H607.36V135.14H605.68V132.2H609.24C609.133 131.893 609.033 131.6 608.94 131.32C608.847 131.027 608.74 130.753 608.62 130.5H605.84V128.94H612.22ZM614.58 132.2C614.727 131.92 614.853 131.64 614.96 131.36C615.067 131.08 615.16 130.793 615.24 130.5H610.42C610.513 130.753 610.6 131.027 610.68 131.32C610.76 131.6 610.833 131.893 610.9 132.2H614.58ZM611.92 135.82C611.8 135.567 611.687 135.333 611.58 135.12C611.487 134.907 611.38 134.693 611.26 134.48L612.94 134.2C613.167 134.653 613.38 135.193 613.58 135.82H620.66V137.38H611.56C611.533 137.58 611.5 137.78 611.46 137.98C611.42 138.18 611.38 138.38 611.34 138.58H618.44C618.413 141.207 618.093 142.753 617.48 143.22C617.24 143.38 616.86 143.513 616.34 143.62C616.087 143.647 615.847 143.673 615.62 143.7C615.393 143.727 615.16 143.74 614.92 143.74H612.92L612.46 142.18C612.953 142.18 613.427 142.187 613.88 142.2C614.333 142.2 614.78 142.2 615.22 142.2C615.74 142.173 616.107 142.1 616.32 141.98C616.533 141.833 616.667 141.193 616.72 140.06H610.74C609.82 141.767 608.16 143.073 605.76 143.98L604.84 142.46C607.88 141.447 609.533 139.753 609.8 137.38H605.04V135.82H611.92ZM624.214 127.76C624.801 128.2 625.348 128.64 625.854 129.08C626.361 129.507 626.841 129.94 627.294 130.38L626.074 131.6C625.328 130.747 624.288 129.853 622.954 128.92L624.214 127.76ZM623.774 131.92C624.908 132.8 625.888 133.68 626.714 134.56L625.474 135.8C625.128 135.373 624.714 134.94 624.234 134.5C623.754 134.047 623.201 133.573 622.574 133.08L623.774 131.92ZM627.174 137.52C626.414 139.72 625.528 141.82 624.514 143.82L622.854 143.08C623.894 141.107 624.834 139.053 625.674 136.92L627.174 137.52ZM632.314 130.42C632.008 129.593 631.648 128.76 631.234 127.92L632.794 127.52C633.061 128.04 633.288 128.547 633.474 129.04C633.674 129.533 633.854 129.993 634.014 130.42H633.914H638.334V132.08H633.914V135.88H637.834V137.5H633.914V141.7H638.714V143.34H627.334V141.7H632.254V137.5H628.294V135.88H632.254V132.08H627.774V130.42H632.314Z" fill="white" fill-opacity="0.2"/>
<path d="M1544.59 134.544V130.448H1547.08V134.544H1552.52V136.976H1547.08V137.84C1548.39 138.885 1549.58 139.931 1550.67 140.976C1551.76 142.021 1552.75 143.067 1553.64 144.112L1551.95 145.872C1550.71 144.272 1549.09 142.565 1547.08 140.752V149.904H1544.59V139.344C1543.01 142.48 1541.16 145.029 1539.05 146.992L1537.45 144.4C1540.08 142.523 1542.2 140.048 1543.82 136.976H1538.8V134.544H1544.59ZM1551.79 151.312L1551.15 148.848L1553.61 148.912C1554.4 148.912 1554.8 148.411 1554.8 147.408V128.976H1544.08V126.576H1557.32V148.144C1557.32 150.256 1556.26 151.312 1554.12 151.312H1551.79ZM1536.56 130.032V151.568H1534.03V130.032H1536.56ZM1538.54 125.072C1539.09 125.733 1539.62 126.416 1540.11 127.12C1540.62 127.803 1541.08 128.539 1541.48 129.328L1539.28 130.448C1538.83 129.616 1538.35 128.848 1537.84 128.144C1537.35 127.419 1536.83 126.736 1536.3 126.096L1538.54 125.072Z" fill="#4C8CED"/>
<path d="M1421.96 137.872V132.368H1424.68V137.872H1432.04V140.464H1424.68V147.92H1433.41V150.512H1413.09V147.92H1421.96V140.464H1414.79V137.872H1421.96ZM1421.92 125.232C1422.14 125.701 1422.36 126.203 1422.6 126.736C1422.83 127.248 1423.04 127.781 1423.24 128.336H1433.41V130.928H1412.61V136.944C1412.48 143.067 1411.56 147.941 1409.83 151.568L1407.56 149.552C1409.07 146.501 1409.84 142.299 1409.86 136.944V128.336H1420.32C1420.11 127.888 1419.89 127.451 1419.65 127.024C1419.42 126.576 1419.17 126.139 1418.92 125.712L1421.92 125.232Z" fill="#CB5460"/>
<path d="M634.797 459.641L631.203 458.781L632.5 447.25H645.281V450.891H636.203L635.641 455.938C635.943 455.76 636.401 455.573 637.016 455.375C637.63 455.167 638.318 455.062 639.078 455.062C640.182 455.062 641.161 455.234 642.016 455.578C642.87 455.922 643.594 456.422 644.188 457.078C644.792 457.734 645.25 458.536 645.562 459.484C645.875 460.432 646.031 461.505 646.031 462.703C646.031 463.714 645.875 464.677 645.562 465.594C645.25 466.5 644.776 467.312 644.141 468.031C643.505 468.74 642.708 469.297 641.75 469.703C640.792 470.109 639.656 470.312 638.344 470.312C637.365 470.312 636.417 470.167 635.5 469.875C634.594 469.583 633.776 469.151 633.047 468.578C632.328 468.005 631.75 467.312 631.312 466.5C630.885 465.677 630.661 464.74 630.641 463.688H635.109C635.172 464.333 635.339 464.891 635.609 465.359C635.891 465.818 636.26 466.172 636.719 466.422C637.177 466.672 637.714 466.797 638.328 466.797C638.901 466.797 639.391 466.688 639.797 466.469C640.203 466.25 640.531 465.948 640.781 465.562C641.031 465.167 641.214 464.708 641.328 464.188C641.453 463.656 641.516 463.083 641.516 462.469C641.516 461.854 641.443 461.297 641.297 460.797C641.151 460.297 640.927 459.865 640.625 459.5C640.323 459.135 639.938 458.854 639.469 458.656C639.01 458.458 638.474 458.359 637.859 458.359C637.026 458.359 636.38 458.49 635.922 458.75C635.474 459.01 635.099 459.307 634.797 459.641Z" fill="white"/>
<path d="M1664.12 396.484V400H1648.56V397L1655.92 389.109C1656.66 388.286 1657.24 387.562 1657.67 386.938C1658.1 386.302 1658.41 385.734 1658.59 385.234C1658.79 384.724 1658.89 384.24 1658.89 383.781C1658.89 383.094 1658.78 382.505 1658.55 382.016C1658.32 381.516 1657.98 381.13 1657.53 380.859C1657.09 380.589 1656.55 380.453 1655.91 380.453C1655.22 380.453 1654.62 380.62 1654.12 380.953C1653.64 381.286 1653.26 381.75 1653 382.344C1652.75 382.938 1652.62 383.609 1652.62 384.359H1648.11C1648.11 383.005 1648.43 381.766 1649.08 380.641C1649.72 379.505 1650.64 378.604 1651.81 377.938C1652.99 377.26 1654.39 376.922 1656 376.922C1657.59 376.922 1658.94 377.182 1660.03 377.703C1661.14 378.214 1661.97 378.953 1662.53 379.922C1663.1 380.88 1663.39 382.026 1663.39 383.359C1663.39 384.109 1663.27 384.844 1663.03 385.562C1662.79 386.271 1662.45 386.979 1662 387.688C1661.56 388.385 1661.03 389.094 1660.41 389.812C1659.78 390.531 1659.09 391.276 1658.33 392.047L1654.38 396.484H1664.12Z" fill="white"/>
<path d="M1243.5 223.516V225H1234.19V223.701L1238.85 218.516C1239.42 217.878 1239.87 217.337 1240.18 216.895C1240.5 216.445 1240.72 216.045 1240.84 215.693C1240.97 215.335 1241.04 214.971 1241.04 214.6C1241.04 214.131 1240.94 213.708 1240.74 213.33C1240.56 212.946 1240.28 212.64 1239.9 212.412C1239.53 212.184 1239.08 212.07 1238.56 212.07C1237.93 212.07 1237.4 212.194 1236.97 212.441C1236.56 212.682 1236.25 213.021 1236.04 213.457C1235.83 213.893 1235.72 214.395 1235.72 214.961H1233.92C1233.92 214.16 1234.09 213.428 1234.45 212.764C1234.8 212.1 1235.32 211.572 1236.01 211.182C1236.7 210.785 1237.55 210.586 1238.56 210.586C1239.46 210.586 1240.22 210.745 1240.86 211.064C1241.5 211.377 1241.99 211.82 1242.33 212.393C1242.67 212.959 1242.84 213.623 1242.84 214.385C1242.84 214.801 1242.77 215.225 1242.63 215.654C1242.49 216.077 1242.3 216.501 1242.05 216.924C1241.81 217.347 1241.53 217.764 1241.2 218.174C1240.88 218.584 1240.54 218.988 1240.18 219.385L1236.37 223.516H1243.5Z" fill="white" fill-opacity="0.2"/>
<path d="M1091.82 217.002H1093.11C1093.74 217.002 1094.26 216.898 1094.67 216.689C1095.09 216.475 1095.4 216.185 1095.6 215.82C1095.81 215.449 1095.91 215.033 1095.91 214.57C1095.91 214.023 1095.82 213.564 1095.64 213.193C1095.45 212.822 1095.18 212.542 1094.82 212.354C1094.45 212.165 1093.99 212.07 1093.43 212.07C1092.92 212.07 1092.47 212.171 1092.08 212.373C1091.7 212.568 1091.4 212.848 1091.17 213.213C1090.96 213.577 1090.85 214.007 1090.85 214.502H1089.04C1089.04 213.779 1089.23 213.122 1089.59 212.529C1089.96 211.937 1090.47 211.465 1091.12 211.113C1091.79 210.762 1092.56 210.586 1093.43 210.586C1094.29 210.586 1095.04 210.739 1095.69 211.045C1096.33 211.344 1096.83 211.794 1097.19 212.393C1097.55 212.985 1097.73 213.724 1097.73 214.609C1097.73 214.967 1097.64 215.352 1097.47 215.762C1097.31 216.165 1097.05 216.543 1096.7 216.895C1096.36 217.246 1095.91 217.536 1095.35 217.764C1094.8 217.985 1094.14 218.096 1093.36 218.096H1091.82V217.002ZM1091.82 218.486V217.402H1093.36C1094.27 217.402 1095.01 217.51 1095.61 217.725C1096.2 217.939 1096.67 218.226 1097 218.584C1097.35 218.942 1097.59 219.336 1097.73 219.766C1097.87 220.189 1097.94 220.612 1097.94 221.035C1097.94 221.699 1097.83 222.288 1097.6 222.803C1097.38 223.317 1097.06 223.753 1096.65 224.111C1096.25 224.469 1095.77 224.74 1095.23 224.922C1094.68 225.104 1094.08 225.195 1093.44 225.195C1092.82 225.195 1092.24 225.107 1091.69 224.932C1091.15 224.756 1090.67 224.502 1090.26 224.17C1089.84 223.831 1089.51 223.418 1089.28 222.93C1089.04 222.435 1088.93 221.872 1088.93 221.24H1090.73C1090.73 221.735 1090.84 222.168 1091.06 222.539C1091.28 222.91 1091.59 223.2 1091.99 223.408C1092.4 223.61 1092.89 223.711 1093.44 223.711C1093.99 223.711 1094.47 223.617 1094.87 223.428C1095.27 223.232 1095.58 222.939 1095.79 222.549C1096.01 222.158 1096.12 221.667 1096.12 221.074C1096.12 220.482 1096 219.997 1095.75 219.619C1095.51 219.235 1095.15 218.952 1094.7 218.77C1094.25 218.581 1093.72 218.486 1093.11 218.486H1091.82Z" fill="white" fill-opacity="0.2"/>
<path d="M816.467 218.232L815.021 217.861L815.734 210.781H823.029V212.451H817.268L816.838 216.318C817.098 216.169 817.427 216.029 817.824 215.898C818.228 215.768 818.69 215.703 819.211 215.703C819.868 215.703 820.458 215.817 820.979 216.045C821.499 216.266 821.942 216.585 822.307 217.002C822.678 217.419 822.961 217.92 823.156 218.506C823.352 219.092 823.449 219.746 823.449 220.469C823.449 221.152 823.355 221.781 823.166 222.354C822.984 222.926 822.707 223.428 822.336 223.857C821.965 224.281 821.496 224.609 820.93 224.844C820.37 225.078 819.709 225.195 818.947 225.195C818.374 225.195 817.831 225.117 817.316 224.961C816.809 224.798 816.353 224.554 815.949 224.229C815.552 223.896 815.227 223.486 814.973 222.998C814.725 222.503 814.569 221.924 814.504 221.26H816.223C816.301 221.794 816.457 222.243 816.691 222.607C816.926 222.972 817.232 223.249 817.609 223.438C817.993 223.62 818.439 223.711 818.947 223.711C819.377 223.711 819.758 223.636 820.09 223.486C820.422 223.337 820.702 223.122 820.93 222.842C821.158 222.562 821.33 222.223 821.447 221.826C821.571 221.429 821.633 220.983 821.633 220.488C821.633 220.039 821.571 219.622 821.447 219.238C821.324 218.854 821.138 218.519 820.891 218.232C820.65 217.946 820.354 217.725 820.002 217.568C819.65 217.406 819.247 217.324 818.791 217.324C818.186 217.324 817.727 217.406 817.414 217.568C817.108 217.731 816.792 217.952 816.467 218.232Z" fill="white" fill-opacity="0.2"/>
<path d="M684.311 210.762H684.467V212.295H684.311C683.354 212.295 682.553 212.451 681.908 212.764C681.264 213.07 680.753 213.483 680.375 214.004C679.997 214.518 679.724 215.098 679.555 215.742C679.392 216.387 679.311 217.041 679.311 217.705V219.795C679.311 220.426 679.385 220.986 679.535 221.475C679.685 221.956 679.89 222.363 680.15 222.695C680.411 223.027 680.704 223.278 681.029 223.447C681.361 223.617 681.706 223.701 682.064 223.701C682.481 223.701 682.852 223.623 683.178 223.467C683.503 223.304 683.777 223.079 683.998 222.793C684.226 222.5 684.398 222.155 684.516 221.758C684.633 221.361 684.691 220.924 684.691 220.449C684.691 220.026 684.639 219.619 684.535 219.229C684.431 218.831 684.271 218.48 684.057 218.174C683.842 217.861 683.572 217.617 683.246 217.441C682.927 217.259 682.546 217.168 682.104 217.168C681.602 217.168 681.133 217.292 680.697 217.539C680.268 217.78 679.913 218.099 679.633 218.496C679.359 218.887 679.203 219.313 679.164 219.775L678.207 219.766C678.298 219.036 678.467 218.415 678.715 217.9C678.969 217.38 679.281 216.956 679.652 216.631C680.03 216.299 680.45 216.058 680.912 215.908C681.381 215.752 681.876 215.674 682.396 215.674C683.106 215.674 683.718 215.807 684.232 216.074C684.747 216.341 685.17 216.699 685.502 217.148C685.834 217.591 686.078 218.092 686.234 218.652C686.397 219.206 686.479 219.775 686.479 220.361C686.479 221.032 686.384 221.66 686.195 222.246C686.007 222.832 685.723 223.346 685.346 223.789C684.975 224.232 684.516 224.577 683.969 224.824C683.422 225.072 682.787 225.195 682.064 225.195C681.296 225.195 680.626 225.039 680.053 224.727C679.48 224.408 679.005 223.984 678.627 223.457C678.249 222.93 677.966 222.344 677.777 221.699C677.589 221.055 677.494 220.4 677.494 219.736V218.887C677.494 217.884 677.595 216.901 677.797 215.938C677.999 214.974 678.347 214.102 678.842 213.32C679.343 212.539 680.036 211.917 680.922 211.455C681.807 210.993 682.937 210.762 684.311 210.762Z" fill="white" fill-opacity="0.2"/>
<path d="M266.484 377.016H267.141V380.609H266.875C265.688 380.609 264.63 380.786 263.703 381.141C262.776 381.495 261.99 382 261.344 382.656C260.708 383.302 260.219 384.083 259.875 385C259.542 385.917 259.375 386.943 259.375 388.078V391.859C259.375 392.672 259.453 393.391 259.609 394.016C259.776 394.63 260.01 395.146 260.312 395.562C260.625 395.969 260.99 396.276 261.406 396.484C261.823 396.682 262.292 396.781 262.812 396.781C263.302 396.781 263.745 396.677 264.141 396.469C264.547 396.26 264.891 395.969 265.172 395.594C265.464 395.208 265.682 394.76 265.828 394.25C265.984 393.729 266.062 393.161 266.062 392.547C266.062 391.932 265.984 391.365 265.828 390.844C265.682 390.323 265.464 389.875 265.172 389.5C264.88 389.115 264.526 388.818 264.109 388.609C263.693 388.401 263.224 388.297 262.703 388.297C261.995 388.297 261.37 388.464 260.828 388.797C260.297 389.12 259.88 389.536 259.578 390.047C259.276 390.557 259.115 391.094 259.094 391.656L257.734 390.781C257.766 389.979 257.932 389.219 258.234 388.5C258.547 387.781 258.974 387.146 259.516 386.594C260.068 386.031 260.729 385.594 261.5 385.281C262.271 384.958 263.141 384.797 264.109 384.797C265.172 384.797 266.104 385 266.906 385.406C267.719 385.812 268.396 386.37 268.938 387.078C269.479 387.786 269.885 388.604 270.156 389.531C270.427 390.458 270.562 391.448 270.562 392.5C270.562 393.604 270.38 394.63 270.016 395.578C269.661 396.526 269.146 397.354 268.469 398.062C267.802 398.771 267 399.323 266.062 399.719C265.125 400.115 264.073 400.312 262.906 400.312C261.698 400.312 260.599 400.094 259.609 399.656C258.63 399.208 257.786 398.583 257.078 397.781C256.37 396.979 255.823 396.026 255.438 394.922C255.062 393.818 254.875 392.609 254.875 391.297V389.547C254.875 387.714 255.141 386.036 255.672 384.516C256.214 382.984 256.99 381.661 258 380.547C259.01 379.422 260.229 378.552 261.656 377.938C263.083 377.323 264.693 377.016 266.484 377.016Z" fill="white"/>
<path d="M1275.17 456.672H1277.58C1278.35 456.672 1278.98 456.542 1279.48 456.281C1279.98 456.01 1280.35 455.635 1280.59 455.156C1280.84 454.667 1280.97 454.099 1280.97 453.453C1280.97 452.87 1280.85 452.354 1280.62 451.906C1280.41 451.448 1280.07 451.094 1279.61 450.844C1279.15 450.583 1278.57 450.453 1277.88 450.453C1277.32 450.453 1276.81 450.562 1276.34 450.781C1275.88 451 1275.5 451.307 1275.22 451.703C1274.94 452.099 1274.8 452.578 1274.8 453.141H1270.28C1270.28 451.891 1270.61 450.802 1271.28 449.875C1271.96 448.948 1272.86 448.224 1274 447.703C1275.14 447.182 1276.39 446.922 1277.75 446.922C1279.29 446.922 1280.64 447.172 1281.8 447.672C1282.95 448.161 1283.85 448.885 1284.5 449.844C1285.15 450.802 1285.47 451.99 1285.47 453.406C1285.47 454.125 1285.3 454.823 1284.97 455.5C1284.64 456.167 1284.16 456.771 1283.53 457.312C1282.92 457.844 1282.17 458.271 1281.28 458.594C1280.4 458.906 1279.4 459.062 1278.3 459.062H1275.17V456.672ZM1275.17 460.094V457.766H1278.3C1279.54 457.766 1280.62 457.906 1281.56 458.188C1282.5 458.469 1283.29 458.875 1283.92 459.406C1284.56 459.927 1285.04 460.547 1285.36 461.266C1285.68 461.974 1285.84 462.76 1285.84 463.625C1285.84 464.688 1285.64 465.635 1285.23 466.469C1284.83 467.292 1284.26 467.99 1283.52 468.562C1282.79 469.135 1281.93 469.573 1280.95 469.875C1279.97 470.167 1278.91 470.312 1277.75 470.312C1276.79 470.312 1275.85 470.182 1274.92 469.922C1274.01 469.651 1273.17 469.25 1272.42 468.719C1271.68 468.177 1271.09 467.5 1270.64 466.688C1270.2 465.865 1269.98 464.891 1269.98 463.766H1274.5C1274.5 464.349 1274.65 464.87 1274.94 465.328C1275.23 465.786 1275.63 466.146 1276.14 466.406C1276.66 466.667 1277.24 466.797 1277.88 466.797C1278.59 466.797 1279.21 466.667 1279.72 466.406C1280.24 466.135 1280.64 465.76 1280.91 465.281C1281.19 464.792 1281.33 464.224 1281.33 463.578C1281.33 462.745 1281.18 462.078 1280.88 461.578C1280.57 461.068 1280.14 460.693 1279.58 460.453C1279.02 460.214 1278.35 460.094 1277.58 460.094H1275.17Z" fill="white"/>
<path d="M703.953 385.516H698.031V382.406H703.953C704.984 382.406 705.818 382.24 706.453 381.906C707.089 381.573 707.552 381.115 707.844 380.531C708.146 379.938 708.297 379.26 708.297 378.5C708.297 377.781 708.146 377.109 707.844 376.484C707.552 375.849 707.089 375.339 706.453 374.953C705.818 374.568 704.984 374.375 703.953 374.375H699.234V394H695.312V371.25H703.953C705.714 371.25 707.208 371.562 708.438 372.188C709.677 372.802 710.62 373.656 711.266 374.75C711.911 375.833 712.234 377.073 712.234 378.469C712.234 379.938 711.911 381.198 711.266 382.25C710.62 383.302 709.677 384.109 708.438 384.672C707.208 385.234 705.714 385.516 703.953 385.516Z" fill="#4C8CED"/>
<path d="M1486.95 337.516H1481.03V334.406H1486.95C1487.98 334.406 1488.82 334.24 1489.45 333.906C1490.09 333.573 1490.55 333.115 1490.84 332.531C1491.15 331.938 1491.3 331.26 1491.3 330.5C1491.3 329.781 1491.15 329.109 1490.84 328.484C1490.55 327.849 1490.09 327.339 1489.45 326.953C1488.82 326.568 1487.98 326.375 1486.95 326.375H1482.23V346H1478.31V323.25H1486.95C1488.71 323.25 1490.21 323.562 1491.44 324.188C1492.68 324.802 1493.62 325.656 1494.27 326.75C1494.91 327.833 1495.23 329.073 1495.23 330.469C1495.23 331.938 1494.91 333.198 1494.27 334.25C1493.62 335.302 1492.68 336.109 1491.44 336.672C1490.21 337.234 1488.71 337.516 1486.95 337.516Z" fill="#4C8CED"/>
<path d="M424.088 328.544V324.448H426.584V328.544H432.024V330.976H426.584V331.84C427.885 332.885 429.08 333.931 430.168 334.976C431.256 336.021 432.248 337.067 433.144 338.112L431.448 339.872C430.211 338.272 428.589 336.565 426.584 334.752V343.904H424.088V333.344C422.509 336.48 420.664 339.029 418.552 340.992L416.952 338.4C419.576 336.523 421.699 334.048 423.32 330.976H418.296V328.544H424.088ZM431.288 345.312L430.648 342.848L433.112 342.912C433.901 342.912 434.296 342.411 434.296 341.408V322.976H423.576V320.576H436.824V342.144C436.824 344.256 435.757 345.312 433.624 345.312H431.288ZM416.056 324.032V345.568H413.528V324.032H416.056ZM418.04 319.072C418.595 319.733 419.117 320.416 419.608 321.12C420.12 321.803 420.579 322.539 420.984 323.328L418.776 324.448C418.328 323.616 417.848 322.848 417.336 322.144C416.845 321.419 416.333 320.736 415.8 320.096L418.04 319.072Z" fill="#4C8CED"/>
<path d="M1211.09 378.544V374.448H1213.58V378.544H1219.02V380.976H1213.58V381.84C1214.89 382.885 1216.08 383.931 1217.17 384.976C1218.26 386.021 1219.25 387.067 1220.14 388.112L1218.45 389.872C1217.21 388.272 1215.59 386.565 1213.58 384.752V393.904H1211.09V383.344C1209.51 386.48 1207.66 389.029 1205.55 390.992L1203.95 388.4C1206.58 386.523 1208.7 384.048 1210.32 380.976H1205.3V378.544H1211.09ZM1218.29 395.312L1217.65 392.848L1220.11 392.912C1220.9 392.912 1221.3 392.411 1221.3 391.408V372.976H1210.58V370.576H1223.82V392.144C1223.82 394.256 1222.76 395.312 1220.62 395.312H1218.29ZM1203.06 374.032V395.568H1200.53V374.032H1203.06ZM1205.04 369.072C1205.59 369.733 1206.12 370.416 1206.61 371.12C1207.12 371.803 1207.58 372.539 1207.98 373.328L1205.78 374.448C1205.33 373.616 1204.85 372.848 1204.34 372.144C1203.85 371.419 1203.33 370.736 1202.8 370.096L1205.04 369.072Z" fill="#4C8CED"/>
<path d="M559.456 280.872V275.368H562.176V280.872H569.536V283.464H562.176V290.92H570.912V293.512H550.592V290.92H559.456V283.464H552.288V280.872H559.456ZM559.424 268.232C559.637 268.701 559.861 269.203 560.096 269.736C560.331 270.248 560.544 270.781 560.736 271.336H570.912V273.928H550.112V279.944C549.984 286.067 549.056 290.941 547.328 294.568L545.056 292.552C546.571 289.501 547.339 285.299 547.36 279.944V271.336H557.824C557.611 270.888 557.387 270.451 557.152 270.024C556.917 269.576 556.672 269.139 556.416 268.712L559.424 268.232Z" fill="#CB5460"/>
<path d="M1149.46 300.872V295.368H1152.18V300.872H1159.54V303.464H1152.18V310.92H1160.91V313.512H1140.59V310.92H1149.46V303.464H1142.29V300.872H1149.46ZM1149.42 288.232C1149.64 288.701 1149.86 289.203 1150.1 289.736C1150.33 290.248 1150.54 290.781 1150.74 291.336H1160.91V293.928H1140.11V299.944C1139.98 306.067 1139.06 310.941 1137.33 314.568L1135.06 312.552C1136.57 309.501 1137.34 305.299 1137.36 299.944V291.336H1147.82C1147.61 290.888 1147.39 290.451 1147.15 290.024C1146.92 289.576 1146.67 289.139 1146.42 288.712L1149.42 288.232Z" fill="#CB5460"/>
<path d="M768.844 302.719H763.047L763.016 299.859H768.078C768.932 299.859 769.656 299.734 770.25 299.484C770.854 299.224 771.312 298.854 771.625 298.375C771.938 297.885 772.094 297.297 772.094 296.609C772.094 295.849 771.948 295.229 771.656 294.75C771.365 294.271 770.917 293.922 770.312 293.703C769.719 293.484 768.958 293.375 768.031 293.375H764.234V313H760.312V290.25H768.031C769.281 290.25 770.396 290.37 771.375 290.609C772.365 290.849 773.203 291.224 773.891 291.734C774.589 292.234 775.115 292.87 775.469 293.641C775.833 294.411 776.016 295.328 776.016 296.391C776.016 297.328 775.792 298.188 775.344 298.969C774.896 299.74 774.234 300.37 773.359 300.859C772.484 301.349 771.396 301.641 770.094 301.734L768.844 302.719ZM768.672 313H761.812L763.578 309.891H768.672C769.557 309.891 770.297 309.745 770.891 309.453C771.484 309.151 771.927 308.74 772.219 308.219C772.521 307.688 772.672 307.068 772.672 306.359C772.672 305.62 772.542 304.979 772.281 304.438C772.021 303.885 771.609 303.464 771.047 303.172C770.484 302.87 769.75 302.719 768.844 302.719H764.438L764.469 299.859H770.203L771.094 300.938C772.344 300.979 773.37 301.255 774.172 301.766C774.984 302.276 775.589 302.938 775.984 303.75C776.38 304.562 776.578 305.438 776.578 306.375C776.578 307.823 776.26 309.036 775.625 310.016C775 310.995 774.099 311.74 772.922 312.25C771.745 312.75 770.328 313 768.672 313Z" fill="#CB5460"/>
<path d="M1361.84 282.719H1356.05L1356.02 279.859H1361.08C1361.93 279.859 1362.66 279.734 1363.25 279.484C1363.85 279.224 1364.31 278.854 1364.62 278.375C1364.94 277.885 1365.09 277.297 1365.09 276.609C1365.09 275.849 1364.95 275.229 1364.66 274.75C1364.36 274.271 1363.92 273.922 1363.31 273.703C1362.72 273.484 1361.96 273.375 1361.03 273.375H1357.23V293H1353.31V270.25H1361.03C1362.28 270.25 1363.4 270.37 1364.38 270.609C1365.36 270.849 1366.2 271.224 1366.89 271.734C1367.59 272.234 1368.11 272.87 1368.47 273.641C1368.83 274.411 1369.02 275.328 1369.02 276.391C1369.02 277.328 1368.79 278.188 1368.34 278.969C1367.9 279.74 1367.23 280.37 1366.36 280.859C1365.48 281.349 1364.4 281.641 1363.09 281.734L1361.84 282.719ZM1361.67 293H1354.81L1356.58 289.891H1361.67C1362.56 289.891 1363.3 289.745 1363.89 289.453C1364.48 289.151 1364.93 288.74 1365.22 288.219C1365.52 287.688 1365.67 287.068 1365.67 286.359C1365.67 285.62 1365.54 284.979 1365.28 284.438C1365.02 283.885 1364.61 283.464 1364.05 283.172C1363.48 282.87 1362.75 282.719 1361.84 282.719H1357.44L1357.47 279.859H1363.2L1364.09 280.938C1365.34 280.979 1366.37 281.255 1367.17 281.766C1367.98 282.276 1368.59 282.938 1368.98 283.75C1369.38 284.562 1369.58 285.438 1369.58 286.375C1369.58 287.823 1369.26 289.036 1368.62 290.016C1368 290.995 1367.1 291.74 1365.92 292.25C1364.74 292.75 1363.33 293 1361.67 293Z" fill="#CB5460"/>
<path d="M224.492 142.875C224.898 142.875 225.263 142.812 225.586 142.688C225.919 142.573 226.221 142.354 226.492 142.031C226.773 141.708 227.049 141.255 227.32 140.672C227.591 140.089 227.872 139.333 228.164 138.406C228.497 137.375 228.872 136.396 229.289 135.469C229.706 134.552 230.19 133.74 230.742 133.031C231.305 132.333 231.956 131.781 232.695 131.375C233.435 130.979 234.294 130.781 235.273 130.781C236.221 130.781 237.081 130.99 237.852 131.406C238.633 131.823 239.299 132.406 239.852 133.156C240.414 133.906 240.846 134.792 241.148 135.812C241.451 136.844 241.602 137.974 241.602 139.203C241.602 140.88 241.299 142.344 240.695 143.594C240.091 144.844 239.263 145.812 238.211 146.5C237.159 147.198 235.956 147.547 234.602 147.547V142.891C235.268 142.891 235.852 142.75 236.352 142.469C236.862 142.198 237.263 141.781 237.555 141.219C237.846 140.667 237.992 139.969 237.992 139.125C237.992 138.312 237.867 137.635 237.617 137.094C237.378 136.552 237.049 136.146 236.633 135.875C236.227 135.604 235.768 135.469 235.258 135.469C234.872 135.469 234.523 135.562 234.211 135.75C233.898 135.948 233.607 136.24 233.336 136.625C233.065 137.01 232.81 137.484 232.57 138.047C232.331 138.609 232.096 139.26 231.867 140C231.492 141.24 231.07 142.328 230.602 143.266C230.133 144.214 229.607 145.005 229.023 145.641C228.44 146.276 227.779 146.755 227.039 147.078C226.299 147.401 225.461 147.562 224.523 147.562C223.534 147.562 222.648 147.37 221.867 146.984C221.086 146.599 220.424 146.042 219.883 145.312C219.341 144.583 218.93 143.714 218.648 142.703C218.367 141.693 218.227 140.562 218.227 139.312C218.227 138.188 218.372 137.078 218.664 135.984C218.966 134.891 219.419 133.896 220.023 133C220.628 132.115 221.398 131.406 222.336 130.875C223.273 130.344 224.383 130.078 225.664 130.078V134.781C224.956 134.781 224.357 134.891 223.867 135.109C223.378 135.328 222.982 135.635 222.68 136.031C222.378 136.438 222.159 136.917 222.023 137.469C221.888 138.031 221.82 138.646 221.82 139.312C221.82 140.125 221.935 140.792 222.164 141.312C222.393 141.844 222.711 142.234 223.117 142.484C223.523 142.745 223.982 142.875 224.492 142.875ZM241.289 155.734H218.539V151.062H241.289V155.734ZM218.539 167.109V162.156L222.195 162.188V167.109C222.195 168.339 222.471 169.375 223.023 170.219C223.586 171.062 224.404 171.698 225.477 172.125C226.549 172.562 227.846 172.781 229.367 172.781H230.477C231.643 172.781 232.669 172.656 233.555 172.406C234.44 172.167 235.185 171.807 235.789 171.328C236.393 170.849 236.846 170.26 237.148 169.562C237.461 168.865 237.617 168.062 237.617 167.156V162.062H241.289V167.156C241.289 168.677 241.029 170.068 240.508 171.328C239.997 172.599 239.263 173.698 238.305 174.625C237.346 175.552 236.201 176.266 234.867 176.766C233.544 177.276 232.07 177.531 230.445 177.531H229.367C227.753 177.531 226.279 177.276 224.945 176.766C223.612 176.266 222.466 175.552 221.508 174.625C220.56 173.708 219.826 172.609 219.305 171.328C218.794 170.057 218.539 168.651 218.539 167.109ZM241.289 164.812H218.539V160.125H241.289V164.812ZM222.195 196.203H218.539V184.094H222.195V196.203ZM241.289 185.625H218.539V180.938H241.289V185.625ZM232.023 194.625H228.461V184.094H232.023V194.625ZM241.289 196.188H237.617V184.094H241.289V196.188ZM228.523 215.812V209.969L231.742 209.938V214.844C231.742 215.708 231.852 216.417 232.07 216.969C232.299 217.521 232.628 217.932 233.055 218.203C233.492 218.484 234.023 218.625 234.648 218.625C235.357 218.625 235.93 218.49 236.367 218.219C236.805 217.958 237.122 217.547 237.32 216.984C237.518 216.432 237.617 215.719 237.617 214.844V211.594H218.539V206.906H241.289V214.844C241.289 216.167 241.164 217.349 240.914 218.391C240.664 219.443 240.284 220.333 239.773 221.062C239.263 221.792 238.617 222.349 237.836 222.734C237.065 223.12 236.148 223.312 235.086 223.312C234.148 223.312 233.284 223.099 232.492 222.672C231.701 222.255 231.055 221.594 230.555 220.688C230.055 219.792 229.779 218.62 229.727 217.172L228.523 215.812ZM218.539 215.609V208.688L222.195 210.516V215.609C222.195 216.432 222.326 217.104 222.586 217.625C222.857 218.146 223.221 218.531 223.68 218.781C224.138 219.031 224.664 219.156 225.258 219.156C225.924 219.156 226.503 219.042 226.992 218.812C227.482 218.594 227.857 218.24 228.117 217.75C228.388 217.26 228.523 216.615 228.523 215.812V211.297L231.742 211.328V216.953L230.477 218.031C230.497 219.417 230.253 220.531 229.742 221.375C229.242 222.229 228.591 222.849 227.789 223.234C226.987 223.63 226.128 223.828 225.211 223.828C223.753 223.828 222.523 223.51 221.523 222.875C220.534 222.24 219.789 221.307 219.289 220.078C218.789 218.859 218.539 217.37 218.539 215.609ZM222.195 242.609H218.539V230.5H222.195V242.609ZM241.289 232.031H218.539V227.344H241.289V232.031ZM232.023 241.031H228.461V230.5H232.023V241.031ZM241.289 242.594H237.617V230.5H241.289V242.594ZM241.289 255.828H218.539V251.156H241.289V255.828ZM241.289 262.828H237.617V244.266H241.289V262.828Z" fill="white"/>
<path d="M379.179 141.516H373.257V138.406H379.179C380.21 138.406 381.043 138.24 381.679 137.906C382.314 137.573 382.778 137.115 383.069 136.531C383.371 135.938 383.522 135.26 383.522 134.5C383.522 133.781 383.371 133.109 383.069 132.484C382.778 131.849 382.314 131.339 381.679 130.953C381.043 130.568 380.21 130.375 379.179 130.375H374.46V150H370.538V127.25H379.179C380.939 127.25 382.434 127.562 383.663 128.188C384.903 128.802 385.845 129.656 386.491 130.75C387.137 131.833 387.46 133.073 387.46 134.469C387.46 135.938 387.137 137.198 386.491 138.25C385.845 139.302 384.903 140.109 383.663 140.672C382.434 141.234 380.939 141.516 379.179 141.516Z" fill="#4C8CED"/>
<path d="M507.984 139.719H502.188L502.156 136.859H507.219C508.073 136.859 508.797 136.734 509.391 136.484C509.995 136.224 510.453 135.854 510.766 135.375C511.078 134.885 511.234 134.297 511.234 133.609C511.234 132.849 511.089 132.229 510.797 131.75C510.505 131.271 510.057 130.922 509.453 130.703C508.859 130.484 508.099 130.375 507.172 130.375H503.375V150H499.453V127.25H507.172C508.422 127.25 509.536 127.37 510.516 127.609C511.505 127.849 512.344 128.224 513.031 128.734C513.729 129.234 514.255 129.87 514.609 130.641C514.974 131.411 515.156 132.328 515.156 133.391C515.156 134.328 514.932 135.188 514.484 135.969C514.036 136.74 513.375 137.37 512.5 137.859C511.625 138.349 510.536 138.641 509.234 138.734L507.984 139.719ZM507.812 150H500.953L502.719 146.891H507.812C508.698 146.891 509.438 146.745 510.031 146.453C510.625 146.151 511.068 145.74 511.359 145.219C511.661 144.688 511.812 144.068 511.812 143.359C511.812 142.62 511.682 141.979 511.422 141.438C511.161 140.885 510.75 140.464 510.188 140.172C509.625 139.87 508.891 139.719 507.984 139.719H503.578L503.609 136.859H509.344L510.234 137.938C511.484 137.979 512.51 138.255 513.312 138.766C514.125 139.276 514.729 139.938 515.125 140.75C515.521 141.562 515.719 142.438 515.719 143.375C515.719 144.823 515.401 146.036 514.766 147.016C514.141 147.995 513.24 148.74 512.062 149.25C510.885 149.75 509.469 150 507.812 150Z" fill="#CB5460"/>
<path d="M944.584 249.24H942.616V247.704H938.008V249.504H936.088V231.792H944.584V249.24ZM942.616 245.784V233.688H938.008V245.784H942.616ZM929.992 236.184V233.616C929.496 233.712 929 233.784 928.504 233.832C928.008 233.88 927.512 233.928 927.016 233.976L926.392 232.152C928.04 232.024 929.52 231.832 930.832 231.576C932.16 231.304 933.328 230.976 934.336 230.592L935.32 232.296C934.184 232.712 933.056 233.032 931.936 233.256V236.184H935.44V238.056H931.936V238.92C932.56 239.432 933.168 239.984 933.76 240.576C934.352 241.168 934.968 241.784 935.608 242.424L934.408 244.2C933.944 243.496 933.504 242.872 933.088 242.328C932.672 241.784 932.288 241.304 931.936 240.888V249.936H929.992V241.296C929.16 243.072 928.072 244.712 926.728 246.216L925.84 244.008C927.728 242.296 929.112 240.352 929.992 238.176V238.056H926.44V236.184H929.992ZM961.27 231.938V249H958.352V231.938H961.27ZM966.625 231.938V234.281H953.043V231.938H966.625ZM972.016 231.938V249H969.074V231.938H972.016ZM986.84 246.668V249H977.781V246.668H986.84ZM978.613 231.938V249H975.672V231.938H978.613ZM985.656 239.062V241.359H977.781V239.062H985.656ZM986.781 231.938V234.281H977.781V231.938H986.781Z" fill="#98C887"/>
</svg>
