<svg width="37" height="55" viewBox="0 0 37 55" fill="none" xmlns="http://www.w3.org/2000/svg">
<path d="M2.71854 1.05151C2.71854 1.05151 2.72319 1.03051 2.7403 1.02973C3.6473 0.962835 4.5862 1.02973 5.49475 1.02973C14.5709 1.02973 23.7708 1.02973 32.84 1.02973C33.74 1.02973 34.3094 1.32999 34.801 1.8006C35.2724 2.25177 35.5283 2.87484 35.5283 3.80595C35.5283 19.3066 35.5283 34.7138 35.5283 50.2728C35.5283 51.2257 35.4777 51.9872 35.0655 52.5418C34.6882 53.049 34.118 53.4426 33.3689 53.5772C32.9644 53.6503 32.4627 53.599 32.003 53.599C22.4126 53.599 12.8456 53.599 3.2918 53.599C2.38247 53.599 1.77964 53.3205 1.30903 52.8499C1.078 52.6189 0.865638 52.3396 0.758292 52.0347C0.411362 51.0507 0.55995 49.4794 0.55995 48.1352C0.55995 33.638 0.55995 18.9752 0.55995 4.40024C0.55995 3.41857 0.615156 2.70682 1.02276 2.1312C1.40392 1.59213 1.91189 1.20398 2.71854 1.05151Z" fill="#FAF8F4" stroke="black" stroke-linejoin="round"/>
<path fill-rule="evenodd" clip-rule="evenodd" d="M31.5854 43.7916C32.0872 43.2004 32.536 42.5532 32.9211 41.8384C33.3124 42.547 33.7511 43.2051 34.2621 43.7854C33.7581 44.3727 33.3084 45.0191 32.9265 45.7386C32.5329 45.0323 32.0957 44.3735 31.5854 43.7916Z" fill="#FF0101"/>
<path fill-rule="evenodd" clip-rule="evenodd" d="M1.79346 10.8309C2.29518 10.2397 2.74323 9.59255 3.12905 8.87769C3.52032 9.58633 3.95906 10.2444 4.47012 10.8247C3.96606 11.412 3.51642 12.0584 3.13449 12.7779C2.74088 12.0716 2.30374 11.4128 1.79346 10.8309Z" fill="#FF0101"/>
<path fill-rule="evenodd" clip-rule="evenodd" d="M22.0176 10.5695C23.1649 9.30469 24.191 7.92009 25.0731 6.39001C25.9684 7.90608 26.9711 9.31481 28.141 10.5571C26.9874 11.8149 25.9591 13.1979 25.0855 14.7366C24.1848 13.2259 23.1844 11.8141 22.0176 10.5695Z" fill="#FF0101"/>
<path fill-rule="evenodd" clip-rule="evenodd" d="M28.14 44.0467C26.9926 45.3115 25.9666 46.6961 25.0845 48.2262C24.1892 46.7101 23.1865 45.3014 22.0166 44.0591C23.1702 42.8013 24.1985 41.4183 25.0721 39.8796C25.9728 41.3903 26.9732 42.8021 28.14 44.0467Z" fill="#FF0101"/>
<path fill-rule="evenodd" clip-rule="evenodd" d="M7.91553 10.5695C9.06211 9.30469 10.0889 7.92009 10.9702 6.39001C11.8656 7.90608 12.8683 9.31481 14.0382 10.5571C12.8846 11.8149 11.8563 13.1979 10.9835 14.7366C10.0827 13.2259 9.08233 11.8141 7.91553 10.5695Z" fill="#FF0101"/>
<path fill-rule="evenodd" clip-rule="evenodd" d="M14.0382 44.0467C12.8916 45.3115 11.8648 46.6961 10.9835 48.2262C10.0882 46.7101 9.08544 45.3014 7.91553 44.0591C9.06911 42.8013 10.0975 41.4183 10.9702 39.8796C11.871 41.3903 12.8714 42.8021 14.0382 44.0467Z" fill="#FF0101"/>
<path fill-rule="evenodd" clip-rule="evenodd" d="M14.9658 16.1437C16.1124 14.8789 17.1392 13.4943 18.0213 11.9642C18.9166 13.4803 19.9193 14.889 21.0892 16.1313C19.9356 17.3891 18.9073 18.7722 18.0345 20.3108C17.1338 18.8002 16.1334 17.3883 14.9666 16.1437H14.9658Z" fill="#FF0101"/>
<path fill-rule="evenodd" clip-rule="evenodd" d="M7.91553 21.7179C9.06211 20.4531 10.0889 19.0685 10.9702 17.5385C11.8656 19.0545 12.8683 20.4632 14.0382 21.7055C12.8846 22.9633 11.8563 24.3464 10.9835 25.885C10.0827 24.3744 9.08233 22.9625 7.91553 21.7179Z" fill="#FF0101"/>
<path fill-rule="evenodd" clip-rule="evenodd" d="M14.0382 32.8983C12.8916 34.1631 11.8648 35.5477 10.9835 37.0778C10.0882 35.5617 9.08544 34.153 7.91553 32.9107C9.06911 31.6529 10.0975 30.2698 10.9702 28.7312C11.871 30.2418 12.8714 31.6537 14.0382 32.8983Z" fill="#FF0101"/>
<path fill-rule="evenodd" clip-rule="evenodd" d="M22.0176 21.7179C23.1649 20.4531 24.191 19.0685 25.0731 17.5385C25.9684 19.0545 26.9711 20.4632 28.141 21.7055C26.9874 22.9633 25.9591 24.3464 25.0855 25.885C24.1848 24.3744 23.1844 22.9625 22.0176 21.7179Z" fill="#FF0101"/>
<path fill-rule="evenodd" clip-rule="evenodd" d="M28.14 32.8983C26.9926 34.1631 25.9666 35.5477 25.0845 37.0778C24.1892 35.5617 23.1865 34.153 22.0166 32.9107C23.1702 31.6529 24.1985 30.2698 25.0721 28.7312C25.9728 30.2418 26.9732 31.6537 28.14 32.8983Z" fill="#FF0101"/>
<path fill-rule="evenodd" clip-rule="evenodd" d="M21.0894 38.4725C19.942 39.7373 18.916 41.1219 18.0347 42.652C17.1394 41.1359 16.1367 39.7272 14.9668 38.4849C16.1204 37.2271 17.1487 35.844 18.0223 34.3054C18.923 35.816 19.9234 37.2279 21.0902 38.4725H21.0894Z" fill="#FF0101"/>
<path fill-rule="evenodd" clip-rule="evenodd" d="M3.51404 3.50807C3.99944 3.46528 4.47392 3.65664 4.64427 4.0728C4.81618 4.49519 4.72517 5.48463 4.72517 6.06337C4.72517 6.68411 4.79364 7.60666 4.61784 7.97304C4.27324 8.69257 2.99209 8.6669 2.65372 7.97304C2.45225 7.55921 2.54638 6.54409 2.54638 5.82145C2.54638 4.55119 2.38534 3.60763 3.5148 3.50807H3.51404ZM3.2721 4.1537C3.08152 4.3365 3.15233 4.39017 3.15622 4.6002C3.17177 5.47919 3.17334 6.82413 3.164 7.651C3.24257 8.01116 3.94808 8.0485 4.07876 7.70468V4.26182C3.93408 4.02924 3.45801 3.97557 3.2721 4.15448V4.1537Z" fill="#FF0101"/>
<path d="M2.1203 3.52356H1.51514V8.48715H2.1203V3.52356Z" fill="#FF0101"/>
<path fill-rule="evenodd" clip-rule="evenodd" d="M32.5411 51.1091C32.0565 51.1518 31.5812 50.9605 31.4116 50.5443C31.2397 50.1219 31.3307 49.1325 31.3307 48.5538C31.3307 47.933 31.2631 47.0105 31.4381 46.6441C31.7827 45.9245 33.0638 45.9502 33.4022 46.6441C33.6037 47.0587 33.5095 48.073 33.5095 48.7964C33.5095 50.0667 33.6705 51.0103 32.5411 51.1098V51.1091ZM32.783 50.4634C32.9736 50.2814 32.9028 50.2269 32.8989 50.0169C32.8834 49.1379 32.8818 47.793 32.8911 46.9669C32.8126 46.6067 32.107 46.5694 31.9764 46.9132V50.3561C32.121 50.5887 32.5971 50.6423 32.7838 50.4634H32.783Z" fill="#FF0101"/>
<path d="M34.5403 46.129H33.9351V51.0926H34.5403V46.129Z" fill="#FF0101"/>
</svg>
