<svg width="37" height="55" viewBox="0 0 37 55" fill="none" xmlns="http://www.w3.org/2000/svg">
<path d="M2.71853 1.05151C2.71853 1.05151 2.7232 1.03051 2.74031 1.02973C3.64731 0.962835 4.5862 1.02973 5.49475 1.02973C14.5709 1.02973 23.7708 1.02973 32.84 1.02973C33.74 1.02973 34.3094 1.32999 34.801 1.8006C35.2724 2.25177 35.5283 2.87484 35.5283 3.80595C35.5283 19.3066 35.5275 34.7138 35.5283 50.2728C35.5283 51.2257 35.4778 51.9872 35.0655 52.5418C34.6882 53.0498 34.1173 53.4426 33.369 53.5772C32.9645 53.6503 32.4627 53.599 32.003 53.599C22.4127 53.599 12.8456 53.599 3.29182 53.599C2.38249 53.599 1.77964 53.3205 1.30903 52.8499C1.07801 52.6189 0.865647 52.3396 0.7583 52.0347C0.41137 51.0507 0.559944 49.4794 0.559944 48.1352C0.559944 33.6381 0.559944 18.9752 0.559944 4.40024C0.559944 3.41857 0.615172 2.70682 1.02278 2.1312C1.40393 1.59213 1.91188 1.20398 2.71853 1.05151Z" fill="#FAF8F4" stroke="black" stroke-linejoin="round"/>
<path d="M4.4951 7.96214L3.5142 3.50183H2.75189L1.771 7.96214H1.41162V8.50276H2.71767V7.96214H2.38007L2.52553 7.29551H3.73979L3.88525 7.96214H3.54765V8.50276H4.85525V7.96214H4.49588H4.4951ZM2.65621 6.69421L3.13227 4.50917L3.60833 6.69421H2.65621Z" fill="#FF0101"/>
<path d="M31.5609 46.6527L32.5418 51.1138H33.3041L34.285 46.6527H34.6444V46.1121H33.3368V46.6527H33.6744L33.5289 47.3201H32.3147L32.1692 46.6527H32.5068V46.1121H31.1992V46.6527H31.5586H31.5609ZM33.3998 47.9206L32.9238 50.1056L32.4477 47.9206H33.3998Z" fill="#FF0101"/>
<path fill-rule="evenodd" clip-rule="evenodd" d="M31.5854 43.7917C32.0872 43.2006 32.536 42.5541 32.9211 41.8385C33.3123 42.5471 33.751 43.2052 34.2621 43.7855C33.758 44.3728 33.3084 45.0192 32.9265 45.738C32.5329 45.0317 32.0957 44.3728 31.5854 43.791V43.7917Z" fill="#FF0101"/>
<path fill-rule="evenodd" clip-rule="evenodd" d="M1.79346 10.831C2.29441 10.2399 2.74401 9.59267 3.12906 8.87781C3.52033 9.58645 3.95905 10.2445 4.47011 10.8248C3.96605 11.4121 3.51644 12.0585 3.13451 12.778C2.7409 12.0717 2.30374 11.4129 1.79346 10.831Z" fill="#FF0101"/>
<path fill-rule="evenodd" clip-rule="evenodd" d="M14.9663 27.3149C16.1129 26.0501 17.1397 24.6654 18.021 23.1354C18.9163 24.6514 19.919 26.0602 21.0889 27.3024C19.9353 28.5602 18.907 29.9433 18.0342 31.4819C17.1335 29.9713 16.1331 28.5595 14.9663 27.3149Z" fill="#FF0101"/>
</svg>
