<svg width="37" height="55" viewBox="0 0 37 55" fill="none" xmlns="http://www.w3.org/2000/svg">
<path d="M2.71853 1.05151C2.71853 1.05151 2.7232 1.03051 2.74031 1.02973C3.64731 0.962835 4.58542 1.02973 5.49475 1.02973C14.5709 1.02973 23.7708 1.02973 32.84 1.02973C33.7408 1.02973 34.3094 1.32999 34.801 1.8006C35.2724 2.25255 35.5283 2.87484 35.5283 3.80595C35.5283 19.3066 35.5283 34.7138 35.5283 50.2728C35.5283 51.2257 35.4778 51.9872 35.0655 52.5418C34.6882 53.049 34.1173 53.4426 33.369 53.5772C32.9645 53.6503 32.4627 53.599 32.003 53.599C22.4126 53.599 12.8456 53.599 3.29182 53.599C2.38249 53.599 1.77964 53.3205 1.30903 52.8499C1.07801 52.6189 0.865646 52.3396 0.7583 52.0347C0.41137 51.0507 0.559944 49.4794 0.559944 48.1352C0.559944 33.6381 0.559944 18.9752 0.559944 4.40024C0.559944 3.41857 0.615174 2.70682 1.02278 2.1312C1.40393 1.59291 1.91266 1.20398 2.71931 1.05151H2.71853Z" fill="#FAF8F4" stroke="black" stroke-linejoin="round"/>
<path d="M3.58195 6.41184C4.09068 6.12947 4.65697 5.73743 4.71764 5.0599C4.91055 2.92154 1.14099 2.98299 1.58049 5.24892L2.14833 5.1408C1.86441 3.88376 3.90165 3.74452 4.09534 4.7083C4.26103 5.5344 3.49638 5.8121 3.01333 6.08747C2.28679 6.50129 1.5976 6.9649 1.54471 7.92557L1.54004 8.50275H4.68964V7.34217H4.1039V7.92557H2.202C2.20589 6.97968 2.96821 6.75254 3.58117 6.41184H3.58195Z" fill="#FF0101"/>
<path d="M32.4754 48.2045C31.9666 48.4876 31.4011 48.8789 31.3397 49.5564C31.1468 51.6948 34.9163 51.6333 34.4768 49.3674L33.909 49.4755C34.1929 50.7333 32.1557 50.8718 31.962 49.908C31.7963 49.0819 32.5609 48.8042 33.0432 48.5289C33.7698 48.115 34.4589 47.6514 34.5118 46.69L34.5165 46.1128H31.3669V47.2734H31.9526V46.69H33.8545C33.8507 47.6359 33.0883 47.8638 32.4754 48.2037V48.2045Z" fill="#FF0101"/>
<path fill-rule="evenodd" clip-rule="evenodd" d="M31.5854 43.7916C32.0872 43.2004 32.536 42.5532 32.9211 41.8384C33.3123 42.547 33.751 43.2051 34.2621 43.7854C33.758 44.3727 33.3084 45.0191 32.9265 45.7378C32.5329 45.0315 32.0957 44.3727 31.5854 43.7908V43.7916Z" fill="#FF0101"/>
<path fill-rule="evenodd" clip-rule="evenodd" d="M1.79443 10.8309C2.29616 10.2405 2.74421 9.59333 3.13004 8.87769C3.52131 9.58633 3.96003 10.2444 4.47109 10.8247C3.96625 11.412 3.51742 12.0584 3.13548 12.7771C2.74188 12.0716 2.30472 11.412 1.79443 10.8301V10.8309Z" fill="#FF0101"/>
<path fill-rule="evenodd" clip-rule="evenodd" d="M14.9668 10.5695C16.1134 9.30469 17.1402 7.92009 18.0215 6.39001C18.9168 7.90608 19.9195 9.31481 21.0894 10.5571C19.9358 11.8149 18.9075 13.1979 18.0347 14.7366C17.1339 13.2259 16.1336 11.8141 14.9668 10.5695Z" fill="#FF0101"/>
<path fill-rule="evenodd" clip-rule="evenodd" d="M21.0894 44.0467C19.9428 45.3115 18.916 46.6961 18.0347 48.2262C17.1394 46.7101 16.1367 45.3014 14.9668 44.0591C16.1204 42.8013 17.1487 41.4183 18.0215 39.8796C18.9223 41.3903 19.9226 42.8021 21.0894 44.0467Z" fill="#FF0101"/>
</svg>
