<svg width="37" height="55" viewBox="0 0 37 55" fill="none" xmlns="http://www.w3.org/2000/svg">
<path d="M2.71926 1.05151C2.71926 1.05151 2.72393 1.03051 2.74104 1.02973C3.64802 0.962836 4.58689 1.02973 5.49542 1.02973C14.5714 1.02973 23.7711 1.02973 32.8401 1.02973C33.74 1.02973 34.3094 1.32999 34.801 1.80059C35.2724 2.25174 35.5283 2.8748 35.5283 3.80589C35.5283 19.3062 35.5283 34.7131 35.5283 50.2717C35.5283 51.2246 35.4778 51.9861 35.0655 52.5407C34.6882 53.0479 34.1173 53.4415 33.369 53.576C32.9645 53.6491 32.4628 53.5978 32.0031 53.5978C22.4129 53.5978 12.8461 53.5978 3.29254 53.5978C2.38323 53.5978 1.78039 53.3193 1.30902 52.8487C1.07799 52.6177 0.865639 52.3385 0.758295 52.0336C0.411372 51.0496 0.559943 49.4783 0.559943 48.1342C0.559943 33.6373 0.559943 18.9748 0.559943 4.40017C0.559943 3.41852 0.615172 2.70678 1.02277 2.13117C1.40391 1.5929 1.91263 1.20397 2.71926 1.05151Z" fill="#FAF8F4" stroke="black" stroke-linejoin="round"/>
<path fill-rule="evenodd" clip-rule="evenodd" d="M31.5854 43.7906C32.0864 43.1994 32.5352 42.5522 32.921 41.8374C33.3123 42.546 33.751 43.2041 34.262 43.7844C33.758 44.3716 33.3084 45.018 32.9265 45.7376C32.5329 45.0313 32.0957 44.3724 31.5854 43.7906Z" fill="#FF0101"/>
<path fill-rule="evenodd" clip-rule="evenodd" d="M1.79492 10.8305C2.29664 10.2401 2.74546 9.59294 3.13049 8.87732C3.52175 9.58594 3.96046 10.244 4.47151 10.8243C3.96746 11.4116 3.51787 12.058 3.13594 12.7767C2.74235 12.0712 2.30519 11.4116 1.79492 10.8297V10.8305Z" fill="#FF0101"/>
<path fill-rule="evenodd" clip-rule="evenodd" d="M14.9673 10.5692C16.1138 9.30438 17.1406 7.91981 18.0219 6.38977C18.9172 7.90581 19.9199 9.3145 21.0898 10.5567C19.9362 11.8145 18.9079 13.1975 18.0351 14.7361C17.1344 13.2255 16.1341 11.8137 14.9673 10.5692Z" fill="#FF0101"/>
<path fill-rule="evenodd" clip-rule="evenodd" d="M14.9673 27.314C16.1138 26.0493 17.1406 24.6647 18.0219 23.1346C18.9172 24.6507 19.9199 26.0594 21.0898 27.3016C19.9362 28.5594 18.9079 29.9424 18.0351 31.481C17.1344 29.9704 16.1341 28.5586 14.9673 27.314Z" fill="#FF0101"/>
<path fill-rule="evenodd" clip-rule="evenodd" d="M21.0898 44.0456C19.9432 45.3104 18.9164 46.695 18.0351 48.225C17.1398 46.709 16.1372 45.3003 14.9673 44.0581C16.1208 42.8003 17.1492 41.4173 18.0219 39.8787C18.9227 41.3893 19.923 42.8011 21.0898 44.0456Z" fill="#FF0101"/>
<path fill-rule="evenodd" clip-rule="evenodd" d="M31.67 51.3116C31.67 51.1389 31.6677 50.9973 31.6677 50.7834C31.9765 50.3634 32.3289 50.0141 32.6812 49.6384C31.961 49.4035 31.4219 48.9586 31.3418 48.1356C31.208 46.7573 32.822 45.7235 34.0479 46.6872C34.251 46.8467 34.3645 47.0544 34.5123 47.3158C34.2961 47.4223 34.1802 47.4752 34.0207 47.5616C33.8364 47.2668 33.7313 47.14 33.5011 47.0147C32.8251 46.646 32.0224 47.0948 31.9431 47.7529C31.8536 48.4942 32.3763 49.2635 33.3642 49.0099C33.449 49.1624 33.5182 49.3304 33.5828 49.5015C33.2265 49.92 32.8065 50.2739 32.4619 50.7041C32.8189 50.7095 33.4684 50.7056 33.8286 50.7041C33.8286 50.4645 33.8356 50.4194 33.8356 50.109H34.4555V51.3046C31.67 51.3116 32.5965 51.3116 31.67 51.3116Z" fill="#FF0101"/>
<path fill-rule="evenodd" clip-rule="evenodd" d="M4.38622 3.30334C4.38622 3.47681 4.38855 3.6176 4.38855 3.83151C4.07975 4.25155 3.72738 4.6008 3.37501 4.97651C4.09531 5.21142 4.63436 5.65635 4.71447 6.47932C4.84827 7.85767 3.23422 8.89144 2.00833 7.92768C1.80531 7.76822 1.69174 7.56053 1.54395 7.29917C1.76019 7.19261 1.87609 7.13971 2.03555 7.05337C2.2199 7.34818 2.32491 7.47497 2.55515 7.6002C3.23189 7.96891 4.03385 7.52009 4.1132 6.86202C4.20265 6.12073 3.67993 5.35143 2.69206 5.60501C2.60727 5.45333 2.53804 5.28531 2.47348 5.11341C2.82974 4.69492 3.24978 4.341 3.59437 3.91085C3.23733 3.9054 2.58783 3.90929 2.22768 3.91085C2.22768 4.15043 2.22068 4.19554 2.22068 4.5059H1.60073V3.31034C4.38622 3.30334 3.4598 3.30334 4.38622 3.30334Z" fill="#FF0101"/>
</svg>
