<svg width="37" height="55" viewBox="0 0 37 55" fill="none" xmlns="http://www.w3.org/2000/svg">
<path d="M2.71854 1.05151C2.71854 1.05151 2.7232 1.03051 2.74031 1.02973C3.64731 0.962835 4.58542 1.02973 5.49475 1.02973C14.5709 1.02973 23.7708 1.02973 32.84 1.02973C33.74 1.02973 34.3094 1.32999 34.801 1.8006C35.2724 2.25177 35.5283 2.87484 35.5283 3.80595C35.5283 19.3066 35.5283 34.7139 35.5283 50.2728C35.5283 51.2257 35.4778 51.9872 35.0655 52.5419C34.6882 53.049 34.118 53.4426 33.369 53.5772C32.9645 53.6503 32.4627 53.599 32.003 53.599C22.4127 53.599 12.8456 53.599 3.29183 53.599C2.3825 53.599 1.77965 53.3205 1.30904 52.8499C1.07801 52.6181 0.865643 52.3396 0.758297 52.0347C0.411367 51.0507 0.559946 49.4794 0.559946 48.1352C0.559946 33.6381 0.559946 18.9752 0.559946 4.40024C0.559946 3.41857 0.615171 2.70682 1.02278 2.1312C1.40393 1.59291 1.91265 1.20398 2.71931 1.05151H2.71854Z" fill="#FAF8F4" stroke="black" stroke-linejoin="round"/>
<path fill-rule="evenodd" clip-rule="evenodd" d="M31.5854 43.7917C32.0872 43.2006 32.536 42.5534 32.921 41.8385C33.3123 42.5471 33.751 43.2052 34.2621 43.7855C33.758 44.3728 33.3084 45.0192 32.9265 45.738C32.5329 45.0317 32.0957 44.3728 31.5854 43.791V43.7917Z" fill="#FF0101"/>
<path fill-rule="evenodd" clip-rule="evenodd" d="M1.79395 10.831C2.29567 10.2399 2.7445 9.59345 3.12954 8.87781C3.52081 9.58645 3.95953 10.2445 4.47059 10.8248C3.96653 11.4121 3.51693 12.0585 3.13499 12.7781C2.74139 12.0717 2.30423 11.4129 1.79395 10.831Z" fill="#FF0101"/>
<path fill-rule="evenodd" clip-rule="evenodd" d="M22.0176 10.5696C23.1642 9.30482 24.1909 7.92021 25.0731 6.39014C25.9684 7.90621 26.9711 9.31493 28.141 10.5572C26.9874 11.815 25.959 13.1981 25.0863 14.7367C24.1855 13.2261 23.1852 11.8142 22.0184 10.5696H22.0176Z" fill="#FF0101"/>
<path fill-rule="evenodd" clip-rule="evenodd" d="M28.1402 44.0468C26.9936 45.3116 25.9668 46.6962 25.0855 48.2263C24.1902 46.7102 23.1875 45.3015 22.0176 44.0593C23.1712 42.8014 24.1995 41.4184 25.0723 39.8798C25.973 41.3904 26.9734 42.8022 28.1402 44.0468Z" fill="#FF0101"/>
<path fill-rule="evenodd" clip-rule="evenodd" d="M7.91553 10.5696C9.06211 9.30482 10.0889 7.92021 10.9702 6.39014C11.8656 7.90621 12.8682 9.31493 14.0381 10.5572C12.8846 11.815 11.8562 13.1981 10.9835 14.7367C10.0827 13.2261 9.08233 11.8142 7.91553 10.5696Z" fill="#FF0101"/>
<path fill-rule="evenodd" clip-rule="evenodd" d="M14.0381 44.0468C12.8916 45.3116 11.8648 46.6962 10.9835 48.2263C10.0881 46.7102 9.08544 45.3015 7.91553 44.0593C9.06911 42.8014 10.0975 41.4184 10.9702 39.8798C11.871 41.3904 12.8713 42.8022 14.0381 44.0468Z" fill="#FF0101"/>
<path fill-rule="evenodd" clip-rule="evenodd" d="M4.18738 3.50183V6.72533H4.74589C4.76222 6.88868 4.76222 7.15626 4.74589 7.31184C4.56309 7.31184 4.35151 7.29939 4.19049 7.29939C4.19049 7.54442 4.18738 7.63777 4.18738 7.91391C4.30173 7.91391 4.42307 7.91702 4.52264 7.91702C4.52264 8.07571 4.51642 8.27406 4.51642 8.50354C4.0357 8.50354 3.68799 8.50043 3.21037 8.50043V7.94503C3.31539 7.94503 3.44918 7.94192 3.56663 7.94192C3.56663 7.70311 3.57286 7.60043 3.57286 7.29939H1.50917C1.50917 7.10726 1.50684 6.95324 1.50684 6.76889C2.18592 5.68842 2.84789 4.56596 3.54564 3.50417C3.772 3.50417 3.92057 3.50183 4.18815 3.50183H4.18738ZM2.3166 6.72533H3.57364C3.57364 5.97468 3.57675 5.51496 3.57675 4.73087L2.31738 6.72533H2.3166Z" fill="#FF0101"/>
<path fill-rule="evenodd" clip-rule="evenodd" d="M31.8686 51.1146V47.8911H31.3101C31.2938 47.7278 31.2938 47.4602 31.3101 47.3046C31.4929 47.3046 31.7045 47.3171 31.8655 47.3171C31.8655 47.072 31.8686 46.9787 31.8686 46.7025C31.7543 46.7025 31.6329 46.6994 31.5334 46.6994C31.5334 46.5407 31.5396 46.3424 31.5396 46.1129C32.0203 46.1129 32.368 46.116 32.8456 46.116V46.6714C32.7406 46.6714 32.6068 46.6745 32.4886 46.6745C32.4886 46.9133 32.4824 47.016 32.4824 47.3171H34.546C34.546 47.5092 34.5484 47.6632 34.5484 47.8476C33.8693 48.928 33.2073 50.0505 32.5096 51.1123C32.2832 51.1123 32.1346 51.1146 31.8671 51.1146H31.8686ZM33.7394 47.8911H32.4831C32.4831 48.6425 32.48 49.1015 32.48 49.8864L33.7394 47.8911Z" fill="#FF0101"/>
</svg>
