<svg width="37" height="55" viewBox="0 0 37 55" fill="none" xmlns="http://www.w3.org/2000/svg">
<path d="M2.71853 1.05151C2.71853 1.05151 2.7232 1.03051 2.74031 1.02973C3.64731 0.962835 4.58541 1.02973 5.49475 1.02973C14.5709 1.02973 23.7708 1.02973 32.84 1.02973C33.74 1.02973 34.3094 1.32999 34.801 1.8006C35.2724 2.25177 35.5283 2.87484 35.5283 3.80595C35.5283 19.3066 35.5283 34.7138 35.5283 50.2728C35.5283 51.2257 35.4778 51.9872 35.0655 52.5418C34.6882 53.049 34.1173 53.4426 33.3689 53.5772C32.9645 53.6503 32.4627 53.599 32.003 53.599C22.4126 53.599 12.8456 53.599 3.29182 53.599C2.38249 53.599 1.77964 53.3205 1.30903 52.8499C1.078 52.6189 0.865649 52.3396 0.758303 52.0347C0.411372 51.0507 0.559942 49.4794 0.559942 48.1352C0.559942 33.6381 0.559942 18.9752 0.559942 4.40024C0.559942 3.41857 0.615167 2.70682 1.02277 2.1312C1.40393 1.59291 1.91188 1.20398 2.71853 1.05151Z" fill="#FAF8F4" stroke="black" stroke-linejoin="round"/>
<path fill-rule="evenodd" clip-rule="evenodd" d="M31.5854 43.7917C32.0872 43.2006 32.536 42.5534 32.921 41.8385C33.3123 42.5471 33.751 43.2052 34.2621 43.7855C33.758 44.3728 33.3084 45.0192 32.9265 45.738C32.5329 45.0324 32.0957 44.3728 31.5854 43.791V43.7917Z" fill="#FF0101"/>
<path fill-rule="evenodd" clip-rule="evenodd" d="M1.79443 10.831C2.29616 10.2406 2.74499 9.5934 3.13004 8.87854C3.52131 9.58718 3.96003 10.2453 4.47109 10.8256C3.96703 11.4128 3.51742 12.0593 3.13548 12.7788C2.74188 12.0725 2.30472 11.4136 1.79443 10.8318V10.831Z" fill="#FF0101"/>
<path fill-rule="evenodd" clip-rule="evenodd" d="M22.0181 10.5696C23.1646 9.30481 24.1914 7.92021 25.0727 6.39014C25.9681 7.90621 26.9708 9.31493 28.1407 10.5572C26.9871 11.815 25.9588 13.1981 25.086 14.7367C24.1852 13.2261 23.1849 11.8142 22.0181 10.5696Z" fill="#FF0101"/>
<path fill-rule="evenodd" clip-rule="evenodd" d="M28.1407 44.0468C26.9941 45.3116 25.9673 46.6962 25.086 48.2263C24.1907 46.7102 23.188 45.3015 22.0181 44.0593C23.1716 42.8014 24.2 41.4184 25.0727 39.8798C25.9735 41.3904 26.9739 42.8022 28.1407 44.0468Z" fill="#FF0101"/>
<path fill-rule="evenodd" clip-rule="evenodd" d="M7.91553 10.5696C9.06211 9.30481 10.0889 7.92021 10.9702 6.39014C11.8656 7.90621 12.8682 9.31493 14.0382 10.5572C12.8846 11.815 11.8562 13.1981 10.9835 14.7367C10.0827 13.2261 9.08233 11.8142 7.91553 10.5696Z" fill="#FF0101"/>
<path fill-rule="evenodd" clip-rule="evenodd" d="M14.0391 44.0468C12.8925 45.3116 11.8658 46.6962 10.9844 48.2263C10.0891 46.7102 9.08642 45.3015 7.9165 44.0593C9.07009 42.8014 10.0984 41.4184 10.9712 39.8798C11.872 41.3904 12.8723 42.8022 14.0391 44.0468Z" fill="#FF0101"/>
<path fill-rule="evenodd" clip-rule="evenodd" d="M14.9668 27.3149C16.1134 26.0501 17.1402 24.6654 18.0215 23.1354C18.9168 24.6514 19.9195 26.0602 21.0894 27.3024C19.9358 28.5602 18.9075 29.9433 18.0347 31.4819C17.1339 29.9713 16.1336 28.5595 14.9668 27.3149Z" fill="#FF0101"/>
<path fill-rule="evenodd" clip-rule="evenodd" d="M4.21133 3.50183V4.08446C3.39923 4.08446 2.9224 4.08135 2.388 4.08135C2.34989 4.44305 2.33588 4.64375 2.30477 5.02101C2.56458 4.90822 3.15654 4.80087 3.60382 4.93855C5.19767 5.42706 5.09421 8.45453 3.10676 8.50276C2.65015 8.51365 2.14764 8.28262 1.89094 8.03292C1.84116 7.9847 1.60391 7.71166 1.55957 7.50786C1.68714 7.42774 1.8186 7.35929 2.02941 7.25894C2.12897 7.43474 2.23399 7.53975 2.28144 7.59343C3.00408 8.41563 4.24866 7.74278 4.07442 6.3745C3.96552 5.51807 2.78627 5.06301 2.19509 5.87744C1.92906 5.7631 1.90106 5.7421 1.64203 5.6013C1.68248 4.92767 1.69336 4.24626 1.75248 3.50417C2.62603 3.50417 3.34478 3.50183 4.21211 3.50183H4.21133Z" fill="#FF0101"/>
<path fill-rule="evenodd" clip-rule="evenodd" d="M31.846 51.1146V50.5319C32.6581 50.5319 33.1349 50.5343 33.6693 50.5343C33.7074 50.1726 33.7215 49.9719 33.7526 49.5946C33.4928 49.7074 32.9008 49.8148 32.4535 49.6778C30.8597 49.1893 30.9631 46.1619 32.9506 46.1137C33.4072 46.1028 33.9097 46.3338 34.1664 46.5835C34.2162 46.6325 34.4534 46.9047 34.4978 47.1085C34.3702 47.1887 34.2387 47.2571 34.0279 47.3575C33.9284 47.1817 33.8234 47.0767 33.7759 47.023C33.054 46.2008 31.8087 46.8736 31.9829 48.2419C32.0918 49.0983 33.2711 49.5534 33.8622 48.739C34.1283 48.8533 34.1563 48.8743 34.4153 49.0151C34.3749 49.6887 34.364 50.3709 34.3049 51.1122C33.4313 51.1122 32.7126 51.1146 31.8452 51.1146H31.846Z" fill="#FF0101"/>
</svg>
