<svg width="37" height="55" viewBox="0 0 37 55" fill="none" xmlns="http://www.w3.org/2000/svg">
<path d="M2.71927 1.05151C2.71927 1.05151 2.72392 1.03051 2.74103 1.02973C3.64801 0.962836 4.58689 1.02973 5.49542 1.02973C14.5714 1.02973 23.7711 1.02973 32.8401 1.02973C33.7401 1.02973 34.3094 1.32999 34.801 1.80059C35.2724 2.25174 35.5283 2.8748 35.5283 3.80589C35.5283 19.3062 35.5283 34.7131 35.5283 50.2717C35.5283 51.2246 35.4778 51.9861 35.0655 52.5407C34.6882 53.0479 34.1173 53.4415 33.369 53.576C32.9645 53.6492 32.4628 53.5978 32.0031 53.5978C22.413 53.5978 12.8461 53.5978 3.29176 53.5978C2.38245 53.5978 1.77961 53.3193 1.30901 52.8487C1.07799 52.6177 0.865631 52.3385 0.758287 52.0336C0.411364 51.0496 0.55995 49.4783 0.55995 48.1342C0.55995 33.6373 0.55995 18.9748 0.55995 4.40017C0.55995 3.41852 0.615173 2.70679 1.02277 2.13117C1.40392 1.5929 1.91264 1.20397 2.71927 1.05151Z" fill="#FAF8F4" stroke="black" stroke-linejoin="round"/>
<path fill-rule="evenodd" clip-rule="evenodd" d="M31.5854 43.7905C32.0872 43.1993 32.536 42.5529 32.921 41.8373C33.3123 42.5459 33.751 43.204 34.2621 43.7842C33.758 44.3715 33.3084 45.0179 32.9265 45.7374C32.5329 45.0311 32.0957 44.3723 31.5854 43.7905Z" fill="#FF0101"/>
<path fill-rule="evenodd" clip-rule="evenodd" d="M1.79541 10.8305C2.29713 10.2393 2.74594 9.59217 3.13098 8.87732C3.52224 9.58594 3.96095 10.244 4.472 10.8243C3.96717 11.4116 3.51835 12.058 3.13643 12.7767C2.74283 12.0704 2.30568 11.4116 1.79541 10.8297V10.8305Z" fill="#FF0101"/>
<path fill-rule="evenodd" clip-rule="evenodd" d="M22.0176 10.5692C23.1641 9.30438 24.1909 7.91981 25.073 6.38977C25.9683 7.90581 26.9709 9.3145 28.1408 10.5567C26.9873 11.8145 25.959 13.1975 25.0862 14.7361C24.1855 13.2255 23.1851 11.8137 22.0184 10.5692H22.0176Z" fill="#FF0101"/>
<path fill-rule="evenodd" clip-rule="evenodd" d="M28.141 44.0456C26.9937 45.3104 25.9677 46.695 25.0864 48.225C24.1911 46.709 23.1884 45.3003 22.0186 44.0581C23.1721 42.8003 24.2004 41.4173 25.074 39.8787C25.9747 41.3893 26.975 42.8011 28.1418 44.0456H28.141Z" fill="#FF0101"/>
<path fill-rule="evenodd" clip-rule="evenodd" d="M7.91602 10.5692C9.06257 9.30438 10.0893 7.91981 10.9706 6.38977C11.866 7.90581 12.8686 9.3145 14.0385 10.5567C12.885 11.8145 11.8566 13.1975 10.9839 14.7361C10.0831 13.2255 9.0828 11.8137 7.91602 10.5692Z" fill="#FF0101"/>
<path fill-rule="evenodd" clip-rule="evenodd" d="M14.0388 44.0456C12.8915 45.3104 11.8655 46.695 10.9834 48.225C10.0881 46.709 9.08542 45.3003 7.91553 44.0581C9.06908 42.8003 10.0974 41.4173 10.9702 39.8787C11.8709 41.3893 12.8712 42.8011 14.038 44.0456H14.0388Z" fill="#FF0101"/>
<path fill-rule="evenodd" clip-rule="evenodd" d="M22.0176 27.314C23.1641 26.0493 24.1909 24.6647 25.073 23.1346C25.9683 24.6507 26.9709 26.0594 28.1408 27.3016C26.9873 28.5594 25.959 29.9424 25.0862 31.481C24.1855 29.9704 23.1851 28.5586 22.0184 27.314H22.0176Z" fill="#FF0101"/>
<path fill-rule="evenodd" clip-rule="evenodd" d="M7.91602 27.314C9.06257 26.0493 10.0893 24.6647 10.9706 23.1346C11.866 24.6507 12.8686 26.0594 14.0385 27.3016C12.885 28.5594 11.8566 29.9424 10.9839 31.481C10.0831 29.9704 9.0828 28.5586 7.91602 27.314Z" fill="#FF0101"/>
<path fill-rule="evenodd" clip-rule="evenodd" d="M4.46872 4.36122C4.26647 4.46234 4.20347 4.48024 3.98411 4.57669C3.87133 4.40867 3.78653 4.22899 3.60685 4.14576C2.82122 3.78173 2.24326 4.67314 2.31483 5.35688C2.58863 5.1523 3.22337 5.02318 3.68775 5.19509C3.96233 5.29698 4.23379 5.58634 4.36058 5.78703C4.59938 6.16507 4.75574 7.0456 4.52238 7.64376C4.09923 8.72654 2.43541 8.8191 1.88469 7.72466C1.60155 7.16305 1.59222 6.20785 1.66922 5.38332C1.75168 4.49968 2.11881 3.65416 2.88033 3.52659C3.64807 3.39747 4.24781 3.77161 4.46872 4.36122ZM2.28839 6.29886C2.20983 6.61467 2.28916 7.24162 2.45017 7.5372C2.56218 7.74255 2.85234 7.94557 3.06936 7.96813C4.37148 8.09959 4.34348 5.39032 2.90756 5.70769C2.62909 5.76914 2.36229 6.00327 2.28839 6.29963V6.29886Z" fill="#FF0101"/>
<path fill-rule="evenodd" clip-rule="evenodd" d="M31.5876 50.2537C31.7906 50.1526 31.8528 50.1347 32.0722 50.0382C32.185 50.2062 32.2698 50.3859 32.4487 50.4692C33.2343 50.8332 33.8122 49.9418 33.7407 49.258C33.4669 49.4626 32.8322 49.5917 32.3678 49.4198C32.0932 49.3179 31.8217 49.0286 31.6949 48.8279C31.4554 48.4499 31.2998 47.5693 31.5331 46.9704C31.9563 45.8876 33.6201 45.795 34.1708 46.8895C34.454 47.4511 34.4633 48.4063 34.3863 49.2308C34.3038 50.1145 33.9367 50.96 33.1752 51.0876C32.4074 51.2167 31.8077 50.8425 31.5868 50.2529L31.5876 50.2537ZM33.7679 48.3161C33.8465 48.0003 33.7671 47.3733 33.6061 47.0785C33.4941 46.8731 33.2032 46.6701 32.9869 46.6476C31.6848 46.5161 31.7128 49.2254 33.1487 48.908C33.4272 48.8466 33.694 48.6124 33.7679 48.3161Z" fill="#FF0101"/>
</svg>
