<svg width="37" height="55" viewBox="0 0 37 55" fill="none" xmlns="http://www.w3.org/2000/svg">
<path d="M2.71926 1.05151C2.71926 1.05151 2.72393 1.03051 2.74104 1.02973C3.64802 0.962836 4.5861 1.02973 5.49541 1.02973C14.5714 1.02973 23.7711 1.02973 32.8401 1.02973C33.74 1.02973 34.3094 1.32999 34.801 1.80059C35.2724 2.25174 35.5283 2.8748 35.5283 3.80589C35.5283 19.3062 35.5283 34.7131 35.5283 50.2717C35.5283 51.2246 35.4778 51.9861 35.0655 52.5407C34.6882 53.0479 34.1181 53.4415 33.369 53.576C32.9645 53.6491 32.4628 53.5978 32.0031 53.5978C22.4129 53.5978 12.8461 53.5978 3.29255 53.5978C2.38324 53.5978 1.77962 53.3193 1.30902 52.8487C1.078 52.6177 0.865641 52.3385 0.758297 52.0335C0.411375 51.0496 0.559941 49.4783 0.559941 48.1342C0.559941 33.6373 0.559941 18.9748 0.559941 4.40017C0.559941 3.41852 0.615165 2.70678 1.02276 2.13117C1.40391 1.59212 1.91263 1.20397 2.71926 1.05151Z" fill="#FAF8F4" stroke="black" stroke-linejoin="round"/>
<path fill-rule="evenodd" clip-rule="evenodd" d="M31.5854 43.7906C32.0872 43.1994 32.5352 42.5522 32.921 41.8374C33.3123 42.546 33.751 43.2041 34.262 43.7844C33.758 44.3716 33.3084 45.018 32.9265 45.7368C32.5329 45.0305 32.0957 44.3716 31.5854 43.7898V43.7906Z" fill="#FF0101"/>
<path fill-rule="evenodd" clip-rule="evenodd" d="M1.79443 10.8306C2.29615 10.2395 2.74496 9.59307 3.13 8.87744C3.52126 9.58607 3.95997 10.2441 4.47102 10.8244C3.96697 11.4117 3.51738 12.0581 3.13545 12.7768C2.74186 12.0705 2.30471 11.4117 1.79443 10.8299V10.8306Z" fill="#FF0101"/>
<path fill-rule="evenodd" clip-rule="evenodd" d="M22.0181 10.5693C23.1646 9.30451 24.1914 7.91993 25.0735 6.38989C25.9688 7.90593 26.9714 9.31462 28.1413 10.5569C26.9878 11.8146 25.9594 13.1977 25.0867 14.7363C24.1859 13.2257 23.1856 11.8139 22.0188 10.5693H22.0181Z" fill="#FF0101"/>
<path fill-rule="evenodd" clip-rule="evenodd" d="M28.1405 44.0457C26.9932 45.3105 25.9672 46.6951 25.0859 48.2251C24.1906 46.7091 23.188 45.3004 22.0181 44.0582C23.1716 42.8004 24.1999 41.4174 25.0735 39.8788C25.9742 41.3894 26.9745 42.8012 28.1413 44.0457H28.1405Z" fill="#FF0101"/>
<path fill-rule="evenodd" clip-rule="evenodd" d="M7.91602 10.5693C9.06257 9.30451 10.0893 7.91993 10.9706 6.38989C11.866 7.90593 12.8686 9.31462 14.0385 10.5569C12.8849 11.8146 11.8566 13.1977 10.9839 14.7363C10.0831 13.2257 9.08279 11.8139 7.91602 10.5693Z" fill="#FF0101"/>
<path fill-rule="evenodd" clip-rule="evenodd" d="M14.0385 44.0457C12.8919 45.3105 11.8652 46.6951 10.9839 48.2251C10.0886 46.7091 9.08591 45.3004 7.91602 44.0582C9.06957 42.8004 10.0979 41.4174 10.9706 39.8788C11.8714 41.3894 12.8717 42.8012 14.0385 44.0457Z" fill="#FF0101"/>
<path fill-rule="evenodd" clip-rule="evenodd" d="M22.0181 27.3142C23.1646 26.0494 24.1914 24.6648 25.0735 23.1348C25.9688 24.6508 26.9714 26.0595 28.1413 27.3017C26.9878 28.5595 25.9594 29.9425 25.0867 31.4811C24.1859 29.9705 23.1856 28.5587 22.0188 27.3142H22.0181Z" fill="#FF0101"/>
<path fill-rule="evenodd" clip-rule="evenodd" d="M7.91602 27.3142C9.06257 26.0494 10.0893 24.6648 10.9706 23.1348C11.866 24.6508 12.8686 26.0595 14.0385 27.3017C12.8849 28.5595 11.8566 29.9425 10.9839 31.4811C10.0831 29.9705 9.08279 28.5587 7.91602 27.3142Z" fill="#FF0101"/>
<path fill-rule="evenodd" clip-rule="evenodd" d="M14.9666 18.9421C16.1139 17.6773 17.1399 16.2927 18.0212 14.7627C18.9165 16.2787 19.92 17.6874 21.0891 18.9297C19.9355 20.1874 18.9072 21.5705 18.0337 23.1091C17.1329 21.5985 16.1326 20.1867 14.9658 18.9421H14.9666Z" fill="#FF0101"/>
<path fill-rule="evenodd" clip-rule="evenodd" d="M4.72388 3.50171C4.7371 3.66817 4.71532 4.0042 4.72388 4.25623C3.72511 5.19198 3.2654 6.63412 3.29885 8.5033H2.68435C2.66024 6.55945 3.12774 5.10953 3.99738 4.08899H2.18108V4.7066C1.88705 4.7066 1.74704 4.70349 1.54247 4.70349C1.54247 4.194 1.53857 3.97075 1.53857 3.50482C2.57623 3.50482 3.44275 3.50249 4.72388 3.50249V3.50171Z" fill="#FF0101"/>
<path fill-rule="evenodd" clip-rule="evenodd" d="M31.3325 51.1133C31.3193 50.9468 31.3411 50.6108 31.3325 50.3588C32.3313 49.423 32.791 47.9809 32.7575 46.1117H33.372C33.3961 48.0555 32.9286 49.5047 32.059 50.526H33.8753V49.9084C34.1693 49.9084 34.3093 49.9115 34.5139 49.9115C34.5139 50.421 34.5178 50.6442 34.5178 51.1102C33.4801 51.1102 32.6136 51.1125 31.3325 51.1125V51.1133Z" fill="#FF0101"/>
</svg>
