<svg width="37" height="55" viewBox="0 0 37 55" fill="none" xmlns="http://www.w3.org/2000/svg">
<path d="M2.71853 1.05151C2.71853 1.05151 2.7232 1.03051 2.74031 1.02973C3.64731 0.962835 4.58619 1.02973 5.49475 1.02973C14.5709 1.02973 23.7708 1.02973 32.84 1.02973C33.7408 1.02973 34.3094 1.32999 34.801 1.8006C35.2724 2.25177 35.5283 2.87484 35.5283 3.80595C35.5283 19.3066 35.5283 34.7138 35.5283 50.2728C35.5283 51.2257 35.4778 51.9872 35.0655 52.5418C34.6882 53.049 34.1173 53.4426 33.3689 53.5772C32.9645 53.6503 32.4627 53.599 32.003 53.599C22.4126 53.599 12.8456 53.599 3.29181 53.599C2.38248 53.599 1.77963 53.3205 1.30902 52.8499C1.07799 52.6189 0.865649 52.3396 0.758303 52.0347C0.411372 51.0507 0.559942 49.4794 0.559942 48.1352C0.559942 33.6381 0.559942 18.9752 0.559942 4.40024C0.559942 3.41857 0.615167 2.70682 1.02277 2.1312C1.40393 1.59291 1.91188 1.20398 2.71853 1.05151Z" fill="#FAF8F4" stroke="black" stroke-linejoin="round"/>
<path fill-rule="evenodd" clip-rule="evenodd" d="M31.5854 43.7917C32.0872 43.2006 32.536 42.5534 32.921 41.8385C33.3123 42.5471 33.751 43.2052 34.2621 43.7855C33.758 44.3736 33.3084 45.0192 32.9265 45.7387C32.5329 45.0324 32.0957 44.3736 31.5854 43.7917Z" fill="#FF0101"/>
<path fill-rule="evenodd" clip-rule="evenodd" d="M1.79443 10.831C2.29538 10.2399 2.74423 9.59267 3.13005 8.87781C3.52132 9.58645 3.96004 10.2445 4.4711 10.8248C3.96704 11.4121 3.51742 12.0585 3.13548 12.7773C2.74188 12.071 2.30472 11.4121 1.79443 10.8303V10.831Z" fill="#FF0101"/>
<path fill-rule="evenodd" clip-rule="evenodd" d="M22.0181 10.5696C23.1646 9.30481 24.1914 7.92021 25.0728 6.39014C25.9681 7.90621 26.9716 9.31493 28.1407 10.5572C26.9871 11.815 25.9588 13.1981 25.086 14.7367C24.1852 13.2261 23.1849 11.8142 22.0181 10.5696Z" fill="#FF0101"/>
<path fill-rule="evenodd" clip-rule="evenodd" d="M28.141 44.0468C26.9944 45.3116 25.9676 46.6962 25.0855 48.2263C24.1902 46.7102 23.1875 45.3015 22.0176 44.0593C23.1712 42.8014 24.1995 41.4184 25.0723 39.8798C25.973 41.3904 26.9734 42.8022 28.1402 44.0468H28.141Z" fill="#FF0101"/>
<path fill-rule="evenodd" clip-rule="evenodd" d="M7.91553 10.5696C9.06211 9.30481 10.0889 7.92021 10.9702 6.39014C11.8656 7.90621 12.8682 9.31493 14.0381 10.5572C12.8846 11.815 11.8562 13.1981 10.9834 14.7367C10.0827 13.2261 9.08233 11.8142 7.91553 10.5696Z" fill="#FF0101"/>
<path fill-rule="evenodd" clip-rule="evenodd" d="M14.0389 44.0468C12.8923 45.3116 11.8655 46.6962 10.9834 48.2263C10.0881 46.7102 9.08544 45.3015 7.91553 44.0593C9.06911 42.8014 10.0975 41.4184 10.9702 39.8798C11.871 41.3904 12.8713 42.8022 14.0381 44.0468H14.0389Z" fill="#FF0101"/>
<path fill-rule="evenodd" clip-rule="evenodd" d="M22.0181 27.3149C23.1646 26.0501 24.1914 24.6654 25.0728 23.1354C25.9681 24.6514 26.9716 26.0602 28.1407 27.3024C26.9871 28.5602 25.9588 29.9433 25.086 31.4819C24.1852 29.9713 23.1849 28.5595 22.0181 27.3149Z" fill="#FF0101"/>
<path fill-rule="evenodd" clip-rule="evenodd" d="M7.91553 27.3149C9.06211 26.0501 10.0889 24.6654 10.9702 23.1354C11.8656 24.6514 12.8682 26.0602 14.0381 27.3024C12.8846 28.5602 11.8562 29.9433 10.9834 31.4819C10.0827 29.9713 9.08233 28.5595 7.91553 27.3149Z" fill="#FF0101"/>
<path fill-rule="evenodd" clip-rule="evenodd" d="M14.9668 18.9427C16.1134 17.6779 17.1402 16.2933 18.0215 14.7632C18.9168 16.2793 19.9203 17.688 21.0894 18.9302C19.9358 20.1881 18.9075 21.5711 18.0347 23.1097C17.1339 21.5991 16.1336 20.1873 14.9668 18.9427Z" fill="#FF0101"/>
<path fill-rule="evenodd" clip-rule="evenodd" d="M21.0897 35.6746C19.9431 36.9394 18.9163 38.324 18.0342 39.8541C17.1389 38.338 16.1362 36.9293 14.9663 35.6871C16.1199 34.4292 17.1482 33.0462 18.021 31.5076C18.9218 33.0182 19.9221 34.43 21.0889 35.6746H21.0897Z" fill="#FF0101"/>
<path fill-rule="evenodd" clip-rule="evenodd" d="M2.89438 3.51817C3.99273 3.35949 4.9394 4.38394 4.39489 5.39362C4.34355 5.48852 4.14053 5.68221 4.04641 5.76855C4.21131 5.86968 4.41512 6.13259 4.47501 6.22438C5.14709 7.25584 4.24865 8.56577 2.9745 8.50121C1.73224 8.4382 1.07805 6.88324 1.98349 5.98325C1.99516 5.97158 2.22074 5.81522 2.19741 5.79578C2.07684 5.69154 1.87459 5.45118 1.82247 5.33995C1.4242 4.49129 2.04805 3.6403 2.89438 3.51817ZM2.76058 5.47374C3.39299 5.73666 4.01296 5.23882 3.91261 4.64297C3.85116 4.27737 3.49255 3.97167 2.94804 4.08057C2.22462 4.22526 2.16085 5.22482 2.76058 5.47374ZM2.22462 7.45575C2.49454 7.96915 3.34709 8.11305 3.80526 7.69689C4.55357 7.01703 3.81771 5.94124 2.84071 6.14349C2.30864 6.25317 1.91192 6.86146 2.22462 7.45575Z" fill="#FF0101"/>
<path fill-rule="evenodd" clip-rule="evenodd" d="M33.1618 51.0983C32.0634 51.2569 31.1168 50.2325 31.6613 49.2228C31.7126 49.1287 31.9157 48.9342 32.0098 48.8479C31.8441 48.7467 31.6411 48.4838 31.5812 48.392C30.9091 47.3606 31.8075 46.0506 33.0817 46.1152C34.3239 46.1782 34.9781 47.7332 34.0735 48.6332C34.061 48.6448 33.8362 48.8012 33.8588 48.8206C33.9794 48.9249 34.1816 49.1652 34.2337 49.2757C34.632 50.1244 34.0081 50.9753 33.1618 51.0975V51.0983ZM33.2956 49.1427C32.6632 48.8798 32.0432 49.3776 32.1436 49.9735C32.205 50.3391 32.5636 50.6448 33.1081 50.5359C33.8315 50.3912 33.8953 49.3916 33.2956 49.1427ZM33.8315 47.1607C33.5616 46.6473 32.7091 46.5034 32.2509 46.9195C31.5026 47.5994 32.2385 48.6752 33.2155 48.4737C33.7475 48.364 34.1443 47.7557 33.8315 47.1607Z" fill="#FF0101"/>
</svg>
