<svg width="37" height="55" viewBox="0 0 37 55" fill="none" xmlns="http://www.w3.org/2000/svg">
<path d="M2.71854 1.05151C2.71854 1.05151 2.72319 1.03051 2.7403 1.02973C3.6473 0.962835 4.58543 1.02973 5.49476 1.02973C14.5709 1.02973 23.7708 1.02973 32.84 1.02973C33.7408 1.02973 34.3094 1.32999 34.801 1.8006C35.2724 2.25177 35.5283 2.87484 35.5283 3.80595C35.5283 19.3066 35.5275 34.7139 35.5283 50.2728C35.5283 51.2257 35.4778 51.9872 35.0655 52.5419C34.6882 53.049 34.1173 53.4426 33.369 53.5772C32.9645 53.6503 32.4627 53.599 32.003 53.599C22.4127 53.599 12.8456 53.599 3.29182 53.599C2.38249 53.599 1.77964 53.3205 1.30903 52.8499C1.078 52.6189 0.865638 52.3396 0.758292 52.0347C0.411362 51.0507 0.55995 49.4794 0.55995 48.1352C0.55995 33.6381 0.55995 18.9752 0.55995 4.40025C0.55995 3.41857 0.615175 2.70682 1.02278 2.1312C1.40394 1.59291 1.91267 1.20398 2.71932 1.05151H2.71854Z" fill="#FAF8F4" stroke="black" stroke-linejoin="round"/>
<path fill-rule="evenodd" clip-rule="evenodd" d="M31.5854 43.7916C32.0872 43.2004 32.536 42.5532 32.921 41.8384C33.3123 42.547 33.7511 43.2051 34.2621 43.7854C33.7581 44.3727 33.3085 45.0191 32.9265 45.7378C32.5329 45.0315 32.0957 44.3727 31.5854 43.7908V43.7916Z" fill="#FF0101"/>
<path fill-rule="evenodd" clip-rule="evenodd" d="M1.79443 10.8309C2.29616 10.2397 2.74499 9.59333 3.13003 8.87769C3.5213 9.58633 3.96002 10.2444 4.47108 10.8247C3.96702 11.412 3.51742 12.0584 3.13548 12.7772C2.74188 12.0708 2.30472 11.412 1.79443 10.8301V10.8309Z" fill="#FF0101"/>
<path fill-rule="evenodd" clip-rule="evenodd" d="M22.0176 10.5695C23.1642 9.30469 24.1909 7.92009 25.0723 6.39001C25.9676 7.90608 26.9703 9.31481 28.1402 10.5571C26.9866 11.8149 25.9583 13.1979 25.0855 14.7366C24.1847 13.2259 23.1844 11.8141 22.0176 10.5695Z" fill="#FF0101"/>
<path fill-rule="evenodd" clip-rule="evenodd" d="M28.141 44.0467C26.9944 45.3115 25.9676 46.6961 25.0855 48.2262C24.1902 46.7101 23.1875 45.3014 22.0176 44.0591C23.1712 42.8013 24.1995 41.4183 25.0723 39.8796C25.9731 41.3903 26.9734 42.8021 28.1402 44.0467H28.141Z" fill="#FF0101"/>
<path fill-rule="evenodd" clip-rule="evenodd" d="M7.91553 10.5695C9.06211 9.30469 10.0889 7.92009 10.9702 6.39001C11.8656 7.90608 12.8682 9.31481 14.0381 10.5571C12.8846 11.8149 11.8562 13.1979 10.9835 14.7366C10.0827 13.2259 9.08233 11.8141 7.91553 10.5695Z" fill="#FF0101"/>
<path fill-rule="evenodd" clip-rule="evenodd" d="M14.0381 44.0467C12.8916 45.3115 11.8648 46.6961 10.9835 48.2262C10.0881 46.7101 9.08467 45.3014 7.91553 44.0591C9.06911 42.8013 10.0975 41.4183 10.9702 39.8796C11.871 41.3903 12.8713 42.8021 14.0381 44.0467Z" fill="#FF0101"/>
<path fill-rule="evenodd" clip-rule="evenodd" d="M14.9668 27.3148C16.1134 26.0499 17.1402 24.6653 18.0223 23.1353C18.9176 24.6513 19.9203 26.06 21.0902 27.3023C19.9366 28.5601 18.9083 29.9432 18.0355 31.4818C17.1347 29.9712 16.1344 28.5593 14.9676 27.3148H14.9668Z" fill="#FF0101"/>
<path fill-rule="evenodd" clip-rule="evenodd" d="M7.91553 21.7179C9.06211 20.4531 10.0889 19.0685 10.9702 17.5385C11.8656 19.0545 12.8682 20.4632 14.0381 21.7055C12.8846 22.9633 11.8562 24.3464 10.9835 25.885C10.0827 24.3744 9.08233 22.9625 7.91553 21.7179Z" fill="#FF0101"/>
<path fill-rule="evenodd" clip-rule="evenodd" d="M14.0381 32.8984C12.8916 34.1632 11.8648 35.5478 10.9835 37.0779C10.0881 35.5618 9.08467 34.1531 7.91553 32.9108C9.06911 31.653 10.0975 30.27 10.9702 28.7313C11.871 30.2419 12.8713 31.6538 14.0381 32.8984Z" fill="#FF0101"/>
<path fill-rule="evenodd" clip-rule="evenodd" d="M22.0176 21.7179C23.1642 20.4531 24.1909 19.0685 25.0723 17.5385C25.9676 19.0545 26.9703 20.4632 28.1402 21.7055C26.9866 22.9633 25.9583 24.3464 25.0855 25.885C24.1847 24.3744 23.1844 22.9625 22.0176 21.7179Z" fill="#FF0101"/>
<path fill-rule="evenodd" clip-rule="evenodd" d="M28.141 32.8984C26.9944 34.1632 25.9676 35.5478 25.0855 37.0779C24.1902 35.5618 23.1875 34.1531 22.0176 32.9108C23.1712 31.653 24.1995 30.27 25.0723 28.7313C25.9731 30.2419 26.9734 31.6538 28.1402 32.8984H28.141Z" fill="#FF0101"/>
<path fill-rule="evenodd" clip-rule="evenodd" d="M1.80231 7.61364C1.91277 7.5553 2.11112 7.46118 2.28225 7.37872C2.38415 7.50474 2.54439 7.81744 2.80575 7.87734C3.61552 8.06403 3.86132 7.31338 3.96789 6.63585C3.69097 6.79687 3.56184 6.84277 3.30748 6.87388C2.13211 7.01468 1.43125 5.81676 1.67005 4.68184C1.8933 3.61927 3.31371 3.06621 4.10014 3.91642C4.21527 4.04088 4.38795 4.3318 4.44317 4.49749C4.96746 6.05556 4.49217 9.22772 2.48915 8.35261C2.21223 8.17993 2.10646 8.05625 1.80231 7.61364ZM2.8851 6.26714C3.37593 6.43439 3.87454 6.12324 3.96789 5.71252C4.10324 5.11823 3.81621 4.2758 3.41327 4.10156C3.25303 4.03233 3.0469 4.05955 2.96444 4.07511C2.00066 4.25791 2.05589 5.98478 2.8851 6.26714Z" fill="#FF0101"/>
<path fill-rule="evenodd" clip-rule="evenodd" d="M34.2537 47.0027C34.1432 47.061 33.9449 47.1551 33.7738 47.2376C33.6719 47.1116 33.5116 46.7988 33.2502 46.739C32.4397 46.5523 32.1947 47.3029 32.0881 47.9804C32.365 47.8194 32.4942 47.7727 32.7485 47.7424C33.9239 47.6016 34.6248 48.7995 34.3859 49.9344C34.1627 50.997 32.7423 51.5501 31.9567 50.6999C31.8415 50.5754 31.6688 50.2845 31.6136 50.1188C31.0893 48.5607 31.5646 45.3886 33.5676 46.2637C33.8445 46.4364 33.9503 46.56 34.2545 47.0027H34.2537ZM33.1709 48.3491C32.6801 48.1819 32.1815 48.4931 32.0881 48.9038C31.9528 49.4981 32.2398 50.3405 32.6427 50.5147C32.803 50.584 33.0091 50.5567 33.0916 50.5412C34.0553 50.3584 34.0001 48.6315 33.1709 48.3491Z" fill="#FF0101"/>
</svg>
