<svg width="82" height="122" viewBox="0 0 82 122" fill="none" xmlns="http://www.w3.org/2000/svg">
<g clip-path="url(#clip0_239_16393)">
<path d="M6.07945 1.2052C6.07945 1.2052 6.09008 1.15737 6.12905 1.1556C8.1945 1.00326 10.3326 1.1556 12.4016 1.1556C33.0703 1.1556 54.0206 1.1556 74.6734 1.1556C76.7247 1.1556 78.0196 1.83936 79.1391 2.91106C80.2126 3.93847 80.7954 5.35736 80.7954 7.47596C80.7954 42.7747 80.7936 77.8608 80.7954 113.294C80.7954 115.464 80.6802 117.198 79.7414 118.461C78.8822 119.616 77.582 120.513 75.878 120.819C74.9568 120.986 73.8143 120.869 72.7674 120.869C50.9278 120.869 29.1413 120.869 7.38497 120.869C5.3142 120.869 3.94137 120.234 2.86967 119.163C2.34356 118.637 1.85997 118.001 1.61552 117.306C0.825473 115.066 1.16381 111.487 1.16381 108.426C1.16381 75.4127 1.16381 42.0218 1.16381 8.83108C1.16381 6.59557 1.28958 4.97474 2.21779 3.66213C3.08401 2.43809 4.24251 1.55239 6.07945 1.2052Z" fill="white" stroke="black"/>
<path fill-rule="evenodd" clip-rule="evenodd" d="M3.27344 24.8083C3.32127 24.1104 3.6472 23.6162 4.03337 23.1662C4.76496 22.3107 5.63117 21.5826 6.24762 20.6261C6.47967 20.2647 6.69047 19.8644 6.85875 19.4445C6.91367 19.3081 6.94378 19.1629 7.03589 19.0371C7.52657 20.557 8.49907 21.5932 9.4946 22.6083C9.53888 22.6632 9.58848 22.7128 9.64339 22.7571C10.1589 23.3204 10.7293 23.8943 10.7718 24.888V25.0244C10.7523 25.7489 10.4494 26.2821 10.0384 26.6134C9.70539 26.8809 9.11197 27.1147 8.50438 26.9942C8.34141 26.9624 8.09342 26.8543 7.94816 26.764C7.83125 26.6913 7.57086 26.4114 7.47343 26.4522C7.314 26.5177 7.56908 27.136 7.59565 27.2121C7.69308 27.4849 7.78697 27.6709 7.90742 27.8764V27.903H6.12894C6.30076 27.6054 6.47259 27.2281 6.5771 26.8295C6.60721 26.7126 6.67453 26.5549 6.59127 26.4487C6.36985 26.477 6.2671 26.6577 6.10236 26.7604C5.90574 26.8826 5.63117 26.9925 5.31409 27.019C4.19102 27.1094 3.31949 26.1865 3.27698 25.1042V24.8048L3.27344 24.8083Z" fill="black"/>
<path fill-rule="evenodd" clip-rule="evenodd" d="M78.6001 97.189C78.5523 97.8869 78.2263 98.3811 77.8402 98.8329C77.1086 99.6884 76.2423 100.416 75.6259 101.371C75.3938 101.733 75.183 102.133 75.0148 102.553C74.9599 102.689 74.9297 102.834 74.8376 102.96C74.3469 101.44 73.3745 100.404 72.3789 99.3891C72.3346 99.3342 72.285 99.2846 72.2301 99.2403C71.7146 98.677 71.1443 98.103 71.1035 97.1075V96.9711C71.123 96.2466 71.4259 95.7134 71.8369 95.3822C72.1699 95.1147 72.7633 94.8809 73.3709 95.0013C73.5339 95.0332 73.7819 95.1413 73.9271 95.2316C74.0458 95.3042 74.3044 95.5841 74.4019 95.5434C74.5613 95.4778 74.3062 94.8596 74.2796 94.7834C74.1822 94.5106 74.0883 94.3246 73.9679 94.1174V94.0908H75.7464C75.5763 94.3884 75.4027 94.7657 75.2982 95.1643C75.2663 95.2812 75.2008 95.4388 75.284 95.5451C75.5037 95.5168 75.6064 95.3361 75.7729 95.2334C75.9696 95.1111 76.2441 95.0013 76.5612 94.9747C77.6843 94.8844 78.5558 95.8055 78.5983 96.8896V97.189H78.6001Z" fill="black"/>
<path fill-rule="evenodd" clip-rule="evenodd" d="M17.6191 24.5915C17.713 23.2381 18.3454 22.2798 19.0929 21.4065C20.5118 19.7485 22.1929 18.3349 23.3851 16.4838C23.8368 15.7823 24.2424 15.0064 24.5701 14.1934C24.6764 13.9294 24.7366 13.6478 24.912 13.4033C25.8632 16.3492 27.7498 18.3597 29.6788 20.3277C29.7639 20.4358 29.8613 20.5314 29.9693 20.6165C30.9702 21.7112 32.0738 22.8236 32.1553 24.7509V25.0149C32.1181 26.4178 31.53 27.4523 30.7328 28.0953C30.088 28.6161 28.9366 29.0678 27.7569 28.8322C27.4398 28.7684 26.9597 28.5594 26.6781 28.3841C26.4496 28.2423 25.9447 27.7021 25.757 27.7782C25.447 27.904 26.4443 31.8808 26.6781 32.2811V32.3343H23.2292C23.5604 31.7586 24.2088 27.9837 24.0458 27.7782C23.6189 27.8349 23.4187 28.1839 23.0981 28.3841C22.7155 28.6214 22.184 28.834 21.5711 28.8836C19.3941 29.059 17.7042 27.2698 17.6209 25.1707V24.5915H17.6191Z" fill="black"/>
<path fill-rule="evenodd" clip-rule="evenodd" d="M32.1533 97.4072C32.0594 98.7606 31.427 99.7189 30.6795 100.594C29.2606 102.252 27.5795 103.666 26.3874 105.518C25.9357 106.22 25.53 106.996 25.2023 107.809C25.096 108.073 25.0358 108.354 24.8604 108.599C23.9092 105.653 22.0227 103.643 20.0936 101.675C20.0086 101.566 19.9112 101.471 19.8031 101.384C18.8023 100.291 17.6987 99.1768 17.6172 97.2513V96.9874C17.6544 95.5827 18.2425 94.5482 19.0396 93.9069C19.6844 93.3861 20.8358 92.9344 22.0156 93.17C22.3309 93.2338 22.8127 93.4428 23.0944 93.6182C23.3229 93.7599 23.8277 94.3002 24.0155 94.224C24.3255 94.0982 23.3282 90.1215 23.0944 89.7211V89.668H26.5433C26.212 90.2437 25.5637 94.0185 25.7267 94.2222C26.1536 94.1656 26.3537 93.8166 26.6744 93.6164C27.057 93.3791 27.5884 93.1665 28.2013 93.1169C30.3784 92.9415 32.0683 94.7306 32.1515 96.8297V97.409L32.1533 97.4072Z" fill="black"/>
<path fill-rule="evenodd" clip-rule="evenodd" d="M64.2687 97.4072C64.1766 98.7606 63.5424 99.7189 62.7949 100.594C61.376 102.252 59.695 103.666 58.5028 105.518C58.0511 106.22 57.6455 106.996 57.3177 107.809C57.2115 108.073 57.1512 108.354 56.9759 108.599C56.0246 105.653 54.1381 103.643 52.209 101.675C52.124 101.566 52.0266 101.471 51.9203 101.384C50.9194 100.291 49.8159 99.1768 49.7344 97.2513V96.9874C49.7716 95.5827 50.3597 94.5482 51.1568 93.9069C51.8016 93.3861 52.953 92.9344 54.1328 93.17C54.4481 93.2338 54.9299 93.4428 55.2115 93.6182C55.4401 93.7599 55.9449 94.3002 56.1327 94.224C56.4427 94.0982 55.4454 90.1215 55.2115 89.7211V89.668H58.6605C58.3292 90.2437 57.6809 94.0185 57.8439 94.2222C58.2708 94.1656 58.4709 93.8166 58.7915 93.6164C59.1742 93.3791 59.7056 93.1665 60.3185 93.1169C62.4955 92.9415 64.1855 94.7306 64.2687 96.8297V97.409V97.4072Z" fill="black"/>
<path fill-rule="evenodd" clip-rule="evenodd" d="M49.7324 24.5915C49.8263 23.2381 50.4587 22.2798 51.208 21.4065C52.6269 19.7485 54.3079 18.3349 55.5001 16.4838C55.9518 15.7823 56.3575 15.0064 56.6852 14.1934C56.7915 13.9294 56.8517 13.6478 57.027 13.4033C57.9783 16.3492 59.8648 18.3597 61.7939 20.3277C61.8789 20.4358 61.9763 20.5314 62.0844 20.6165C63.0852 21.7112 64.1888 22.8236 64.2703 24.7509V25.0149C64.2331 26.4178 63.645 27.4523 62.8479 28.0953C62.2031 28.6161 61.0517 29.0678 59.8719 28.8322C59.5566 28.7684 59.0748 28.5594 58.7931 28.3841C58.5646 28.2423 58.0598 27.7021 57.872 27.7782C57.562 27.904 58.5593 31.8808 58.7931 32.2811V32.3343H55.3442C55.6755 31.7586 56.3238 27.9837 56.1608 27.7782C55.7339 27.8349 55.5338 28.1839 55.2131 28.3841C54.8305 28.6214 54.2991 28.834 53.6862 28.8836C51.5091 29.059 49.8192 27.2698 49.736 25.1707V24.5915H49.7324Z" fill="black"/>
<path fill-rule="evenodd" clip-rule="evenodd" d="M33.6738 62.7253C33.7659 61.3719 34.3983 60.4154 35.1476 59.5403C36.5665 57.8823 38.2476 56.4687 39.4397 54.6176C39.8914 53.9161 40.2971 53.1402 40.6248 52.3272C40.7311 52.0632 40.7913 51.7816 40.9667 51.5371C41.9179 54.4829 43.8045 56.4935 45.7335 58.4615C45.8186 58.5696 45.916 58.6652 46.024 58.7503C47.0249 59.8432 48.1285 60.9574 48.2099 62.8847V63.1486C48.1727 64.5516 47.5846 65.5861 46.7875 66.2291C46.1427 66.7499 44.9913 67.2016 43.8116 66.966C43.4945 66.9022 43.0144 66.6932 42.731 66.5178C42.5025 66.3761 41.9976 65.8359 41.8099 65.912C41.4999 66.0378 42.4972 70.0146 42.731 70.4149V70.4681H39.2821C39.6133 69.8924 40.2617 66.1175 40.0987 65.9138C39.6718 65.9705 39.4716 66.3194 39.151 66.5196C38.7684 66.757 38.237 66.9696 37.6241 67.0192C35.447 67.1963 33.7571 65.4072 33.6738 63.3063V62.727V62.7253Z" fill="black"/>
<path fill-rule="evenodd" clip-rule="evenodd" d="M17.6191 49.98C17.7113 48.6266 18.3436 47.6683 19.0929 46.795C20.5118 45.137 22.1929 43.7234 23.3851 41.8705C23.8368 41.1708 24.2424 40.3932 24.5701 39.5801C24.6764 39.3161 24.7366 39.0345 24.912 38.79C25.8632 41.7359 27.7498 43.7464 29.6771 45.7144C29.7621 45.8225 29.8595 45.9182 29.9676 46.005C30.9684 47.0979 32.072 48.2121 32.1535 50.1376V50.4016C32.1163 51.8045 31.5282 52.8408 30.731 53.482C30.0863 54.0028 28.9348 54.4545 27.7551 54.2189C27.438 54.1552 26.958 53.9461 26.6763 53.7708C26.4478 53.6291 25.943 53.0888 25.7552 53.165C25.4452 53.2907 26.4425 57.2675 26.6763 57.6679V57.721H23.2274C23.5586 57.1453 24.207 53.3704 24.044 53.1667C23.6171 53.2234 23.4169 53.5724 23.0963 53.7725C22.7137 54.0099 22.1823 54.2225 21.5694 54.2721C19.3923 54.4492 17.7024 52.6583 17.6191 50.5592V49.98Z" fill="black"/>
<path fill-rule="evenodd" clip-rule="evenodd" d="M32.1535 72.0193C32.0614 73.3727 31.4272 74.331 30.6797 75.2061C29.2608 76.8641 27.5797 78.2777 26.3876 80.1288C25.9359 80.8285 25.5302 81.6062 25.2025 82.4192C25.0962 82.6832 25.036 82.9648 24.8606 83.2093C23.9094 80.2634 22.0228 78.2529 20.0938 76.2849C20.0088 76.1768 19.9113 76.0812 19.805 75.9944C18.8042 74.9014 17.7006 73.7872 17.6191 71.8617V71.5978C17.6563 70.1948 18.2444 69.1603 19.0416 68.5173C19.6864 67.9965 20.8378 67.5448 22.0175 67.7804C22.3328 67.8441 22.8147 68.0532 23.0963 68.2285C23.3248 68.3703 23.8297 68.9105 24.0174 68.8344C24.3274 68.7086 23.3301 64.7318 23.0963 64.3315V64.2783H26.5452C26.214 64.854 25.5656 68.6289 25.7286 68.8344C26.1555 68.7777 26.3557 68.4287 26.6763 68.2285C27.0589 67.9912 27.5904 67.7786 28.2033 67.729C30.3803 67.5519 32.0702 69.341 32.1535 71.4419V72.0211V72.0193Z" fill="black"/>
<path fill-rule="evenodd" clip-rule="evenodd" d="M49.7324 49.98C49.8263 48.6266 50.4587 47.6683 51.208 46.795C52.6269 45.137 54.3079 43.7234 55.5001 41.8705C55.9518 41.1708 56.3575 40.3932 56.6852 39.5801C56.7915 39.3161 56.8517 39.0345 57.027 38.79C57.9783 41.7359 59.8648 43.7464 61.7939 45.7144C61.8789 45.8225 61.9763 45.9182 62.0844 46.005C63.0852 47.0979 64.1888 48.2121 64.2703 50.1376V50.4016C64.2331 51.8045 63.645 52.8408 62.8479 53.482C62.2031 54.0028 61.0517 54.4545 59.8719 54.2189C59.5566 54.1552 59.0748 53.9461 58.7931 53.7708C58.5646 53.6291 58.0598 53.0888 57.872 53.165C57.562 53.2907 58.5593 57.2675 58.7931 57.6679V57.721H55.3442C55.6755 57.1453 56.3238 53.3704 56.1608 53.1667C55.7339 53.2234 55.5338 53.5724 55.2131 53.7725C54.8305 54.0099 54.2991 54.2225 53.6862 54.2721C51.5091 54.4492 49.8192 52.6583 49.736 50.5592V49.98H49.7324Z" fill="black"/>
<path fill-rule="evenodd" clip-rule="evenodd" d="M64.2687 72.0193C64.1766 73.3727 63.5424 74.331 62.7949 75.2061C61.376 76.8641 59.695 78.2777 58.5028 80.1288C58.0511 80.8285 57.6455 81.6062 57.3177 82.4192C57.2115 82.6832 57.1512 82.9648 56.9759 83.2093C56.0246 80.2634 54.1381 78.2529 52.209 76.2849C52.124 76.1768 52.0266 76.0812 51.9203 75.9944C50.9194 74.9014 49.8159 73.7872 49.7344 71.8617V71.5978C49.7716 70.1948 50.3597 69.1603 51.1568 68.5173C51.8016 67.9965 52.953 67.5448 54.1328 67.7804C54.4481 67.8441 54.9299 68.0532 55.2115 68.2285C55.4401 68.3703 55.9449 68.9105 56.1327 68.8344C56.4427 68.7086 55.4454 64.7318 55.2115 64.3315V64.2783H58.6605C58.3292 64.854 57.6809 68.6289 57.8439 68.8344C58.2708 68.7777 58.4709 68.4287 58.7915 68.2285C59.1742 67.9912 59.7056 67.7786 60.3185 67.729C62.4955 67.5519 64.1855 69.341 64.2687 71.4419V72.0211V72.0193Z" fill="black"/>
<path fill-rule="evenodd" clip-rule="evenodd" d="M3.99301 16.1512C4.24455 16.0184 4.69626 15.8041 5.08597 15.6163C5.31802 15.9033 5.68293 16.6154 6.27812 16.7518C8.12215 17.1769 8.68191 15.4675 8.92459 13.9246C8.29397 14.2913 7.99992 14.3958 7.42067 14.4666C4.74409 14.7873 3.14805 12.0593 3.69187 9.47484C4.20027 7.05511 7.43484 5.79564 9.22573 7.73178C9.4879 8.01521 9.88115 8.67771 10.0069 9.05502C11.2008 12.6031 10.1185 19.8269 5.55716 17.8341C4.92654 17.4408 4.68563 17.1592 3.99301 16.1512ZM6.4588 13.0832C7.57656 13.464 8.71202 12.7555 8.92459 11.8202C9.23282 10.4668 8.57917 8.5484 7.66158 8.1516C7.29668 7.99395 6.82725 8.05595 6.63949 8.09138C4.44472 8.50588 4.57049 12.4384 6.4588 13.0814V13.0832Z" fill="black"/>
<path fill-rule="evenodd" clip-rule="evenodd" d="M77.8918 105.85C77.6402 105.983 77.1885 106.197 76.7988 106.385C76.5668 106.098 76.2019 105.386 75.6067 105.249C73.7609 104.824 73.2029 106.533 72.9602 108.076C73.5908 107.71 73.8849 107.603 74.4641 107.534C77.1407 107.214 78.7367 109.942 78.1929 112.526C77.6845 114.946 74.45 116.205 72.6608 114.269C72.3987 113.986 72.0054 113.323 71.8796 112.946C70.6857 109.398 71.7681 102.174 76.3294 104.167C76.96 104.56 77.2009 104.842 77.8936 105.85H77.8918ZM75.426 108.916C74.3082 108.535 73.1728 109.244 72.9602 110.179C72.652 111.532 73.3056 113.451 74.2232 113.848C74.5881 114.005 75.0575 113.943 75.2453 113.908C77.4401 113.491 77.3143 109.559 75.426 108.916Z" fill="black"/>
</g>
<defs>
<clipPath id="clip0_239_16393">
<rect width="82" height="122" fill="white"/>
</clipPath>
</defs>
</svg>
