<svg width="82" height="122" viewBox="0 0 82 122" fill="none" xmlns="http://www.w3.org/2000/svg">
<g clip-path="url(#clip0_239_16409)">
<path d="M6.07927 1.2052C6.07927 1.2052 6.08989 1.15737 6.12887 1.1556C8.19432 1.00326 10.3324 1.1556 12.4014 1.1556C33.0701 1.1556 54.0205 1.1556 74.6732 1.1556C76.7227 1.1556 78.0194 1.83936 79.1389 2.91106C80.2124 3.93847 80.7952 5.35736 80.7952 7.47773C80.7952 42.7764 80.7952 77.8626 80.7952 113.294C80.7952 115.464 80.68 117.198 79.7412 118.461C78.8821 119.616 77.5819 120.513 75.8778 120.819C74.9566 120.986 73.8141 120.869 72.7672 120.869C50.9276 120.869 29.1411 120.869 7.38479 120.869C5.31402 120.869 3.94119 120.234 2.86772 119.163C2.34161 118.637 1.85802 118.001 1.61356 117.306C0.82352 115.066 1.16186 111.487 1.16186 108.426C1.16186 75.4127 1.16186 42.0218 1.16186 8.83108C1.16186 6.59557 1.28763 4.97474 2.21584 3.66213C3.08383 2.43809 4.24232 1.55239 6.07927 1.2052Z" fill="white" stroke="black"/>
<path fill-rule="evenodd" clip-rule="evenodd" d="M6.07644 27.8359C6.40592 27.2477 6.80803 25.9529 6.65215 25.9015C6.51929 25.8572 6.28547 26.2044 6.2093 26.2699C5.81605 26.61 5.32537 26.8563 4.5991 26.8014C3.48488 26.7163 2.7037 25.7598 2.70901 24.5853C2.71078 23.9901 2.92867 23.4658 3.28472 23.108C3.60534 22.7874 4.1651 22.4844 4.77624 22.488C4.92858 22.488 5.088 22.573 5.23503 22.488C5.23857 22.2666 5.08269 22.1249 5.0136 21.9566C4.44853 20.5873 5.45291 19.2446 6.71238 19.1064C8.12418 18.9505 9.28091 19.9106 9.164 21.3809C9.14451 21.6165 9.07365 21.806 9.00103 21.9725C8.93017 22.1373 8.80263 22.279 8.79377 22.4898C8.96914 22.5748 9.09491 22.4898 9.25079 22.4898C10.1772 22.4827 10.9301 23.1098 11.1852 23.8041C11.7024 25.2053 10.7777 26.6915 9.45628 26.8031C8.65737 26.8704 8.12241 26.5551 7.71322 26.1672C7.59631 26.0556 7.47939 25.859 7.37311 25.9015C7.22431 25.9599 7.52899 27.2513 7.92047 27.8518C7.26505 27.8518 6.74781 27.8376 6.07467 27.8376L6.07644 27.8359Z" fill="black"/>
<path fill-rule="evenodd" clip-rule="evenodd" d="M75.8073 94.1634C75.4778 94.7515 75.0757 96.0464 75.2316 96.0978C75.3645 96.142 75.5983 95.7949 75.6745 95.7293C76.0677 95.3892 76.5584 95.143 77.2847 95.1979C78.3989 95.2829 79.1801 96.2395 79.1748 97.4139C79.173 98.0091 78.9551 98.5334 78.5991 98.8913C78.2784 99.2119 77.7187 99.5148 77.1075 99.5113C76.9552 99.5113 76.7958 99.4262 76.6505 99.5113C76.6452 99.7327 76.8029 99.8744 76.8719 100.043C77.4352 101.412 76.4326 102.755 75.1732 102.893C73.7614 103.049 72.6029 102.089 72.7215 100.618C72.741 100.385 72.8119 100.195 72.8845 100.029C72.9554 99.8655 73.0829 99.7221 73.0918 99.5113C72.9164 99.4245 72.7906 99.5113 72.6347 99.5113C71.7065 99.5183 70.9555 98.8913 70.6986 98.1969C70.1814 96.7957 71.106 95.3095 72.4275 95.1979C73.2264 95.1306 73.7596 95.4459 74.1706 95.8321C74.2875 95.9437 74.4044 96.1403 74.5107 96.0978C74.6595 96.0393 74.3548 94.748 73.9633 94.1475C74.6187 94.1475 75.136 94.1616 75.8091 94.1616L75.8073 94.1634Z" fill="black"/>
<path fill-rule="evenodd" clip-rule="evenodd" d="M39.3272 31.1124C39.8887 30.108 40.1474 28.9424 40.3369 27.4509C40.3865 27.0576 40.5796 26.326 40.3121 26.2392C40.0854 26.1648 39.6868 26.7565 39.5539 26.8699C38.8826 27.4491 38.0429 27.8725 36.8012 27.7786C34.8969 27.6351 33.5613 25.9983 33.5684 23.9913C33.5719 22.9746 33.9422 22.0765 34.5533 21.4671C35.1024 20.918 36.0572 20.4007 37.1041 20.406C37.3645 20.406 37.6355 20.553 37.8871 20.406C37.8941 20.0287 37.6267 19.786 37.508 19.4973C36.5443 17.1573 38.2591 14.8633 40.4113 14.6242C42.824 14.3567 44.8026 15.9988 44.6024 18.5124C44.5706 18.9127 44.4466 19.2369 44.3243 19.5221C44.2039 19.802 43.986 20.0447 43.9701 20.406C44.2712 20.553 44.4855 20.4078 44.753 20.406C46.3384 20.3954 47.6227 21.4653 48.0602 22.6539C48.9441 25.0489 47.3641 27.5891 45.1055 27.7786C43.7398 27.8937 42.8275 27.3552 42.126 26.6927C41.9241 26.5032 41.7275 26.1666 41.545 26.2392C41.2917 26.3384 41.4706 27.2277 41.5202 27.5519C41.7009 28.7582 41.8302 29.6545 42.2784 30.6323C42.3545 30.7988 42.5919 31.0397 42.4803 31.1372C41.4795 31.0787 40.367 31.1283 39.3237 31.1124H39.3272Z" fill="black"/>
<path fill-rule="evenodd" clip-rule="evenodd" d="M39.3272 69.2452C39.8887 68.2408 40.1474 67.0752 40.3369 65.5837C40.3865 65.1904 40.5796 64.4589 40.3121 64.3721C40.0854 64.2977 39.6868 64.8893 39.5539 65.0027C38.8826 65.5837 38.0429 66.0053 36.8012 65.9114C34.8969 65.7679 33.5613 64.1311 33.5684 62.1242C33.5719 61.1074 33.9422 60.2093 34.5533 59.5999C35.1024 59.0508 36.0572 58.5335 37.1041 58.5388C37.3645 58.5388 37.6355 58.6859 37.8871 58.5388C37.8941 58.1615 37.6267 57.9188 37.508 57.6301C36.5443 55.2901 38.2591 52.9961 40.4113 52.757C42.824 52.4895 44.8026 54.1316 44.6024 56.6452C44.5706 57.0455 44.4466 57.3697 44.3243 57.6549C44.2039 57.9348 43.986 58.1775 43.9701 58.5388C44.2712 58.6859 44.4855 58.5388 44.753 58.5388C46.3384 58.5282 47.6227 59.5981 48.0602 60.7867C48.9441 63.1817 47.3641 65.7219 45.1055 65.9114C43.7398 66.0265 42.8275 65.488 42.126 64.8255C41.9241 64.6342 41.7275 64.2994 41.545 64.3703C41.2917 64.4713 41.4706 65.3587 41.5202 65.6829C41.7009 66.8874 41.8302 67.7855 42.2784 68.7634C42.3545 68.9299 42.5919 69.1708 42.4803 69.2682C41.4795 69.2098 40.367 69.2594 39.3237 69.2434L39.3272 69.2452Z" fill="black"/>
<path fill-rule="evenodd" clip-rule="evenodd" d="M42.5565 90.8871C41.995 91.8915 41.7363 93.0571 41.5468 94.5486C41.4972 94.9418 41.3059 95.6734 41.5716 95.7602C41.7983 95.8346 42.1969 95.243 42.3298 95.1296C43.0011 94.5504 43.8408 94.127 45.0825 94.2209C46.9868 94.3644 48.3224 96.0011 48.3153 98.0081C48.3118 99.0249 47.9416 99.923 47.3304 100.532C46.7813 101.082 45.8265 101.599 44.7796 101.593C44.5192 101.593 44.2482 101.446 43.9967 101.593C43.9896 101.971 44.2571 102.213 44.3757 102.502C45.3394 104.842 43.6247 107.136 41.4724 107.375C39.0598 107.643 37.0811 106.001 37.2813 103.487C37.3132 103.087 37.4372 102.763 37.5594 102.477C37.6798 102.197 37.8977 101.955 37.9137 101.593C37.6125 101.446 37.3982 101.593 37.1307 101.593C35.5453 101.604 34.261 100.534 33.8235 99.3455C32.9396 96.9506 34.5197 94.4104 36.7782 94.2209C38.1439 94.1057 39.0562 94.6442 39.7577 95.3067C39.9596 95.4963 40.1563 95.8329 40.3387 95.7602C40.592 95.6593 40.4131 94.7718 40.3635 94.4476C40.1828 93.2431 40.0535 92.3467 39.6054 91.3672C39.5292 91.1989 39.2918 90.9597 39.4034 90.8623C40.4043 90.9208 41.5167 90.8712 42.5601 90.8871H42.5565Z" fill="black"/>
<path fill-rule="evenodd" clip-rule="evenodd" d="M72.0075 115.665C72.0075 115.272 72.0022 114.95 72.0022 114.463C72.7054 113.506 73.5079 112.711 74.3103 111.855C72.67 111.32 71.4424 110.307 71.26 108.433C70.9553 105.294 74.6309 102.94 77.4227 105.134C77.885 105.498 78.1436 105.97 78.4802 106.566C77.9877 106.808 77.7238 106.929 77.3589 107.125C76.9391 106.454 76.6999 106.165 76.1774 105.88C74.6362 105.04 72.8099 106.063 72.6293 107.561C72.4255 109.249 73.6159 111.001 75.8656 110.424C76.0587 110.769 76.2163 111.152 76.3634 111.543C75.5521 112.496 74.5955 113.302 73.8108 114.282C74.6239 114.294 76.103 114.285 76.9231 114.282C76.9231 113.736 76.9391 113.634 76.9391 112.927H78.3509V115.649C72.0075 115.665 74.1172 115.665 72.0075 115.665Z" fill="black"/>
<path fill-rule="evenodd" clip-rule="evenodd" d="M9.87504 6.33594C9.87504 6.73096 9.88036 7.05158 9.88036 7.53872C9.17711 8.49528 8.37467 9.29063 7.57222 10.1462C9.21254 10.6812 10.4401 11.6944 10.6226 13.5686C10.929 16.7075 7.2516 19.0617 4.45987 16.8669C3.99753 16.5038 3.73891 16.0308 3.40234 15.4356C3.89479 15.1929 4.15873 15.0725 4.52364 14.8759C4.94346 15.5472 5.1826 15.836 5.70694 16.1212C7.24805 16.959 9.07437 15.9387 9.25505 14.4401C9.45876 12.752 8.26838 11 6.0187 11.5775C5.82562 11.2321 5.66797 10.8477 5.52094 10.458C6.33224 9.50497 7.29057 8.69899 8.07353 7.7194C7.26045 7.707 5.78133 7.71586 4.96118 7.7194C4.96118 8.26499 4.94523 8.36951 4.94523 9.07452H3.53343V6.35188C9.87681 6.33594 7.76708 6.33594 9.87681 6.33594H9.87504Z" fill="black"/>
</g>
<defs>
<clipPath id="clip0_239_16409">
<rect width="82" height="122" fill="white"/>
</clipPath>
</defs>
</svg>
