<svg width="37" height="55" viewBox="0 0 37 55" fill="none" xmlns="http://www.w3.org/2000/svg">
<path d="M3.21023 1.05151C3.21023 1.05151 3.2149 1.03051 3.23201 1.02973C4.13901 0.962835 5.07712 1.02973 5.98645 1.02973C15.0626 1.02973 24.2625 1.02973 33.3317 1.02973C34.2325 1.02973 34.8011 1.33 35.2927 1.80061C35.7641 2.25178 36.02 2.87485 36.02 3.80519C36.02 19.3058 36.02 34.7131 36.02 50.2728C36.02 51.2257 35.9695 51.9872 35.5572 52.5419C35.1799 53.049 34.609 53.4426 33.8607 53.5772C33.4562 53.6503 32.9544 53.599 32.4947 53.599C22.9043 53.599 13.3373 53.599 3.78352 53.599C2.87419 53.599 2.27134 53.3205 1.80073 52.8499C1.56971 52.6189 1.35735 52.3396 1.25 52.0347C0.903069 51.0507 1.05164 49.4794 1.05164 48.1352C1.05164 33.6381 1.05164 18.9752 1.05164 4.40025C1.05164 3.41858 1.10687 2.70683 1.51448 2.13043C1.89563 1.59214 2.40436 1.2032 3.21101 1.05074L3.21023 1.05151Z" fill="#FAF8F4" stroke="black" stroke-linejoin="round"/>
<path fill-rule="evenodd" clip-rule="evenodd" d="M1.979 11.4156C2.00001 11.1091 2.14313 10.8921 2.31271 10.6937C2.63397 10.318 3.01435 9.99829 3.28505 9.57824C3.38695 9.41955 3.47951 9.24376 3.55341 9.05941C3.57753 8.99951 3.59075 8.93572 3.6312 8.88049C3.84667 9.54791 4.27372 10.003 4.71088 10.4487C4.73033 10.4728 4.75211 10.4946 4.77622 10.514C5.00258 10.7614 5.25306 11.0134 5.27095 11.4498V11.5097C5.26239 11.8278 5.12938 12.062 4.94891 12.2074C4.80267 12.3249 4.54209 12.4276 4.27528 12.3747C4.20371 12.3607 4.09481 12.3132 4.03102 12.2736C3.97968 12.2417 3.86456 12.1188 3.82255 12.1366C3.75255 12.1654 3.86456 12.4369 3.87623 12.4704C3.91901 12.5901 3.96024 12.6718 4.01313 12.7628V12.7745H3.23215C3.30761 12.6438 3.38306 12.4781 3.42895 12.3031C3.44218 12.2518 3.47174 12.1825 3.43518 12.1359C3.33872 12.1483 3.2936 12.2277 3.22048 12.2728C3.13414 12.3264 3.01357 12.3747 2.87433 12.3863C2.38116 12.426 1.99845 12.0208 1.97978 11.5455V11.414L1.979 11.4156Z" fill="black"/>
<path d="M4.07414 6.41234C4.58286 6.12997 5.14838 5.73792 5.20983 5.06039C5.40274 2.92203 1.63318 2.98347 2.07267 5.24941L2.64052 5.14129C2.3566 3.88348 4.39384 3.74501 4.58753 4.70879C4.75322 5.53489 3.98857 5.81259 3.50551 6.08796C2.77898 6.50178 2.08979 6.9654 2.03689 7.92607L2.03223 8.50325H5.18182V7.34267H4.59609V7.92607H2.69419C2.69808 6.98018 3.4604 6.75305 4.07336 6.41234H4.07414Z" fill="black"/>
<path fill-rule="evenodd" clip-rule="evenodd" d="M35.0566 43.2002C35.0356 43.5067 34.8925 43.7237 34.7229 43.9221C34.4016 44.2978 34.0212 44.6175 33.7505 45.0368C33.6486 45.1955 33.5561 45.3713 33.4822 45.5556C33.4581 45.6155 33.4448 45.6793 33.4044 45.7345C33.1889 45.0671 32.7619 44.612 32.3247 44.1663C32.3053 44.1422 32.2835 44.1204 32.2594 44.101C32.033 43.8536 31.7825 43.6016 31.7646 43.1644V43.1045C31.7732 42.7864 31.9062 42.5523 32.0867 42.4068C32.2329 42.2893 32.4935 42.1866 32.7603 42.2395C32.8319 42.2535 32.9408 42.301 33.0046 42.3407C33.0559 42.3726 33.1703 42.4955 33.213 42.4776C33.2831 42.4488 33.171 42.1773 33.1594 42.1439C33.1166 42.0241 33.0754 41.9424 33.0225 41.8514V41.8397H33.8034C33.728 41.9704 33.6525 42.1361 33.6066 42.3111C33.5934 42.3625 33.5639 42.4317 33.6004 42.4784C33.6969 42.4659 33.742 42.3866 33.8151 42.3414C33.9015 42.2878 34.022 42.2395 34.1613 42.2279C34.6544 42.1882 35.0371 42.5935 35.0558 43.0688V43.2002H35.0566Z" fill="black"/>
<path d="M32.9671 48.2043C32.4583 48.4866 31.8928 48.8787 31.8314 49.5562C31.6385 51.6945 35.408 51.6331 34.9685 49.3672L34.4007 49.4753C34.6846 50.7323 32.6474 50.8716 32.4537 49.9078C32.288 49.0817 33.0526 48.804 33.5357 48.5286C34.2622 48.1148 34.9514 47.6512 35.0043 46.6897L35.009 46.1125H31.8594V47.2731H32.4451V46.6897H34.347C34.3431 47.6356 33.5808 47.8635 32.9679 48.2035L32.9671 48.2043Z" fill="black"/>
<path fill-rule="evenodd" clip-rule="evenodd" d="M15.3291 11.3208C15.3696 10.7265 15.648 10.3057 15.9763 9.92139C16.5994 9.19331 17.3376 8.57256 17.8611 7.75969C18.0594 7.45243 18.2376 7.11095 18.3815 6.75391C18.4281 6.63801 18.4546 6.51433 18.5316 6.40698C18.9493 7.70058 19.7777 8.58347 20.6248 9.44768C20.6622 9.49513 20.705 9.53713 20.7524 9.57525C21.1919 10.0552 21.6765 10.5445 21.7123 11.3908V11.5067C21.696 12.1228 21.4377 12.5778 21.0877 12.8594C20.8045 13.0881 20.2989 13.2865 19.7809 13.183C19.6424 13.155 19.4308 13.0632 19.3071 12.9862C19.2068 12.924 18.9851 12.6867 18.9026 12.7202C18.7665 12.7754 19.2045 14.5217 19.3071 14.6975V14.7208H17.7926C17.9381 14.468 18.2228 12.8104 18.1512 12.7202C17.9638 12.7451 17.8758 12.8983 17.7351 12.9862C17.567 13.0904 17.3337 13.1838 17.0645 13.2056C16.1085 13.2826 15.3664 12.4969 15.3299 11.5751V11.3208H15.3291Z" fill="black"/>
<path fill-rule="evenodd" clip-rule="evenodd" d="M21.712 43.2959C21.6708 43.8902 21.3931 44.3102 21.0648 44.6953C20.441 45.4234 19.7036 46.0441 19.18 46.857C18.9817 47.165 18.8036 47.5057 18.6597 47.8628C18.613 47.9787 18.5865 48.1024 18.5095 48.2097C18.0918 46.9161 17.2634 46.0332 16.4163 45.169C16.3789 45.1216 16.3362 45.0795 16.2895 45.0422C15.85 44.5623 15.3654 44.073 15.3296 43.2267V43.1108C15.3459 42.4947 15.6042 42.0404 15.9542 41.758C16.2374 41.5294 16.743 41.331 17.261 41.4345C17.3995 41.4625 17.6111 41.5543 17.7348 41.6313C17.8351 41.6935 18.0568 41.9307 18.1393 41.8973C18.2754 41.8421 17.8374 40.0957 17.7348 39.9199V39.8966H19.2493C19.1038 40.1494 18.8191 41.8071 18.8907 41.8965C19.0781 41.8716 19.166 41.7184 19.3068 41.6305C19.4749 41.5262 19.7082 41.4329 19.9774 41.4111C20.9334 41.3341 21.6755 42.119 21.712 43.0415V43.2959Z" fill="black"/>
</svg>
