<svg width="37" height="55" viewBox="0 0 37 55" fill="none" xmlns="http://www.w3.org/2000/svg">
<path d="M3.21096 1.05151C3.21096 1.05151 3.21563 1.03051 3.23274 1.02973C4.13972 0.962836 5.07859 1.02973 5.98712 1.02973C15.0631 1.02973 24.2628 1.02973 33.3318 1.02973C34.2317 1.02973 34.8011 1.32999 35.2927 1.8006C35.7641 2.25175 36.02 2.87481 36.02 3.80512C36.02 19.3054 36.02 34.7123 36.02 50.2717C36.02 51.2246 35.9695 51.9861 35.5572 52.5407C35.1799 53.0479 34.609 53.4415 33.8607 53.576C33.4562 53.6491 32.9545 53.5978 32.4948 53.5978C22.9046 53.5978 13.3378 53.5978 3.78424 53.5978C2.87493 53.5978 2.27209 53.3194 1.80071 52.8487C1.56969 52.6177 1.35734 52.3385 1.24999 52.0336C0.903072 51.0496 1.05164 49.4783 1.05164 48.1342C1.05164 33.6373 1.05164 18.9748 1.05164 4.40017C1.05164 3.41852 1.10687 2.70679 1.51446 2.1304C1.89561 1.59213 2.40433 1.20319 3.21096 1.05073V1.05151Z" fill="#FAF8F4" stroke="black" stroke-linejoin="round"/>
<path fill-rule="evenodd" clip-rule="evenodd" d="M10.8081 29.1384C10.9069 27.7032 11.5782 26.6858 12.3731 25.7578C13.8798 23.9983 15.6619 22.4978 16.9275 20.533C17.4059 19.7894 17.8368 18.9656 18.1845 18.1022C18.2973 17.8222 18.3611 17.5227 18.5477 17.2637C19.5566 20.3899 21.5588 22.5227 23.6053 24.612C23.6963 24.7264 23.7982 24.8291 23.9126 24.9193C24.9736 26.0799 26.1458 27.2606 26.2322 29.3056V29.5849C26.1917 31.0744 25.5679 32.172 24.7231 32.8534C24.0386 33.4057 22.8166 33.8856 21.5658 33.6359C21.2306 33.569 20.7203 33.3473 20.42 33.1614C20.1781 33.0113 19.6422 32.4372 19.4423 32.5189C19.1132 32.6527 20.1711 36.8726 20.42 37.2965V37.3525H16.7595C17.1118 36.7411 17.7994 32.7367 17.626 32.5189C17.1725 32.578 16.9609 32.9498 16.6202 33.1614C16.2142 33.4127 15.651 33.639 15 33.6919C12.6897 33.8794 10.8968 31.9806 10.8089 29.7529V29.1384H10.8081Z" fill="black"/>
<path d="M4.97989 7.96278L3.99902 3.50256H3.23672L2.25585 7.96278H1.89648V8.50338H3.2025V7.96278H2.86491L3.01037 7.29538H4.2246L4.37006 7.96278H4.03247V8.50338H5.34004V7.96278H4.98067H4.97989ZM3.14105 6.69487L3.61709 4.5099L4.09314 6.69487H3.14105Z" fill="black"/>
<path fill-rule="evenodd" clip-rule="evenodd" d="M1.979 11.4157C2.00001 11.1092 2.14313 10.8922 2.3127 10.6939C2.63396 10.3182 3.01433 9.99846 3.28502 9.5792C3.38692 9.42052 3.47948 9.24473 3.55338 9.06038C3.57749 9.00049 3.59072 8.9367 3.63116 8.88147C3.84663 9.54887 4.27367 10.0039 4.71082 10.4496C4.73027 10.4737 4.75205 10.4955 4.77616 10.515C5.00252 10.7623 5.25299 11.0143 5.27088 11.4507V11.5106C5.26232 11.8288 5.12931 12.0629 4.94885 12.2083C4.80261 12.3266 4.54203 12.4285 4.27523 12.3756C4.20366 12.3616 4.09476 12.3141 4.03098 12.2745C3.97964 12.2426 3.8653 12.1197 3.82252 12.1376C3.75251 12.1663 3.86452 12.4378 3.87619 12.4713C3.91897 12.591 3.9602 12.6727 4.01309 12.7637V12.7754H3.23213C3.30758 12.6447 3.38303 12.479 3.42892 12.304C3.44215 12.2519 3.4717 12.1834 3.43514 12.1368C3.33869 12.1492 3.29358 12.2286 3.22046 12.2737C3.13412 12.3273 3.01355 12.3756 2.87431 12.3872C2.38115 12.4269 1.99845 12.0217 1.97978 11.5464V11.4149L1.979 11.4157Z" fill="black"/>
<path d="M32.0453 46.6524L33.0262 51.1126H33.7885L34.7693 46.6524H35.1287V46.1118H33.8211V46.6524H34.1587L34.0133 47.319H32.799L32.6536 46.6524H32.9912V46.1118H31.6836V46.6524H32.043H32.0453ZM33.8841 47.9203L33.4081 50.1053L32.932 47.9203H33.8841Z" fill="black"/>
<path fill-rule="evenodd" clip-rule="evenodd" d="M35.056 43.1996C35.035 43.506 34.8919 43.7231 34.7223 43.9214C34.4011 44.2971 34.0207 44.6168 33.75 45.0361C33.6481 45.1948 33.5556 45.3706 33.4817 45.5549C33.4575 45.6148 33.4443 45.6786 33.4039 45.7338C33.1884 45.0664 32.7614 44.6114 32.3242 44.1657C32.3048 44.1415 32.283 44.1198 32.2589 44.1003C32.0325 43.853 31.7821 43.601 31.7642 43.1638V43.1039C31.7727 42.7858 31.9057 42.5516 32.0862 42.4062C32.2324 42.2887 32.493 42.186 32.7598 42.2389C32.8314 42.2529 32.9403 42.3004 33.0041 42.34C33.0554 42.3719 33.1697 42.4948 33.2125 42.4769C33.2825 42.4482 33.1705 42.1767 33.1588 42.1432C33.1161 42.0235 33.0748 41.9418 33.0219 41.8508V41.8391H33.8029C33.7275 41.9698 33.652 42.1355 33.6061 42.3105C33.5929 42.3618 33.5633 42.4311 33.5999 42.4777C33.6963 42.4653 33.7415 42.3859 33.8146 42.3408C33.9009 42.2872 34.0215 42.2389 34.1607 42.2273C34.6539 42.1876 35.0366 42.5929 35.0553 43.0681V43.1996H35.056Z" fill="black"/>
</svg>
