<svg width="37" height="55" viewBox="0 0 37 55" fill="none" xmlns="http://www.w3.org/2000/svg">
<path d="M3.21096 1.05151C3.21096 1.05151 3.21563 1.03051 3.23274 1.02973C4.13972 0.962836 5.07859 1.02973 5.98712 1.02973C15.0631 1.02973 24.2628 1.02973 33.3318 1.02973C34.2317 1.02973 34.8011 1.32999 35.2927 1.8006C35.7641 2.25175 36.02 2.87481 36.02 3.80512C36.02 19.3054 36.02 34.7123 36.02 50.2717C36.02 51.2246 35.9695 51.9861 35.5572 52.5407C35.1799 53.0479 34.609 53.4415 33.8607 53.576C33.4562 53.6491 32.9545 53.5978 32.4948 53.5978C22.9046 53.5978 13.3378 53.5978 3.78424 53.5978C2.87493 53.5978 2.27209 53.3193 1.80072 52.8487C1.56969 52.6177 1.35734 52.3385 1.24999 52.0336C0.903072 51.0496 1.05164 49.4783 1.05164 48.1342C1.05164 33.6373 1.05164 18.9748 1.05164 4.40017C1.05164 3.41852 1.10687 2.70679 1.51447 2.1304C1.89561 1.59213 2.40433 1.20397 3.21096 1.05151Z" fill="#FAF8F4" stroke="black" stroke-linejoin="round"/>
<path fill-rule="evenodd" clip-rule="evenodd" d="M1.979 11.4156C2.00001 11.1092 2.14313 10.8921 2.3127 10.6938C2.63395 10.3181 3.01432 9.99839 3.28502 9.57835C3.38692 9.41967 3.47948 9.24388 3.55338 9.05953C3.57749 8.99963 3.59071 8.93584 3.63116 8.88062C3.84663 9.54801 4.27367 10.0031 4.71082 10.4488C4.73027 10.4729 4.75205 10.4947 4.77616 10.5141C5.00252 10.7615 5.25299 11.0135 5.27088 11.4506V11.5105C5.26232 11.8287 5.12931 12.0628 4.94885 12.2083C4.80261 12.3257 4.54203 12.4284 4.27523 12.3755C4.20366 12.3615 4.09476 12.314 4.03098 12.2744C3.97964 12.2425 3.8653 12.1196 3.82252 12.1375C3.75251 12.1663 3.86452 12.4377 3.87619 12.4712C3.91897 12.591 3.9602 12.6726 4.01309 12.7637V12.7753H3.23212C3.30758 12.6446 3.38303 12.479 3.42892 12.3039C3.44215 12.2526 3.4717 12.1834 3.43514 12.1367C3.33869 12.1491 3.29358 12.2285 3.22046 12.2736C3.13412 12.3273 3.01355 12.3755 2.87431 12.3872C2.38115 12.4268 1.99845 12.0216 1.97978 11.5463V11.4148L1.979 11.4156Z" fill="black"/>
<path fill-rule="evenodd" clip-rule="evenodd" d="M35.0565 43.1995C35.0355 43.506 34.8924 43.723 34.7228 43.9214C34.4016 44.2971 34.0212 44.6168 33.7505 45.036C33.6486 45.1947 33.556 45.3705 33.4821 45.5549C33.458 45.6148 33.4448 45.6786 33.4044 45.7338C33.1889 45.0664 32.7619 44.6113 32.3247 44.1656C32.3053 44.1415 32.2835 44.1197 32.2594 44.1003C32.033 43.8529 31.7825 43.6009 31.7646 43.1645V43.1046C31.7732 42.7865 31.9062 42.5524 32.0867 42.4069C32.2329 42.2894 32.4935 42.1868 32.7603 42.2397C32.8319 42.2537 32.9408 42.3011 33.0045 42.3408C33.0559 42.3727 33.1702 42.4956 33.213 42.4777C33.283 42.4489 33.171 42.1774 33.1593 42.144C33.1166 42.0242 33.0753 41.9425 33.0224 41.8515V41.8398H33.8034C33.7279 41.9705 33.6525 42.1362 33.6066 42.3112C33.5926 42.3626 33.5638 42.4318 33.6004 42.4785C33.6968 42.466 33.7419 42.3867 33.8151 42.3416C33.9014 42.2879 34.022 42.2397 34.1612 42.228C34.6544 42.1883 35.0371 42.5936 35.0557 43.0689V43.2003L35.0565 43.1995Z" fill="black"/>
<path fill-rule="evenodd" clip-rule="evenodd" d="M15.3296 11.3208C15.3708 10.7265 15.6485 10.3057 15.9768 9.92144C16.5998 9.19337 17.338 8.57264 17.8615 7.75978C18.0599 7.45253 18.238 7.11106 18.3819 6.75402C18.4286 6.63812 18.455 6.51445 18.532 6.4071C18.9497 7.70067 19.7781 8.58354 20.6252 9.44774C20.6625 9.49519 20.7053 9.53718 20.7528 9.5753C21.1923 10.0552 21.6769 10.5445 21.7126 11.3908V11.5067C21.6963 12.1228 21.4381 12.5778 21.088 12.8594C20.8049 13.0881 20.2993 13.2864 19.7812 13.183C19.642 13.155 19.4312 13.0632 19.3068 12.9862C19.2064 12.924 18.9847 12.6867 18.9023 12.7202C18.7661 12.7754 19.2041 14.5217 19.3068 14.6975V14.7208H17.7923C17.9377 14.468 18.2224 12.8104 18.1509 12.7202C17.9634 12.745 17.8755 12.8983 17.7347 12.9862C17.5667 13.0904 17.3333 13.1838 17.0642 13.2063C16.1082 13.2833 15.3661 12.4977 15.3296 11.5759V11.3216V11.3208Z" fill="black"/>
<path fill-rule="evenodd" clip-rule="evenodd" d="M15.3296 28.0656C15.3708 27.4713 15.6485 27.0513 15.9768 26.667C16.5998 25.939 17.338 25.3182 17.8615 24.5054C18.0599 24.1974 18.238 23.8567 18.3819 23.4996C18.4286 23.3837 18.455 23.2601 18.532 23.1527C18.9497 24.4463 19.7781 25.3291 20.6252 26.1933C20.6625 26.2408 20.7053 26.2828 20.7528 26.3201C21.1923 26.8001 21.6769 27.2893 21.7126 28.1356V28.2508C21.6963 28.8676 21.4381 29.3219 21.088 29.6034C20.8049 29.8321 20.2993 30.0305 19.7812 29.927C19.642 29.899 19.4312 29.8072 19.3068 29.7302C19.2064 29.668 18.9847 29.4308 18.9023 29.4642C18.7661 29.5194 19.2041 31.2657 19.3068 31.4415V31.4648H17.7923C17.9377 31.212 18.2224 29.5544 18.1509 29.4642C17.9634 29.4891 17.8755 29.6423 17.7347 29.7302C17.5667 29.8345 17.3333 29.9278 17.0642 29.9496C16.1082 30.0266 15.3661 29.241 15.3296 28.3192V28.0648V28.0656Z" fill="black"/>
<path fill-rule="evenodd" clip-rule="evenodd" d="M21.7117 43.2952C21.6712 43.8894 21.3928 44.3103 21.0645 44.6945C20.4414 45.4226 19.7033 46.0433 19.1798 46.8562C18.9814 47.1642 18.8033 47.5049 18.6594 47.8619C18.6127 47.9778 18.5863 48.1015 18.5093 48.2089C18.0915 46.9153 17.2631 46.0324 16.4161 45.1682C16.3787 45.1208 16.3359 45.0788 16.2885 45.0414C15.849 44.5615 15.3644 44.0722 15.3286 43.2259V43.11C15.3449 42.494 15.6032 42.0397 15.9532 41.7573C16.2364 41.5287 16.742 41.3303 17.26 41.4338C17.3985 41.4618 17.6101 41.5536 17.7337 41.6306C17.8341 41.6928 18.0558 41.93 18.1382 41.8966C18.2743 41.8414 17.8364 40.0951 17.7337 39.9201V39.8967H19.2482C19.1028 40.1495 18.8181 41.8071 18.8896 41.8966C19.0771 41.8717 19.165 41.7185 19.3058 41.6306C19.4738 41.5263 19.7071 41.433 19.9763 41.4112C20.9323 41.3342 21.6743 42.1198 21.7109 43.0416V43.2959L21.7117 43.2952Z" fill="black"/>
<path fill-rule="evenodd" clip-rule="evenodd" d="M32.1622 51.3124C32.1622 51.1398 32.1599 50.9982 32.1599 50.7843C32.4687 50.3642 32.8211 50.015 33.1734 49.6393C32.4531 49.4044 31.9141 48.9594 31.834 48.1365C31.7002 46.7581 33.3142 45.7243 34.5401 46.6881C34.7431 46.8476 34.8567 47.0552 35.0045 47.3166C34.7883 47.4232 34.6724 47.4761 34.5121 47.5624C34.3278 47.2676 34.2228 47.1408 33.9925 47.0156C33.3166 46.6469 32.5138 47.0957 32.4345 47.7538C32.345 48.4951 32.8677 49.2643 33.8556 49.0108C33.9404 49.1624 34.0096 49.3305 34.0742 49.5024C33.7179 49.9209 33.2979 50.274 32.9533 50.7049C33.3103 50.7104 33.9598 50.7065 34.32 50.7049C34.32 50.4654 34.327 50.4202 34.327 50.1099H34.9469V51.3054C32.1614 51.3124 33.0879 51.3124 32.1615 51.3124H32.1622Z" fill="black"/>
<path fill-rule="evenodd" clip-rule="evenodd" d="M4.8789 3.3042C4.8789 3.47688 4.88123 3.61844 4.88123 3.83235C4.57242 4.25239 4.22006 4.60164 3.86769 4.97734C4.58798 5.21225 5.12703 5.65719 5.20715 6.48016C5.34172 7.85852 3.7269 8.89229 2.501 7.92853C2.29798 7.76907 2.18441 7.56138 2.03662 7.30002C2.25286 7.19345 2.36877 7.14057 2.529 7.05422C2.71335 7.34903 2.81836 7.47582 3.04861 7.60106C3.72534 7.96898 4.52731 7.52094 4.60665 6.86288C4.6961 6.12158 4.17338 5.35227 3.18551 5.60585C3.10073 5.45417 3.0315 5.28615 2.96693 5.11425C3.32319 4.69576 3.74323 4.34184 4.08782 3.91169C3.73078 3.90624 3.08128 3.91013 2.72113 3.91169C2.72113 4.15127 2.71413 4.19639 2.71413 4.50676H2.09418V3.31119C4.87967 3.30419 3.95325 3.3042 4.87967 3.3042H4.8789Z" fill="black"/>
</svg>
