<svg width="37" height="55" viewBox="0 0 37 55" fill="none" xmlns="http://www.w3.org/2000/svg">
<path d="M3.21024 1.05151C3.21024 1.05151 3.21489 1.03051 3.232 1.02973C4.139 0.962835 5.0779 1.02973 5.98645 1.02973C15.0626 1.02973 24.2625 1.02973 33.3317 1.02973C34.2325 1.02973 34.8011 1.33 35.2927 1.80061C35.7641 2.25178 36.02 2.87485 36.02 3.80519C36.02 19.3058 36.0192 34.7131 36.02 50.2728C36.02 51.2257 35.9695 51.9873 35.5572 52.5419C35.1799 53.0491 34.609 53.4426 33.8607 53.5772C33.4562 53.6503 32.9544 53.599 32.4947 53.599C22.9044 53.599 13.3373 53.599 3.78352 53.599C2.87419 53.599 2.27134 53.3205 1.80073 52.8499C1.5697 52.6189 1.35734 52.3396 1.24999 52.0347C0.903061 51.0507 1.05165 49.4794 1.05165 48.1352C1.05165 33.6381 1.05165 18.9752 1.05165 4.40025C1.05165 3.41858 1.10687 2.70683 1.51448 2.13043C1.89564 1.59214 2.40437 1.2032 3.21102 1.05074L3.21024 1.05151Z" fill="#FAF8F4" stroke="black" stroke-linejoin="round"/>
<path fill-rule="evenodd" clip-rule="evenodd" d="M1.97803 11.4159C1.99903 11.1094 2.14216 10.8924 2.31174 10.6948C2.633 10.3191 3.01338 9.99939 3.28407 9.57934C3.38598 9.42065 3.47854 9.24486 3.55244 9.06051C3.57655 9.00061 3.58977 8.93682 3.63022 8.88159C3.84569 9.549 4.27274 10.0041 4.7099 10.4498C4.72935 10.4739 4.75113 10.4957 4.77525 10.5151C5.00161 10.7625 5.25209 11.0145 5.27076 11.4509V11.5108C5.2622 11.8289 5.12918 12.0631 4.94871 12.2085C4.80247 12.326 4.54189 12.4287 4.27508 12.3758C4.20352 12.3618 4.0946 12.3143 4.03082 12.2747C3.97948 12.2428 3.86514 12.1199 3.82236 12.1377C3.75235 12.1665 3.86436 12.438 3.87602 12.4715C3.91881 12.5912 3.96003 12.6729 4.01293 12.7632V12.7748H3.23194C3.3074 12.6442 3.38285 12.4785 3.42875 12.3034C3.44197 12.2521 3.47154 12.1829 3.43498 12.1362C3.33774 12.1486 3.29263 12.228 3.22028 12.2731C3.13394 12.3268 3.01337 12.375 2.87414 12.3867C2.38097 12.4263 1.99825 12.0211 1.97958 11.5458V11.4143L1.97803 11.4159Z" fill="black"/>
<path fill-rule="evenodd" clip-rule="evenodd" d="M35.0561 43.2005C35.0351 43.5069 34.892 43.724 34.7224 43.9223C34.4012 44.298 34.0208 44.6177 33.7501 45.037C33.6482 45.1957 33.5556 45.3715 33.4817 45.5559C33.4576 45.6158 33.4444 45.6795 33.4039 45.7348C33.1884 45.0674 32.7614 44.6123 32.3242 44.1666C32.3048 44.1425 32.283 44.1207 32.2589 44.1012C32.0325 43.8539 31.7821 43.6018 31.7642 43.1647V43.1048C31.7727 42.7866 31.9057 42.5525 32.0862 42.407C32.2324 42.2896 32.493 42.1869 32.7599 42.2398C32.8314 42.2538 32.9403 42.3012 33.0041 42.3409C33.0562 42.3728 33.1698 42.4957 33.2126 42.4778C33.2826 42.449 33.1706 42.1776 33.1589 42.1441C33.1161 42.0243 33.0749 41.9426 33.022 41.8516V41.84H33.803C33.7283 41.9706 33.6521 42.1363 33.6062 42.3114C33.5922 42.3627 33.5634 42.4319 33.5999 42.4786C33.6964 42.4661 33.7415 42.3868 33.8146 42.3417C33.901 42.288 34.0215 42.2398 34.1608 42.2281C34.654 42.1885 35.0367 42.5929 35.0553 43.069V43.2005H35.0561Z" fill="black"/>
<path fill-rule="evenodd" clip-rule="evenodd" d="M8.27734 11.321C8.31857 10.7267 8.59628 10.3059 8.92454 9.92237C9.54761 9.19429 10.2858 8.57354 10.8093 7.76067C11.0077 7.45263 11.1858 7.11193 11.3297 6.75489C11.3764 6.63898 11.4028 6.51531 11.4798 6.40796C11.8975 7.70156 12.726 8.58445 13.5731 9.44866C13.6104 9.49611 13.6532 9.53811 13.7007 9.57544C14.1402 10.0562 14.6248 10.5447 14.6606 11.391V11.5069C14.6442 12.123 14.386 12.5772 14.0359 12.8596C13.7528 13.0883 13.2472 13.2867 12.7291 13.1832C12.5899 13.1552 12.379 13.0634 12.2554 12.9864C12.155 12.9242 11.9333 12.6869 11.8509 12.7204C11.7147 12.7756 12.1527 14.5219 12.2554 14.6977V14.7211H10.7409C10.8863 14.4682 11.171 12.8106 11.0995 12.7204C10.912 12.7453 10.8241 12.8985 10.6833 12.9864C10.5153 13.0906 10.2819 13.184 10.0128 13.2058C9.05677 13.2828 8.31468 12.4971 8.27812 11.5753V11.321H8.27734Z" fill="black"/>
<path fill-rule="evenodd" clip-rule="evenodd" d="M14.6596 43.2961C14.6183 43.8904 14.3406 44.3112 14.0124 44.6955C13.3893 45.4236 12.6511 46.0443 12.1276 46.858C11.9292 47.166 11.7511 47.5067 11.6072 47.8637C11.5605 47.9796 11.5341 48.1033 11.4571 48.2107C11.0394 46.9171 10.2109 46.0342 9.36383 45.17C9.32649 45.1225 9.28372 45.0805 9.23627 45.0424C8.79677 44.5625 8.31215 44.0732 8.27637 43.2277V43.1117C8.2927 42.4949 8.55096 42.0406 8.901 41.759C9.18414 41.5303 9.68976 41.332 10.2078 41.4354C10.3463 41.4634 10.5579 41.5552 10.6815 41.6322C10.7819 41.6945 11.0036 41.9317 11.086 41.8983C11.2222 41.843 10.7842 40.0967 10.6815 39.9209V39.8976H12.196C12.0506 40.1504 11.7659 41.808 11.8375 41.8975C12.0249 41.8726 12.1128 41.7194 12.2536 41.6315C12.4216 41.5272 12.655 41.4339 12.9241 41.4121C13.8801 41.3351 14.6222 42.1207 14.6588 43.0425V43.2969L14.6596 43.2961Z" fill="black"/>
<path fill-rule="evenodd" clip-rule="evenodd" d="M28.7623 43.2961C28.7219 43.8904 28.4434 44.3112 28.1151 44.6955C27.492 45.4236 26.7538 46.0443 26.2303 46.858C26.032 47.166 25.8539 47.5067 25.71 47.8637C25.6633 47.9796 25.6368 48.1033 25.5598 48.2107C25.1421 46.9171 24.3137 46.0342 23.4666 45.17C23.4292 45.1225 23.3864 45.0805 23.3398 45.0424C22.9003 44.5625 22.4157 44.0732 22.3799 43.2277V43.1117C22.3962 42.4949 22.6545 42.0406 23.0045 41.759C23.2877 41.5303 23.7933 41.332 24.3113 41.4354C24.4498 41.4634 24.6614 41.5552 24.7851 41.6322C24.8854 41.6945 25.1071 41.9317 25.1895 41.8983C25.3257 41.843 24.8877 40.0967 24.7851 39.9209V39.8976H26.2996C26.1541 40.1504 25.8694 41.808 25.941 41.8975C26.1284 41.8726 26.2163 41.7194 26.3571 41.6315C26.5251 41.5272 26.7585 41.4339 27.0277 41.4121C27.9837 41.3351 28.7258 42.1207 28.7623 43.0425V43.2969V43.2961Z" fill="black"/>
<path fill-rule="evenodd" clip-rule="evenodd" d="M22.3794 11.321C22.4206 10.7267 22.6983 10.3059 23.0274 9.92237C23.6504 9.19429 24.3886 8.57354 24.9121 7.76067C25.1105 7.45263 25.2886 7.11193 25.4325 6.75489C25.4792 6.63898 25.5057 6.51531 25.5827 6.40796C26.0004 7.70156 26.8288 8.58445 27.6759 9.44866C27.7132 9.49611 27.756 9.53811 27.8035 9.57544C28.243 10.0562 28.7276 10.5447 28.7634 11.391V11.5069C28.747 12.123 28.4888 12.5772 28.1388 12.8596C27.8556 13.0883 27.35 13.2867 26.8319 13.1832C26.6935 13.1552 26.4819 13.0634 26.3582 12.9864C26.2578 12.9242 26.0362 12.6869 25.9537 12.7204C25.8176 12.7756 26.2555 14.5219 26.3582 14.6977V14.7211H24.8437C24.9891 14.4682 25.2739 12.8106 25.2023 12.7204C25.0148 12.7453 24.9269 12.8985 24.7861 12.9864C24.6181 13.0906 24.3847 13.184 24.1156 13.2058C23.1596 13.2828 22.4175 12.4971 22.381 11.5753V11.321H22.3794Z" fill="black"/>
<path fill-rule="evenodd" clip-rule="evenodd" d="M15.3286 28.0661C15.3691 27.4718 15.6468 27.0518 15.9758 26.6675C16.5989 25.9394 17.3371 25.3187 17.8606 24.5058C18.0589 24.1977 18.2371 23.857 18.381 23.5C18.4276 23.3841 18.4541 23.2604 18.5311 23.1531C18.9488 24.4467 19.7773 25.3295 20.6244 26.1938C20.6617 26.2412 20.7045 26.2832 20.7519 26.3206C21.1914 26.8005 21.676 27.2898 21.7118 28.1361V28.252C21.6955 28.8681 21.4372 29.3224 21.0872 29.6047C20.804 29.8334 20.2984 30.0318 19.7804 29.9283C19.6411 29.9003 19.4303 29.8085 19.3059 29.7315C19.2055 29.6693 18.9838 29.432 18.9014 29.4655C18.7653 29.5207 19.2032 31.267 19.3059 31.4428V31.4662H17.7914C17.9368 31.2134 18.2215 29.5557 18.15 29.4663C17.9625 29.4912 17.8746 29.6444 17.7338 29.7323C17.5658 29.8365 17.3324 29.9299 17.0633 29.9517C16.1073 30.0294 15.3652 29.2438 15.3286 28.3212V28.0669V28.0661Z" fill="black"/>
<path fill-rule="evenodd" clip-rule="evenodd" d="M8.27734 22.4693C8.31779 21.8751 8.5955 21.4542 8.92454 21.0707C9.54761 20.3426 10.2858 19.7219 10.8093 18.9083C11.0077 18.601 11.1858 18.2595 11.3297 17.9025C11.3764 17.7866 11.4028 17.6629 11.4798 17.5555C11.8975 18.8491 12.726 19.732 13.5723 20.5962C13.6097 20.6437 13.6524 20.6857 13.6999 20.7238C14.1394 21.2038 14.624 21.693 14.6598 22.5386V22.6545C14.6434 23.2705 14.3852 23.7256 14.0351 24.0072C13.752 24.2359 13.2464 24.4342 12.7283 24.3308C12.5891 24.3028 12.3783 24.211 12.2546 24.134C12.1542 24.0717 11.9326 23.8345 11.8501 23.868C11.714 23.9232 12.1519 25.6695 12.2546 25.8453V25.8686H10.7401C10.8855 25.6158 11.1702 23.9582 11.0987 23.8687C10.9112 23.8936 10.8233 24.0469 10.6825 24.1348C10.5145 24.239 10.2811 24.3323 10.012 24.3541C9.056 24.4319 8.3139 23.6455 8.27734 22.7237V22.4693Z" fill="black"/>
<path fill-rule="evenodd" clip-rule="evenodd" d="M14.6598 32.1477C14.6193 32.742 14.3408 33.1628 14.0126 33.5471C13.3895 34.2752 12.6513 34.8959 12.1278 35.7088C11.9294 36.0161 11.7513 36.3575 11.6074 36.7146C11.5607 36.8305 11.5343 36.9542 11.4573 37.0615C11.0396 35.7679 10.2111 34.885 9.36403 34.0208C9.32669 33.9734 9.28391 33.9314 9.23724 33.8933C8.79775 33.4133 8.31313 32.924 8.27734 32.0785V31.9626C8.29368 31.3465 8.55193 30.8922 8.90198 30.6099C9.18512 30.3812 9.69074 30.1828 10.2088 30.2863C10.3473 30.3143 10.5588 30.4061 10.6825 30.4831C10.7829 30.5453 11.0046 30.7825 11.087 30.7491C11.2231 30.6939 10.7852 28.9476 10.6825 28.7718V28.7484H12.197C12.0516 29.0012 11.7669 30.6589 11.8384 30.7491C12.0259 30.7242 12.1138 30.571 12.2546 30.4831C12.4226 30.3788 12.656 30.2855 12.9251 30.2637C13.8811 30.1859 14.6232 30.9716 14.6598 31.8941V32.1485V32.1477Z" fill="black"/>
<path fill-rule="evenodd" clip-rule="evenodd" d="M22.3794 22.4693C22.4206 21.8751 22.6983 21.4542 23.0274 21.0707C23.6504 20.3426 24.3886 19.7219 24.9121 18.9083C25.1105 18.601 25.2886 18.2595 25.4325 17.9025C25.4792 17.7866 25.5057 17.6629 25.5827 17.5555C26.0004 18.8491 26.8288 19.732 27.6759 20.5962C27.7132 20.6437 27.756 20.6857 27.8035 20.7238C28.243 21.2038 28.7276 21.693 28.7634 22.5386V22.6545C28.747 23.2705 28.4888 23.7256 28.1388 24.0072C27.8556 24.2359 27.35 24.4342 26.8319 24.3308C26.6935 24.3028 26.4819 24.211 26.3582 24.134C26.2578 24.0717 26.0362 23.8345 25.9537 23.868C25.8176 23.9232 26.2555 25.6695 26.3582 25.8453V25.8686H24.8437C24.9891 25.6158 25.2739 23.9582 25.2023 23.8687C25.0148 23.8936 24.9269 24.0469 24.7861 24.1348C24.6181 24.239 24.3847 24.3323 24.1156 24.3541C23.1596 24.4319 22.4175 23.6455 22.381 22.7237V22.4693H22.3794Z" fill="black"/>
<path fill-rule="evenodd" clip-rule="evenodd" d="M28.7623 32.1477C28.7219 32.742 28.4434 33.1628 28.1151 33.5471C27.492 34.2752 26.7538 34.8959 26.2303 35.7088C26.032 36.0161 25.8539 36.3575 25.71 36.7146C25.6633 36.8305 25.6368 36.9542 25.5598 37.0615C25.1421 35.7679 24.3137 34.885 23.4666 34.0208C23.4292 33.9734 23.3864 33.9314 23.3398 33.8933C22.9003 33.4133 22.4157 32.924 22.3799 32.0785V31.9626C22.3962 31.3465 22.6545 30.8922 23.0045 30.6099C23.2877 30.3812 23.7933 30.1828 24.3113 30.2863C24.4498 30.3143 24.6614 30.4061 24.7851 30.4831C24.8854 30.5453 25.1071 30.7825 25.1895 30.7491C25.3257 30.6939 24.8877 28.9476 24.7851 28.7718V28.7484H26.2996C26.1541 29.0012 25.8694 30.6589 25.941 30.7491C26.1284 30.7242 26.2163 30.571 26.3571 30.4831C26.5251 30.3788 26.7585 30.2855 27.0277 30.2637C27.9837 30.1859 28.7258 30.9716 28.7623 31.8941V32.1485V32.1477Z" fill="black"/>
<path fill-rule="evenodd" clip-rule="evenodd" d="M2.29401 7.61437C2.40446 7.55603 2.60282 7.46191 2.77395 7.37945C2.87585 7.50547 3.03609 7.81817 3.29745 7.87806C4.10722 8.06475 4.35302 7.31411 4.45959 6.63658C4.18266 6.7976 4.05354 6.8435 3.79918 6.87462C2.62381 7.01541 1.92295 5.8175 2.16175 4.68258C2.385 3.62001 3.80541 3.06694 4.59184 3.91715C4.70696 4.04161 4.87964 4.33253 4.93487 4.49822C5.45916 6.05629 4.98387 9.22845 2.98085 8.35335C2.70393 8.18066 2.59815 8.05698 2.29401 7.61437ZM3.3768 6.2671C3.86763 6.43434 4.36624 6.1232 4.45959 5.71248C4.59494 5.11819 4.30791 4.27576 3.90497 4.10152C3.74473 4.03229 3.5386 4.0595 3.45614 4.07506C2.49236 4.25708 2.54759 5.98395 3.3768 6.26632V6.2671Z" fill="black"/>
<path fill-rule="evenodd" clip-rule="evenodd" d="M34.7449 47.0034C34.6344 47.0617 34.4361 47.1558 34.265 47.2383C34.1631 47.1123 34.0028 46.7996 33.7415 46.7397C32.9309 46.553 32.6859 47.3036 32.5793 47.9812C32.8562 47.8202 32.9854 47.7735 33.2398 47.7431C34.4151 47.6023 35.116 48.8003 34.8772 49.9352C34.6539 50.9978 33.2335 51.5508 32.4479 50.7006C32.3327 50.5761 32.16 50.2852 32.1048 50.1195C31.5805 48.5615 32.0558 45.3893 34.0588 46.2644C34.3358 46.4371 34.4416 46.5608 34.7457 47.0034H34.7449ZM33.6621 48.3499C33.1713 48.1826 32.6727 48.4938 32.5793 48.9045C32.444 49.4988 32.731 50.3412 33.1339 50.5155C33.2942 50.5847 33.5003 50.5575 33.5828 50.5419C34.5466 50.3591 34.4913 48.6322 33.6621 48.3499Z" fill="black"/>
</svg>
