<svg width="37" height="55" viewBox="0 0 37 55" fill="none" xmlns="http://www.w3.org/2000/svg">
<path d="M3.21023 1.05151C3.21023 1.05151 3.2149 1.03051 3.23201 1.02973C4.13901 0.962835 5.07789 1.02973 5.98644 1.02973C15.0626 1.02973 24.2625 1.02973 33.3317 1.02973C34.2325 1.02973 34.8011 1.33 35.2927 1.80061C35.7641 2.25178 36.02 2.87485 36.02 3.80519C36.02 19.3058 36.02 34.7131 36.02 50.2728C36.02 51.2257 35.9695 51.9872 35.5572 52.5419C35.1799 53.049 34.609 53.4426 33.8606 53.5772C33.4562 53.6503 32.9544 53.599 32.4947 53.599C22.9043 53.599 13.3373 53.599 3.78352 53.599C2.87419 53.599 2.27134 53.3205 1.80073 52.8499C1.56893 52.6189 1.35735 52.3396 1.25 52.0347C0.903072 51.0507 1.05164 49.4794 1.05164 48.1352C1.05164 33.6381 1.05164 18.9752 1.05164 4.40025C1.05164 3.41858 1.10687 2.70683 1.51447 2.13043C1.89563 1.59214 2.40436 1.2032 3.21101 1.05074L3.21023 1.05151Z" fill="#FAF8F4" stroke="black" stroke-linejoin="round"/>
<path fill-rule="evenodd" clip-rule="evenodd" d="M1.979 11.4159C2.00001 11.1094 2.14313 10.8924 2.3127 10.6941C2.63396 10.3184 3.01434 9.99866 3.28504 9.57861C3.38694 9.41992 3.47951 9.24413 3.55341 9.05977C3.57753 8.99988 3.59075 8.93609 3.6312 8.88086C3.84667 9.54827 4.27372 10.0033 4.71088 10.449C4.73033 10.4732 4.75211 10.4949 4.77622 10.5144C5.00258 10.7617 5.25306 11.0138 5.27095 11.4502V11.5101C5.26239 11.8282 5.12937 12.0623 4.94891 12.2078C4.80267 12.326 4.54208 12.4279 4.27527 12.375C4.2037 12.361 4.09481 12.3136 4.03103 12.2739C3.97969 12.242 3.86534 12.1191 3.82255 12.137C3.75254 12.1658 3.86455 12.4373 3.87622 12.4707C3.919 12.5905 3.96023 12.6722 4.01313 12.7632V12.7749H3.23215C3.30761 12.6442 3.38305 12.4785 3.42895 12.3035C3.44295 12.2521 3.47173 12.1829 3.43517 12.1362C3.33872 12.1487 3.2936 12.228 3.22048 12.2731C3.13414 12.3268 3.01356 12.375 2.87432 12.3867C2.38115 12.4264 1.99844 12.0211 1.97977 11.5458V11.4144L1.979 11.4159Z" fill="black"/>
<path fill-rule="evenodd" clip-rule="evenodd" d="M35.0566 43.2005C35.0356 43.507 34.8925 43.724 34.7229 43.9224C34.4016 44.2981 34.0213 44.6178 33.7506 45.0371C33.6487 45.1958 33.5561 45.3716 33.4822 45.5559C33.4581 45.6158 33.4448 45.6796 33.4044 45.7348C33.1889 45.0674 32.7619 44.6124 32.3247 44.1666C32.3053 44.1425 32.2835 44.1208 32.2594 44.1013C32.033 43.854 31.7825 43.6019 31.7646 43.1655V43.1056C31.7732 42.7875 31.9062 42.5534 32.0867 42.4079C32.2329 42.2897 32.4935 42.1877 32.7603 42.2406C32.8319 42.2546 32.9408 42.3021 33.0046 42.3418C33.0559 42.3737 33.1702 42.4966 33.213 42.4787C33.283 42.4499 33.171 42.1784 33.1594 42.145C33.1166 42.0252 33.0754 41.9435 33.0225 41.8525V41.8408H33.8034C33.728 41.9715 33.6525 42.1372 33.6066 42.3122C33.5934 42.3636 33.5639 42.4328 33.6004 42.4794C33.6969 42.467 33.742 42.3877 33.8151 42.3425C33.9014 42.2889 34.022 42.2406 34.1613 42.229C34.6544 42.1893 35.0371 42.5946 35.0558 43.0699V43.2013L35.0566 43.2005Z" fill="black"/>
<path fill-rule="evenodd" clip-rule="evenodd" d="M8.27734 11.3211C8.31779 10.7268 8.59627 10.306 8.92453 9.92249C9.54838 9.19441 10.2858 8.57366 10.8093 7.76079C11.0077 7.45275 11.1858 7.11205 11.3297 6.75501C11.3764 6.63911 11.4028 6.51543 11.4798 6.40808C11.8975 7.70168 12.726 8.58457 13.5723 9.44878C13.6096 9.49623 13.6524 9.53823 13.6999 9.57557C14.1394 10.0563 14.624 10.5448 14.6598 11.3911V11.507C14.6434 12.1231 14.3852 12.5774 14.0351 12.8597C13.752 13.0884 13.2464 13.2868 12.7283 13.1833C12.5899 13.1553 12.3783 13.0635 12.2546 12.9865C12.1542 12.9243 11.9326 12.687 11.8501 12.7205C11.714 12.7757 12.1519 14.522 12.2546 14.6978V14.7212H10.7401C10.8855 14.4684 11.1702 12.8107 11.0987 12.7205C10.9112 12.7454 10.8233 12.8986 10.6825 12.9865C10.5145 13.0908 10.2811 13.1841 10.012 13.2059C9.05599 13.2829 8.3139 12.4972 8.27734 11.5755V11.3211Z" fill="black"/>
<path fill-rule="evenodd" clip-rule="evenodd" d="M14.6607 43.2963C14.6203 43.8906 14.3418 44.3114 14.0136 44.6956C13.3905 45.4237 12.6523 46.0445 12.1288 46.8574C11.9304 47.1654 11.7523 47.5061 11.6084 47.8631C11.5617 47.979 11.5353 48.1027 11.4583 48.2101C11.0405 46.9165 10.2121 46.0336 9.36578 45.1694C9.32844 45.1219 9.28566 45.0799 9.23821 45.0418C8.79871 44.5619 8.3141 44.0726 8.27832 43.227V43.1111C8.29466 42.4943 8.5529 42.04 8.90294 41.7584C9.18609 41.5297 9.69171 41.3314 10.2098 41.4348C10.349 41.4628 10.5598 41.5546 10.6835 41.6316C10.7838 41.6939 11.0055 41.9311 11.088 41.8977C11.2241 41.8424 10.7862 40.0961 10.6835 39.9203V39.897H12.198C12.0525 40.1498 11.7678 41.8074 11.8394 41.8969C12.0269 41.872 12.1148 41.7187 12.2556 41.6308C12.4236 41.5266 12.657 41.4333 12.9261 41.4115C13.8821 41.3345 14.6242 42.1201 14.6607 43.0419V43.2963Z" fill="black"/>
<path fill-rule="evenodd" clip-rule="evenodd" d="M28.7626 43.2963C28.7222 43.8906 28.4437 44.3114 28.1154 44.6956C27.4923 45.4237 26.7541 46.0445 26.2306 46.8574C26.0323 47.1654 25.8541 47.5061 25.7102 47.8631C25.6636 47.979 25.6371 48.1027 25.5601 48.2101C25.1424 46.9165 24.314 46.0336 23.4669 45.1694C23.4295 45.1219 23.3867 45.0799 23.3393 45.0418C22.8998 44.5619 22.4152 44.0726 22.3794 43.227V43.1111C22.3957 42.4943 22.654 42.04 23.004 41.7584C23.2872 41.5297 23.7928 41.3314 24.3109 41.4348C24.4501 41.4628 24.6609 41.5546 24.7846 41.6316C24.8849 41.6939 25.1066 41.9311 25.1891 41.8977C25.3252 41.8424 24.8873 40.0961 24.7846 39.9203V39.897H26.2991C26.1536 40.1498 25.8689 41.8074 25.9405 41.8969C26.128 41.872 26.2159 41.7187 26.3567 41.6308C26.5247 41.5266 26.758 41.4333 27.0272 41.4115C27.9832 41.3345 28.7253 42.1201 28.7618 43.0419V43.2963H28.7626Z" fill="black"/>
<path fill-rule="evenodd" clip-rule="evenodd" d="M22.3804 11.3211C22.4208 10.7268 22.6985 10.306 23.0276 9.92249C23.6506 9.19441 24.3888 8.57366 24.9123 7.76079C25.1107 7.45275 25.2888 7.11205 25.4327 6.75501C25.4794 6.63911 25.5059 6.51543 25.5829 6.40808C26.0006 7.70168 26.829 8.58457 27.6761 9.44878C27.7135 9.49623 27.7562 9.53823 27.8029 9.57557C28.2424 10.0563 28.727 10.5448 28.7628 11.3911V11.507C28.7465 12.1231 28.4882 12.5774 28.1382 12.8597C27.855 13.0884 27.3494 13.2868 26.8313 13.1833C26.6929 13.1553 26.4813 13.0635 26.3576 12.9865C26.2573 12.9243 26.0356 12.687 25.9531 12.7205C25.817 12.7757 26.255 14.522 26.3576 14.6978V14.7212H24.8431C24.9886 14.4684 25.2733 12.8107 25.2017 12.7205C25.0142 12.7454 24.9264 12.8986 24.7856 12.9865C24.6175 13.0908 24.3842 13.1841 24.115 13.2059C23.159 13.2829 22.4169 12.4972 22.3804 11.5755V11.3211Z" fill="black"/>
<path fill-rule="evenodd" clip-rule="evenodd" d="M15.3291 28.0663C15.3696 27.472 15.648 27.052 15.9763 26.6677C16.5994 25.9396 17.3376 25.3189 17.8611 24.506C18.0594 24.198 18.2376 23.8573 18.3815 23.5002C18.4281 23.3843 18.4546 23.2607 18.5316 23.1533C18.9493 24.4469 19.7777 25.3298 20.6248 26.194C20.6622 26.2415 20.705 26.2835 20.7524 26.3208C21.1919 26.8008 21.6765 27.29 21.7123 28.1364V28.2523C21.696 28.8683 21.4377 29.3226 21.0877 29.605C20.8045 29.8337 20.2989 30.032 19.7809 29.9286C19.6424 29.9006 19.4308 29.8088 19.3071 29.7318C19.2068 29.6695 18.9851 29.4323 18.9026 29.4657C18.7665 29.521 19.2044 31.2673 19.3071 31.4431V31.4664H17.7926C17.9381 31.2136 18.2228 29.556 18.1512 29.4665C17.9637 29.4914 17.8758 29.6447 17.735 29.7326C17.567 29.8368 17.3337 29.9301 17.0645 29.9519C16.1085 30.0289 15.3664 29.244 15.3299 28.3215V28.0671L15.3291 28.0663Z" fill="black"/>
<path fill-rule="evenodd" clip-rule="evenodd" d="M4.70332 3.50269V4.08531C3.89122 4.08531 3.41439 4.08221 2.87921 4.08221C2.8411 4.44392 2.8271 4.6446 2.79599 5.02187C3.0558 4.90908 3.64775 4.80173 4.09503 4.93941C5.68888 5.42791 5.58542 8.45539 3.59797 8.50362C3.14136 8.51451 2.63885 8.28348 2.38215 8.03378C2.33237 7.98477 2.09512 7.71252 2.05078 7.50872C2.17835 7.4286 2.30982 7.36015 2.52062 7.2598C2.62019 7.4356 2.7252 7.54062 2.77265 7.59429C3.49451 8.4165 4.73988 7.74365 4.56564 6.37537C4.45674 5.51894 3.27749 5.06387 2.6863 5.8783C2.42027 5.76396 2.39227 5.74295 2.13402 5.60216C2.17447 4.92852 2.18535 4.24633 2.24447 3.50502C3.11802 3.50502 3.83677 3.50269 4.7041 3.50269H4.70332Z" fill="black"/>
<path fill-rule="evenodd" clip-rule="evenodd" d="M32.3377 51.1154V50.532C33.1498 50.532 33.6266 50.5343 34.161 50.5343C34.1991 50.1726 34.2132 49.9719 34.2443 49.5954C33.9845 49.7082 33.3925 49.8148 32.9452 49.6779C31.3514 49.1894 31.4548 46.1619 33.4423 46.1137C33.8989 46.1028 34.4014 46.3338 34.6581 46.5835C34.7079 46.6325 34.9451 46.9047 34.9895 47.1086C34.8619 47.1887 34.7304 47.2571 34.5196 47.3575C34.4201 47.1817 34.3151 47.0767 34.2676 47.023C33.545 46.2008 32.3004 46.8736 32.4746 48.2419C32.5835 49.0983 33.7628 49.5534 34.3539 48.7397C34.62 48.8541 34.648 48.8751 34.9062 49.0159C34.8658 49.6895 34.8549 50.3717 34.7958 51.113C33.9222 51.113 33.2035 51.1154 32.3369 51.1154H32.3377Z" fill="black"/>
</svg>
