<svg width="37" height="55" viewBox="0 0 37 55" fill="none" xmlns="http://www.w3.org/2000/svg">
<path d="M3.21023 1.05151C3.21023 1.05151 3.2149 1.03051 3.23201 1.02973C4.13901 0.962835 5.07789 1.02973 5.98644 1.02973C15.0626 1.02973 24.2625 1.02973 33.3317 1.02973C34.2325 1.02973 34.8011 1.33 35.2927 1.80061C35.7641 2.25178 36.02 2.87485 36.02 3.80519C36.02 19.3058 36.02 34.7131 36.02 50.2728C36.02 51.2257 35.9695 51.9872 35.5572 52.5419C35.1799 53.049 34.609 53.4426 33.8606 53.5772C33.4562 53.6503 32.9544 53.599 32.4947 53.599C22.9043 53.599 13.3373 53.599 3.78351 53.599C2.87418 53.599 2.27133 53.3205 1.80072 52.8499C1.56969 52.6189 1.35735 52.3396 1.25 52.0347C0.903072 51.0507 1.05164 49.4794 1.05164 48.1352C1.05164 33.6381 1.05164 18.9752 1.05164 4.40025C1.05164 3.41858 1.10687 2.70683 1.51447 2.13043C1.89563 1.59214 2.40436 1.2032 3.21101 1.05074L3.21023 1.05151Z" fill="#FAF8F4" stroke="black" stroke-linejoin="round"/>
<path fill-rule="evenodd" clip-rule="evenodd" d="M1.97803 11.416C1.99903 11.1095 2.14216 10.8925 2.31174 10.6942C2.633 10.3184 3.01338 9.99873 3.28407 9.57946C3.38598 9.42078 3.47776 9.24498 3.55244 9.06063C3.57655 9.00073 3.58977 8.93694 3.63022 8.88171C3.84569 9.54913 4.27275 10.0042 4.70992 10.4499C4.72936 10.474 4.75113 10.4958 4.77525 10.5152C5.00161 10.7626 5.25209 11.0146 5.26998 11.4518V11.5117C5.26142 11.8298 5.12842 12.064 4.94795 12.2094C4.80171 12.3269 4.54111 12.4296 4.2743 12.3767C4.20274 12.3627 4.09384 12.3152 4.03006 12.2756C3.97872 12.2437 3.86436 12.1208 3.82158 12.1386C3.75157 12.1674 3.8636 12.4389 3.87526 12.4724C3.91805 12.5921 3.95927 12.6738 4.01217 12.7648V12.7765H3.23118C3.30586 12.6458 3.38209 12.4801 3.42799 12.3051C3.44121 12.2538 3.47076 12.1845 3.4342 12.1379C3.33774 12.1503 3.29262 12.2297 3.21951 12.2748C3.13316 12.3284 3.0126 12.3767 2.87336 12.3883C2.38019 12.428 1.99747 12.0228 1.97881 11.5475V11.416H1.97803Z" fill="black"/>
<path fill-rule="evenodd" clip-rule="evenodd" d="M35.0563 43.2005C35.0353 43.507 34.8922 43.724 34.7226 43.9224C34.4013 44.2981 34.0209 44.6178 33.751 45.0371C33.6491 45.1958 33.5566 45.3716 33.4827 45.5559C33.4585 45.6158 33.4453 45.6796 33.4049 45.7348C33.1894 45.0674 32.7624 44.6124 32.3252 44.1666C32.3058 44.1425 32.284 44.1208 32.2599 44.1013C32.0335 43.854 31.783 43.6019 31.7651 43.1655V43.1056C31.7737 42.7875 31.9067 42.5534 32.0872 42.4079C32.2334 42.2904 32.494 42.1877 32.7608 42.2406C32.8324 42.2546 32.9413 42.3021 33.0051 42.3418C33.0564 42.3737 33.1707 42.4966 33.2135 42.4787C33.2835 42.4499 33.1715 42.1784 33.1599 42.145C33.1171 42.0252 33.0758 41.9435 33.0229 41.8525V41.8408H33.8039C33.7285 41.9715 33.653 42.1372 33.6071 42.3122C33.5939 42.3636 33.5643 42.4328 33.6009 42.4794C33.6974 42.467 33.7432 42.3877 33.8156 42.3425C33.9019 42.2889 34.0225 42.2406 34.1617 42.229C34.6549 42.1893 35.0376 42.5946 35.0563 43.0699V43.2013V43.2005Z" fill="black"/>
<path fill-rule="evenodd" clip-rule="evenodd" d="M8.27734 11.321C8.31779 10.7267 8.5955 10.3059 8.92454 9.92164C9.54761 9.19355 10.2858 8.57281 10.8093 7.75993C11.0077 7.45268 11.1858 7.1112 11.3297 6.75415C11.3764 6.63825 11.4028 6.51457 11.4798 6.40723C11.8976 7.70082 12.726 8.58371 13.5731 9.44793C13.6104 9.49538 13.6532 9.53737 13.6999 9.57549C14.1394 10.0554 14.624 10.5447 14.6598 11.391V11.5069C14.6434 12.123 14.3852 12.5773 14.0351 12.8597C13.752 13.0883 13.2464 13.2867 12.7283 13.1833C12.5899 13.1553 12.3783 13.0635 12.2546 12.9865C12.1543 12.9242 11.9326 12.687 11.8501 12.7204C11.714 12.7756 12.1519 14.522 12.2546 14.6978V14.7211H10.7401C10.8856 14.4683 11.1702 12.8106 11.0987 12.7204C10.9112 12.7453 10.8233 12.8986 10.6825 12.9865C10.5145 13.0907 10.2811 13.184 10.012 13.2058C9.056 13.2828 8.3139 12.4972 8.27734 11.5754V11.321Z" fill="black"/>
<path fill-rule="evenodd" clip-rule="evenodd" d="M14.6604 43.2961C14.6191 43.8904 14.3414 44.3113 14.0124 44.6955C13.3893 45.4236 12.6511 46.0444 12.1276 46.8572C11.9292 47.1653 11.7511 47.506 11.6072 47.863C11.5605 47.9789 11.5341 48.1026 11.4571 48.2099C11.0394 46.9163 10.2109 46.0335 9.36383 45.1693C9.32649 45.1218 9.28372 45.0798 9.23627 45.0425C8.79677 44.5625 8.31215 44.0732 8.27637 43.2269V43.111C8.2927 42.4949 8.55096 42.0407 8.901 41.7583C9.18414 41.5296 9.68976 41.3312 10.2078 41.4347C10.3471 41.4627 10.5579 41.5545 10.6816 41.6315C10.7819 41.6937 11.0036 41.931 11.086 41.8975C11.2222 41.8423 10.7842 40.096 10.6816 39.9202V39.8969H12.1961C12.0506 40.1497 11.7659 41.8073 11.8375 41.8968C12.0249 41.8719 12.1128 41.7186 12.2536 41.6307C12.4216 41.5265 12.655 41.4331 12.9241 41.4114C13.8801 41.3344 14.6222 42.12 14.6588 43.0418V43.2961H14.6604Z" fill="black"/>
<path fill-rule="evenodd" clip-rule="evenodd" d="M28.7624 43.2961C28.7212 43.8904 28.4435 44.3113 28.1144 44.6955C27.4914 45.4236 26.7532 46.0444 26.2297 46.8572C26.0313 47.1653 25.8532 47.506 25.7093 47.863C25.6626 47.9789 25.6361 48.1026 25.5591 48.2099C25.1414 46.9163 24.313 46.0335 23.4659 45.1693C23.4285 45.1218 23.3858 45.0798 23.3383 45.0425C22.8988 44.5625 22.4142 44.0732 22.3784 43.2269V43.111C22.3948 42.4949 22.653 42.0407 23.003 41.7583C23.2862 41.5296 23.7918 41.3312 24.3099 41.4347C24.4491 41.4627 24.6599 41.5545 24.7836 41.6315C24.884 41.6937 25.1056 41.931 25.1881 41.8975C25.3242 41.8423 24.8863 40.096 24.7836 39.9202V39.8969H26.2981C26.1527 40.1497 25.8679 41.8073 25.9395 41.8968C26.127 41.8719 26.2149 41.7186 26.3557 41.6307C26.5237 41.5265 26.757 41.4331 27.0262 41.4114C27.9822 41.3344 28.7243 42.12 28.7608 43.0418V43.2961H28.7624Z" fill="black"/>
<path fill-rule="evenodd" clip-rule="evenodd" d="M22.3799 11.321C22.4203 10.7267 22.6988 10.3059 23.0271 9.92164C23.6502 9.19355 24.3883 8.57281 24.9119 7.75993C25.1102 7.45268 25.2883 7.1112 25.4322 6.75415C25.4789 6.63825 25.5054 6.51457 25.5824 6.40723C26.0001 7.70082 26.8285 8.58371 27.6756 9.44793C27.713 9.49538 27.7557 9.53737 27.8024 9.57549C28.2419 10.0554 28.7265 10.5447 28.7623 11.391V11.5069C28.746 12.123 28.4877 12.5773 28.1377 12.8597C27.8545 13.0883 27.3481 13.2867 26.8309 13.1833C26.6924 13.1553 26.4808 13.0635 26.3571 12.9865C26.2568 12.9242 26.0351 12.687 25.9526 12.7204C25.8165 12.7756 26.2545 14.522 26.3571 14.6978V14.7211H24.8426C24.9881 14.4683 25.2728 12.8106 25.2012 12.7204C25.0138 12.7453 24.9258 12.8986 24.7851 12.9865C24.617 13.0907 24.3837 13.184 24.1145 13.2058C23.1585 13.2828 22.4164 12.4972 22.3799 11.5754V11.321Z" fill="black"/>
<path fill-rule="evenodd" clip-rule="evenodd" d="M22.3799 28.0662C22.4203 27.4719 22.6988 27.0519 23.0271 26.6676C23.6502 25.9395 24.3883 25.3188 24.9119 24.5059C25.1102 24.1979 25.2883 23.8572 25.4322 23.5001C25.4789 23.3842 25.5054 23.2605 25.5824 23.1532C26.0001 24.4468 26.8285 25.3297 27.6756 26.1939C27.713 26.2413 27.7557 26.2833 27.8024 26.3207C28.2419 26.8006 28.7265 27.2899 28.7623 28.1362V28.2521C28.746 28.8682 28.4877 29.3225 28.1377 29.6048C27.8545 29.8335 27.3481 30.0319 26.8309 29.9284C26.6924 29.9004 26.4808 29.8087 26.3571 29.7317C26.2568 29.6694 26.0351 29.4322 25.9526 29.4656C25.8165 29.5208 26.2545 31.2672 26.3571 31.4422V31.4655H24.8426C24.9881 31.2127 25.2728 29.5551 25.2012 29.4656C25.0138 29.4905 24.9258 29.6438 24.7851 29.7317C24.617 29.8359 24.3837 29.9292 24.1145 29.951C23.1585 30.028 22.4164 29.2424 22.3799 28.3206V28.0662Z" fill="black"/>
<path fill-rule="evenodd" clip-rule="evenodd" d="M8.27734 28.0662C8.31779 27.4719 8.5955 27.0519 8.92454 26.6676C9.54761 25.9395 10.2858 25.3188 10.8093 24.5059C11.0077 24.1979 11.1858 23.8572 11.3297 23.5001C11.3764 23.3842 11.4028 23.2605 11.4798 23.1532C11.8976 24.4468 12.726 25.3297 13.5731 26.1939C13.6104 26.2413 13.6532 26.2833 13.6999 26.3207C14.1394 26.8006 14.624 27.2899 14.6598 28.1362V28.2521C14.6434 28.8682 14.3852 29.3225 14.0351 29.6048C13.752 29.8335 13.2464 30.0319 12.7283 29.9284C12.5899 29.9004 12.3783 29.8087 12.2546 29.7317C12.1543 29.6694 11.9326 29.4322 11.8501 29.4656C11.714 29.5208 12.1519 31.2672 12.2546 31.4422V31.4655H10.7401C10.8856 31.2127 11.1702 29.5551 11.0987 29.4656C10.9112 29.4905 10.8233 29.6438 10.6825 29.7317C10.5145 29.8359 10.2811 29.9292 10.012 29.951C9.056 30.028 8.3139 29.2424 8.27734 28.3206V28.0662Z" fill="black"/>
<path fill-rule="evenodd" clip-rule="evenodd" d="M15.3289 19.6932C15.3694 19.0989 15.6478 18.6781 15.9761 18.2939C16.5999 17.5658 17.3374 16.945 17.8609 16.1321C18.0592 15.8249 18.2374 15.4834 18.3813 15.1264C18.4279 15.0105 18.4544 14.8868 18.5314 14.7794C18.9491 16.073 19.7775 16.9559 20.6246 17.8201C20.662 17.8676 20.7048 17.9096 20.7514 17.9477C21.1909 18.4276 21.6755 18.9169 21.7113 19.7625V19.8784C21.695 20.4944 21.4367 20.9487 21.0867 21.2311C20.8036 21.4598 20.2979 21.6581 19.7799 21.5547C19.6406 21.5267 19.4298 21.4349 19.3054 21.3579C19.205 21.2956 18.9833 21.0584 18.9009 21.0918C18.7647 21.1471 19.2027 22.8934 19.3054 23.0692V23.0925H17.7909C17.9363 22.8397 18.221 21.1821 18.1495 21.0926C17.962 21.1175 17.8741 21.2708 17.7333 21.3587C17.5653 21.4629 17.3319 21.5562 17.0628 21.578C16.1068 21.655 15.3647 20.8702 15.3281 19.9476V19.6932H15.3289Z" fill="black"/>
<path fill-rule="evenodd" clip-rule="evenodd" d="M21.7111 34.924C21.6699 35.5183 21.3922 35.9384 21.0632 36.3234C20.4401 37.0515 19.7019 37.6722 19.1784 38.4851C18.98 38.7931 18.8019 39.1338 18.658 39.4909C18.6113 39.6068 18.5849 39.7305 18.5079 39.8378C18.0901 38.5442 17.2617 37.6613 16.4146 36.7971C16.3773 36.7497 16.3345 36.7077 16.287 36.6695C15.8475 36.1896 15.3629 35.7003 15.3271 34.8548V34.7389C15.3435 34.1228 15.6017 33.6678 15.9518 33.3862C16.2349 33.1575 16.7405 32.9591 17.2586 33.0626C17.3978 33.0906 17.6086 33.1823 17.7323 33.2586C17.8327 33.3208 18.0544 33.5581 18.1368 33.5246C18.2729 33.4694 17.835 31.7231 17.7323 31.5473V31.5239H19.2468C19.1014 31.7767 18.8167 33.4344 18.8882 33.5246C19.0757 33.4997 19.1636 33.3465 19.3044 33.2586C19.4724 33.1543 19.7058 33.061 19.9749 33.0392C20.9309 32.9614 21.673 33.7471 21.7096 34.6696V34.924H21.7111Z" fill="black"/>
<path fill-rule="evenodd" clip-rule="evenodd" d="M3.38607 3.51903C4.48443 3.36034 5.4311 4.38481 4.88659 5.39448C4.83525 5.4886 4.63223 5.68308 4.5381 5.76942C4.70301 5.87054 4.90682 6.13345 4.96671 6.22524C5.63879 7.2567 4.74035 8.56663 3.4662 8.50207C2.22394 8.43906 1.56975 6.88411 2.47519 5.98411C2.48686 5.97245 2.71244 5.81686 2.68911 5.79663C2.56854 5.6924 2.36628 5.45205 2.31417 5.34159C1.9159 4.49294 2.53975 3.64193 3.38607 3.51981V3.51903ZM3.25228 5.4746C3.88469 5.73753 4.50466 5.23969 4.40431 4.64385C4.34286 4.27825 3.98425 3.97254 3.43974 4.08145C2.71632 4.22613 2.65255 5.22569 3.25228 5.4746ZM2.71632 7.4574C2.98624 7.97079 3.83879 8.1147 4.29696 7.69854C5.04527 7.01868 4.30941 5.94287 3.33241 6.14434C2.80034 6.25402 2.40362 6.86232 2.71632 7.4574Z" fill="black"/>
<path fill-rule="evenodd" clip-rule="evenodd" d="M33.6535 51.099C32.5551 51.2577 31.6085 50.2332 32.153 49.2235C32.2043 49.1286 32.4074 48.935 32.5015 48.8486C32.3358 48.7475 32.1328 48.4846 32.0729 48.3928C31.4008 47.3613 32.2992 46.0514 33.5734 46.1159C34.8156 46.179 35.4698 47.7339 34.5652 48.6339C34.5527 48.6456 34.3279 48.8012 34.3505 48.8214C34.4711 48.9256 34.6733 49.166 34.7254 49.2764C35.1237 50.1251 34.4998 50.9761 33.6535 51.0982V51.099ZM33.7873 49.1434C33.1549 48.8813 32.5349 49.3783 32.6353 49.9742C32.6967 50.3398 33.0553 50.6455 33.5998 50.5366C34.3232 50.3919 34.387 49.3923 33.7873 49.1434ZM34.3232 47.1614C34.0533 46.648 33.2008 46.5041 32.7426 46.9203C31.9943 47.6001 32.7302 48.6759 33.7072 48.4745C34.2392 48.3648 34.636 47.7565 34.3232 47.1614Z" fill="black"/>
</svg>
