<svg width="37" height="55" viewBox="0 0 37 55" fill="none" xmlns="http://www.w3.org/2000/svg">
<path d="M3.21097 1.05151C3.21097 1.05151 3.21562 1.03051 3.23273 1.02973C4.13971 0.962836 5.07859 1.02973 5.98712 1.02973C15.0631 1.02973 24.2628 1.02973 33.3318 1.02973C34.2318 1.02973 34.8011 1.32999 35.2927 1.8006C35.7641 2.25175 36.02 2.87481 36.02 3.80512C36.02 19.3054 36.02 34.7123 36.02 50.2717C36.02 51.2246 35.9695 51.9861 35.5572 52.5407C35.1799 53.0479 34.609 53.4415 33.8607 53.576C33.4562 53.6492 32.9545 53.5978 32.4948 53.5978C22.9047 53.5978 13.3378 53.5978 3.78346 53.5978C2.87415 53.5978 2.27131 53.3194 1.80071 52.8488C1.56969 52.6177 1.35733 52.3385 1.24999 52.0336C0.903064 51.0496 1.05165 49.4783 1.05165 48.1342C1.05165 33.6373 1.05165 18.9748 1.05165 4.40017C1.05165 3.41852 1.10687 2.70679 1.51447 2.1304C1.89562 1.59213 2.40434 1.20319 3.21097 1.05073V1.05151Z" fill="#FAF8F4" stroke="black" stroke-linejoin="round"/>
<path fill-rule="evenodd" clip-rule="evenodd" d="M1.979 11.4153C2.00001 11.1089 2.14313 10.8918 2.31271 10.6943C2.63396 10.3186 3.01433 9.99888 3.28502 9.57884C3.38692 9.42015 3.47948 9.24436 3.55338 9.06001C3.57749 9.00012 3.59071 8.93633 3.63116 8.8811C3.84663 9.5485 4.27366 10.0035 4.71081 10.4492C4.73026 10.4734 4.75205 10.4951 4.77616 10.5146C5.00252 10.762 5.25299 11.014 5.27088 11.4504V11.5103C5.26233 11.8284 5.1293 12.0625 4.94884 12.208C4.80261 12.3254 4.54203 12.4281 4.27523 12.3752C4.20367 12.3612 4.09476 12.3138 4.03097 12.2741C3.97886 12.2422 3.86452 12.1193 3.82251 12.1372C3.75251 12.166 3.86451 12.4374 3.87618 12.4709C3.91896 12.5907 3.96019 12.6724 4.01308 12.7626V12.7743H3.23213C3.30759 12.6436 3.38302 12.4779 3.42891 12.3029C3.44292 12.2515 3.4717 12.1823 3.43514 12.1356C3.33869 12.1481 3.29279 12.2274 3.22045 12.2725C3.13411 12.3262 3.01355 12.3744 2.87431 12.3861C2.38115 12.4258 1.99845 12.0205 1.97978 11.5453V11.4138L1.979 11.4153Z" fill="black"/>
<path fill-rule="evenodd" clip-rule="evenodd" d="M35.0565 43.1992C35.0355 43.5057 34.8924 43.7227 34.7228 43.9211C34.4016 44.2968 34.0212 44.6165 33.7505 45.0357C33.6486 45.1944 33.5561 45.3702 33.4822 45.5546C33.458 45.6144 33.4448 45.6782 33.4044 45.7335C33.1889 45.0661 32.7619 44.611 32.3247 44.1653C32.3053 44.1412 32.2835 44.1194 32.2594 44.1C32.033 43.8526 31.7825 43.6006 31.7646 43.1634V43.1035C31.7732 42.7854 31.9062 42.5513 32.0867 42.4058C32.2329 42.2883 32.4935 42.1857 32.7603 42.2386C32.8319 42.2526 32.9408 42.3 33.0046 42.3397C33.0559 42.3716 33.1702 42.4945 33.213 42.4766C33.283 42.4478 33.171 42.1763 33.1594 42.1429C33.1166 42.0231 33.0753 41.9414 33.0224 41.8504V41.8387H33.8034C33.7287 41.9694 33.6525 42.1351 33.6066 42.3101C33.5926 42.3615 33.5638 42.4307 33.6004 42.4774C33.6968 42.4649 33.742 42.3856 33.8151 42.3405C33.9014 42.2868 34.022 42.2386 34.1612 42.2269C34.6544 42.1872 35.0371 42.5917 35.0557 43.0678V43.1992H35.0565Z" fill="black"/>
<path fill-rule="evenodd" clip-rule="evenodd" d="M8.27832 11.3205C8.31877 10.7262 8.59647 10.3054 8.9255 9.92193C9.54934 9.19386 10.2867 8.57313 10.8102 7.76027C11.0086 7.45224 11.1867 7.11155 11.3306 6.75451C11.3773 6.63861 11.4037 6.51494 11.4807 6.40759C11.8984 7.70116 12.7269 8.58403 13.574 9.44823C13.6113 9.49568 13.6541 9.53767 13.7007 9.57501C14.1402 10.0557 14.6248 10.5442 14.6606 11.3905V11.5064C14.6443 12.1225 14.386 12.5767 14.036 12.8591C13.7529 13.0878 13.2472 13.2862 12.7292 13.1827C12.59 13.1547 12.3792 13.0629 12.2555 12.9859C12.1552 12.9237 11.9334 12.6864 11.851 12.7199C11.7149 12.7751 12.1528 14.5214 12.2555 14.6972V14.7205H10.741C10.8865 14.4677 11.1712 12.8101 11.0996 12.7199C10.9121 12.7448 10.8242 12.898 10.6834 12.9859C10.5154 13.0901 10.2821 13.1835 10.0129 13.2052C9.05696 13.2823 8.31488 12.4966 8.27832 11.5749V11.3205Z" fill="black"/>
<path fill-rule="evenodd" clip-rule="evenodd" d="M14.6606 43.295C14.6202 43.8892 14.3417 44.3101 14.0134 44.6935C13.3904 45.4216 12.6522 46.0423 12.1287 46.856C11.9303 47.164 11.7522 47.5047 11.6083 47.8617C11.5616 47.9776 11.5352 48.1013 11.4582 48.2087C11.0405 46.9151 10.2121 46.0322 9.36498 45.168C9.32764 45.1206 9.28487 45.0786 9.2382 45.0405C8.79871 44.5605 8.3141 44.0713 8.27832 43.2257V43.1098C8.29466 42.493 8.5529 42.0387 8.90294 41.7571C9.18608 41.5285 9.69169 41.3301 10.2097 41.4336C10.3482 41.4616 10.5598 41.5534 10.6834 41.6304C10.7838 41.6926 11.0055 41.9298 11.0879 41.8964C11.2241 41.8412 10.7861 40.0949 10.6834 39.9191V39.8958H12.1979C12.0525 40.1486 11.7678 41.8062 11.8393 41.8956C12.0268 41.8707 12.1147 41.7175 12.2555 41.6296C12.4235 41.5254 12.6569 41.432 12.926 41.4102C13.882 41.3332 14.6241 42.1189 14.6606 43.0406V43.295Z" fill="black"/>
<path fill-rule="evenodd" clip-rule="evenodd" d="M28.7631 43.295C28.7227 43.8892 28.4442 44.3101 28.116 44.6935C27.4921 45.4216 26.7547 46.0423 26.2312 46.856C26.0329 47.164 25.8548 47.5047 25.7109 47.8617C25.6642 47.9776 25.6377 48.1013 25.5607 48.2087C25.143 46.9151 24.3146 46.0322 23.4675 45.168C23.4302 45.1206 23.3874 45.0786 23.3407 45.0405C22.9012 44.5605 22.4166 44.0713 22.3809 43.2257V43.1098C22.3972 42.493 22.6554 42.0387 23.0055 41.7571C23.2886 41.5285 23.795 41.3301 24.3123 41.4336C24.4507 41.4616 24.6623 41.5534 24.7868 41.6304C24.8871 41.6926 25.1088 41.9298 25.1912 41.8964C25.3274 41.8412 24.8894 40.0949 24.7868 39.9191V39.8958H26.3012C26.1558 40.1486 25.8711 41.8062 25.9427 41.8956C26.1301 41.8707 26.218 41.7175 26.3588 41.6296C26.5268 41.5254 26.7602 41.432 27.0293 41.4102C27.9853 41.3332 28.7274 42.1189 28.7639 43.0406V43.295H28.7631Z" fill="black"/>
<path fill-rule="evenodd" clip-rule="evenodd" d="M22.3799 11.3205C22.4203 10.7262 22.6988 10.3054 23.0271 9.92193C23.6501 9.19386 24.3883 8.57313 24.9118 7.76027C25.1102 7.45224 25.2883 7.11155 25.4322 6.75451C25.4788 6.63861 25.5053 6.51494 25.5823 6.40759C26 7.70116 26.8284 8.58403 27.6755 9.44823C27.7129 9.49568 27.7556 9.53767 27.8031 9.57501C28.2426 10.0557 28.7272 10.5442 28.7629 11.3905V11.5064C28.7466 12.1225 28.4884 12.5767 28.1383 12.8591C27.8552 13.0878 27.3496 13.2862 26.8315 13.1827C26.6923 13.1547 26.4815 13.0629 26.357 12.9859C26.2567 12.9237 26.035 12.6864 25.9526 12.7199C25.8164 12.7751 26.2544 14.5214 26.357 14.6972V14.7205H24.8426C24.988 14.4677 25.2727 12.8101 25.2012 12.7199C25.0137 12.7448 24.9258 12.898 24.785 12.9859C24.617 13.0901 24.3836 13.1835 24.1145 13.2052C23.1585 13.2823 22.4164 12.4966 22.3799 11.5749V11.3205Z" fill="black"/>
<path fill-rule="evenodd" clip-rule="evenodd" d="M22.3799 28.0654C22.4203 27.4711 22.6988 27.0511 23.0271 26.6668C23.6501 25.9387 24.3883 25.318 24.9118 24.5051C25.1102 24.1971 25.2883 23.8564 25.4322 23.4994C25.4788 23.3835 25.5053 23.2598 25.5823 23.1525C26 24.446 26.8284 25.3289 27.6755 26.1931C27.7129 26.2405 27.7556 26.2825 27.8031 26.3199C28.2426 26.7998 28.7272 27.2891 28.7629 28.1354V28.2513C28.7466 28.8674 28.4884 29.3216 28.1383 29.604C27.8552 29.8327 27.3496 30.031 26.8315 29.9276C26.6923 29.8996 26.4815 29.8078 26.357 29.7308C26.2567 29.6685 26.035 29.4313 25.9526 29.4647C25.8164 29.52 26.2544 31.2663 26.357 31.4421V31.4654H24.8426C24.988 31.2126 25.2727 29.555 25.2012 29.4655C25.0137 29.4904 24.9258 29.6437 24.785 29.7316C24.617 29.8358 24.3836 29.9291 24.1145 29.9509C23.1585 30.0287 22.4164 29.2431 22.3799 28.3205V28.0662V28.0654Z" fill="black"/>
<path fill-rule="evenodd" clip-rule="evenodd" d="M8.27832 28.0654C8.31877 27.4711 8.59647 27.0511 8.9255 26.6668C9.54934 25.9387 10.2867 25.318 10.8102 24.5051C11.0086 24.1971 11.1867 23.8564 11.3306 23.4994C11.3773 23.3835 11.4037 23.2598 11.4807 23.1525C11.8984 24.446 12.7269 25.3289 13.574 26.1931C13.6113 26.2405 13.6541 26.2825 13.7007 26.3199C14.1402 26.7998 14.6248 27.2891 14.6606 28.1354V28.2513C14.6443 28.8674 14.386 29.3216 14.036 29.604C13.7529 29.8327 13.2472 30.031 12.7292 29.9276C12.59 29.8996 12.3792 29.8078 12.2555 29.7308C12.1552 29.6685 11.9334 29.4313 11.851 29.4647C11.7149 29.52 12.1528 31.2663 12.2555 31.4421V31.4654H10.741C10.8865 31.2126 11.1712 29.555 11.0996 29.4655C10.9121 29.4904 10.8242 29.6437 10.6834 29.7316C10.5154 29.8358 10.2821 29.9291 10.0129 29.9509C9.05696 30.0287 8.31488 29.2431 8.27832 28.3205V28.0662V28.0654Z" fill="black"/>
<path fill-rule="evenodd" clip-rule="evenodd" d="M4.96041 4.36179C4.75817 4.46291 4.69517 4.4808 4.47581 4.57726C4.36302 4.40924 4.27823 4.22955 4.09855 4.14632C3.31292 3.78229 2.73496 4.67371 2.80652 5.35744C3.08033 5.15287 3.71507 5.02374 4.17945 5.19642C4.45403 5.29832 4.72549 5.58769 4.85228 5.78838C5.09108 6.16641 5.24744 7.04693 5.01408 7.6451C4.59093 8.72787 2.92711 8.82044 2.37639 7.726C2.09325 7.16439 2.08391 6.2092 2.16092 5.38468C2.24337 4.50104 2.61051 3.6555 3.37203 3.52793C4.13977 3.39881 4.7395 3.77295 4.96041 4.36257V4.36179ZM2.78009 6.29941C2.70153 6.61522 2.78086 7.24218 2.94187 7.53777C3.05388 7.74312 3.34404 7.94614 3.56106 7.9687C4.86318 8.10016 4.83518 5.39089 3.39926 5.70826C3.12079 5.76971 2.85399 6.00383 2.78009 6.30019V6.29941Z" fill="black"/>
<path fill-rule="evenodd" clip-rule="evenodd" d="M32.0798 50.2544C32.2828 50.1533 32.345 50.1354 32.5644 50.0389C32.6772 50.2069 32.762 50.3866 32.9409 50.4698C33.7265 50.8339 34.3044 49.9425 34.2329 49.2587C33.9591 49.4633 33.3243 49.5924 32.86 49.4205C32.5854 49.3186 32.3139 49.0293 32.1871 48.8286C31.9475 48.4505 31.792 47.57 32.0253 46.9718C32.4485 45.8891 34.1123 45.7965 34.663 46.8909C34.9462 47.4526 34.9555 48.4078 34.8785 49.2323C34.796 50.1159 34.4289 50.9614 33.6674 51.089C32.8996 51.2181 32.2999 50.844 32.079 50.2544H32.0798ZM34.2601 48.3168C34.3387 48.0009 34.2593 47.374 34.0983 47.0784C33.9863 46.873 33.6954 46.6693 33.4791 46.6475C32.177 46.516 32.205 49.2245 33.6409 48.9079C33.9194 48.8465 34.1862 48.6123 34.2601 48.316V48.3168Z" fill="black"/>
</svg>
