<svg width="37" height="55" viewBox="0 0 37 55" fill="none" xmlns="http://www.w3.org/2000/svg">
<path d="M3.21096 1.05151C3.21096 1.05151 3.21563 1.03051 3.23274 1.02973C4.13972 0.962836 5.0778 1.02973 5.98711 1.02973C15.0631 1.02973 24.2628 1.02973 33.3318 1.02973C34.2317 1.02973 34.8011 1.32999 35.2927 1.8006C35.7641 2.25175 36.02 2.87481 36.02 3.80512C36.02 19.3054 36.02 34.7123 36.02 50.2717C36.02 51.2246 35.9695 51.9861 35.5572 52.5407C35.1799 53.0479 34.6098 53.4415 33.8607 53.576C33.4562 53.6491 32.9545 53.5978 32.4948 53.5978C22.9046 53.5978 13.3378 53.5978 3.78425 53.5978C2.87494 53.5978 2.27132 53.3193 1.80072 52.8487C1.5697 52.6177 1.35734 52.3385 1.25 52.0336C0.903074 51.0496 1.05164 49.4783 1.05164 48.1342C1.05164 33.6373 1.05164 18.9748 1.05164 4.40017C1.05164 3.41852 1.10686 2.70679 1.51446 2.1304C1.89561 1.59213 2.40433 1.20319 3.21096 1.05073V1.05151Z" fill="#FAF8F4" stroke="black" stroke-linejoin="round"/>
<path fill-rule="evenodd" clip-rule="evenodd" d="M1.979 11.4157C2.00001 11.1092 2.14311 10.8922 2.31269 10.6939C2.63394 10.3182 3.01431 9.99846 3.285 9.5792C3.3869 9.42052 3.47948 9.24473 3.55338 9.06038C3.57749 9.00049 3.59071 8.9367 3.63116 8.88147C3.84663 9.54887 4.27366 10.0039 4.71081 10.4496C4.73026 10.4737 4.75205 10.4955 4.77616 10.515C5.00251 10.7623 5.25297 11.0143 5.27086 11.4515V11.5114C5.26231 11.8295 5.1293 12.0637 4.94884 12.2091C4.8026 12.3266 4.54203 12.4293 4.27523 12.3764C4.20366 12.3624 4.09475 12.3149 4.03097 12.2752C3.97963 12.2433 3.86529 12.1204 3.82251 12.1383C3.7525 12.1671 3.86451 12.4386 3.87618 12.472C3.91896 12.5918 3.96019 12.6735 4.01308 12.7645V12.7762H3.23211C3.30757 12.6455 3.38302 12.4798 3.42891 12.3048C3.44214 12.2527 3.4717 12.1842 3.43514 12.1376C3.33869 12.15 3.29279 12.2293 3.22045 12.2745C3.13411 12.3281 3.01355 12.3763 2.87431 12.388C2.38115 12.4277 1.99845 12.0224 1.97978 11.5472V11.4157H1.979Z" fill="black"/>
<path fill-rule="evenodd" clip-rule="evenodd" d="M35.0565 43.1996C35.0355 43.506 34.8924 43.7231 34.7228 43.9214C34.4016 44.2971 34.0212 44.6168 33.7505 45.0361C33.6486 45.1948 33.556 45.3706 33.4822 45.5549C33.458 45.6148 33.4448 45.6786 33.4044 45.7338C33.1889 45.0664 32.7619 44.6114 32.3247 44.1657C32.3053 44.1415 32.2835 44.1198 32.2594 44.1003C32.033 43.853 31.7825 43.601 31.7646 43.1638V43.1039C31.7732 42.7858 31.9062 42.5516 32.0867 42.4062C32.2329 42.2887 32.4935 42.186 32.7603 42.2389C32.8319 42.2529 32.9408 42.3004 33.0045 42.34C33.0559 42.3719 33.1702 42.4948 33.213 42.4769C33.283 42.4482 33.171 42.1767 33.1593 42.1432C33.1166 42.0235 33.0753 41.9418 33.0224 41.8508V41.8391H33.8034C33.7287 41.9698 33.6525 42.1355 33.6066 42.3105C33.5934 42.3618 33.5638 42.4311 33.6004 42.4777C33.6968 42.4653 33.7419 42.3859 33.8151 42.3408C33.9014 42.2872 34.022 42.2389 34.1612 42.2273C34.6544 42.1876 35.0371 42.5929 35.0557 43.0681V43.1996H35.0565Z" fill="black"/>
<path fill-rule="evenodd" clip-rule="evenodd" d="M8.27783 11.3209C8.31906 10.7266 8.59674 10.3058 8.92577 9.92156C9.54883 9.19349 10.287 8.57276 10.8105 7.7599C11.0089 7.45265 11.187 7.11118 11.3309 6.75415C11.3776 6.63825 11.404 6.51457 11.481 6.40723C11.8987 7.7008 12.7271 8.58367 13.5742 9.44786C13.6116 9.49531 13.6543 9.5373 13.701 9.57542C14.1405 10.0554 14.6251 10.5446 14.6609 11.3909V11.5068C14.6445 12.1229 14.3863 12.5772 14.0363 12.8595C13.7531 13.0882 13.2475 13.2866 12.7295 13.1831C12.591 13.1551 12.3794 13.0633 12.2558 12.9863C12.1554 12.9241 11.9337 12.6868 11.8513 12.7203C11.7152 12.7755 12.1531 14.5218 12.2558 14.6976V14.7209H10.7413C10.8867 14.4681 11.1714 12.8105 11.0999 12.7203C10.9124 12.7452 10.8245 12.8984 10.6837 12.9863C10.5157 13.0905 10.2823 13.1839 10.0132 13.2057C9.05723 13.2827 8.31517 12.497 8.27861 11.5753V11.3209H8.27783Z" fill="black"/>
<path fill-rule="evenodd" clip-rule="evenodd" d="M14.6604 43.2953C14.6199 43.8896 14.3415 44.3097 14.0132 44.6947C13.3902 45.4228 12.652 46.0435 12.1285 46.8563C11.9301 47.1644 11.752 47.5051 11.6081 47.8621C11.5614 47.978 11.535 48.1017 11.458 48.209C11.0403 46.9155 10.2119 46.0326 9.36478 45.1684C9.32744 45.121 9.28465 45.0789 9.2372 45.0416C8.79772 44.5617 8.31312 44.0724 8.27734 43.2261V43.1102C8.29368 42.4942 8.55193 42.0399 8.90196 41.7575C9.1851 41.5288 9.69069 41.3305 10.2087 41.4339C10.3472 41.4619 10.5588 41.5537 10.6825 41.6307C10.7828 41.693 11.0045 41.9302 11.0869 41.8968C11.2231 41.8415 10.7851 40.0953 10.6825 39.9195V39.8961H12.1969C12.0515 40.1489 11.7668 41.8065 11.8384 41.896C12.0258 41.8711 12.1137 41.7179 12.2545 41.63C12.4225 41.5257 12.6559 41.4324 12.925 41.4106C13.881 41.3336 14.6231 42.1192 14.6596 43.041V43.2953H14.6604Z" fill="black"/>
<path fill-rule="evenodd" clip-rule="evenodd" d="M28.7622 43.2953C28.7217 43.8896 28.444 44.3097 28.115 44.6947C27.4919 45.4228 26.7537 46.0435 26.2303 46.8563C26.0319 47.1644 25.8538 47.5051 25.7099 47.8621C25.6632 47.978 25.6367 48.1017 25.5597 48.209C25.142 46.9155 24.3136 46.0326 23.4665 45.1684C23.4292 45.121 23.3864 45.0789 23.3397 45.0416C22.9003 44.5617 22.4157 44.0724 22.3799 43.2261V43.1102C22.3962 42.4942 22.6544 42.0399 23.0045 41.7575C23.2876 41.5288 23.7932 41.3305 24.3113 41.4339C24.4497 41.4619 24.6613 41.5537 24.785 41.6307C24.8853 41.693 25.107 41.9302 25.1895 41.8968C25.3256 41.8415 24.8877 40.0953 24.785 39.9195V39.8961H26.2995C26.154 40.1489 25.8693 41.8065 25.9409 41.896C26.1283 41.8711 26.2162 41.7179 26.357 41.63C26.5251 41.5257 26.7584 41.4324 27.0276 41.4106C27.9835 41.3336 28.7256 42.1192 28.7622 43.041V43.2953Z" fill="black"/>
<path fill-rule="evenodd" clip-rule="evenodd" d="M22.3799 11.3209C22.4211 10.7266 22.6988 10.3058 23.0278 9.92156C23.6509 9.19349 24.3891 8.57276 24.9126 7.7599C25.1109 7.45265 25.2891 7.11118 25.433 6.75415C25.4796 6.63825 25.5061 6.51457 25.5831 6.40723C26.0008 7.7008 26.8292 8.58367 27.6763 9.44786C27.7136 9.49531 27.7564 9.5373 27.8031 9.57542C28.2426 10.0554 28.7271 10.5446 28.7629 11.3909V11.5068C28.7466 12.1229 28.4883 12.5772 28.1383 12.8595C27.8552 13.0882 27.3496 13.2866 26.8315 13.1831C26.6923 13.1551 26.4815 13.0633 26.3578 12.9863C26.2575 12.9241 26.0358 12.6868 25.9533 12.7203C25.8172 12.7755 26.2551 14.5218 26.3578 14.6976V14.7209H24.8433C24.9888 14.4681 25.2735 12.8105 25.2019 12.7203C25.0145 12.7452 24.9266 12.8984 24.7858 12.9863C24.6178 13.0905 24.3844 13.1839 24.1153 13.2057C23.1593 13.2827 22.4172 12.497 22.3806 11.5753V11.3209H22.3799Z" fill="black"/>
<path fill-rule="evenodd" clip-rule="evenodd" d="M22.3799 28.0657C22.4211 27.4715 22.6988 27.0506 23.0278 26.6672C23.6509 25.9391 24.3891 25.3184 24.9126 24.5055C25.1109 24.1975 25.2891 23.8568 25.433 23.4998C25.4796 23.3839 25.5061 23.2602 25.5831 23.1528C26.0008 24.4464 26.8292 25.3293 27.6763 26.1934C27.7136 26.2409 27.7564 26.2829 27.8031 26.3202C28.2426 26.8002 28.7271 27.2895 28.7629 28.1358V28.2517C28.7466 28.8677 28.4883 29.322 28.1383 29.6043C27.8552 29.833 27.3496 30.0314 26.8315 29.9279C26.6923 29.8999 26.4815 29.8081 26.3578 29.7311C26.2575 29.6689 26.0358 29.4317 25.9533 29.4651C25.8172 29.5203 26.2551 31.2666 26.3578 31.4416V31.465H24.8433C24.9888 31.2122 25.2735 29.5546 25.2019 29.4651C25.0145 29.49 24.9266 29.6432 24.7858 29.7311C24.6178 29.8354 24.3844 29.9287 24.1153 29.9505C23.1593 30.0275 22.4172 29.2419 22.3806 28.3201V28.0657H22.3799Z" fill="black"/>
<path fill-rule="evenodd" clip-rule="evenodd" d="M8.27783 28.0657C8.31906 27.4715 8.59674 27.0506 8.92577 26.6672C9.54883 25.9391 10.287 25.3184 10.8105 24.5055C11.0089 24.1975 11.187 23.8568 11.3309 23.4998C11.3776 23.3839 11.404 23.2602 11.481 23.1528C11.8987 24.4464 12.7271 25.3293 13.5742 26.1934C13.6116 26.2409 13.6543 26.2829 13.701 26.3202C14.1405 26.8002 14.6251 27.2895 14.6609 28.1358V28.2517C14.6445 28.8677 14.3863 29.322 14.0363 29.6043C13.7531 29.833 13.2475 30.0314 12.7295 29.9279C12.591 29.8999 12.3794 29.8081 12.2558 29.7311C12.1554 29.6689 11.9337 29.4317 11.8513 29.4651C11.7152 29.5203 12.1531 31.2666 12.2558 31.4416V31.465H10.7413C10.8867 31.2122 11.1714 29.5546 11.0999 29.4651C10.9124 29.49 10.8245 29.6432 10.6837 29.7311C10.5157 29.8354 10.2823 29.9287 10.0132 29.9505C9.05723 30.0275 8.31517 29.2419 8.27861 28.3201V28.0657H8.27783Z" fill="black"/>
<path fill-rule="evenodd" clip-rule="evenodd" d="M15.3286 19.6929C15.3691 19.0986 15.6475 18.6778 15.9758 18.2935C16.5996 17.5655 17.337 16.9447 17.8605 16.1319C18.0589 15.8246 18.237 15.4831 18.3809 15.1261C18.4276 15.0102 18.454 14.8865 18.531 14.7792C18.9487 16.0727 19.7772 16.9556 20.6242 17.8198C20.6616 17.8673 20.7044 17.9093 20.751 17.9466C21.1905 18.4265 21.6751 18.9158 21.7109 19.7621V19.878C21.6946 20.4941 21.4363 20.9483 21.0863 21.2307C20.8031 21.4594 20.2975 21.6577 19.7795 21.5543C19.6402 21.5263 19.4295 21.4345 19.3058 21.3575C19.2054 21.2953 18.9837 21.058 18.9013 21.0915C18.7652 21.1467 19.2031 22.893 19.3058 23.0688V23.0921H17.7913C17.9367 22.8393 18.2214 21.1817 18.1499 21.0922C17.9624 21.1171 17.8745 21.2704 17.7337 21.3583C17.5657 21.4625 17.3324 21.5558 17.0632 21.5776C16.1072 21.6546 15.3652 20.8698 15.3286 19.9472V19.6929Z" fill="black"/>
<path fill-rule="evenodd" clip-rule="evenodd" d="M5.21558 3.50269C5.2288 3.66915 5.20702 4.00519 5.21558 4.25722C4.21681 5.19297 3.7571 6.6351 3.79055 8.50428H3.17605C3.15194 6.56043 3.61944 5.11051 4.48907 4.08997H2.67278V4.70758C2.37875 4.70758 2.23874 4.70448 2.03417 4.70448C2.03417 4.19499 2.03027 3.97173 2.03027 3.5058C3.06793 3.5058 3.93445 3.50346 5.21558 3.50346V3.50269Z" fill="black"/>
<path fill-rule="evenodd" clip-rule="evenodd" d="M31.8242 51.1143C31.811 50.9478 31.8328 50.6118 31.8242 50.3598C32.823 49.424 33.2827 47.9819 33.2492 46.1127H33.8637C33.8878 48.0557 33.4203 49.5064 32.5507 50.527H34.367V49.9094C34.661 49.9094 34.801 49.9125 35.0056 49.9125C35.0056 50.422 35.0095 50.6452 35.0095 51.1112C33.9718 51.1112 33.1053 51.1135 31.8242 51.1135V51.1143Z" fill="black"/>
</svg>
