<svg width="37" height="55" viewBox="0 0 37 55" fill="none" xmlns="http://www.w3.org/2000/svg">
<path d="M3.21024 1.05151C3.21024 1.05151 3.21489 1.03051 3.232 1.02973C4.139 0.962835 5.0779 1.02973 5.98645 1.02973C15.0626 1.02973 24.2625 1.02973 33.3317 1.02973C34.2317 1.02973 34.8011 1.33 35.2927 1.80061C35.7641 2.25178 36.02 2.87485 36.02 3.80519C36.02 19.3058 36.02 34.7131 36.02 50.2728C36.02 51.2257 35.9694 51.9872 35.5572 52.5419C35.1799 53.049 34.6097 53.4426 33.8606 53.5772C33.4561 53.6503 32.9544 53.599 32.4947 53.599C22.9043 53.599 13.3373 53.599 3.7835 53.599C2.87417 53.599 2.27134 53.3205 1.80073 52.8499C1.5697 52.6189 1.35734 52.3396 1.24999 52.0347C0.903061 51.0507 1.05165 49.4794 1.05165 48.1352C1.05165 33.638 1.05165 18.9752 1.05165 4.40025C1.05165 3.41858 1.10686 2.70683 1.51446 2.13043C1.89562 1.59214 2.40435 1.2032 3.211 1.05074L3.21024 1.05151Z" fill="#FAF8F4" stroke="black" stroke-linejoin="round"/>
<path fill-rule="evenodd" clip-rule="evenodd" d="M1.97803 11.4161C1.99903 11.1096 2.14216 10.8926 2.31174 10.695C2.633 10.3193 3.01338 9.99963 3.28407 9.57958C3.38598 9.4209 3.47856 9.2451 3.55245 9.06075C3.57657 9.00085 3.58979 8.93706 3.63024 8.88184C3.84571 9.54925 4.27275 10.0043 4.70992 10.45C4.72936 10.4741 4.75113 10.4959 4.77524 10.5154C5.0016 10.7627 5.25211 11.0148 5.27 11.4511V11.511C5.26144 11.8292 5.12841 12.0633 4.94795 12.2088C4.80171 12.3262 4.54111 12.4289 4.2743 12.376C4.20274 12.362 4.09386 12.3146 4.03008 12.2749C3.97874 12.243 3.86438 12.1201 3.82159 12.138C3.75159 12.1668 3.86359 12.4382 3.87526 12.4717C3.91805 12.5915 3.95925 12.6732 4.01215 12.7642V12.7758H3.2312C3.30666 12.6452 3.38209 12.4795 3.42799 12.3045C3.44121 12.2531 3.47078 12.1839 3.43422 12.1372C3.33776 12.1497 3.29185 12.229 3.2195 12.2741C3.13316 12.3278 3.01261 12.376 2.87338 12.3877C2.38021 12.4274 1.99749 12.0221 1.97882 11.5468V11.4153L1.97803 11.4161Z" fill="black"/>
<path fill-rule="evenodd" clip-rule="evenodd" d="M35.0561 43.2007C35.0351 43.5071 34.892 43.7242 34.7224 43.9225C34.4012 44.2982 34.0208 44.6179 33.7501 45.0372C33.6482 45.1959 33.5556 45.3717 33.4817 45.5561C33.4576 45.6159 33.4444 45.6797 33.4039 45.735C33.1884 45.0676 32.7614 44.6125 32.3242 44.1668C32.3048 44.1427 32.283 44.1209 32.2589 44.1014C32.0326 43.8541 31.7821 43.602 31.7642 43.1657V43.1058C31.7727 42.7876 31.9057 42.5535 32.0862 42.408C32.2324 42.2906 32.493 42.1879 32.7599 42.2408C32.8314 42.2548 32.9403 42.3022 33.0041 42.3419C33.0562 42.3738 33.1698 42.4967 33.2126 42.4788C33.2826 42.45 33.1706 42.1785 33.1589 42.1451C33.1161 42.0253 33.0749 41.9436 33.022 41.8526V41.8409H33.803C33.7283 41.9716 33.6521 42.1373 33.6062 42.3123C33.5929 42.3637 33.5634 42.4329 33.5999 42.4796C33.6964 42.4671 33.7415 42.3878 33.8147 42.3427C33.901 42.289 34.0215 42.2408 34.1608 42.2291C34.654 42.1894 35.0367 42.5947 35.0553 43.07V43.2014L35.0561 43.2007Z" fill="black"/>
<path fill-rule="evenodd" clip-rule="evenodd" d="M8.27637 11.3212C8.31759 10.7269 8.5953 10.3061 8.92434 9.92261C9.54741 9.19453 10.2856 8.57379 10.8091 7.76091C11.0075 7.45287 11.1856 7.11217 11.3295 6.75513C11.3762 6.63923 11.4026 6.51555 11.4796 6.4082C11.8973 7.7018 12.7258 8.58469 13.5729 9.4489C13.6102 9.49635 13.653 9.53835 13.6997 9.57647C14.1392 10.0572 14.6238 10.5457 14.6596 11.392V11.5079C14.6432 12.124 14.385 12.579 14.0349 12.8606C13.7518 13.0893 13.2462 13.2877 12.7281 13.1842C12.5897 13.1562 12.3781 13.0644 12.2544 12.9874C12.1541 12.9252 11.9324 12.6879 11.8499 12.7214C11.7138 12.7766 12.1517 14.5229 12.2544 14.6987V14.7221H10.7399C10.8853 14.4693 11.17 12.8116 11.0985 12.7222C10.911 12.7471 10.8231 12.9003 10.6823 12.9882C10.5143 13.0924 10.2809 13.1858 10.0118 13.2076C9.0558 13.2846 8.31369 12.4989 8.27713 11.5771V11.3228L8.27637 11.3212Z" fill="black"/>
<path fill-rule="evenodd" clip-rule="evenodd" d="M8.27734 22.4697C8.31779 21.8754 8.59552 21.4546 8.92456 21.0703C9.54763 20.3422 10.2858 19.7215 10.8093 18.9086C11.0077 18.6014 11.1858 18.2599 11.3297 17.9028C11.3764 17.7869 11.4028 17.6633 11.4798 17.5559C11.8975 18.8495 12.726 19.7324 13.5731 20.5966C13.6104 20.644 13.6532 20.6861 13.6999 20.7242C14.1394 21.2041 14.624 21.6934 14.6598 22.5389V22.6548C14.6435 23.2709 14.3852 23.7252 14.0351 24.0076C13.752 24.2363 13.2464 24.4346 12.7283 24.3311C12.5899 24.3031 12.3783 24.2113 12.2546 24.1343C12.1543 24.0721 11.9326 23.8349 11.8501 23.8683C11.714 23.9235 12.1519 25.6699 12.2546 25.8457V25.869H10.7401C10.8856 25.6162 11.1702 23.9585 11.0987 23.8691C10.9112 23.894 10.8233 24.0472 10.6825 24.1351C10.5145 24.2394 10.2812 24.3327 10.012 24.3545C9.05601 24.4323 8.3139 23.6458 8.27734 22.7241V22.4697Z" fill="black"/>
<path fill-rule="evenodd" clip-rule="evenodd" d="M14.6596 43.2963C14.6183 43.8906 14.3406 44.3115 14.0116 44.6957C13.3885 45.4238 12.6503 46.0446 12.1268 46.8574C11.9285 47.1655 11.7503 47.5062 11.6064 47.8632C11.5598 47.9791 11.5333 48.1028 11.4563 48.2101C11.0386 46.9165 10.2102 46.0337 9.36383 45.1695C9.32649 45.122 9.2837 45.08 9.23625 45.0427C8.79675 44.5627 8.31215 44.0734 8.27637 43.2271V43.1112C8.2927 42.4951 8.55094 42.0409 8.90098 41.7585C9.18412 41.5298 9.69054 41.3314 10.2078 41.4349C10.3471 41.4629 10.5579 41.5547 10.6815 41.6317C10.7819 41.6939 11.0036 41.9312 11.086 41.8977C11.2222 41.8425 10.7842 40.0962 10.6815 39.9212V39.8978H12.1961C12.0506 40.1506 11.7659 41.8083 11.8374 41.8977C12.0249 41.8728 12.1128 41.7196 12.2536 41.6317C12.4216 41.5275 12.655 41.4341 12.9241 41.4123C13.8801 41.3353 14.6222 42.121 14.6588 43.0428V43.2971L14.6596 43.2963Z" fill="black"/>
<path fill-rule="evenodd" clip-rule="evenodd" d="M28.7618 43.2963C28.7214 43.8906 28.4429 44.3115 28.1146 44.6957C27.4916 45.4238 26.7534 46.0446 26.2299 46.8574C26.0315 47.1655 25.8534 47.5062 25.7095 47.8632C25.6628 47.9791 25.6363 48.1028 25.5593 48.2101C25.1416 46.9165 24.3132 46.0337 23.4661 45.1695C23.4288 45.122 23.386 45.08 23.3393 45.0427C22.8998 44.5627 22.4152 44.0734 22.3794 43.2271V43.1112C22.3957 42.4951 22.654 42.0409 23.004 41.7585C23.2872 41.5298 23.7928 41.3314 24.3109 41.4349C24.4501 41.4629 24.6609 41.5547 24.7854 41.6317C24.8857 41.6939 25.1074 41.9312 25.1898 41.8977C25.326 41.8425 24.888 40.0962 24.7854 39.9212V39.8978H26.2999C26.1544 40.1506 25.8697 41.8083 25.9413 41.8977C26.1287 41.8728 26.2166 41.7196 26.3574 41.6317C26.5255 41.5275 26.7588 41.4341 27.028 41.4123C27.984 41.3353 28.726 42.121 28.7626 43.0428V43.2971L28.7618 43.2963Z" fill="black"/>
<path fill-rule="evenodd" clip-rule="evenodd" d="M22.3794 11.3212C22.4206 10.7269 22.6983 10.3061 23.0266 9.92261C23.6505 9.19453 24.3879 8.57379 24.9114 7.76091C25.1097 7.45287 25.2879 7.11217 25.4318 6.75513C25.4784 6.63923 25.5049 6.51555 25.5819 6.4082C25.9996 7.7018 26.828 8.58469 27.6751 9.4489C27.7125 9.49635 27.7553 9.53835 27.8019 9.57647C28.2414 10.0572 28.7261 10.5457 28.7618 11.392V11.5079C28.7455 12.124 28.4872 12.579 28.1372 12.8606C27.854 13.0893 27.3484 13.2877 26.8304 13.1842C26.6911 13.1562 26.4803 13.0644 26.3566 12.9874C26.2563 12.9252 26.0346 12.6879 25.9522 12.7214C25.816 12.7766 26.254 14.5229 26.3566 14.6987V14.7221H24.8421C24.9876 14.4693 25.2723 12.8116 25.2007 12.7222C25.0133 12.7471 24.9254 12.9003 24.7846 12.9882C24.6165 13.0924 24.3832 13.1858 24.1141 13.2076C23.1581 13.2846 22.416 12.4989 22.3794 11.5771V11.3228V11.3212Z" fill="black"/>
<path fill-rule="evenodd" clip-rule="evenodd" d="M14.6596 32.1479C14.6183 32.7422 14.3406 33.1631 14.0124 33.5473C13.3885 34.2754 12.6511 34.8962 12.1276 35.709C11.9292 36.0163 11.7511 36.3578 11.6072 36.7148C11.5605 36.8307 11.5341 36.9544 11.4571 37.0618C11.0394 35.7682 10.2109 34.8853 9.36383 34.0211C9.32649 33.9736 9.2837 33.9316 9.23625 33.8935C8.79675 33.4136 8.31215 32.9243 8.27637 32.0787V31.9628C8.2927 31.3467 8.55094 30.8925 8.90098 30.6101C9.18412 30.3814 9.68976 30.1831 10.2078 30.2865C10.3471 30.3145 10.5579 30.4063 10.6815 30.4833C10.7819 30.5455 11.0036 30.7828 11.086 30.7493C11.2222 30.6941 10.7842 28.9478 10.6815 28.772V28.7487H12.1961C12.0506 29.0015 11.7659 30.6591 11.8374 30.7493C12.0249 30.7244 12.1128 30.5704 12.2536 30.4833C12.4216 30.3791 12.655 30.2857 12.9241 30.2639C13.8801 30.1862 14.6222 30.9718 14.6588 31.8944V32.1487L14.6596 32.1479Z" fill="black"/>
<path fill-rule="evenodd" clip-rule="evenodd" d="M22.3794 22.4697C22.4206 21.8754 22.6983 21.4546 23.0266 21.0703C23.6505 20.3422 24.3879 19.7215 24.9114 18.9086C25.1097 18.6014 25.2879 18.2599 25.4318 17.9028C25.4784 17.7869 25.5049 17.6633 25.5819 17.5559C25.9996 18.8495 26.828 19.7324 27.6751 20.5966C27.7125 20.644 27.7553 20.6861 27.8019 20.7242C28.2414 21.2041 28.7261 21.6934 28.7618 22.5389V22.6548C28.7455 23.2709 28.4872 23.7252 28.1372 24.0076C27.854 24.2363 27.3484 24.4346 26.8304 24.3311C26.6911 24.3031 26.4803 24.2113 26.3566 24.1343C26.2563 24.0721 26.0346 23.8349 25.9522 23.8683C25.816 23.9235 26.254 25.6699 26.3566 25.8457V25.869H24.8421C24.9876 25.6162 25.2723 23.9585 25.2007 23.8691C25.0133 23.894 24.9254 24.0472 24.7846 24.1351C24.6165 24.2394 24.3832 24.3327 24.1141 24.3545C23.1581 24.4323 22.416 23.6458 22.3794 22.7241V22.4697Z" fill="black"/>
<path fill-rule="evenodd" clip-rule="evenodd" d="M28.7618 32.1479C28.7214 32.7422 28.4429 33.1631 28.1146 33.5473C27.4916 34.2754 26.7534 34.8962 26.2299 35.709C26.0315 36.0163 25.8534 36.3578 25.7095 36.7148C25.6628 36.8307 25.6363 36.9544 25.5593 37.0618C25.1416 35.7682 24.3132 34.8853 23.4661 34.0211C23.4288 33.9736 23.386 33.9316 23.3393 33.8935C22.8998 33.4136 22.4152 32.9243 22.3794 32.0787V31.9628C22.3957 31.3467 22.654 30.8925 23.004 30.6101C23.2872 30.3814 23.7928 30.1831 24.3109 30.2865C24.4501 30.3145 24.6609 30.4063 24.7854 30.4833C24.8857 30.5455 25.1074 30.7828 25.1898 30.7493C25.326 30.6941 24.888 28.9478 24.7854 28.772V28.7487H26.2999C26.1544 29.0015 25.8697 30.6591 25.9413 30.7493C26.1287 30.7244 26.2166 30.5704 26.3574 30.4833C26.5255 30.3791 26.7588 30.2857 27.028 30.2639C27.984 30.1862 28.726 30.9718 28.7626 31.8944V32.1487L28.7618 32.1479Z" fill="black"/>
<path fill-rule="evenodd" clip-rule="evenodd" d="M15.3276 16.8955C15.3681 16.3012 15.6465 15.8811 15.9748 15.4969C16.5979 14.7688 17.3361 14.148 17.8596 13.3351C18.0579 13.0279 18.2361 12.6864 18.38 12.3293C18.4267 12.2134 18.4531 12.0898 18.5301 11.9824C18.9478 13.276 19.7763 14.1589 20.6234 15.0231C20.6607 15.0706 20.7035 15.1126 20.7502 15.1499C21.1897 15.6299 21.6743 16.1191 21.71 16.9655V17.0814C21.6937 17.6974 21.4355 18.1517 21.0854 18.4341C20.8023 18.662 20.2967 18.8611 19.7786 18.7577C19.6402 18.7297 19.4286 18.6379 19.3049 18.5609C19.2045 18.4986 18.9829 18.2614 18.9004 18.2948C18.7643 18.3501 19.2022 20.0964 19.3049 20.2722V20.2955H17.7904C17.9358 20.0427 18.2205 18.3851 18.149 18.2948C17.9615 18.3197 17.8736 18.473 17.7328 18.5609C17.5648 18.6651 17.3314 18.7585 17.0623 18.7802C16.1063 18.858 15.3642 18.0724 15.3276 17.1498V16.8955Z" fill="black"/>
<path fill-rule="evenodd" clip-rule="evenodd" d="M21.711 37.7222C21.6698 38.3165 21.3921 38.7365 21.0638 39.1216C20.44 39.8497 19.7026 40.4704 19.1791 41.2833C18.9807 41.5905 18.8025 41.932 18.6586 42.2891C18.612 42.405 18.5855 42.5286 18.5085 42.636C18.0908 41.3424 17.2624 40.4595 16.4153 39.5953C16.3779 39.5478 16.3352 39.5058 16.2885 39.4685C15.849 38.9886 15.3644 38.4993 15.3286 37.6529V37.537C15.3449 36.921 15.6032 36.4667 15.9532 36.1843C16.2364 35.9556 16.742 35.7573 17.26 35.8607C17.3993 35.8887 17.6101 35.9805 17.7338 36.0575C17.8341 36.1198 18.0558 36.357 18.1383 36.3236C18.2744 36.2683 17.8365 34.522 17.7338 34.3462V34.3229H19.2483C19.1028 34.5757 18.8181 36.2333 18.8897 36.3228C19.0772 36.2979 19.1651 36.1447 19.3059 36.0568C19.4739 35.9525 19.7072 35.8592 19.9764 35.8374C20.9324 35.7596 21.6745 36.5453 21.711 37.4678V37.7222Z" fill="black"/>
<path fill-rule="evenodd" clip-rule="evenodd" d="M4.00623 3.50856C4.49162 3.46577 4.96611 3.65713 5.13646 4.07329C5.30837 4.49567 5.21736 5.48513 5.21736 6.06387C5.21736 6.68383 5.28582 7.60715 5.11003 7.97352C4.76543 8.69305 3.48428 8.66738 3.1459 7.97352C2.94444 7.55892 3.03857 6.54458 3.03857 5.82116C3.03857 4.5509 2.87752 3.60734 4.00699 3.50778L4.00623 3.50856ZM3.76429 4.15419C3.57449 4.33699 3.64529 4.39066 3.6484 4.60069C3.66396 5.48046 3.66553 6.82462 3.65619 7.65149C3.73476 8.01165 4.44027 8.04898 4.57095 7.70516V4.26231C4.42626 4.02972 3.95022 3.97606 3.76353 4.15497L3.76429 4.15419Z" fill="black"/>
<path d="M2.612 3.5249H2.00684V8.4885H2.612V3.5249Z" fill="black"/>
<path fill-rule="evenodd" clip-rule="evenodd" d="M33.0331 51.1093C32.5477 51.1521 32.0732 50.9607 31.9028 50.5446C31.7309 50.1222 31.8219 49.1327 31.8219 48.554C31.8219 47.934 31.7542 47.0107 31.9293 46.6443C32.2739 45.9248 33.555 45.9505 33.8934 46.6443C34.0948 47.0589 34.0007 48.0733 34.0007 48.7967C34.0007 50.0669 34.1618 51.0105 33.0323 51.1101L33.0331 51.1093ZM33.275 50.4637C33.4656 50.2809 33.3948 50.2272 33.3909 50.0172C33.3753 49.1374 33.3738 47.7932 33.3831 46.9664C33.3045 46.6062 32.599 46.5689 32.4683 46.9127V50.3555C32.613 50.5881 33.0891 50.6418 33.2758 50.4629L33.275 50.4637Z" fill="black"/>
<path d="M35.0325 46.1304H34.4272V51.094H35.0325V46.1304Z" fill="black"/>
</svg>
