<svg width="37" height="55" viewBox="0 0 37 55" fill="none" xmlns="http://www.w3.org/2000/svg">
<path d="M3.21024 1.05151C3.21024 1.05151 3.2149 1.03051 3.23201 1.02973C4.13901 0.962835 5.07712 1.02973 5.98645 1.02973C15.0626 1.02973 24.2625 1.02973 33.3317 1.02973C34.2317 1.02973 34.8011 1.33 35.2927 1.80061C35.7641 2.25178 36.02 2.87485 36.02 3.80519C36.02 19.3058 36.02 34.7131 36.02 50.2728C36.02 51.2257 35.9695 51.9873 35.5572 52.5419C35.1799 53.0498 34.6097 53.4426 33.8607 53.5772C33.4562 53.6503 32.9544 53.599 32.4947 53.599C22.9044 53.599 13.3373 53.599 3.78353 53.599C2.8742 53.599 2.27135 53.3205 1.80073 52.8499C1.56971 52.6189 1.35734 52.3396 1.25 52.0347C0.903066 51.0507 1.05165 49.4794 1.05165 48.1344C1.05165 33.6373 1.05165 18.9744 1.05165 4.39947C1.05165 3.4178 1.10687 2.70605 1.51447 2.12965C1.89563 1.59136 2.40435 1.20242 3.211 1.04996L3.21024 1.05151Z" fill="#FAF8F4" stroke="black" stroke-linejoin="round"/>
<path fill-rule="evenodd" clip-rule="evenodd" d="M1.97803 11.4159C1.99903 11.1094 2.14216 10.8924 2.31174 10.6941C2.633 10.3184 3.01338 9.99866 3.28407 9.57861C3.38598 9.41992 3.47854 9.24413 3.55244 9.05977C3.57655 8.99988 3.58977 8.93609 3.63022 8.88086C3.84569 9.54827 4.27274 10.0033 4.70991 10.449C4.72935 10.4732 4.75114 10.4949 4.77526 10.5144C5.00162 10.7617 5.25209 11.0138 5.26998 11.4502V11.5101C5.26142 11.8282 5.12841 12.0624 4.94794 12.2078C4.8017 12.3253 4.54111 12.4279 4.2743 12.375C4.20274 12.361 4.09383 12.3136 4.03005 12.2739C3.97871 12.242 3.86437 12.1191 3.82159 12.137C3.75158 12.1658 3.86359 12.4373 3.87525 12.4707C3.91804 12.5905 3.95926 12.6722 4.01216 12.7624V12.7741H3.23118C3.30663 12.6434 3.38208 12.4777 3.42798 12.3027C3.44198 12.2514 3.47077 12.1821 3.43421 12.1355C3.33775 12.1479 3.29186 12.2272 3.21951 12.2724C3.13317 12.326 3.0126 12.3743 2.87336 12.3859C2.38019 12.4256 1.99747 12.0203 1.97881 11.5451V11.4136L1.97803 11.4159Z" fill="black"/>
<path fill-rule="evenodd" clip-rule="evenodd" d="M35.0561 43.2006C35.0351 43.5071 34.892 43.7241 34.7224 43.9224C34.4011 44.2982 34.0208 44.6179 33.7501 45.0371C33.6482 45.1958 33.5556 45.3716 33.4817 45.556C33.4576 45.6159 33.4444 45.6797 33.4039 45.7349C33.1884 45.0675 32.7614 44.6124 32.3242 44.1667C32.3048 44.1426 32.283 44.1208 32.2589 44.1014C32.0325 43.854 31.7821 43.602 31.7642 43.1648V43.1049C31.7727 42.7868 31.9057 42.5526 32.0862 42.4072C32.2324 42.2897 32.493 42.187 32.7598 42.2399C32.8314 42.2539 32.9403 42.3014 33.0041 42.341C33.0554 42.3729 33.1698 42.4958 33.2126 42.4779C33.2826 42.4492 33.1705 42.1777 33.1589 42.1442C33.1161 42.0244 33.0749 41.9428 33.022 41.8517V41.8401H33.803C33.7275 41.9708 33.652 42.1365 33.6062 42.3107C33.5929 42.3628 33.5634 42.4313 33.5999 42.4779C33.6964 42.4655 33.7415 42.3861 33.8146 42.341C33.901 42.2874 34.0215 42.2391 34.1608 42.2275C34.6539 42.1878 35.0367 42.5923 35.0553 43.0683V43.1998L35.0561 43.2006Z" fill="black"/>
<path fill-rule="evenodd" clip-rule="evenodd" d="M8.27734 11.3211C8.31857 10.7268 8.59628 10.306 8.92454 9.92249C9.54761 9.19441 10.2858 8.57366 10.8093 7.76079C11.0077 7.45275 11.1858 7.11205 11.3297 6.75501C11.3764 6.63911 11.4028 6.51543 11.4798 6.40808C11.8976 7.70168 12.726 8.58457 13.5731 9.44878C13.6104 9.49623 13.6532 9.53823 13.6999 9.57557C14.1394 10.0563 14.624 10.5448 14.6598 11.3911V11.507C14.6434 12.1231 14.3852 12.5774 14.0351 12.8597C13.752 13.0884 13.2464 13.2868 12.7283 13.1833C12.5891 13.1553 12.3783 13.0635 12.2546 12.9865C12.1542 12.9243 11.9326 12.687 11.8501 12.7205C11.714 12.7757 12.1519 14.5221 12.2546 14.6979V14.7212H10.7401C10.8855 14.4684 11.1702 12.8107 11.0987 12.7205C10.9112 12.7454 10.8233 12.8986 10.6825 12.9865C10.5145 13.0908 10.2811 13.1841 10.012 13.2059C9.056 13.2829 8.3139 12.498 8.27734 11.5755V11.3211Z" fill="black"/>
<path fill-rule="evenodd" clip-rule="evenodd" d="M14.6598 43.2963C14.6193 43.8906 14.3409 44.3114 14.0126 44.6957C13.3887 45.4237 12.6513 46.0445 12.1278 46.8574C11.9294 47.1654 11.7513 47.5061 11.6074 47.8631C11.5607 47.979 11.5343 48.1027 11.4573 48.2101C11.0396 46.9165 10.2111 46.0336 9.36404 45.1694C9.3267 45.1219 9.28391 45.0799 9.23724 45.0418C8.79775 44.5619 8.31313 44.0726 8.27734 43.227V43.1111C8.29368 42.4943 8.55193 42.0408 8.90198 41.7584C9.18512 41.5297 9.69074 41.3314 10.2088 41.4348C10.3473 41.4628 10.5588 41.5546 10.6825 41.6316C10.7829 41.6939 11.0046 41.9311 11.087 41.8977C11.2231 41.8424 10.7852 40.0961 10.6825 39.9203V39.897H12.197C12.0516 40.1498 11.7669 41.8074 11.8384 41.8969C12.0259 41.872 12.1138 41.7187 12.2546 41.6308C12.4226 41.5266 12.656 41.4333 12.9251 41.4115C13.8811 41.3337 14.6232 42.1193 14.6598 43.0419V43.2963Z" fill="black"/>
<path fill-rule="evenodd" clip-rule="evenodd" d="M28.7616 43.2963C28.7212 43.8906 28.4427 44.3114 28.1144 44.6957C27.4914 45.4237 26.7532 46.0445 26.2297 46.8574C26.0313 47.1654 25.8532 47.5061 25.7093 47.8631C25.6626 47.979 25.6361 48.1027 25.5591 48.2101C25.1414 46.9165 24.313 46.0336 23.4659 45.1694C23.4285 45.1219 23.3858 45.0799 23.3383 45.0418C22.8988 44.5619 22.4142 44.0726 22.3784 43.227V43.1111C22.3948 42.4943 22.653 42.0408 23.0031 41.7584C23.2862 41.5297 23.7918 41.3314 24.3099 41.4348C24.4491 41.4628 24.6599 41.5546 24.7844 41.6316C24.8847 41.6939 25.1064 41.9311 25.1889 41.8977C25.325 41.8424 24.8871 40.0961 24.7844 39.9203V39.897H26.2989C26.1534 40.1498 25.8687 41.8074 25.9403 41.8969C26.1278 41.872 26.2157 41.7187 26.3564 41.6308C26.5245 41.5266 26.7578 41.4333 27.027 41.4115C27.983 41.3337 28.7251 42.1193 28.7616 43.0419V43.2963Z" fill="black"/>
<path fill-rule="evenodd" clip-rule="evenodd" d="M22.3794 11.3211C22.4198 10.7268 22.6983 10.306 23.0266 9.92249C23.6497 9.19441 24.3879 8.57366 24.9114 7.76079C25.1097 7.45275 25.2879 7.11205 25.4318 6.75501C25.4784 6.63911 25.5049 6.51543 25.5819 6.40808C25.9996 7.70168 26.828 8.58457 27.6751 9.44878C27.7125 9.49623 27.7553 9.53823 27.8027 9.57557C28.2422 10.0563 28.7268 10.5448 28.7626 11.3911V11.507C28.7463 12.1231 28.488 12.5774 28.138 12.8597C27.8548 13.0884 27.3492 13.2868 26.8311 13.1833C26.6927 13.1553 26.4811 13.0635 26.3574 12.9865C26.2571 12.9243 26.0354 12.687 25.9529 12.7205C25.8168 12.7757 26.2547 14.5221 26.3574 14.6979V14.7212H24.8429C24.9884 14.4684 25.2731 12.8107 25.2015 12.7205C25.014 12.7454 24.9261 12.8986 24.7854 12.9865C24.6173 13.0908 24.384 13.1841 24.1148 13.2059C23.1588 13.2829 22.4167 12.498 22.3802 11.5755V11.3211H22.3794Z" fill="black"/>
<path fill-rule="evenodd" clip-rule="evenodd" d="M4.67908 3.50269V6.72619H5.23759C5.25392 6.88955 5.25392 7.15712 5.23759 7.31269C5.05479 7.31269 4.84321 7.30025 4.68219 7.30025C4.68219 7.54528 4.67908 7.63862 4.67908 7.91476C4.79343 7.91476 4.91477 7.91788 5.01434 7.91788C5.01434 8.07656 5.00812 8.27492 5.00812 8.5044C4.5274 8.5044 4.17969 8.50128 3.70207 8.50128V7.94589C3.80709 7.94589 3.94088 7.94278 4.05833 7.94278C4.05833 7.70397 4.06456 7.60129 4.06456 7.30025H2.00087C2.00087 7.10812 1.99854 6.9541 1.99854 6.76974C2.67762 5.68928 3.33959 4.56681 4.03734 3.50502C4.2637 3.50502 4.41226 3.50269 4.67985 3.50269H4.67908ZM2.8083 6.72619H4.06534C4.06534 5.97555 4.06845 5.51582 4.06845 4.73095L2.80908 6.72619H2.8083Z" fill="black"/>
<path fill-rule="evenodd" clip-rule="evenodd" d="M32.3603 51.1154V47.8919H31.8018C31.7855 47.7285 31.7855 47.4609 31.8018 47.3054C31.9846 47.3054 32.1962 47.3178 32.3572 47.3178C32.3572 47.0728 32.3603 46.9794 32.3603 46.7033C32.246 46.7033 32.1246 46.7002 32.0251 46.7002C32.0251 46.5423 32.0313 46.3431 32.0313 46.1136C32.512 46.1136 32.8597 46.1168 33.3373 46.1168V46.6722C33.2323 46.6722 33.0985 46.6753 32.9803 46.6753C32.9803 46.9141 32.9741 47.0168 32.9741 47.317H35.0377C35.0377 47.5091 35.0401 47.6632 35.0401 47.8475C34.361 48.928 33.699 50.0504 33.0013 51.1115C32.7749 51.1115 32.6263 51.1138 32.3588 51.1138L32.3603 51.1154ZM34.2311 47.8919H32.9748C32.9748 48.6433 32.9717 49.1022 32.9717 49.8871L34.2311 47.8919Z" fill="black"/>
</svg>
