<svg width="37" height="55" viewBox="0 0 37 55" fill="none" xmlns="http://www.w3.org/2000/svg">
<path d="M2.71853 1.54932C2.71853 1.54932 2.7232 1.52831 2.74031 1.52753C3.64731 1.46064 4.5862 1.52753 5.49475 1.52753C14.5709 1.52753 23.7708 1.52753 32.84 1.52753C33.7408 1.52753 34.3094 1.82779 34.801 2.2984C35.2724 2.75035 35.5283 3.37264 35.5283 4.30375C35.5283 19.8044 35.5283 35.2116 35.5283 50.7714C35.5283 51.7243 35.4778 52.4858 35.0655 53.0404C34.6882 53.5476 34.1173 53.9412 33.369 54.0758C32.9645 54.1489 32.4627 54.0976 32.003 54.0976C22.4127 54.0976 12.8456 54.0976 3.29182 54.0976C2.38249 54.0976 1.77964 53.8191 1.30903 53.3485C1.07801 53.1174 0.865647 52.8382 0.7583 52.5333C0.41137 51.5493 0.559944 49.978 0.559944 48.6338C0.559944 34.1366 0.559944 19.4738 0.559944 4.89882C0.559944 3.91715 0.615172 3.2054 1.02278 2.62978C1.40315 2.09071 1.91188 1.70178 2.71853 1.54932Z" fill="#FAF8F4" stroke="black"/>
<path d="M4.4951 8.46067L3.5142 4.00037H2.75189L1.771 8.46067H1.41162V9.00129H2.71767V8.46067H2.38007L2.52553 7.79404H3.73979L3.88525 8.46067H3.54765V9.00129H4.85525V8.46067H4.49588H4.4951ZM2.65621 7.19275L3.13227 5.00771L3.60833 7.19275H2.65621Z" fill="#FF0101"/>
<path fill-rule="evenodd" clip-rule="evenodd" d="M3.12399 10.1563C3.264 9.76818 3.50437 9.3349 4.07454 9.37924C4.50237 9.41269 4.77929 9.76584 4.81197 10.1983C4.84075 10.581 4.66806 10.8603 4.51949 11.0952C4.3608 11.3473 4.19045 11.5402 4.00765 11.7766C3.74628 12.1142 3.49892 12.4658 3.30756 12.8641C3.243 12.9987 3.19633 13.1418 3.12476 13.2764C2.87585 12.4557 2.24266 11.8319 1.79694 11.1785C1.6507 10.9645 1.47724 10.6915 1.45623 10.3835C1.41734 9.82574 1.6966 9.45781 2.16254 9.38546C2.46669 9.33801 2.71483 9.48503 2.8634 9.64216C2.9933 9.78062 3.07887 9.96264 3.12554 10.1563H3.12399Z" fill="#FF0101"/>
<path d="M31.5609 47.1511L32.5418 51.6114H33.3041L34.285 47.1511H34.6444V46.6105H33.3368V47.1511H33.6744L33.5289 47.8177H32.3147L32.1692 47.1511H32.5068V46.6105H31.1992V47.1511H31.5586H31.5609ZM33.3998 48.419L32.9238 50.6041L32.4477 48.419H33.3998Z" fill="#FF0101"/>
<path fill-rule="evenodd" clip-rule="evenodd" d="M32.9324 45.4569C32.7923 45.8451 32.552 46.2783 31.9818 46.234C31.554 46.2005 31.2771 45.8474 31.2444 45.4149C31.2156 45.0322 31.3883 44.7537 31.5369 44.5188C31.6955 44.2668 31.8659 44.0731 32.0487 43.8374C32.3101 43.4998 32.5574 43.1482 32.7496 42.7499C32.8141 42.6153 32.8608 42.4722 32.9324 42.3376C33.1813 43.1583 33.8145 43.7821 34.2602 44.4356C34.4064 44.6495 34.5799 44.9225 34.6009 45.2305C34.6398 45.7883 34.3605 46.1562 33.8946 46.2285C33.5904 46.276 33.3423 46.129 33.1937 45.9719C33.0638 45.8334 32.9783 45.6514 32.9316 45.4577L32.9324 45.4569Z" fill="#FF0101"/>
<path fill-rule="evenodd" clip-rule="evenodd" d="M18.0109 25.9571C18.2792 25.2345 18.7413 24.4278 19.835 24.5111C20.6572 24.5733 21.1885 25.2314 21.2499 26.0349C21.3044 26.7474 20.973 27.2663 20.6883 27.7034C19.6988 29.2257 19.0462 29.5112 18.0101 31.1082C17.0875 29.6746 16.3167 29.0756 15.4602 27.8598C15.1794 27.4608 14.8465 26.9528 14.8053 26.3803C14.7306 25.3418 15.2658 24.6573 16.1619 24.5227C16.7453 24.4348 17.2229 24.7086 17.5068 25.0011C17.7565 25.2586 17.9206 25.5978 18.0101 25.9579L18.0109 25.9571Z" fill="#FF0101"/>
</svg>
