<svg width="37" height="55" viewBox="0 0 37 55" fill="none" xmlns="http://www.w3.org/2000/svg">
<path d="M2.71927 1.54931C2.71927 1.54931 2.72392 1.52831 2.74103 1.52753C3.64801 1.46064 4.58689 1.52753 5.49542 1.52753C14.5714 1.52753 23.7711 1.52753 32.8401 1.52753C33.74 1.52753 34.3094 1.82779 34.801 2.29839C35.2724 2.75032 35.5283 3.3726 35.5283 4.30369C35.5283 19.804 35.5283 35.2109 35.5283 50.7695C35.5283 51.7224 35.4777 52.4839 35.0655 53.0385C34.6882 53.5456 34.1181 53.9392 33.369 54.0738C32.9645 54.1469 32.4628 54.0956 32.0031 54.0956C22.4129 54.0956 12.8461 54.0956 3.29252 54.0956C2.38321 54.0956 1.78037 53.8171 1.309 53.3465C1.07797 53.1155 0.865652 52.8362 0.758308 52.5313C0.411386 51.5473 0.559933 49.9761 0.559933 48.632V4.89875C0.559933 3.9171 0.615176 3.20536 1.02277 2.62975C1.40392 2.09148 1.91264 1.70255 2.71927 1.55009V1.54931Z" fill="#FAF8F4" stroke="black"/>
<path fill-rule="evenodd" clip-rule="evenodd" d="M3.12373 10.1561C3.26374 9.76792 3.5041 9.33466 4.07348 9.379C4.5013 9.41244 4.77822 9.76559 4.81089 10.1981C4.83889 10.5808 4.66622 10.86 4.51843 11.0949C4.35975 11.347 4.18939 11.5399 4.0066 11.7763C3.74524 12.1139 3.49788 12.4655 3.30653 12.8638C3.24197 12.9976 3.19529 13.1415 3.12373 13.276C2.87482 12.4554 2.24166 11.8316 1.79595 11.1782C1.64971 10.9643 1.47626 10.6912 1.45526 10.3832C1.41636 9.82548 1.69558 9.45756 2.16152 9.38522C2.46566 9.33777 2.71381 9.48478 2.86238 9.64191C2.99228 9.78037 3.07785 9.96239 3.12453 10.1561H3.12373Z" fill="#FF0101"/>
<path fill-rule="evenodd" clip-rule="evenodd" d="M32.9325 45.4559C32.7925 45.844 32.5521 46.2773 31.9828 46.2329C31.5549 46.1995 31.278 45.8463 31.2454 45.4139C31.2166 45.0312 31.3892 44.7527 31.5378 44.5178C31.6965 44.2657 31.8669 44.0721 32.0496 43.8364C32.311 43.4988 32.5584 43.1472 32.7497 42.7489C32.8143 42.6144 32.861 42.4712 32.9325 42.3367C33.1814 43.1573 33.8146 43.7811 34.2603 44.4345C34.4065 44.6484 34.58 44.9215 34.601 45.2295C34.6399 45.7872 34.3607 46.1551 33.8947 46.2275C33.5914 46.2749 33.3425 46.1279 33.1947 45.9708C33.0648 45.8323 32.9792 45.6503 32.9325 45.4566V45.4559Z" fill="#FF0101"/>
<path fill-rule="evenodd" clip-rule="evenodd" d="M25.0622 9.2118C25.3306 8.48917 25.7926 7.68254 26.8871 7.76499C27.7093 7.82722 28.2405 8.48528 28.302 9.28958C28.3564 10.0021 28.0251 10.5209 27.7404 10.9581C26.751 12.4803 26.0983 12.7658 25.0622 14.3627C24.1397 12.9292 23.3689 12.3302 22.5124 11.1144C22.2316 10.7154 21.8987 10.2082 21.8575 9.63495C21.7828 8.59652 22.318 7.91201 23.2141 7.77666C23.7975 7.68876 24.2751 7.96257 24.559 8.25504C24.8087 8.51251 24.9728 8.85165 25.0615 9.2118H25.0622Z" fill="#FF0101"/>
<path fill-rule="evenodd" clip-rule="evenodd" d="M25.0967 46.4002C24.8284 47.1228 24.3663 47.9295 23.2719 47.8462C22.4497 47.784 21.9184 47.1259 21.857 46.3224C21.8025 45.6099 22.1339 45.0911 22.4186 44.6539C23.4081 43.1317 24.0606 42.8462 25.0967 41.2493C26.0193 42.6829 26.7902 43.2818 27.6466 44.4976C27.9274 44.8966 28.2603 45.4038 28.3015 45.9771C28.3762 47.0155 27.841 47.7 26.9449 47.8353C26.3616 47.9232 25.884 47.6494 25.6 47.357C25.3503 47.0995 25.1862 46.7604 25.0975 46.4002H25.0967Z" fill="#FF0101"/>
<path fill-rule="evenodd" clip-rule="evenodd" d="M10.96 9.2118C11.2284 8.48917 11.6904 7.68254 12.784 7.76499C13.6062 7.82722 14.1375 8.48528 14.199 9.28958C14.2534 10.0021 13.9221 10.5209 13.6374 10.9581C12.6479 12.4803 11.9953 12.7658 10.9592 14.3627C10.0367 12.9292 9.26584 12.3302 8.40942 11.1144C8.12862 10.7154 7.7957 10.2082 7.75447 9.63495C7.6798 8.59652 8.21496 7.91201 9.11105 7.77666C9.69443 7.68876 10.172 7.96257 10.456 8.25504C10.7056 8.51251 10.8698 8.85165 10.9592 9.2118H10.96Z" fill="#FF0101"/>
<path fill-rule="evenodd" clip-rule="evenodd" d="M10.9939 46.4002C10.7256 47.1228 10.2635 47.9295 9.16986 47.8462C8.34767 47.784 7.8164 47.1259 7.75495 46.3224C7.7005 45.6099 8.03188 45.0911 8.31657 44.6539C9.306 43.1317 9.9586 42.8462 10.9947 41.2493C11.9172 42.6829 12.6881 43.2818 13.5445 44.4976C13.8253 44.8966 14.1582 45.4038 14.1995 45.9771C14.2741 47.0155 13.739 47.7 12.8429 47.8353C12.2595 47.9232 11.7819 47.6494 11.498 47.357C11.2483 47.0995 11.0841 46.7604 10.9947 46.4002H10.9939Z" fill="#FF0101"/>
<path fill-rule="evenodd" clip-rule="evenodd" d="M18.0113 14.786C18.2796 14.0633 18.7417 13.2567 19.8354 13.3399C20.6575 13.4022 21.1888 14.0602 21.2503 14.8645C21.3047 15.577 20.9733 16.0959 20.6886 16.5338C19.6992 18.056 19.0466 18.3415 18.0105 19.9377C17.0879 18.5041 16.3171 17.9051 15.4607 16.6894C15.1799 16.2903 14.847 15.7832 14.8057 15.2099C14.7311 14.1715 15.2662 13.4869 16.1623 13.3524C16.7457 13.2645 17.2233 13.5375 17.5072 13.8308C17.7569 14.0882 17.921 14.4274 18.0097 14.7875L18.0113 14.786Z" fill="#FF0101"/>
<path fill-rule="evenodd" clip-rule="evenodd" d="M10.96 20.3601C11.2284 19.6374 11.6904 18.8308 12.784 18.914C13.6062 18.9763 14.1375 19.6343 14.199 20.4386C14.2534 21.1511 13.9221 21.67 13.6374 22.1071C12.6479 23.6294 11.9953 23.9148 10.9592 25.511C10.0367 24.0774 9.26584 23.4785 8.40942 22.2627C8.12862 21.8636 7.7957 21.3565 7.75447 20.7832C7.6798 19.7448 8.21496 19.0603 9.11105 18.9257C9.69443 18.8378 10.172 19.1108 10.456 19.4041C10.7056 19.6615 10.8698 20.0007 10.9592 20.3608L10.96 20.3601Z" fill="#FF0101"/>
<path fill-rule="evenodd" clip-rule="evenodd" d="M10.9939 35.2512C10.7256 35.9738 10.2635 36.7805 9.16986 36.6972C8.34767 36.635 7.8164 35.9769 7.75495 35.1726C7.7005 34.4601 8.03188 33.9413 8.31657 33.5041C9.306 31.9819 9.9586 31.6964 10.9947 30.0995C11.9172 31.5331 12.6881 32.132 13.5445 33.3478C13.8253 33.7468 14.1582 34.254 14.1995 34.8273C14.2741 35.8657 13.739 36.5502 12.8429 36.6856C12.2595 36.7735 11.7819 36.4997 11.498 36.2072C11.2483 35.9497 11.0841 35.6106 10.9947 35.2504L10.9939 35.2512Z" fill="#FF0101"/>
<path fill-rule="evenodd" clip-rule="evenodd" d="M25.0622 20.3601C25.3306 19.6374 25.7926 18.8308 26.8871 18.914C27.7093 18.9763 28.2405 19.6343 28.302 20.4386C28.3564 21.1511 28.0251 21.67 27.7404 22.1071C26.751 23.6294 26.0983 23.9148 25.0622 25.511C24.1397 24.0774 23.3689 23.4785 22.5124 22.2627C22.2316 21.8636 21.8987 21.3565 21.8575 20.7832C21.7828 19.7448 22.318 19.0603 23.2141 18.9257C23.7975 18.8378 24.2751 19.1108 24.559 19.4041C24.8087 19.6615 24.9728 20.0007 25.0615 20.3608L25.0622 20.3601Z" fill="#FF0101"/>
<path fill-rule="evenodd" clip-rule="evenodd" d="M25.0967 35.2512C24.8284 35.9738 24.3663 36.7805 23.2719 36.6972C22.4497 36.635 21.9184 35.9769 21.857 35.1726C21.8025 34.4601 22.1339 33.9413 22.4186 33.5041C23.4081 31.9819 24.0606 31.6964 25.0967 30.0995C26.0193 31.5331 26.7902 32.132 27.6466 33.3478C27.9274 33.7468 28.2603 34.254 28.3015 34.8273C28.3762 35.8657 27.841 36.5502 26.9449 36.6856C26.3616 36.7735 25.884 36.4997 25.6 36.2072C25.3503 35.9497 25.1862 35.6106 25.0975 35.2504L25.0967 35.2512Z" fill="#FF0101"/>
<path fill-rule="evenodd" clip-rule="evenodd" d="M18.0455 40.8253C17.7771 41.5479 17.3151 42.3546 16.2206 42.2713C15.3984 42.2091 14.8672 41.551 14.8057 40.7475C14.7513 40.035 15.0826 39.5162 15.3673 39.0782C16.3567 37.556 17.0094 37.2705 18.0455 35.6736C18.968 37.1072 19.7388 37.7053 20.5953 38.9219C20.8761 39.3209 21.209 39.8281 21.2502 40.4014C21.3249 41.4398 20.7898 42.1243 19.8937 42.2597C19.3103 42.3476 18.8327 42.0738 18.5488 41.7813C18.2991 41.5238 18.135 41.1847 18.0463 40.8245L18.0455 40.8253Z" fill="#FF0101"/>
<path fill-rule="evenodd" clip-rule="evenodd" d="M3.515 4.0055C3.9996 3.96272 4.47485 4.15407 4.6452 4.57022C4.81711 4.9926 4.7261 5.98203 4.7261 6.56075C4.7261 7.18148 4.79378 8.10401 4.61877 8.47038C4.27418 9.18989 2.99306 9.16422 2.65469 8.47038C2.45323 8.05578 2.54736 7.04146 2.54736 6.31806C2.54736 5.04783 2.38632 4.10429 3.51576 4.00473L3.515 4.0055ZM3.27306 4.65112C3.08249 4.83314 3.15329 4.88759 3.15718 5.09761C3.17274 5.97736 3.1743 7.32149 3.16497 8.14835C3.24353 8.50849 3.94902 8.54583 4.0797 8.20202V4.75846C3.93502 4.52589 3.45898 4.47222 3.2723 4.65112H3.27306Z" fill="#FF0101"/>
<path d="M2.12127 4.02185H1.51611V8.98533H2.12127V4.02185Z" fill="#FF0101"/>
<path fill-rule="evenodd" clip-rule="evenodd" d="M32.5413 51.6055C32.0559 51.6483 31.5815 51.4569 31.4111 51.0408C31.2392 50.6184 31.3302 49.629 31.3302 49.0503C31.3302 48.4295 31.2625 47.507 31.4376 47.1406C31.7821 46.4211 33.0633 46.4468 33.4016 47.1406C33.6031 47.5552 33.509 48.5696 33.509 49.2922C33.509 50.5624 33.67 51.506 32.5406 51.6055H32.5413ZM32.7833 50.9599C32.9731 50.7779 32.9023 50.7234 32.8991 50.5134C32.8836 49.6344 32.882 48.2895 32.8914 47.4627C32.8128 47.1025 32.1073 47.0652 31.9766 47.409V50.8518C32.1213 51.0844 32.5973 51.138 32.784 50.9591L32.7833 50.9599Z" fill="#FF0101"/>
<path d="M34.5402 46.6265H33.9351V51.5899H34.5402V46.6265Z" fill="#FF0101"/>
</svg>
