<svg width="37" height="55" viewBox="0 0 37 55" fill="none" xmlns="http://www.w3.org/2000/svg">
<path d="M2.71926 1.54931C2.71926 1.54931 2.72393 1.52831 2.74104 1.52753C3.64802 1.46064 4.58611 1.52753 5.49542 1.52753C14.5714 1.52753 23.7711 1.52753 32.8401 1.52753C33.74 1.52753 34.3094 1.82779 34.801 2.29839C35.2724 2.75032 35.5283 3.3726 35.5283 4.30369C35.5283 19.804 35.5283 35.2109 35.5283 50.7695C35.5283 51.7224 35.4778 52.4839 35.0655 53.0385C34.6882 53.5457 34.1181 53.9393 33.369 54.0738C32.9645 54.1469 32.4628 54.0956 32.0031 54.0956C22.4129 54.0956 12.8461 54.0956 3.29254 54.0956C2.38323 54.0956 1.78039 53.8171 1.30902 53.3465C1.07799 53.1155 0.86564 52.8363 0.758296 52.5313C0.411374 51.5474 0.559942 49.9761 0.559942 48.632C0.559942 34.1351 0.559942 19.4726 0.559942 4.89797C0.559942 3.91632 0.615171 3.20458 1.02277 2.62897C1.40391 2.0907 1.91263 1.70177 2.71926 1.54931Z" fill="#FAF8F4" stroke="black"/>
<path d="M3.58288 6.91031C4.0916 6.62795 4.65709 6.23591 4.71855 5.5584C4.91145 3.42008 1.14198 3.48154 1.58146 5.74742L2.1493 5.6393C1.86538 4.38229 3.90258 4.24305 4.09626 5.20681C4.26195 6.03289 3.49732 6.31059 3.01427 6.58595C2.28775 6.99976 1.59858 7.46336 1.54568 8.42479L1.54102 9.00196H4.69054V7.8414H4.10482V8.42479H2.20297C2.20686 7.47892 2.96915 7.25101 3.5821 6.91109L3.58288 6.91031Z" fill="#FF0101"/>
<path d="M32.4753 48.7011C31.9666 48.9843 31.4004 49.3755 31.3397 50.053C31.1468 52.1914 34.9163 52.1299 34.4768 49.864L33.9089 49.9722C34.1928 51.2299 32.1557 51.3684 31.962 50.4046C31.7963 49.5786 32.5609 49.3009 33.044 49.0255C33.7705 48.6117 34.4597 48.1481 34.5125 47.1867L34.5172 46.6095H31.3677V47.7701H31.9534V47.1867H33.8553C33.8514 48.1325 33.0891 48.3604 32.4761 48.7004L32.4753 48.7011Z" fill="#FF0101"/>
<path fill-rule="evenodd" clip-rule="evenodd" d="M3.12453 10.1562C3.26454 9.76804 3.5049 9.33478 4.07507 9.37912C4.50288 9.41257 4.7798 9.76571 4.81247 10.1982C4.84125 10.5809 4.66857 10.8601 4.52 11.0951C4.36132 11.3471 4.19097 11.54 4.00817 11.7765C3.74681 12.114 3.49945 12.4656 3.30732 12.8639C3.24276 12.9985 3.19609 13.1416 3.12453 13.2762C2.87562 12.4555 2.24245 11.8317 1.79674 11.1783C1.6505 10.9644 1.47704 10.6914 1.45526 10.3833C1.41636 9.82561 1.69561 9.45768 2.16155 9.38534C2.46569 9.33789 2.71382 9.48491 2.86161 9.64203C2.99152 9.78049 3.07708 9.96251 3.12375 10.1562H3.12453Z" fill="#FF0101"/>
<path fill-rule="evenodd" clip-rule="evenodd" d="M32.9328 45.456C32.7928 45.8441 32.5524 46.2774 31.9823 46.2331C31.5545 46.1996 31.2775 45.8465 31.2449 45.414C31.2161 45.0313 31.3888 44.7528 31.5373 44.5179C31.696 44.2659 31.8664 44.0722 32.0492 43.8365C32.3105 43.4989 32.5579 43.1473 32.7492 42.7491C32.8138 42.6145 32.8605 42.4714 32.932 42.3368C33.1809 43.1574 33.8141 43.7813 34.2598 44.4347C34.4061 44.6486 34.5795 44.9216 34.6013 45.2296C34.6402 45.7873 34.3609 46.1553 33.895 46.2276C33.5909 46.2751 33.3427 46.128 33.1942 45.9709C33.0643 45.8325 32.9787 45.6504 32.932 45.4568L32.9328 45.456Z" fill="#FF0101"/>
<path fill-rule="evenodd" clip-rule="evenodd" d="M18.0118 9.21198C18.2801 8.48935 18.7422 7.68272 19.8358 7.76595C20.658 7.82818 21.1893 8.48624 21.2507 9.29054C21.3052 10.0031 20.9738 10.5219 20.6891 10.959C19.6997 12.4813 19.0471 12.7668 18.011 14.3637C17.0885 12.9301 16.3176 12.3319 15.4612 11.1154C15.1804 10.7163 14.8475 10.2084 14.8062 9.63591C14.7316 8.59748 15.2667 7.91297 16.1628 7.77762C16.7462 7.68972 17.2238 7.96353 17.5077 8.256C17.7574 8.51347 17.9215 8.85261 18.0102 9.21276L18.0118 9.21198Z" fill="#FF0101"/>
<path fill-rule="evenodd" clip-rule="evenodd" d="M18.0462 46.4003C17.7778 47.1229 17.3158 47.9295 16.2221 47.8463C15.3999 47.7841 14.8686 47.126 14.8072 46.3217C14.7527 45.6092 15.0841 45.0904 15.3688 44.6532C16.3582 43.1309 17.0108 42.8455 18.0469 41.2485C18.9695 42.6821 19.7403 43.2803 20.5968 44.4968C20.8776 44.8959 21.2105 45.4038 21.2517 45.9763C21.3264 47.0148 20.7912 47.6993 19.8951 47.8346C19.3117 47.9225 18.8341 47.6487 18.5502 47.3562C18.3005 47.0988 18.1364 46.7596 18.0477 46.3995L18.0462 46.4003Z" fill="#FF0101"/>
</svg>
