<svg width="37" height="55" viewBox="0 0 37 55" fill="none" xmlns="http://www.w3.org/2000/svg">
<path d="M2.71853 1.54932C2.71853 1.54932 2.7232 1.52831 2.74031 1.52753C3.64731 1.46064 4.5862 1.52753 5.49475 1.52753C14.5709 1.52753 23.7708 1.52753 32.84 1.52753C33.74 1.52753 34.3094 1.82779 34.801 2.2984C35.2724 2.75035 35.5283 3.37264 35.5283 4.30375C35.5283 19.8044 35.5283 35.2116 35.5283 50.7706C35.5283 51.7235 35.4778 52.485 35.0655 53.0396C34.6882 53.5468 34.1173 53.9404 33.3689 54.075C32.9645 54.1481 32.4627 54.0968 32.003 54.0968C22.4127 54.0968 12.8456 54.0968 3.29182 54.0968C2.38249 54.0968 1.77964 53.8183 1.30903 53.3477C1.078 53.1167 0.865646 52.8374 0.7583 52.5325C0.41137 51.5485 0.559944 49.9772 0.559944 48.633C0.559944 34.1359 0.559944 19.473 0.559944 4.89805C0.559944 3.91637 0.615169 3.20462 1.02277 2.629C1.40393 2.09071 1.91188 1.70178 2.71853 1.54932Z" fill="#FAF8F4" stroke="black" stroke-linejoin="round"/>
<path fill-rule="evenodd" clip-rule="evenodd" d="M3.12379 10.1565C3.26381 9.7683 3.50417 9.33502 4.07435 9.37936C4.50218 9.41281 4.7791 9.76596 4.81177 10.1985C4.83977 10.5812 4.66786 10.8604 4.51929 11.0953C4.3606 11.3474 4.19025 11.5403 4.00745 11.7768C3.74608 12.1144 3.49872 12.466 3.30737 12.8642C3.2428 12.9988 3.19613 13.1419 3.12457 13.2765C2.87565 12.4558 2.24246 11.832 1.79674 11.1786C1.6505 10.9647 1.47704 10.6916 1.45526 10.3836C1.41636 9.82586 1.69562 9.45793 2.16156 9.38559C2.46493 9.33814 2.71385 9.48515 2.86165 9.64228C2.99155 9.78074 3.07712 9.96276 3.12379 10.1565Z" fill="#FF0101"/>
<path fill-rule="evenodd" clip-rule="evenodd" d="M32.9324 45.457C32.7923 45.8452 32.552 46.2785 31.9818 46.2341C31.554 46.2007 31.2771 45.8475 31.2444 45.415C31.2156 45.0323 31.3883 44.7538 31.5369 44.5189C31.6955 44.2669 31.8659 44.0732 32.0487 43.8375C32.3101 43.4999 32.5574 43.1483 32.7496 42.75C32.8141 42.6155 32.8608 42.4723 32.9324 42.3378C33.1813 43.1584 33.8145 43.7823 34.2602 44.4357C34.4064 44.6496 34.5799 44.9226 34.6017 45.2307C34.6406 45.7884 34.3613 46.1563 33.8954 46.2287C33.5912 46.2761 33.3431 46.1291 33.1945 45.972C33.0646 45.8335 32.979 45.6515 32.9324 45.4578V45.457Z" fill="#FF0101"/>
<path fill-rule="evenodd" clip-rule="evenodd" d="M18.0113 9.21213C18.2797 8.48949 18.7418 7.68284 19.8355 7.76607C20.6577 7.8283 21.1889 8.48638 21.2504 9.2907C21.3048 10.0032 20.9735 10.5221 20.6888 10.9592C19.6993 12.4815 19.0467 12.767 18.0106 14.364C17.088 12.9304 16.3171 12.3314 15.4607 11.1156C15.1799 10.7165 14.847 10.2086 14.8057 9.63607C14.7311 8.59762 15.2662 7.91309 16.1624 7.77852C16.7458 7.69062 17.2234 7.96365 17.5073 8.25691C17.757 8.51438 17.9211 8.85354 18.0106 9.21369L18.0113 9.21213Z" fill="#FF0101"/>
<path fill-rule="evenodd" clip-rule="evenodd" d="M18.0113 25.9574C18.2797 25.2347 18.7418 24.4281 19.8355 24.5113C20.6577 24.5735 21.1889 25.2316 21.2504 26.0359C21.3048 26.7485 20.9735 27.2673 20.6888 27.7045C19.6993 29.2268 19.0467 29.5122 18.0106 31.1092C17.088 29.6756 16.3171 29.0766 15.4607 27.8608C15.1799 27.4618 14.847 26.9538 14.8057 26.3813C14.7311 25.3429 15.2662 24.6583 16.1624 24.523C16.7458 24.4351 17.2234 24.7081 17.5073 25.0014C17.757 25.2588 17.9211 25.598 18.0106 25.9582L18.0113 25.9574Z" fill="#FF0101"/>
<path fill-rule="evenodd" clip-rule="evenodd" d="M18.0448 46.4013C17.7764 47.124 17.3144 47.9306 16.2207 47.8474C15.3985 47.7852 14.8672 47.1271 14.8057 46.3228C14.7513 45.6103 15.0826 45.0914 15.3673 44.6542C16.3568 43.132 17.0094 42.8465 18.0456 41.2495C18.9681 42.6831 19.739 43.2813 20.5954 44.4979C20.8762 44.8969 21.2092 45.4049 21.2504 45.9774C21.3251 47.0166 20.7899 47.7004 19.8938 47.8357C19.3104 47.9236 18.8328 47.6498 18.5488 47.3573C18.2991 47.0999 18.135 46.7607 18.0463 46.4006L18.0448 46.4013Z" fill="#FF0101"/>
<path fill-rule="evenodd" clip-rule="evenodd" d="M31.6701 51.8115C31.6701 51.6388 31.6678 51.4972 31.6678 51.2833C31.9766 50.8632 32.329 50.514 32.6814 50.1383C31.9611 49.9033 31.422 49.4584 31.3419 48.6354C31.2073 47.257 32.8222 46.2232 34.0481 47.187C34.2511 47.3465 34.3647 47.5542 34.5125 47.8155C34.2962 47.9221 34.1803 47.975 34.0209 48.0613C33.8365 47.7665 33.7315 47.6397 33.5012 47.5145C32.8253 47.1458 32.0225 47.5946 31.9432 48.2527C31.8537 48.994 32.3764 49.7633 33.3643 49.5097C33.4491 49.6614 33.5184 49.8302 33.5829 50.0013C33.2266 50.4198 32.8066 50.773 32.462 51.2039C32.819 51.2094 33.4686 51.2055 33.8287 51.2039C33.8287 50.9644 33.8357 50.9192 33.8357 50.6089H34.4557V51.8045C31.6701 51.8115 32.5966 51.8115 31.6701 51.8115Z" fill="#FF0101"/>
<path fill-rule="evenodd" clip-rule="evenodd" d="M4.38629 3.802C4.38629 3.97547 4.38862 4.11626 4.38862 4.33018C4.0798 4.75023 3.72743 5.09949 3.37505 5.4752C4.09536 5.71012 4.63442 6.15506 4.71455 6.97805C4.84834 8.35643 3.23426 9.39022 2.00834 8.42644C1.80531 8.26698 1.69174 8.05929 1.54395 7.79792C1.76019 7.69135 1.8761 7.63846 2.03556 7.55211C2.21992 7.84693 2.32493 7.97372 2.55518 8.09896C3.23115 8.46767 4.03391 8.01884 4.11325 7.36076C4.20271 6.61945 3.67998 5.85013 2.69208 6.10372C2.60729 5.95203 2.53806 5.78324 2.4735 5.61211C2.82977 5.19361 3.24981 4.83968 3.59441 4.40952C3.23737 4.40407 2.58785 4.40796 2.2277 4.40952C2.2277 4.6491 2.22069 4.69422 2.22069 5.00459H1.60151V3.809C4.38706 3.802 3.46062 3.802 4.38706 3.802H4.38629Z" fill="#FF0101"/>
</svg>
