<svg width="37" height="55" viewBox="0 0 37 55" fill="none" xmlns="http://www.w3.org/2000/svg">
<path d="M2.71927 1.54931C2.71927 1.54931 2.72393 1.52831 2.74104 1.52753C3.64802 1.46064 4.58611 1.52753 5.49542 1.52753C14.5714 1.52753 23.7711 1.52753 32.8401 1.52753C33.74 1.52753 34.3094 1.82779 34.801 2.29839C35.2724 2.75032 35.5283 3.3726 35.5283 4.30369C35.5283 19.804 35.5283 35.2109 35.5283 50.7695C35.5283 51.7224 35.4778 52.4839 35.0655 53.0385C34.6882 53.5457 34.1173 53.9393 33.369 54.0738C32.9645 54.1469 32.4628 54.0956 32.0031 54.0956C22.4129 54.0956 12.8461 54.0956 3.29254 54.0956C2.38323 54.0956 1.7804 53.8171 1.30902 53.3465C1.078 53.1155 0.865636 52.8363 0.758292 52.5314C0.41137 51.5474 0.559945 49.9761 0.559945 48.632C0.559945 34.1351 0.559945 19.4726 0.559945 4.89797C0.559945 3.91632 0.615169 3.20459 1.02276 2.62897C1.40391 2.0907 1.91263 1.70177 2.71927 1.54931Z" fill="#FAF8F4" stroke="black" stroke-linejoin="round"/>
<path fill-rule="evenodd" clip-rule="evenodd" d="M3.12355 10.1563C3.26356 9.76817 3.50392 9.3349 4.07408 9.37924C4.5019 9.41269 4.77882 9.76583 4.81071 10.1983C4.83949 10.581 4.66681 10.8603 4.51824 11.0952C4.35956 11.3472 4.18921 11.5401 4.00641 11.7766C3.74505 12.1142 3.49769 12.4658 3.30556 12.864C3.241 12.9986 3.19433 13.1417 3.12277 13.2763C2.87386 12.4556 2.24069 11.8318 1.79498 11.1784C1.64874 10.9645 1.47528 10.6915 1.45428 10.3834C1.41539 9.82573 1.69463 9.4578 2.16057 9.38546C2.46471 9.33801 2.71284 9.48503 2.86064 9.64215C2.99054 9.78061 3.0761 9.96263 3.12277 10.1563H3.12355Z" fill="#FF0101"/>
<path fill-rule="evenodd" clip-rule="evenodd" d="M32.9325 45.4561C32.7925 45.8443 32.5521 46.2775 31.982 46.2332C31.5542 46.1997 31.2773 45.8466 31.2454 45.4141C31.2166 45.0314 31.3893 44.7529 31.5378 44.518C31.6965 44.266 31.8669 44.0731 32.0497 43.8366C32.311 43.499 32.5584 43.1474 32.7497 42.7492C32.8143 42.6146 32.861 42.4715 32.9325 42.3369C33.1814 43.1575 33.8146 43.7814 34.2603 44.4348C34.4066 44.6487 34.58 44.9217 34.6018 45.2297C34.6407 45.7875 34.3614 46.1554 33.8955 46.2277C33.5914 46.2752 33.3432 46.1282 33.1947 45.971C33.0648 45.8326 32.9792 45.6506 32.9325 45.4569V45.4561Z" fill="#FF0101"/>
<path fill-rule="evenodd" clip-rule="evenodd" d="M25.0621 9.2121C25.3304 8.48948 25.7925 7.68284 26.8861 7.76607C27.7083 7.8283 28.2396 8.48637 28.301 9.29067C28.3555 10.0032 28.0241 10.522 27.7394 10.9592C26.75 12.4814 26.0974 12.7669 25.0613 14.3638C24.1388 12.9302 23.3679 12.3313 22.5115 11.1155C22.2307 10.7165 21.8978 10.2085 21.8565 9.63603C21.7819 8.5976 22.317 7.91309 23.2131 7.77852C23.7965 7.69062 24.2741 7.96365 24.558 8.2569C24.8077 8.51437 24.9718 8.85351 25.0605 9.21366L25.0621 9.2121Z" fill="#FF0101"/>
<path fill-rule="evenodd" clip-rule="evenodd" d="M25.0965 46.4004C24.8281 47.123 24.3661 47.9296 23.2724 47.8464C22.4502 47.7842 21.9189 47.1261 21.8575 46.3218C21.803 45.6093 22.1344 45.0905 22.4191 44.6533C23.4085 43.1311 24.0611 42.8456 25.0972 41.2487C26.0198 42.6822 26.7906 43.2804 27.6471 44.497C27.9279 44.896 28.2608 45.4039 28.302 45.9764C28.3767 47.0149 27.8415 47.6994 26.9454 47.8347C26.362 47.9226 25.8844 47.6488 25.6005 47.3564C25.3508 47.0989 25.1867 46.7597 25.098 46.3996L25.0965 46.4004Z" fill="#FF0101"/>
<path fill-rule="evenodd" clip-rule="evenodd" d="M10.9595 9.2121C11.2279 8.48948 11.6899 7.68284 12.7836 7.76607C13.6058 7.8283 14.137 8.48637 14.1985 9.29067C14.2529 10.0032 13.9216 10.522 13.6369 10.9592C12.6475 12.4814 11.9948 12.7669 10.9587 14.3638C10.0362 12.9302 9.26535 12.3313 8.40893 11.1155C8.12813 10.7165 7.79521 10.2085 7.75399 9.63603C7.67931 8.5976 8.21447 7.91309 9.11056 7.77852C9.69395 7.69062 10.1716 7.96365 10.4555 8.2569C10.7052 8.51437 10.8693 8.85351 10.9587 9.21366L10.9595 9.2121Z" fill="#FF0101"/>
<path fill-rule="evenodd" clip-rule="evenodd" d="M10.9939 46.4004C10.7256 47.123 10.2635 47.9296 9.16986 47.8464C8.34767 47.7842 7.8164 47.1261 7.75495 46.3218C7.7005 45.6093 8.03186 45.0905 8.31656 44.6533C9.30599 43.1311 9.9586 42.8456 10.9947 41.2487C11.9172 42.6822 12.6881 43.2804 13.5445 44.497C13.8253 44.896 14.1582 45.4039 14.1995 45.9764C14.2741 47.0149 13.739 47.6994 12.8429 47.8347C12.2595 47.9226 11.7819 47.6488 11.498 47.3564C11.2483 47.0989 11.0842 46.7597 10.9947 46.3996L10.9939 46.4004Z" fill="#FF0101"/>
<path fill-rule="evenodd" clip-rule="evenodd" d="M4.18752 4.00049V7.22391H4.74601C4.76235 7.38726 4.76235 7.65484 4.74601 7.81041C4.56322 7.81041 4.35164 7.79797 4.19063 7.79797C4.19063 8.04299 4.18752 8.13633 4.18752 8.41247C4.30264 8.41247 4.42321 8.41558 4.52277 8.41558C4.52277 8.57349 4.51655 8.77262 4.51655 9.00208C4.03584 9.00208 3.68814 8.99897 3.21053 8.99897V8.44358C3.31554 8.44358 3.44933 8.44047 3.56757 8.44047C3.56757 8.20167 3.57379 8.099 3.57379 7.79797H1.51015C1.51015 7.60584 1.50781 7.45182 1.50781 7.26747C2.18688 6.18703 2.84883 5.06459 3.54656 4.0036C3.77292 4.0036 3.92149 4.00127 4.18907 4.00127L4.18752 4.00049ZM2.31678 7.22391H3.57379C3.57379 6.47251 3.5769 6.01357 3.5769 5.22872L2.31756 7.22391H2.31678Z" fill="#FF0101"/>
<path fill-rule="evenodd" clip-rule="evenodd" d="M31.8681 51.6121V48.3886H31.3096C31.2933 48.2253 31.2933 47.9577 31.3096 47.8021C31.4924 47.8021 31.704 47.8146 31.865 47.8146C31.865 47.5696 31.8681 47.4762 31.8681 47.2001C31.753 47.2001 31.6324 47.197 31.5329 47.197C31.5329 47.0383 31.5391 46.8399 31.5391 46.6105C32.0198 46.6105 32.3675 46.6136 32.8451 46.6136V47.169C32.7401 47.169 32.6063 47.1721 32.4881 47.1721C32.4881 47.4109 32.4818 47.5136 32.4818 47.8146H34.5455C34.5455 48.0067 34.5478 48.1607 34.5478 48.3451C33.8688 49.4255 33.2068 50.548 32.5091 51.6097C32.2827 51.6097 32.1341 51.6121 31.8666 51.6121H31.8681ZM33.7388 48.3886H32.4818C32.4818 49.1393 32.4787 49.599 32.4787 50.3831L33.7381 48.3886H33.7388Z" fill="#FF0101"/>
</svg>
