<svg width="37" height="55" viewBox="0 0 37 55" fill="none" xmlns="http://www.w3.org/2000/svg">
<path d="M2.71853 1.54932C2.71853 1.54932 2.7232 1.52831 2.74031 1.52753C3.64731 1.46064 4.58541 1.52753 5.49475 1.52753C14.5709 1.52753 23.7708 1.52753 32.84 1.52753C33.74 1.52753 34.3094 1.82779 34.801 2.2984C35.2724 2.75035 35.5283 3.37264 35.5283 4.30375C35.5283 19.8044 35.5283 35.2116 35.5283 50.7706C35.5283 51.7235 35.4778 52.485 35.0655 53.0396C34.6882 53.5468 34.1173 53.9404 33.3689 54.075C32.9645 54.1481 32.4627 54.0968 32.003 54.0968C22.4126 54.0968 12.8456 54.0968 3.29182 54.0968C2.38249 54.0968 1.77964 53.8183 1.30903 53.3477C1.078 53.1167 0.865649 52.8374 0.758303 52.5325C0.411372 51.5485 0.559942 49.9772 0.559942 48.633C0.559942 34.1358 0.559942 19.473 0.559942 4.89805C0.559942 3.91637 0.615167 3.20462 1.02277 2.629C1.40393 2.09071 1.91188 1.70178 2.71853 1.54932Z" fill="#FAF8F4" stroke="black" stroke-linejoin="round"/>
<path fill-rule="evenodd" clip-rule="evenodd" d="M3.12359 10.1563C3.2636 9.76815 3.50396 9.33488 4.07414 9.37922C4.50197 9.41266 4.7789 9.76582 4.81157 10.1983C4.84035 10.581 4.66766 10.8603 4.51909 11.0944C4.3604 11.3465 4.19005 11.5394 4.00725 11.7758C3.74588 12.1134 3.49852 12.465 3.30638 12.8633C3.24182 12.9979 3.19515 13.141 3.12359 13.2756C2.87467 12.4549 2.24149 11.8311 1.79577 11.1777C1.64953 10.9637 1.47606 10.6907 1.45428 10.3827C1.41539 9.82494 1.69464 9.457 2.16058 9.38466C2.46473 9.33721 2.71287 9.48423 2.86144 9.64136C2.99135 9.77982 3.07691 9.96184 3.12359 10.1555V10.1563Z" fill="#FF0101"/>
<path fill-rule="evenodd" clip-rule="evenodd" d="M32.9321 45.4569C32.792 45.8451 32.5517 46.2783 31.9815 46.234C31.5537 46.2005 31.2768 45.8474 31.2449 45.4149C31.2161 45.0322 31.3888 44.7529 31.5374 44.5188C31.696 44.2668 31.8664 44.0731 32.0492 43.8374C32.3106 43.4998 32.5579 43.1482 32.7493 42.7499C32.8138 42.6153 32.8605 42.4722 32.9321 42.3376C33.181 43.1583 33.8142 43.7821 34.2599 44.4356C34.4061 44.6503 34.5796 44.9225 34.6014 45.2305C34.6403 45.7883 34.361 46.1562 33.8951 46.2285C33.5909 46.276 33.3428 46.129 33.1942 45.9719C33.0643 45.8334 32.9787 45.6514 32.9321 45.4577V45.4569Z" fill="#FF0101"/>
<path fill-rule="evenodd" clip-rule="evenodd" d="M25.0618 9.21201C25.3302 8.48937 25.7923 7.68272 26.8867 7.76595C27.7089 7.82818 28.2402 8.48626 28.3017 9.29058C28.3561 10.0031 28.0247 10.5219 27.74 10.9591C26.7506 12.4814 26.098 12.7669 25.0618 14.3638C24.1393 12.9302 23.3684 12.3313 22.512 11.1155C22.2312 10.7164 21.8982 10.2092 21.857 9.63595C21.7823 8.59672 22.3175 7.91297 23.2136 7.77762C23.797 7.68972 24.2746 7.96353 24.5586 8.25601C24.8083 8.51348 24.9724 8.85264 25.0611 9.21279L25.0618 9.21201Z" fill="#FF0101"/>
<path fill-rule="evenodd" clip-rule="evenodd" d="M25.096 46.4012C24.8277 47.1238 24.3656 47.9305 23.2719 47.8472C22.4497 47.785 21.9185 47.1269 21.857 46.3234C21.8025 45.6109 22.1339 45.092 22.4186 44.6549C23.4081 43.1326 24.0607 42.8471 25.0968 41.2501C26.0194 42.6837 26.7902 43.2819 27.6467 44.4985C27.9275 44.8976 28.2604 45.4047 28.3016 45.978C28.3763 47.0165 27.8411 47.701 26.945 47.8356C26.3616 47.9235 25.884 47.6504 25.6001 47.3572C25.3504 47.0997 25.1863 46.7606 25.0976 46.4004L25.096 46.4012Z" fill="#FF0101"/>
<path fill-rule="evenodd" clip-rule="evenodd" d="M10.9596 9.21201C11.228 8.48937 11.69 7.68272 12.7837 7.76595C13.6059 7.82818 14.1372 8.48626 14.1986 9.29058C14.2531 10.0031 13.9217 10.5219 13.637 10.9591C12.6476 12.4814 11.9949 12.7669 10.9588 14.3638C10.0363 12.9302 9.26539 12.3313 8.40896 11.1155C8.12815 10.7164 7.79521 10.2092 7.75399 9.63595C7.67931 8.59672 8.21448 7.91297 9.11059 7.77762C9.69399 7.68972 10.1716 7.96353 10.4555 8.25601C10.7052 8.51348 10.8694 8.85264 10.9588 9.21279L10.9596 9.21201Z" fill="#FF0101"/>
<path fill-rule="evenodd" clip-rule="evenodd" d="M10.994 46.4012C10.7256 47.1238 10.2636 47.9305 9.16989 47.8472C8.34768 47.785 7.8164 47.1269 7.75495 46.3234C7.7005 45.6109 8.03187 45.092 8.31657 44.6549C9.30602 43.1326 9.95866 42.8471 10.9948 41.2501C11.9173 42.6837 12.6882 43.2819 13.5446 44.4985C13.8254 44.8976 14.1584 45.4047 14.1996 45.978C14.2743 47.0165 13.7391 47.701 12.843 47.8356C12.2596 47.9235 11.782 47.6504 11.4981 47.3572C11.2484 47.0997 11.0842 46.7606 10.9948 46.4004L10.994 46.4012Z" fill="#FF0101"/>
<path fill-rule="evenodd" clip-rule="evenodd" d="M18.0114 25.9571C18.2797 25.2345 18.7418 24.4278 19.8355 24.5111C20.6577 24.5733 21.1889 25.2314 21.2504 26.0357C21.3048 26.7482 20.9735 27.2671 20.6888 27.7042C19.6993 29.2265 19.0467 29.512 18.0106 31.109C17.088 29.6753 16.3171 29.0764 15.4607 27.8606C15.1799 27.4615 14.847 26.9544 14.8057 26.3811C14.7311 25.3426 15.2662 24.6581 16.1624 24.5227C16.7458 24.4348 17.2234 24.7079 17.5073 25.0011C17.757 25.2586 17.9211 25.5978 18.0098 25.9579L18.0114 25.9571Z" fill="#FF0101"/>
<path fill-rule="evenodd" clip-rule="evenodd" d="M4.21113 4.00024V4.58287C3.39903 4.58287 2.9222 4.58054 2.38703 4.58054C2.34891 4.94225 2.33491 5.14294 2.3038 5.5202C2.56361 5.40741 3.15556 5.30007 3.60284 5.43697C5.19669 5.92547 5.09324 8.95294 3.10578 9.00117C2.64917 9.01206 2.14666 8.78103 1.88997 8.53134C1.84018 8.48233 1.60293 8.21008 1.55859 8.00628C1.68616 7.92615 1.81763 7.8577 2.02843 7.75736C2.128 7.93316 2.23301 8.03817 2.28046 8.09184C3.00232 8.91405 4.2477 8.24119 4.07345 6.87292C3.96455 6.01648 2.7853 5.56143 2.1949 6.37586C1.92886 6.26151 1.90086 6.24051 1.64183 6.09972C1.68228 5.42608 1.69316 4.74467 1.75228 4.00258C2.62583 4.00258 3.34458 4.00024 4.21191 4.00024H4.21113Z" fill="#FF0101"/>
<path fill-rule="evenodd" clip-rule="evenodd" d="M31.8457 51.6129V51.0302C32.6578 51.0302 33.1346 51.0326 33.6698 51.0326C33.7079 50.6709 33.7219 50.4702 33.7531 50.0929C33.4932 50.2057 32.9013 50.313 32.454 50.1761C30.8602 49.6876 30.9636 46.6602 32.9511 46.6119C33.4077 46.6011 33.9102 46.8321 34.1669 47.0818C34.2167 47.13 34.4539 47.403 34.4983 47.6068C34.3707 47.687 34.2392 47.7554 34.0284 47.8558C33.9289 47.68 33.8238 47.5749 33.7764 47.5213C33.0545 46.6991 31.8092 47.3719 31.9834 48.7402C32.0923 49.5966 33.2715 50.0517 33.8627 49.2373C34.1288 49.3516 34.1568 49.3726 34.415 49.5134C34.3746 50.187 34.3637 50.8684 34.3046 51.6105C33.431 51.6105 32.7123 51.6129 31.8449 51.6129H31.8457Z" fill="#FF0101"/>
</svg>
