<svg width="37" height="55" viewBox="0 0 37 55" fill="none" xmlns="http://www.w3.org/2000/svg">
<path d="M2.71927 1.54931C2.71927 1.54931 2.72392 1.52831 2.74103 1.52753C3.64801 1.46064 4.58689 1.52753 5.49542 1.52753C14.5714 1.52753 23.7711 1.52753 32.8401 1.52753C33.7401 1.52753 34.3094 1.82779 34.801 2.29839C35.2724 2.75032 35.5283 3.3726 35.5283 4.30369C35.5283 19.804 35.5283 35.2109 35.5283 50.7695C35.5283 51.7224 35.4778 52.4839 35.0655 53.0385C34.6882 53.5465 34.1181 53.9393 33.369 54.0738C32.9645 54.147 32.4628 54.0956 32.0031 54.0956C22.413 54.0956 12.8461 54.0956 3.29254 54.0956C2.38323 54.0956 1.78039 53.8172 1.30901 53.3465C1.07799 53.1155 0.865631 52.8363 0.758287 52.5314C0.411364 51.5474 0.55995 49.9761 0.55995 48.632C0.55995 34.1351 0.55995 19.4726 0.55995 4.89797C0.55995 3.91632 0.615173 3.20459 1.02277 2.62897C1.40392 2.08992 1.91264 1.70177 2.71927 1.54931Z" fill="#FAF8F4" stroke="black" stroke-linejoin="round"/>
<path fill-rule="evenodd" clip-rule="evenodd" d="M3.12453 10.1563C3.26454 9.76817 3.50489 9.3349 4.07506 9.37924C4.50288 9.41269 4.77979 9.76583 4.81246 10.1983C4.84047 10.581 4.66856 10.8603 4.51999 11.0952C4.36131 11.3472 4.19095 11.5401 4.00816 11.7766C3.7468 12.1142 3.49944 12.4658 3.30731 12.864C3.24275 12.9978 3.19609 13.1417 3.12453 13.2763C2.87561 12.4556 2.24244 11.8318 1.79673 11.1784C1.65049 10.9645 1.47704 10.6915 1.45526 10.3834C1.41636 9.82573 1.6956 9.4578 2.16153 9.38546C2.46568 9.33801 2.71381 9.48503 2.86238 9.64215C2.99228 9.78061 3.07786 9.96263 3.12453 10.1563Z" fill="#FF0101"/>
<path fill-rule="evenodd" clip-rule="evenodd" d="M32.9327 45.456C32.7926 45.8441 32.5523 46.2774 31.9821 46.2331C31.5543 46.1996 31.2774 45.8465 31.2447 45.414C31.2167 45.0313 31.3886 44.7528 31.5372 44.5179C31.6959 44.2659 31.8662 44.0722 32.049 43.8365C32.3104 43.4989 32.5577 43.1473 32.7491 42.7491C32.8136 42.6145 32.8603 42.4714 32.9319 42.3368C33.1808 43.1574 33.814 43.7813 34.2597 44.4347C34.4059 44.6486 34.5794 44.9216 34.6004 45.2296C34.6393 45.7873 34.36 46.1553 33.8941 46.2276C33.5907 46.2751 33.3418 46.128 33.1932 45.9709C33.0633 45.8325 32.9778 45.6504 32.9311 45.4568L32.9327 45.456Z" fill="#FF0101"/>
<path fill-rule="evenodd" clip-rule="evenodd" d="M25.0623 9.21192C25.3306 8.48929 25.7927 7.68266 26.8871 7.76511C27.7093 7.82734 28.2406 8.4854 28.302 9.28971C28.3565 10.0022 28.0251 10.521 27.7404 10.9582C26.751 12.4805 26.0984 12.7659 25.0623 14.3629C24.1397 12.9293 23.3689 12.3303 22.5125 11.1145C22.2317 10.7155 21.8987 10.2083 21.8575 9.63507C21.7828 8.59586 22.318 7.91213 23.2141 7.77678C23.7975 7.68888 24.2751 7.96269 24.559 8.25516C24.8087 8.51263 24.9728 8.85177 25.0615 9.21192H25.0623Z" fill="#FF0101"/>
<path fill-rule="evenodd" clip-rule="evenodd" d="M25.0965 46.4003C24.8281 47.123 24.3661 47.9296 23.2724 47.8464C22.4502 47.7841 21.9189 47.1261 21.8575 46.3225C21.803 45.61 22.1344 45.0912 22.4191 44.6541C23.4085 43.1318 24.0612 42.8463 25.0973 41.2494C26.0198 42.683 26.7906 43.2819 27.6471 44.4977C27.9279 44.8967 28.2608 45.4047 28.302 45.9772C28.3767 47.0156 27.8415 47.7001 26.9454 47.8355C26.362 47.9234 25.8844 47.6496 25.6005 47.3571C25.3508 47.0996 25.1867 46.7605 25.0973 46.4003H25.0965Z" fill="#FF0101"/>
<path fill-rule="evenodd" clip-rule="evenodd" d="M10.9605 9.21192C11.2289 8.48929 11.6909 7.68266 12.7846 7.76511C13.6067 7.82734 14.138 8.4854 14.1995 9.28971C14.2539 10.0022 13.9226 10.521 13.6379 10.9582C12.6484 12.4805 11.9958 12.7659 10.9597 14.3629C10.0372 12.9293 9.26633 12.3303 8.40991 11.1145C8.1291 10.7155 7.79619 10.2083 7.75496 9.63507C7.68029 8.59586 8.21545 7.91213 9.11153 7.77678C9.69492 7.68888 10.1725 7.96269 10.4564 8.25516C10.7061 8.51263 10.8703 8.85177 10.9589 9.21192H10.9605Z" fill="#FF0101"/>
<path fill-rule="evenodd" clip-rule="evenodd" d="M10.9949 46.4003C10.7265 47.123 10.2645 47.9296 9.17084 47.8464C8.34864 47.7841 7.81738 47.1261 7.75593 46.3225C7.70148 45.61 8.03284 45.0912 8.31753 44.6541C9.30696 43.1318 9.95958 42.8463 10.9957 41.2494C11.9182 42.683 12.6891 43.2819 13.5455 44.4977C13.8263 44.8967 14.1592 45.4047 14.2004 45.9772C14.2751 47.0156 13.7399 47.7001 12.8439 47.8355C12.2605 47.9234 11.7829 47.6496 11.4989 47.3571C11.2493 47.0996 11.0851 46.7605 10.9957 46.4003H10.9949Z" fill="#FF0101"/>
<path fill-rule="evenodd" clip-rule="evenodd" d="M25.0623 25.9569C25.3306 25.2342 25.7927 24.4276 26.8871 24.5108C27.7093 24.5731 28.2406 25.2311 28.302 26.0354C28.3565 26.7479 28.0251 27.2668 27.7404 27.7039C26.751 29.2262 26.0984 29.5116 25.0623 31.1086C24.1397 29.675 23.3689 29.076 22.5125 27.8603C22.2317 27.4612 21.8987 26.9541 21.8575 26.3808C21.7828 25.3424 22.318 24.6578 23.2141 24.5233C23.7975 24.4354 24.2751 24.7084 24.559 25.0017C24.8087 25.2591 24.9728 25.5983 25.0615 25.9584L25.0623 25.9569Z" fill="#FF0101"/>
<path fill-rule="evenodd" clip-rule="evenodd" d="M10.9605 25.9569C11.2289 25.2342 11.6909 24.4276 12.7846 24.5108C13.6067 24.5731 14.138 25.2311 14.1995 26.0354C14.2539 26.7479 13.9226 27.2668 13.6379 27.7039C12.6484 29.2262 11.9958 29.5116 10.9597 31.1086C10.0372 29.675 9.26633 29.076 8.40991 27.8603C8.1291 27.4612 7.79619 26.9541 7.75496 26.3808C7.68029 25.3424 8.21545 24.6578 9.11153 24.5233C9.69492 24.4354 10.1725 24.7084 10.4564 25.0017C10.7061 25.2591 10.8703 25.5983 10.9589 25.9584L10.9605 25.9569Z" fill="#FF0101"/>
<path fill-rule="evenodd" clip-rule="evenodd" d="M4.46843 4.85988C4.26619 4.961 4.20318 4.97889 3.98383 5.07535C3.87104 4.90733 3.78625 4.72765 3.60734 4.64442C2.82171 4.28038 2.24376 5.1718 2.31532 5.85553C2.58912 5.65096 3.22386 5.52184 3.68824 5.69374C3.96282 5.79564 4.23429 6.085 4.36108 6.28569C4.59988 6.66372 4.75623 7.54425 4.52288 8.14242C4.09972 9.22519 2.43588 9.31776 1.88516 8.22332C1.60203 7.66171 1.59271 6.70651 1.66972 5.88198C1.75217 4.99834 2.1193 4.15281 2.88082 4.02525C3.64934 3.89612 4.2483 4.27027 4.46921 4.85988H4.46843ZM2.28811 6.79751C2.20954 7.11332 2.28887 7.74027 2.44989 8.03586C2.5619 8.24121 2.85205 8.44423 3.06907 8.46679C4.3712 8.59824 4.34319 5.88898 2.90727 6.20635C2.6288 6.2678 2.362 6.50193 2.28811 6.79829V6.79751Z" fill="#FF0101"/>
<path fill-rule="evenodd" clip-rule="evenodd" d="M31.5879 50.7524C31.7909 50.6513 31.8531 50.6334 32.0725 50.537C32.1853 50.705 32.2701 50.8847 32.449 50.9679C33.2346 51.3319 33.8125 50.4405 33.741 49.7568C33.4672 49.9614 32.8325 50.0905 32.3681 49.9186C32.0935 49.8167 31.822 49.5273 31.6952 49.3266C31.4564 48.9486 31.3001 48.0681 31.5334 47.4699C31.9566 46.3871 33.6204 46.2946 34.1711 47.389C34.4543 47.9506 34.4636 48.9058 34.3866 49.7303C34.3042 50.614 33.937 51.4595 33.1755 51.5878C32.4077 51.717 31.808 51.3428 31.5871 50.7532L31.5879 50.7524ZM33.7682 48.8148C33.8468 48.499 33.7674 47.872 33.6064 47.5765C33.4944 47.3711 33.2035 47.1681 32.9872 47.1455C31.6851 47.0141 31.7131 49.7233 33.149 49.406C33.4275 49.3445 33.6943 49.1104 33.7682 48.814V48.8148Z" fill="#FF0101"/>
</svg>
