<svg width="37" height="55" viewBox="0 0 37 55" fill="none" xmlns="http://www.w3.org/2000/svg">
<path d="M2.71926 1.54931C2.71926 1.54931 2.72393 1.52831 2.74104 1.52753C3.64802 1.46064 4.58688 1.52753 5.49541 1.52753C14.5714 1.52753 23.7711 1.52753 32.8401 1.52753C33.74 1.52753 34.3094 1.82779 34.801 2.29839C35.2724 2.75032 35.5283 3.3726 35.5283 4.30369C35.5283 19.804 35.5283 35.2109 35.5283 50.7695C35.5283 51.7224 35.4778 52.4839 35.0655 53.0385C34.6882 53.5457 34.1181 53.9393 33.369 54.0738C32.9645 54.1469 32.4628 54.0956 32.0031 54.0956C22.4129 54.0956 12.8461 54.0956 3.29255 54.0956C2.38324 54.0956 1.7804 53.8171 1.30902 53.3465C1.078 53.1155 0.865641 52.8363 0.758297 52.5313C0.411375 51.5474 0.559941 49.9761 0.559941 48.632C0.559941 34.1351 0.559941 19.4726 0.559941 4.89797C0.559941 3.91632 0.615165 3.20458 1.02276 2.62897C1.40391 2.0907 1.91263 1.70177 2.71926 1.54931Z" fill="#FAF8F4" stroke="black" stroke-linejoin="round"/>
<path fill-rule="evenodd" clip-rule="evenodd" d="M3.12355 10.1564C3.26356 9.76826 3.50394 9.335 4.0741 9.37934C4.50192 9.41279 4.77884 9.76593 4.81151 10.1984C4.83951 10.5811 4.6676 10.8604 4.51903 11.0945C4.36035 11.3465 4.18999 11.5394 4.0072 11.7759C3.74584 12.1135 3.49848 12.4651 3.30635 12.8633C3.24179 12.9979 3.19511 13.141 3.12355 13.2756C2.87464 12.455 2.24148 11.8311 1.79577 11.1777C1.64953 10.9638 1.47606 10.6908 1.45428 10.3828C1.41539 9.82505 1.69464 9.45712 2.16058 9.38478C2.46472 9.33733 2.71285 9.48435 2.86064 9.64147C2.99055 9.77993 3.0761 9.96195 3.12277 10.1556L3.12355 10.1564Z" fill="#FF0101"/>
<path fill-rule="evenodd" clip-rule="evenodd" d="M32.9322 45.4561C32.7922 45.8443 32.5518 46.2775 31.9816 46.2332C31.5538 46.1997 31.2769 45.8466 31.2442 45.4141C31.2162 45.0314 31.3881 44.7521 31.5367 44.518C31.6954 44.266 31.8657 44.0723 32.0485 43.8366C32.3099 43.499 32.5573 43.1474 32.7486 42.7492C32.8132 42.6146 32.8598 42.4715 32.9314 42.3369C33.1803 43.1575 33.8135 43.7814 34.2592 44.4348C34.4054 44.6487 34.5789 44.9217 34.5999 45.2297C34.6388 45.7875 34.3595 46.1554 33.8936 46.2277C33.5902 46.2752 33.3413 46.1282 33.1935 45.971C33.0636 45.8326 32.9781 45.6506 32.9314 45.4569L32.9322 45.4561Z" fill="#FF0101"/>
<path fill-rule="evenodd" clip-rule="evenodd" d="M25.0623 9.2121C25.3306 8.48948 25.7927 7.68284 26.8871 7.76607C27.7093 7.8283 28.2406 8.48637 28.302 9.29067C28.3565 10.0032 28.0251 10.522 27.7404 10.9592C26.751 12.4814 26.0984 12.7669 25.0623 14.3638C24.1397 12.9302 23.3689 12.3321 22.5124 11.1155C22.2316 10.7165 21.8987 10.2093 21.8575 9.63603C21.7828 8.5976 22.318 7.91309 23.2141 7.77774C23.7975 7.68984 24.2751 7.96365 24.559 8.25612C24.8087 8.51359 24.9728 8.85273 25.0615 9.21288L25.0623 9.2121Z" fill="#FF0101"/>
<path fill-rule="evenodd" clip-rule="evenodd" d="M25.0963 46.4004C24.8279 47.123 24.3659 47.9296 23.2714 47.8464C22.4492 47.7842 21.918 47.1261 21.8565 46.3226C21.8021 45.6101 22.1334 45.0912 22.4181 44.6533C23.4075 43.1311 24.0602 42.8456 25.0963 41.2487C26.0188 42.6822 26.7896 43.2804 27.6461 44.497C27.9269 44.896 28.2598 45.4039 28.301 45.9764C28.3757 47.0157 27.8405 47.6994 26.9444 47.8347C26.3611 47.9226 25.8835 47.6488 25.5995 47.3564C25.3499 47.0989 25.1857 46.7597 25.097 46.3996L25.0963 46.4004Z" fill="#FF0101"/>
<path fill-rule="evenodd" clip-rule="evenodd" d="M10.9595 9.2121C11.2279 8.48948 11.6899 7.68284 12.7836 7.76607C13.6058 7.8283 14.1371 8.48637 14.1985 9.29067C14.253 10.0032 13.9216 10.522 13.6369 10.9592C12.6475 12.4814 11.9949 12.7669 10.9588 14.3638C10.0362 12.9302 9.26537 12.3321 8.40895 11.1155C8.12815 10.7165 7.79521 10.2093 7.75399 9.63603C7.67931 8.5976 8.21449 7.91309 9.11058 7.77774C9.69397 7.68984 10.1716 7.96365 10.4555 8.25612C10.7052 8.51359 10.8693 8.85273 10.958 9.21288L10.9595 9.2121Z" fill="#FF0101"/>
<path fill-rule="evenodd" clip-rule="evenodd" d="M10.9939 46.4004C10.7256 47.123 10.2635 47.9296 9.16988 47.8464C8.34769 47.7842 7.8164 47.1261 7.75495 46.3226C7.7005 45.6101 8.03186 45.0912 8.31656 44.6533C9.30598 43.1311 9.95862 42.8456 10.9947 41.2487C11.9173 42.6822 12.6881 43.2804 13.5445 44.497C13.8253 44.896 14.1582 45.4039 14.1995 45.9764C14.2741 47.0157 13.739 47.6994 12.8429 47.8347C12.2595 47.9226 11.7819 47.6488 11.498 47.3564C11.2483 47.0989 11.0842 46.7597 10.9947 46.3996L10.9939 46.4004Z" fill="#FF0101"/>
<path fill-rule="evenodd" clip-rule="evenodd" d="M25.0623 25.9569C25.3306 25.2342 25.7927 24.4276 26.8871 24.5108C27.7093 24.5731 28.2406 25.2311 28.302 26.0346C28.3565 26.7472 28.0251 27.266 27.7404 27.7031C26.751 29.2254 26.0984 29.5109 25.0623 31.1078C24.1397 29.6742 23.3689 29.076 22.5124 27.8595C22.2316 27.4604 21.8987 26.9533 21.8575 26.38C21.7828 25.3416 22.318 24.6571 23.2141 24.5225C23.7975 24.4346 24.2751 24.7076 24.559 25.0009C24.8087 25.2583 24.9728 25.5975 25.0615 25.9576L25.0623 25.9569Z" fill="#FF0101"/>
<path fill-rule="evenodd" clip-rule="evenodd" d="M10.9595 25.9569C11.2279 25.2342 11.6899 24.4276 12.7836 24.5108C13.6058 24.5731 14.1371 25.2311 14.1985 26.0346C14.253 26.7472 13.9216 27.266 13.6369 27.7031C12.6475 29.2254 11.9949 29.5109 10.9588 31.1078C10.0362 29.6742 9.26537 29.076 8.40895 27.8595C8.12815 27.4604 7.79521 26.9533 7.75399 26.38C7.67931 25.3416 8.21449 24.6571 9.11058 24.5225C9.69397 24.4346 10.1716 24.7076 10.4555 25.0009C10.7052 25.2583 10.8693 25.5975 10.958 25.9576L10.9595 25.9569Z" fill="#FF0101"/>
<path fill-rule="evenodd" clip-rule="evenodd" d="M18.011 17.5841C18.2793 16.8614 18.7414 16.0548 19.8358 16.138C20.658 16.2003 21.1893 16.8583 21.2507 17.6618C21.3052 18.3743 20.9738 18.8932 20.6891 19.3311C19.6997 20.8534 19.0471 21.1388 18.011 22.7358C17.0884 21.3022 16.3176 20.7032 15.4612 19.4875C15.1804 19.0884 14.8475 18.5805 14.8062 18.008C14.7316 16.9688 15.2667 16.285 16.1628 16.1497C16.7462 16.0618 17.2238 16.3356 17.5077 16.6281C17.7574 16.8855 17.9215 17.2247 18.0102 17.5848L18.011 17.5841Z" fill="#FF0101"/>
<path fill-rule="evenodd" clip-rule="evenodd" d="M4.72339 4.00049C4.73661 4.16695 4.71483 4.50298 4.72339 4.75501C3.72463 5.69076 3.26491 7.1329 3.29836 9.00208H2.68386C2.65975 7.05823 3.12725 5.60909 3.99689 4.58777H2.18059V5.20538C1.88656 5.20538 1.74655 5.20227 1.54198 5.20227C1.54198 4.69278 1.53809 4.46876 1.53809 4.0036C2.57574 4.0036 3.44227 4.00127 4.72339 4.00127V4.00049Z" fill="#FF0101"/>
<path fill-rule="evenodd" clip-rule="evenodd" d="M31.3325 51.6121C31.3193 51.4456 31.3411 51.1096 31.3325 50.8575C32.3313 49.9218 32.791 48.4797 32.7575 46.6105H33.372C33.3961 48.5543 32.9286 50.0042 32.059 51.0248H33.8753V50.4072C34.1693 50.4072 34.3093 50.4103 34.5139 50.4103C34.5139 50.9198 34.5178 51.143 34.5178 51.609C33.4801 51.609 32.6136 51.6113 31.3325 51.6113V51.6121Z" fill="#FF0101"/>
</svg>
