<svg width="37" height="55" viewBox="0 0 37 55" fill="none" xmlns="http://www.w3.org/2000/svg">
<path d="M2.71853 1.54932C2.71853 1.54932 2.7232 1.52831 2.74031 1.52753C3.64731 1.46064 4.58541 1.52753 5.49475 1.52753C14.5709 1.52753 23.7708 1.52753 32.84 1.52753C33.7408 1.52753 34.3094 1.82779 34.801 2.2984C35.2724 2.75035 35.5283 3.37264 35.5283 4.30375C35.5283 19.8044 35.5283 35.2116 35.5283 50.7706C35.5283 51.7235 35.4778 52.485 35.0655 53.0396C34.6882 53.5476 34.1173 53.9404 33.3689 54.075C32.9645 54.1481 32.4627 54.0968 32.003 54.0968C22.4126 54.0968 12.8456 54.0968 3.29181 54.0968C2.38248 54.0968 1.77963 53.8183 1.30902 53.3477C1.07799 53.1167 0.865649 52.8374 0.758303 52.5325C0.411372 51.5485 0.559942 49.9772 0.559942 48.633C0.559942 34.1358 0.559942 19.473 0.559942 4.89805C0.559942 3.91637 0.615167 3.20462 1.02277 2.629C1.40393 2.09071 1.91266 1.70178 2.71931 1.54932H2.71853Z" fill="#FAF8F4" stroke="black" stroke-linejoin="round"/>
<path fill-rule="evenodd" clip-rule="evenodd" d="M3.12399 10.1563C3.26401 9.76818 3.50437 9.3349 4.07455 9.37924C4.50237 9.41269 4.77929 9.76584 4.81197 10.1983C4.84075 10.581 4.66806 10.8603 4.51949 11.0952C4.3608 11.3473 4.19046 11.5402 4.00766 11.7766C3.7463 12.1142 3.49893 12.4658 3.30758 12.8641C3.24301 12.9987 3.19633 13.1418 3.12477 13.2764C2.87585 12.4557 2.24266 11.8319 1.79694 11.1785C1.6507 10.9645 1.47724 10.6915 1.45624 10.3835C1.41735 9.82574 1.69583 9.45781 2.16255 9.38546C2.4667 9.33801 2.71484 9.48503 2.86264 9.64216C2.99254 9.78062 3.0781 9.96264 3.12477 10.1563H3.12399Z" fill="#FF0101"/>
<path fill-rule="evenodd" clip-rule="evenodd" d="M32.9328 45.4569C32.7928 45.8451 32.5525 46.2783 31.9823 46.234C31.5545 46.2005 31.2775 45.8474 31.2449 45.4149C31.2161 45.0322 31.3888 44.7537 31.5374 44.5188C31.696 44.2668 31.8664 44.0731 32.0492 43.8374C32.3106 43.4998 32.5579 43.1482 32.7493 42.7499C32.8138 42.6153 32.8605 42.4722 32.9321 42.3376C33.181 43.1583 33.8142 43.7821 34.2599 44.4356C34.4061 44.6495 34.5796 44.9225 34.6014 45.2305C34.6403 45.7883 34.3618 46.1562 33.8951 46.2285C33.5909 46.276 33.3428 46.129 33.195 45.9719C33.0651 45.8334 32.9795 45.6514 32.9328 45.4577V45.4569Z" fill="#FF0101"/>
<path fill-rule="evenodd" clip-rule="evenodd" d="M25.0631 9.21201C25.3315 8.48937 25.7935 7.68272 26.8872 7.76595C27.7094 7.82818 28.2407 8.48626 28.3021 9.29058C28.3566 10.0031 28.0252 10.5219 27.7405 10.9591C26.7511 12.4814 26.0984 12.7669 25.0623 14.3638C24.1398 12.9302 23.3689 12.3313 22.5125 11.1155C22.2317 10.7164 21.8987 10.2092 21.8575 9.63595C21.7828 8.59672 22.318 7.91297 23.2141 7.77762C23.7975 7.68972 24.2751 7.96353 24.559 8.25601C24.8087 8.51348 24.9729 8.85264 25.0615 9.21279L25.0631 9.21201Z" fill="#FF0101"/>
<path fill-rule="evenodd" clip-rule="evenodd" d="M25.0965 46.4012C24.8282 47.1239 24.3661 47.9305 23.2724 47.8473C22.4502 47.7851 21.9189 47.127 21.8575 46.3227C21.803 45.6101 22.1344 45.0913 22.4191 44.6541C23.4086 43.1318 24.0612 42.8464 25.0973 41.2494C26.0199 42.683 26.7907 43.2812 27.6472 44.4978C27.928 44.8968 28.2609 45.4048 28.3021 45.9773C28.3768 47.0157 27.8416 47.7003 26.9455 47.8356C26.3621 47.9235 25.8845 47.6497 25.6006 47.3572C25.3509 47.0998 25.1868 46.7606 25.0973 46.4004L25.0965 46.4012Z" fill="#FF0101"/>
<path fill-rule="evenodd" clip-rule="evenodd" d="M10.9603 9.21201C11.2286 8.48937 11.6907 7.68272 12.7852 7.76595C13.6074 7.82818 14.1387 8.48626 14.2001 9.29058C14.2546 10.0031 13.9232 10.5219 13.6385 10.9591C12.649 12.4814 11.9964 12.7669 10.9603 14.3638C10.0377 12.9302 9.26685 12.3313 8.41041 11.1155C8.1296 10.7164 7.79668 10.2092 7.75545 9.63595C7.68078 8.59672 8.21595 7.91297 9.11205 7.77762C9.69546 7.68972 10.1731 7.96353 10.457 8.25601C10.7067 8.51348 10.8708 8.85264 10.9595 9.21279L10.9603 9.21201Z" fill="#FF0101"/>
<path fill-rule="evenodd" clip-rule="evenodd" d="M10.9945 46.4012C10.7261 47.1239 10.2641 47.9305 9.17038 47.8473C8.34817 47.7851 7.81689 47.127 7.75544 46.3227C7.70099 45.6101 8.03236 45.0913 8.31706 44.6541C9.30651 43.1318 9.95914 42.8464 10.9953 41.2494C11.9178 42.683 12.6887 43.2812 13.5451 44.4978C13.8259 44.8968 14.1589 45.4048 14.2001 45.9773C14.2748 47.0157 13.7396 47.7003 12.8435 47.8356C12.2601 47.9235 11.7825 47.6497 11.4985 47.3572C11.2488 47.0998 11.0847 46.7606 10.996 46.4004L10.9945 46.4012Z" fill="#FF0101"/>
<path fill-rule="evenodd" clip-rule="evenodd" d="M25.0631 25.9573C25.3315 25.2346 25.7935 24.428 26.8872 24.5112C27.7094 24.5734 28.2407 25.2315 28.3021 26.035C28.3566 26.7476 28.0252 27.2664 27.7405 27.7036C26.7511 29.2259 26.0984 29.5113 25.0623 31.1083C24.1398 29.6747 23.3689 29.0757 22.5125 27.8599C22.2317 27.4609 21.8987 26.9529 21.8575 26.3804C21.7828 25.342 22.318 24.6574 23.2141 24.5221C23.7975 24.4342 24.2751 24.708 24.559 25.0005C24.8087 25.2579 24.9729 25.5971 25.0615 25.9573H25.0631Z" fill="#FF0101"/>
<path fill-rule="evenodd" clip-rule="evenodd" d="M10.9603 25.9573C11.2286 25.2346 11.6907 24.428 12.7852 24.5112C13.6074 24.5734 14.1387 25.2315 14.2001 26.035C14.2546 26.7476 13.9232 27.2664 13.6385 27.7036C12.649 29.2259 11.9964 29.5113 10.9603 31.1083C10.0377 29.6747 9.26685 29.0757 8.41041 27.8599C8.1296 27.4609 7.79668 26.9529 7.75545 26.3804C7.68078 25.342 8.21595 24.6574 9.11205 24.5221C9.69546 24.4342 10.1731 24.708 10.457 25.0005C10.7067 25.2579 10.8708 25.5971 10.9595 25.9573H10.9603Z" fill="#FF0101"/>
<path fill-rule="evenodd" clip-rule="evenodd" d="M18.0119 17.5842C18.2802 16.8616 18.7423 16.0549 19.836 16.1381C20.6582 16.2004 21.1894 16.8585 21.2509 17.662C21.3053 18.3745 20.974 18.8934 20.6893 19.3305C19.6998 20.8528 19.0472 21.1383 18.0111 22.7353C17.0885 21.3016 16.3176 20.7027 15.4612 19.4869C15.1804 19.0878 14.8475 18.5807 14.8062 18.0074C14.7316 16.9689 15.2667 16.2844 16.1629 16.1498C16.7463 16.0619 17.2239 16.3349 17.5078 16.6282C17.7575 16.8857 17.9216 17.2248 18.0103 17.585L18.0119 17.5842Z" fill="#FF0101"/>
<path fill-rule="evenodd" clip-rule="evenodd" d="M18.0458 38.0282C17.7774 38.7508 17.3154 39.5575 16.2217 39.4742C15.3995 39.412 14.8682 38.7539 14.8067 37.9504C14.7523 37.2379 15.0836 36.719 15.3683 36.2811C16.3578 34.7588 17.0104 34.4733 18.0465 32.8763C18.9691 34.31 19.74 34.9089 20.5964 36.1247C20.8772 36.5238 21.2101 37.0317 21.2514 37.6042C21.326 38.6435 20.7909 39.3272 19.8948 39.4626C19.3114 39.5505 18.8337 39.2767 18.5498 38.9842C18.3001 38.7267 18.136 38.3876 18.0473 38.0274L18.0458 38.0282Z" fill="#FF0101"/>
<path fill-rule="evenodd" clip-rule="evenodd" d="M2.89462 4.01659C3.99297 3.8579 4.93964 4.88236 4.39513 5.89203C4.34379 5.98693 4.14077 6.18062 4.04665 6.26697C4.21233 6.36809 4.41536 6.63101 4.47525 6.7228C5.14733 7.75425 4.24889 9.06419 2.97474 8.99962C1.73248 8.93662 1.07829 7.38165 1.98296 6.48088C1.9954 6.46921 2.22021 6.31364 2.19765 6.29341C2.07708 6.18918 1.87483 5.94882 1.82271 5.83758C1.42444 4.98893 2.04829 4.13794 2.89462 4.01581V4.01659ZM2.76083 5.97215C3.39323 6.23507 4.0132 5.73724 3.91286 5.14139C3.8514 4.77579 3.49279 4.47009 2.94829 4.57899C2.22487 4.72367 2.16109 5.72323 2.76083 5.97215ZM2.22486 7.95417C2.49478 8.46756 3.34733 8.61147 3.8055 8.19531C4.55381 7.51545 3.81795 6.43965 2.84095 6.64112C2.30889 6.7508 1.91216 7.3591 2.22486 7.95417Z" fill="#FF0101"/>
<path fill-rule="evenodd" clip-rule="evenodd" d="M33.1633 51.5966C32.0649 51.7545 31.1183 50.7308 31.6628 49.7212C31.7141 49.6263 31.9171 49.4326 32.0112 49.3462C31.8463 49.2451 31.6425 48.9822 31.5826 48.8912C30.9106 47.8597 31.809 46.5498 33.0832 46.6144C34.3254 46.6774 34.9796 48.2323 34.0742 49.1323C34.0625 49.144 33.8369 49.2996 33.8602 49.3198C33.9808 49.424 34.1831 49.6636 34.2352 49.7748C34.6334 50.6235 34.0096 51.4745 33.1633 51.5966ZM33.2971 49.641C32.6647 49.3781 32.0447 49.876 32.145 50.4718C32.2065 50.8374 32.5651 51.1431 33.1096 51.0342C33.8338 50.8895 33.8968 49.89 33.2971 49.641ZM33.833 47.6583C33.5631 47.1449 32.7105 47.001 32.2524 47.4171C31.5041 48.097 32.2399 49.1728 33.2169 48.9713C33.749 48.8616 34.1457 48.2533 33.833 47.6583Z" fill="#FF0101"/>
</svg>
