<svg width="37" height="55" viewBox="0 0 37 55" fill="none" xmlns="http://www.w3.org/2000/svg">
<path d="M2.71854 1.54932C2.71854 1.54932 2.72319 1.52831 2.7403 1.52753C3.6473 1.46064 4.5862 1.52753 5.49476 1.52753C14.5709 1.52753 23.7708 1.52753 32.84 1.52753C33.7408 1.52753 34.3094 1.82779 34.801 2.2984C35.2724 2.75035 35.5283 3.37264 35.5283 4.30375C35.5283 19.8044 35.5275 35.2117 35.5283 50.7706C35.5283 51.7235 35.4778 52.485 35.0655 53.0397C34.6882 53.5476 34.1173 53.9404 33.369 54.075C32.9645 54.1481 32.4627 54.0968 32.003 54.0968C22.4127 54.0968 12.8456 54.0968 3.29182 54.0968C2.38249 54.0968 1.77964 53.8183 1.30903 53.3477C1.078 53.1167 0.865638 52.8374 0.758292 52.5325C0.411362 51.5485 0.55995 49.9772 0.55995 48.633C0.55995 34.1359 0.55995 19.473 0.55995 4.89805C0.55995 3.91637 0.615175 3.20462 1.02278 2.629C1.40394 2.09071 1.91267 1.70178 2.71932 1.54932H2.71854Z" fill="#FAF8F4" stroke="black" stroke-linejoin="round"/>
<path fill-rule="evenodd" clip-rule="evenodd" d="M3.12379 10.1564C3.26381 9.76827 3.50417 9.335 4.07435 9.37934C4.50218 9.41279 4.7791 9.76594 4.81099 10.1984C4.83977 10.5811 4.66708 10.8604 4.51851 11.0945C4.35982 11.3466 4.18946 11.5395 4.00667 11.776C3.7453 12.1136 3.49794 12.4652 3.30658 12.8634C3.24202 12.998 3.19536 13.1411 3.12379 13.2757C2.87488 12.455 2.24168 11.8312 1.79596 11.1778C1.64972 10.9639 1.47627 10.6908 1.45527 10.3828C1.41637 9.82506 1.69484 9.45713 2.16156 9.38478C2.46571 9.33733 2.71385 9.48435 2.86242 9.64148C2.99233 9.77994 3.0779 9.96196 3.12457 10.1557L3.12379 10.1564Z" fill="#FF0101"/>
<path fill-rule="evenodd" clip-rule="evenodd" d="M32.9325 45.457C32.7925 45.8452 32.5522 46.2785 31.982 46.2341C31.5542 46.2007 31.2773 45.8475 31.2454 45.415C31.2166 45.0323 31.3893 44.7538 31.5378 44.5189C31.6965 44.2669 31.8669 44.0732 32.0497 43.8375C32.311 43.4999 32.5584 43.1483 32.7505 42.75C32.8151 42.6155 32.8618 42.4723 32.9333 42.3378C33.1823 43.1584 33.8154 43.7823 34.2611 44.4357C34.4074 44.6496 34.5809 44.9226 34.6019 45.2307C34.6408 45.7884 34.3615 46.1563 33.8956 46.2287C33.5922 46.2761 33.3433 46.1291 33.1955 45.972C33.0656 45.8335 32.98 45.6515 32.9333 45.4578L32.9325 45.457Z" fill="#FF0101"/>
<path fill-rule="evenodd" clip-rule="evenodd" d="M25.0623 9.21213C25.3307 8.48949 25.7928 7.68284 26.8872 7.76607C27.7094 7.8283 28.2407 8.48638 28.3022 9.2907C28.3566 10.0032 28.0252 10.5221 27.7405 10.9592C26.7511 12.4815 26.0985 12.767 25.0623 14.364C24.1398 12.9304 23.3689 12.3322 22.5125 11.1156C22.2317 10.7165 21.8987 10.2094 21.8575 9.63607C21.7828 8.59762 22.318 7.91309 23.2141 7.77774C23.7975 7.68984 24.2751 7.96365 24.559 8.25613C24.8087 8.51361 24.9729 8.85276 25.0616 9.21291L25.0623 9.21213Z" fill="#FF0101"/>
<path fill-rule="evenodd" clip-rule="evenodd" d="M25.0964 46.4013C24.828 47.124 24.3659 47.9306 23.2715 47.8474C22.4493 47.7852 21.918 47.1271 21.8565 46.3228C21.8021 45.6103 22.1334 45.0914 22.4182 44.6542C23.4076 43.132 24.0602 42.8465 25.0964 41.2495C26.0189 42.6831 26.7898 43.2813 27.6462 44.4979C27.927 44.8969 28.2599 45.4049 28.3012 45.9774C28.3759 47.0159 27.8407 47.7004 26.9446 47.8357C26.3612 47.9236 25.8836 47.6498 25.5996 47.3573C25.3499 47.0999 25.1858 46.7607 25.0971 46.4006L25.0964 46.4013Z" fill="#FF0101"/>
<path fill-rule="evenodd" clip-rule="evenodd" d="M10.9601 9.21213C11.2284 8.48949 11.6905 7.68284 12.7842 7.76607C13.6064 7.8283 14.1377 8.48638 14.1991 9.2907C14.2536 10.0032 13.9222 10.5221 13.6375 10.9592C12.648 12.4815 11.9954 12.767 10.9593 14.364C10.0367 12.9304 9.26587 12.3322 8.40944 11.1156C8.12862 10.7165 7.7957 10.2094 7.75447 9.63607C7.6798 8.59762 8.21497 7.91309 9.11108 7.77774C9.69448 7.68984 10.1721 7.96365 10.456 8.25613C10.7057 8.51361 10.8698 8.85276 10.9585 9.21291L10.9601 9.21213Z" fill="#FF0101"/>
<path fill-rule="evenodd" clip-rule="evenodd" d="M10.9933 46.4013C10.7249 47.124 10.2629 47.9306 9.16843 47.8474C8.34622 47.7852 7.81494 47.1271 7.75348 46.3228C7.69903 45.6103 8.0304 45.0914 8.3151 44.6542C9.30456 43.132 9.95718 42.8465 10.9933 41.2495C11.9159 42.6831 12.6867 43.2813 13.5432 44.4979C13.824 44.8969 14.1569 45.4049 14.1981 45.9774C14.2728 47.0159 13.7376 47.7004 12.8415 47.8357C12.2581 47.9236 11.7805 47.6498 11.4966 47.3573C11.2469 47.0999 11.0828 46.7607 10.9941 46.4006L10.9933 46.4013Z" fill="#FF0101"/>
<path fill-rule="evenodd" clip-rule="evenodd" d="M18.0108 25.9574C18.2791 25.2347 18.7412 24.4281 19.8356 24.5113C20.6579 24.5735 21.1892 25.2316 21.2506 26.0352C21.3051 26.7477 20.9737 27.2665 20.689 27.7037C19.6995 29.226 19.0469 29.5115 18.0108 31.1084C17.0882 29.6748 16.3173 29.0759 15.4617 27.86C15.1809 27.461 14.8479 26.9538 14.8067 26.3805C14.732 25.3421 15.2672 24.6576 16.1633 24.5222C16.7467 24.4343 17.2243 24.7081 17.5083 25.0006C17.758 25.2581 17.9221 25.5972 18.0108 25.9574Z" fill="#FF0101"/>
<path fill-rule="evenodd" clip-rule="evenodd" d="M10.9601 20.3606C11.2284 19.6379 11.6905 18.8313 12.7842 18.9145C13.6064 18.9767 14.1377 19.6348 14.1991 20.4391C14.2536 21.1517 13.9222 21.6705 13.6375 22.1084C12.648 23.6307 11.9954 23.9162 10.9593 25.5124C10.0367 24.0788 9.26587 23.4798 8.40944 22.264C8.12862 21.865 7.7957 21.3578 7.75447 20.7845C7.6798 19.7461 8.21497 19.0615 9.11108 18.9262C9.69448 18.8383 10.1721 19.1121 10.456 19.4046C10.7057 19.662 10.8698 20.0012 10.9585 20.3614L10.9601 20.3606Z" fill="#FF0101"/>
<path fill-rule="evenodd" clip-rule="evenodd" d="M10.9933 35.2521C10.7249 35.9748 10.2629 36.7814 9.16843 36.6982C8.34622 36.636 7.81494 35.9779 7.75348 35.1736C7.69903 34.461 8.0304 33.9422 8.3151 33.505C9.30456 31.9827 9.95718 31.6973 10.9933 30.1011C11.9159 31.5347 12.6867 32.1337 13.5432 33.3495C13.824 33.7485 14.1569 34.2565 14.1981 34.829C14.2728 35.8682 13.7376 36.552 12.8415 36.6873C12.2581 36.7752 11.7805 36.5014 11.4966 36.2089C11.2469 35.9514 11.0828 35.6123 10.9941 35.2521H10.9933Z" fill="#FF0101"/>
<path fill-rule="evenodd" clip-rule="evenodd" d="M25.0623 20.3606C25.3307 19.6379 25.7928 18.8313 26.8872 18.9145C27.7094 18.9767 28.2407 19.6348 28.3022 20.4391C28.3566 21.1517 28.0252 21.6705 27.7405 22.1084C26.7511 23.6307 26.0985 23.9162 25.0623 25.5124C24.1398 24.0788 23.3689 23.4798 22.5125 22.264C22.2317 21.865 21.8987 21.3578 21.8575 20.7845C21.7828 19.7461 22.318 19.0615 23.2141 18.9262C23.7975 18.8383 24.2751 19.1121 24.559 19.4046C24.8087 19.662 24.9729 20.0012 25.0616 20.3614L25.0623 20.3606Z" fill="#FF0101"/>
<path fill-rule="evenodd" clip-rule="evenodd" d="M25.0964 35.2521C24.828 35.9748 24.3659 36.7814 23.2715 36.6982C22.4493 36.636 21.918 35.9779 21.8565 35.1736C21.8021 34.461 22.1334 33.9422 22.4182 33.505C23.4076 31.9827 24.0602 31.6973 25.0964 30.1011C26.0189 31.5347 26.7898 32.1337 27.6462 33.3495C27.927 33.7485 28.2599 34.2565 28.3012 34.829C28.3759 35.8682 27.8407 36.552 26.9446 36.6873C26.3612 36.7752 25.8836 36.5014 25.5996 36.2089C25.3499 35.9514 25.1858 35.6123 25.0971 35.2521H25.0964Z" fill="#FF0101"/>
<path fill-rule="evenodd" clip-rule="evenodd" d="M1.80231 8.11217C1.91277 8.05383 2.11112 7.95971 2.28225 7.87726C2.38415 8.00327 2.54439 8.31598 2.80575 8.37587C3.61552 8.56256 3.86132 7.81192 3.96789 7.13439C3.69097 7.29541 3.56184 7.34208 3.30748 7.37242C2.13211 7.51321 1.43125 6.31529 1.67005 5.18038C1.8933 4.11781 3.31371 3.56474 4.09936 4.41496C4.21449 4.53942 4.38717 4.83034 4.4424 4.99603C4.96668 6.5541 4.49139 9.72626 2.48838 8.85115C2.21145 8.67846 2.10568 8.55478 1.80153 8.11217H1.80231ZM2.8851 6.76568C3.37593 6.93292 3.87454 6.62177 3.96789 6.21106C4.10324 5.61677 3.81621 4.77433 3.41327 4.60009C3.25303 4.53086 3.0469 4.55808 2.96444 4.57364C2.00066 4.75644 2.05589 6.48254 2.8851 6.76568Z" fill="#FF0101"/>
<path fill-rule="evenodd" clip-rule="evenodd" d="M34.2532 47.5005C34.1427 47.5588 33.9444 47.6529 33.7733 47.7354C33.6714 47.6094 33.5111 47.2967 33.2498 47.2368C32.4392 47.0501 32.1942 47.8007 32.0876 48.4783C32.3645 48.3173 32.4937 48.2714 32.7481 48.241C33.9234 48.1002 34.6243 49.2981 34.3855 50.4331C34.1622 51.4956 32.7418 52.0487 31.9562 51.1993C31.841 51.0748 31.6683 50.7839 31.6131 50.6182C31.0888 49.0601 31.5641 45.888 33.5671 46.7631C33.8441 46.9358 33.9499 47.0594 34.254 47.502L34.2532 47.5005ZM33.1704 48.847C32.6796 48.6797 32.181 48.9909 32.0876 49.4016C31.9523 49.9959 32.2393 50.8383 32.6422 51.0126C32.8025 51.0818 33.0086 51.0546 33.0911 51.039C34.0549 50.8562 33.9996 49.1293 33.1704 48.847Z" fill="#FF0101"/>
</svg>
