<svg width="37" height="55" viewBox="0 0 37 55" fill="none" xmlns="http://www.w3.org/2000/svg">
<path d="M2.70877 1.05151C2.70877 1.05151 2.71342 1.03051 2.73054 1.02973C3.63753 0.962835 4.57644 1.02973 5.48499 1.02973C14.5612 1.02973 23.761 1.02973 32.8302 1.02973C33.7302 1.02973 34.2996 1.32998 34.7912 1.80059C35.2626 2.25176 35.5186 2.87483 35.5186 3.80595C35.5186 19.3066 35.5186 34.7138 35.5186 50.2728C35.5186 51.2257 35.468 51.9872 35.0557 52.5418C34.6784 53.049 34.1083 53.4426 33.3592 53.5772C32.9547 53.6503 32.4529 53.599 31.9932 53.599C22.4029 53.599 12.8358 53.599 3.28204 53.599C2.37271 53.599 1.76988 53.3205 1.29926 52.8499C1.06824 52.6188 0.855872 52.3396 0.748526 52.0347C0.401596 51.0507 0.550185 49.4794 0.550185 48.1352C0.550185 33.638 0.550185 18.9752 0.550185 4.40024C0.550185 3.41857 0.605391 2.70681 1.01299 2.13041C1.39415 1.59212 1.90288 1.20319 2.70953 1.05073L2.70877 1.05151Z" fill="#FAF8F4" stroke="black" stroke-linejoin="round"/>
<path fill-rule="evenodd" clip-rule="evenodd" d="M2.70822 12.7455C2.8529 12.4873 3.02948 11.9186 2.96102 11.8961C2.90268 11.8766 2.80001 12.0291 2.76656 12.0579C2.59387 12.2072 2.37841 12.3153 2.05949 12.2912C1.57021 12.2539 1.22717 11.8339 1.2295 11.3181C1.23028 11.0568 1.32596 10.8265 1.48231 10.6694C1.62311 10.5286 1.86891 10.3956 2.13727 10.3971C2.20417 10.3971 2.27417 10.4345 2.33873 10.3971C2.34106 10.2999 2.27183 10.2377 2.24149 10.1638C1.99413 9.56247 2.43439 8.97285 2.98746 8.91217C3.60742 8.84372 4.11617 9.26532 4.06406 9.91095C4.0555 10.0136 4.02439 10.0976 3.9925 10.1708C3.96139 10.2423 3.90535 10.3053 3.90146 10.3979C3.97847 10.4352 4.03372 10.3979 4.10295 10.3979C4.50978 10.3948 4.84037 10.6702 4.95238 10.9751C5.17952 11.5904 4.77345 12.243 4.19316 12.292C3.84234 12.3216 3.60821 12.1831 3.42775 12.0128C3.37641 11.9638 3.32507 11.8774 3.2784 11.8961C3.21306 11.9217 3.34684 12.4888 3.51875 12.7525C3.23094 12.7525 3.00381 12.7463 2.70822 12.7463V12.7455Z" fill="black"/>
<path fill-rule="evenodd" clip-rule="evenodd" d="M33.3282 41.872C33.1836 42.1302 33.007 42.6989 33.0754 42.7214C33.1338 42.7409 33.2364 42.5884 33.2699 42.5596C33.4426 42.4103 33.658 42.3021 33.977 42.3263C34.4662 42.3636 34.8093 42.7837 34.8069 43.2994C34.8062 43.5607 34.7105 43.791 34.5541 43.9481C34.4133 44.0889 34.1675 44.2219 33.8992 44.2204C33.8323 44.2204 33.7623 44.183 33.6985 44.2204C33.6962 44.3176 33.7654 44.3798 33.7957 44.4537C34.0439 45.055 33.6028 45.6447 33.0498 45.7053C32.4298 45.7738 31.9211 45.3522 31.9732 44.7066C31.9817 44.6039 32.0129 44.5199 32.0448 44.4467C32.0759 44.3752 32.1319 44.3122 32.1358 44.2196C32.0587 44.1823 32.0035 44.2196 31.9343 44.2196C31.5275 44.2227 31.1969 43.9473 31.0841 43.6424C30.8569 43.0271 31.263 42.3745 31.8433 42.3255C32.1941 42.2959 32.429 42.4344 32.6087 42.6047C32.6608 42.6538 32.7114 42.7401 32.7581 42.7214C32.8234 42.6958 32.6896 42.1287 32.5177 41.865C32.8055 41.865 33.0326 41.8712 33.3282 41.8712V41.872Z" fill="black"/>
<path fill-rule="evenodd" clip-rule="evenodd" d="M24.3601 14.1846C24.6067 13.7435 24.7203 13.2317 24.8035 12.5767C24.8253 12.404 24.9101 12.0835 24.7926 12.0446C24.6931 12.012 24.518 12.2718 24.4597 12.3216C24.1649 12.5759 23.7962 12.7618 23.2509 12.7206C22.4147 12.6576 21.8282 11.9388 21.8321 11.0575C21.8336 10.611 21.9962 10.2166 22.2646 9.94905C22.5057 9.70791 22.925 9.48078 23.3847 9.48311C23.499 9.48311 23.618 9.54767 23.7285 9.48311C23.7316 9.31742 23.6141 9.21086 23.562 9.08406C23.1389 8.0565 23.8911 7.04915 24.837 6.94414C25.8964 6.82668 26.7653 7.54777 26.6774 8.65157C26.6634 8.82737 26.6089 8.97049 26.5553 9.09495C26.5024 9.21786 26.4067 9.32442 26.3997 9.48311C26.5319 9.54767 26.6253 9.48389 26.7435 9.48311C27.4397 9.47844 28.0037 9.94828 28.1958 10.4702C28.584 11.5219 27.8901 12.6374 26.8983 12.7206C26.2986 12.7712 25.898 12.5347 25.5899 12.2438C25.5013 12.1605 25.4149 12.0127 25.3348 12.0446C25.2235 12.0882 25.3021 12.4787 25.3239 12.621C25.4033 13.1508 25.46 13.5444 25.6568 13.9738C25.6903 14.0469 25.7945 14.1527 25.7455 14.1955C25.306 14.1698 24.8175 14.1916 24.3593 14.1846H24.3601Z" fill="black"/>
<path fill-rule="evenodd" clip-rule="evenodd" d="M25.7783 40.433C25.5318 40.8741 25.4182 41.3859 25.3349 42.0409C25.3132 42.2136 25.2284 42.5348 25.3458 42.5729C25.4454 42.6056 25.6212 42.3458 25.6788 42.296C25.9736 42.0409 26.3431 41.8557 26.8876 41.897C27.7238 41.9608 28.3103 42.6787 28.3072 43.5601C28.3056 44.0066 28.1431 44.4009 27.8747 44.6685C27.6336 44.9097 27.2143 45.1368 26.7545 45.1345C26.6402 45.1345 26.5212 45.0699 26.4107 45.1345C26.4076 45.3001 26.5251 45.4067 26.5772 45.5335C27.0004 46.5611 26.2474 47.5684 25.3023 47.6734C24.2428 47.7909 23.374 47.0698 23.4619 45.966C23.4759 45.7902 23.5303 45.6479 23.584 45.5226C23.6369 45.3997 23.7325 45.2931 23.7395 45.1345C23.6073 45.0699 23.514 45.1345 23.3957 45.1345C22.6995 45.1391 22.1356 44.6693 21.9435 44.1473C21.5553 43.0957 22.2491 41.9802 23.2409 41.897C23.8407 41.8464 24.2413 42.0829 24.5493 42.3738C24.638 42.457 24.7243 42.6048 24.8044 42.5729C24.9157 42.5286 24.8371 42.1389 24.8153 41.9965C24.736 41.4676 24.6792 41.0732 24.4824 40.6438C24.4489 40.5707 24.3447 40.4649 24.3937 40.4221C24.8332 40.4478 25.3217 40.426 25.7799 40.433H25.7783Z" fill="black"/>
<path fill-rule="evenodd" clip-rule="evenodd" d="M10.2583 14.1846C10.5049 13.7435 10.6185 13.2317 10.7017 12.5767C10.7235 12.404 10.8083 12.0835 10.6908 12.0446C10.5913 12.012 10.4162 12.2718 10.3579 12.3216C10.0631 12.5759 9.69363 12.7618 9.14912 12.7206C8.31291 12.6576 7.72639 11.9388 7.7295 11.0575C7.73106 10.611 7.8936 10.2166 8.16197 9.94905C8.40311 9.70791 8.82241 9.48078 9.28213 9.48311C9.39648 9.48311 9.51548 9.54767 9.62594 9.48311C9.62905 9.31742 9.51158 9.21086 9.45947 9.08406C9.03631 8.0565 9.7893 7.04915 10.7344 6.94414C11.7939 6.82668 12.6627 7.54777 12.5748 8.65157C12.5608 8.82737 12.5072 8.97049 12.4527 9.09495C12.3998 9.21786 12.3042 9.32442 12.2979 9.48311C12.4302 9.54767 12.5235 9.48389 12.6417 9.48311C13.3379 9.47844 13.9019 9.94828 14.094 10.4702C14.483 11.5219 13.7883 12.6374 12.7965 12.7206C12.1968 12.7712 11.7962 12.5347 11.4882 12.2438C11.3995 12.1605 11.3131 12.0127 11.233 12.0446C11.1218 12.0882 11.2004 12.4787 11.2221 12.621C11.3015 13.1508 11.3582 13.5444 11.555 13.9738C11.5885 14.0469 11.6927 14.1527 11.6437 14.1955C11.2042 14.1698 10.7157 14.1916 10.2576 14.1846H10.2583Z" fill="black"/>
<path fill-rule="evenodd" clip-rule="evenodd" d="M17.3087 19.7588C17.5553 19.3177 17.6688 18.8059 17.752 18.1509C17.7738 17.9782 17.8586 17.657 17.7412 17.6189C17.6416 17.5862 17.4658 17.846 17.4082 17.8958C17.1134 18.1509 16.7447 18.3361 16.1994 18.2948C15.3632 18.2318 14.7767 17.5131 14.7798 16.6317C14.7814 16.1852 14.9439 15.7909 15.2123 15.5233C15.4534 15.2821 15.8727 15.055 16.3324 15.0573C16.4468 15.0573 16.5658 15.1219 16.6762 15.0573C16.6793 14.8916 16.5619 14.7851 16.5098 14.6583C16.0866 13.6307 16.8396 12.6234 17.7847 12.5184C18.8442 12.4009 19.7131 13.122 19.6252 14.2258C19.6112 14.4016 19.5567 14.5439 19.503 14.6692C19.4501 14.7921 19.3537 14.8986 19.3475 15.0573C19.4797 15.1219 19.573 15.0573 19.6913 15.0573C20.3875 15.0527 20.9514 15.5225 21.1436 16.0437C21.5317 17.0954 20.8378 18.2108 19.8461 18.294C19.2463 18.3446 18.8457 18.1081 18.5377 17.8172C18.449 17.734 18.3627 17.5862 18.2826 17.6181C18.1713 17.6624 18.2499 18.0521 18.2717 18.1945C18.351 18.7234 18.4078 19.1178 18.6046 19.5472C18.638 19.6203 18.7423 19.7261 18.6933 19.7689C18.2538 19.7432 17.7653 19.765 17.3071 19.758L17.3087 19.7588Z" fill="black"/>
<path fill-rule="evenodd" clip-rule="evenodd" d="M11.6764 40.433C11.4298 40.8741 11.3162 41.3859 11.233 42.0409C11.2112 42.2136 11.1264 42.5348 11.2439 42.5729C11.3435 42.6056 11.5185 42.3458 11.5768 42.296C11.8717 42.0409 12.2404 41.8557 12.7857 41.897C13.6219 41.9608 14.2084 42.6787 14.2045 43.5601C14.2029 44.0066 14.0403 44.4009 13.772 44.6685C13.5308 44.9097 13.1116 45.1368 12.6519 45.1345C12.5375 45.1345 12.4185 45.0699 12.308 45.1345C12.3049 45.3001 12.4224 45.4067 12.4745 45.5335C12.8977 46.5611 12.1447 47.5684 11.1996 47.6734C10.1401 47.7909 9.27122 47.0698 9.35912 45.966C9.37312 45.7902 9.42756 45.6479 9.48123 45.5226C9.53413 45.3997 9.62981 45.2931 9.63681 45.1345C9.50457 45.0699 9.41045 45.1345 9.29299 45.1345C8.5968 45.1391 8.03285 44.6693 7.84072 44.1473C7.45178 43.0957 8.14643 41.9802 9.13822 41.897C9.73796 41.8464 10.1385 42.0829 10.4466 42.3738C10.5353 42.457 10.6216 42.6048 10.7017 42.5729C10.813 42.5286 10.7344 42.1389 10.7126 41.9965C10.6333 41.4676 10.5765 41.0732 10.3797 40.6438C10.3462 40.5707 10.242 40.4649 10.291 40.4221C10.7313 40.4478 11.219 40.426 11.6772 40.433H11.6764Z" fill="black"/>
<path fill-rule="evenodd" clip-rule="evenodd" d="M11.6764 29.2846C11.4298 29.7256 11.3162 30.2375 11.233 30.8924C11.2112 31.0651 11.1264 31.3856 11.2439 31.4245C11.3435 31.4572 11.5185 31.1974 11.5768 31.1476C11.8717 30.8924 12.2404 30.7073 12.7857 30.7485C13.6219 30.8115 14.2084 31.5303 14.2045 32.4116C14.2029 32.8581 14.0403 33.2525 13.772 33.5201C13.5308 33.7612 13.1116 33.9883 12.6519 33.986C12.5375 33.986 12.4185 33.9215 12.308 33.986C12.3049 34.1517 12.4224 34.2583 12.4745 34.3851C12.8977 35.4126 12.1447 36.42 11.1996 36.525C10.1401 36.6424 9.27122 35.9214 9.35912 34.8176C9.37312 34.6418 9.42756 34.4994 9.48123 34.3742C9.53413 34.2513 9.62981 34.1447 9.63681 33.986C9.50457 33.9215 9.41045 33.986 9.29299 33.986C8.5968 33.9907 8.03285 33.5209 7.84072 32.9989C7.45178 31.9472 8.14643 30.8318 9.13822 30.7485C9.73796 30.698 10.1385 30.9344 10.4466 31.2254C10.5353 31.3086 10.6216 31.4564 10.7017 31.4245C10.813 31.3809 10.7344 30.9904 10.7126 30.8481C10.6333 30.3191 10.5765 29.9248 10.3797 29.4954C10.3462 29.4223 10.242 29.3165 10.291 29.2737C10.7313 29.2994 11.219 29.2776 11.6772 29.2846H11.6764Z" fill="black"/>
<path fill-rule="evenodd" clip-rule="evenodd" d="M10.2583 25.333C10.5049 24.8919 10.6185 24.3801 10.7017 23.7251C10.7235 23.5525 10.8083 23.232 10.6908 23.1931C10.5913 23.1604 10.4162 23.4202 10.3579 23.47C10.0631 23.7244 9.69363 23.9103 9.14912 23.869C8.31291 23.806 7.72639 23.0873 7.7295 22.206C7.73106 21.7595 7.8936 21.3651 8.16197 21.0975C8.40311 20.8564 8.82241 20.6292 9.28213 20.6315C9.39648 20.6315 9.51548 20.6961 9.62594 20.6315C9.62905 20.4659 9.51158 20.3593 9.45947 20.2325C9.03631 19.2049 9.7893 18.1976 10.7344 18.0926C11.7939 17.9751 12.6627 18.6962 12.5748 19.8C12.5608 19.9758 12.5072 20.1189 12.4527 20.2434C12.3998 20.3663 12.3042 20.4729 12.2979 20.6315C12.4302 20.6961 12.5235 20.6323 12.6417 20.6315C13.3379 20.6269 13.9019 21.0967 14.094 21.6187C14.483 22.6703 13.7883 23.7858 12.7965 23.869C12.1968 23.9196 11.7962 23.6831 11.4882 23.3922C11.3995 23.309 11.3131 23.1612 11.233 23.1931C11.1218 23.2374 11.2004 23.6271 11.2221 23.7695C11.3015 24.2984 11.3582 24.6928 11.555 25.1222C11.5885 25.1953 11.6927 25.3011 11.6437 25.3439C11.2042 25.3182 10.7157 25.34 10.2576 25.333H10.2583Z" fill="black"/>
<path fill-rule="evenodd" clip-rule="evenodd" d="M25.7783 29.2846C25.5318 29.7256 25.4182 30.2375 25.3349 30.8924C25.3132 31.0651 25.2284 31.3856 25.3458 31.4245C25.4454 31.4572 25.6212 31.1974 25.6788 31.1476C25.9736 30.8924 26.3431 30.7073 26.8876 30.7485C27.7238 30.8115 28.3103 31.5303 28.3072 32.4116C28.3056 32.8581 28.1431 33.2525 27.8747 33.5201C27.6336 33.7612 27.2143 33.9883 26.7545 33.986C26.6402 33.986 26.5212 33.9215 26.4107 33.986C26.4076 34.1517 26.5251 34.2583 26.5772 34.3851C27.0004 35.4126 26.2474 36.42 25.3023 36.525C24.2428 36.6424 23.374 35.9214 23.4619 34.8176C23.4759 34.6418 23.5303 34.4994 23.584 34.3742C23.6369 34.2513 23.7325 34.1447 23.7395 33.986C23.6073 33.9215 23.514 33.986 23.3957 33.986C22.6995 33.9907 22.1356 33.5209 21.9435 32.9989C21.5553 31.9472 22.2491 30.8318 23.2409 30.7485C23.8407 30.698 24.2413 30.9344 24.5493 31.2254C24.638 31.3086 24.7243 31.4564 24.8044 31.4245C24.9157 31.3809 24.8371 30.9904 24.8153 30.8481C24.736 30.3191 24.6792 29.9248 24.4824 29.4954C24.4489 29.4223 24.3447 29.3165 24.3937 29.2737C24.8332 29.2994 25.3217 29.2776 25.7799 29.2846H25.7783Z" fill="black"/>
<path fill-rule="evenodd" clip-rule="evenodd" d="M24.3601 25.333C24.6067 24.8919 24.7203 24.3801 24.8035 23.7251C24.8253 23.5525 24.9101 23.232 24.7926 23.1931C24.6931 23.1604 24.518 23.4202 24.4597 23.47C24.1649 23.7244 23.7962 23.9103 23.2509 23.869C22.4147 23.806 21.8282 23.0873 21.8321 22.206C21.8336 21.7595 21.9962 21.3651 22.2646 21.0975C22.5057 20.8564 22.925 20.6292 23.3847 20.6315C23.499 20.6315 23.618 20.6961 23.7285 20.6315C23.7316 20.4659 23.6141 20.3593 23.562 20.2325C23.1389 19.2049 23.8911 18.1976 24.837 18.0926C25.8964 17.9751 26.7653 18.6962 26.6774 19.8C26.6634 19.9758 26.6089 20.1189 26.5553 20.2434C26.5024 20.3663 26.4067 20.4729 26.3997 20.6315C26.5319 20.6961 26.6253 20.6323 26.7435 20.6315C27.4397 20.6269 28.0037 21.0967 28.1958 21.6187C28.584 22.6703 27.8901 23.7858 26.8983 23.869C26.2986 23.9196 25.898 23.6831 25.5899 23.3922C25.5013 23.309 25.4149 23.1612 25.3348 23.1931C25.2235 23.2374 25.3021 23.6271 25.3239 23.7695C25.4033 24.2984 25.46 24.6928 25.6568 25.1222C25.6903 25.1953 25.7945 25.3011 25.7455 25.3439C25.306 25.3182 24.8175 25.34 24.3593 25.333H24.3601Z" fill="black"/>
<path fill-rule="evenodd" clip-rule="evenodd" d="M18.727 34.8588C18.4804 35.2998 18.3668 35.8117 18.2836 36.4666C18.2618 36.6393 18.177 36.9606 18.2945 36.9987C18.394 37.0314 18.569 36.7716 18.6274 36.7218C18.9222 36.4674 19.2917 36.2815 19.8362 36.3227C20.6724 36.3865 21.2589 37.1045 21.2558 37.9858C21.2543 38.4323 21.0917 38.8267 20.8233 39.0943C20.5822 39.3354 20.1629 39.5626 19.7032 39.5602C19.5888 39.5602 19.4698 39.4957 19.3594 39.5602C19.3563 39.7259 19.4737 39.8325 19.5259 39.9593C19.949 40.9868 19.196 41.9942 18.2509 42.0992C17.1915 42.2167 16.3226 41.4956 16.4105 40.3918C16.4245 40.216 16.4789 40.0736 16.5326 39.9484C16.5855 39.8255 16.6812 39.7189 16.6882 39.5602C16.5559 39.4957 16.4618 39.5595 16.3444 39.5602C15.6482 39.5649 15.0842 39.0951 14.8921 38.5731C14.5031 37.5214 15.197 36.406 16.1896 36.3227C16.7893 36.2722 17.1899 36.5087 17.4979 36.7996C17.5866 36.8828 17.673 37.0306 17.7531 36.9987C17.8643 36.9544 17.7858 36.5647 17.764 36.4223C17.6846 35.8934 17.6278 35.499 17.431 35.0696C17.3976 34.9965 17.2933 34.8907 17.3423 34.8479C17.7818 34.8736 18.2704 34.8518 18.7285 34.8588H18.727Z" fill="black"/>
<path fill-rule="evenodd" clip-rule="evenodd" d="M3.50456 3.50856C3.98995 3.46577 4.46444 3.65713 4.63479 4.07329C4.8067 4.49567 4.71569 5.48512 4.71569 6.06386C4.71569 6.6846 4.78415 7.60715 4.60835 7.97353C4.26376 8.69306 2.98261 8.66739 2.64423 7.97353C2.44199 7.5597 2.5369 6.54458 2.5369 5.82194C2.5369 4.55168 2.37585 3.60812 3.50532 3.50856H3.50456ZM3.26262 4.15418C3.07282 4.33698 3.14284 4.39065 3.14673 4.60068C3.16229 5.47967 3.16385 6.82462 3.15452 7.65149C3.23308 8.01165 3.93859 8.04898 4.06928 7.70516V4.26153C3.92459 4.02895 3.44855 3.97527 3.26186 4.15418H3.26262Z" fill="black"/>
<path d="M2.11054 3.52405H1.50537V8.48764H2.11054V3.52405Z" fill="black"/>
<path fill-rule="evenodd" clip-rule="evenodd" d="M32.5318 51.1093C32.0472 51.1521 31.5719 50.9607 31.4023 50.5446C31.2304 50.1222 31.3214 49.1327 31.3214 48.554C31.3214 47.9333 31.2538 47.0107 31.4288 46.6443C31.7734 45.9248 33.0546 45.9505 33.3929 46.6443C33.5944 47.0589 33.5003 48.0733 33.5003 48.7967C33.5003 50.067 33.6613 51.0105 32.5318 51.1101V51.1093ZM32.7737 50.4637C32.9635 50.2809 32.8935 50.2272 32.8896 50.0172C32.8741 49.1382 32.8725 47.7932 32.8818 46.9664C32.8033 46.6062 32.0978 46.5689 31.9671 46.9127V50.3555C32.1118 50.5881 32.5878 50.6418 32.7745 50.4629L32.7737 50.4637Z" fill="black"/>
<path d="M34.531 46.1295H33.9258V51.0931H34.531V46.1295Z" fill="black"/>
</svg>
