<svg width="37" height="55" viewBox="0 0 37 55" fill="none" xmlns="http://www.w3.org/2000/svg">
<path d="M2.7095 1.0515C2.7095 1.0515 2.71416 1.03051 2.73128 1.02973C3.63825 0.962836 4.57712 1.02973 5.48565 1.02973C14.5616 1.02973 23.7613 1.02973 32.8303 1.02973C33.7303 1.02973 34.2997 1.32998 34.7913 1.80058C35.2626 2.25251 35.5186 2.87479 35.5186 3.80588C35.5186 19.3062 35.5186 34.7131 35.5186 50.2717C35.5186 51.2246 35.468 51.9861 35.0557 52.5407C34.6785 53.0479 34.1083 53.4415 33.3592 53.576C32.9548 53.6491 32.453 53.5978 31.9933 53.5978C22.4032 53.5978 12.8364 53.5978 3.28277 53.5978C2.37346 53.5978 1.77063 53.3193 1.29925 52.8487C1.06823 52.6177 0.855873 52.3385 0.74853 52.0335C0.401607 51.0496 0.550177 49.4783 0.550177 48.1342C0.550177 33.6373 0.550177 18.9748 0.550177 4.40016C0.550177 3.41851 0.605405 2.70678 1.013 2.13116C1.39415 1.59211 1.90286 1.20396 2.7095 1.0515Z" fill="#FAF8F4" stroke="black" stroke-linejoin="round"/>
<path d="M4.48624 7.96266L3.50537 3.50244H2.74307L1.7622 7.96266H1.40283V8.50326H2.70885V7.96266H2.37126L2.51672 7.29603H3.73095L3.8764 7.96266H3.53882V8.50326H4.84639V7.96266H4.48702H4.48624ZM2.6474 6.69475L3.12344 4.51055L3.59949 6.69475H2.6474Z" fill="black"/>
<path fill-rule="evenodd" clip-rule="evenodd" d="M2.70869 12.7449C2.85337 12.4867 3.02994 11.9181 2.96149 11.8955C2.90315 11.8769 2.80048 12.0285 2.76703 12.0573C2.59435 12.2067 2.37888 12.3148 2.05996 12.2907C1.57069 12.2533 1.22766 11.8333 1.22999 11.3176C1.23077 11.0562 1.32645 10.826 1.48279 10.6689C1.62359 10.5281 1.86939 10.395 2.13775 10.3966C2.20464 10.3966 2.27465 10.4339 2.33921 10.3966C2.34077 10.2994 2.27232 10.2371 2.24198 10.1632C1.99462 9.56197 2.43489 8.97313 2.98794 8.91168C3.60789 8.84323 4.1166 9.26483 4.06449 9.91044C4.05593 10.0131 4.02482 10.0971 3.99293 10.1703C3.96181 10.2418 3.90581 10.3048 3.90192 10.3974C3.97892 10.4347 4.03415 10.3974 4.10338 10.3974C4.5102 10.3943 4.84079 10.6696 4.95357 10.9746C5.18071 11.5898 4.77467 12.2424 4.19439 12.2915C3.84358 12.321 3.60944 12.1826 3.42898 12.0122C3.37764 11.9632 3.32631 11.8769 3.27963 11.8955C3.2143 11.9212 3.34809 12.4883 3.51999 12.7519C3.23219 12.7519 3.00505 12.7457 2.70947 12.7457L2.70869 12.7449Z" fill="black"/>
<path d="M31.5514 46.6516L32.5322 51.1118H33.2953L34.2762 46.6516H34.6355V46.111H33.328V46.6516H33.6656L33.5201 47.319H32.3059L32.1604 46.6516H32.498V46.111H31.1904V46.6516H31.5498H31.5514ZM33.3902 47.9195L32.9142 50.1045L32.4381 47.9195H33.3902Z" fill="black"/>
<path fill-rule="evenodd" clip-rule="evenodd" d="M33.3289 41.8709C33.1842 42.1284 33.0068 42.6978 33.0761 42.7203C33.1344 42.7398 33.2371 42.5873 33.2705 42.5585C33.4432 42.4092 33.6587 42.301 33.9776 42.3252C34.4669 42.3625 34.8099 42.7825 34.8076 43.2982C34.8068 43.5596 34.7111 43.7899 34.5548 43.947C34.414 44.0878 34.1682 44.2208 33.8998 44.2192C33.8329 44.2192 33.7629 44.1819 33.6991 44.2192C33.6976 44.3165 33.766 44.3787 33.7964 44.4526C34.0445 45.0539 33.6034 45.6435 33.0504 45.7042C32.4304 45.7726 31.9217 45.351 31.9738 44.7054C31.9824 44.6027 32.0135 44.5187 32.0454 44.4464C32.0765 44.3748 32.1325 44.3118 32.1364 44.2192C32.0594 44.1819 32.0042 44.2192 31.9357 44.2192C31.5289 44.2223 31.1983 43.947 31.0855 43.6421C30.8584 43.0268 31.2644 42.3742 31.8447 42.3252C32.1955 42.2956 32.4304 42.4341 32.6101 42.6036C32.6622 42.6526 32.7128 42.739 32.7595 42.7203C32.8248 42.6946 32.691 42.1276 32.5191 41.8639C32.8069 41.8639 33.0341 41.8701 33.3296 41.8701L33.3289 41.8709Z" fill="black"/>
<path fill-rule="evenodd" clip-rule="evenodd" d="M17.3096 30.9288C17.5562 30.4877 17.6697 29.9759 17.753 29.321C17.7747 29.1483 17.8595 28.8278 17.7421 28.7889C17.6425 28.7562 17.4675 29.016 17.4091 29.0658C17.1143 29.3202 16.7456 29.5061 16.2004 29.4649C15.3642 29.4011 14.7777 28.6831 14.7808 27.8018C14.7823 27.3553 14.9449 26.961 15.2133 26.6934C15.4544 26.4522 15.8737 26.2251 16.3334 26.2274C16.4477 26.2274 16.5667 26.292 16.6772 26.2274C16.6803 26.0618 16.5628 25.9552 16.5107 25.8284C16.0876 24.8009 16.8405 23.7935 17.7856 23.6885C18.8451 23.5711 19.7139 24.2921 19.626 25.3959C19.612 25.5717 19.5583 25.7141 19.5039 25.8393C19.451 25.9622 19.3553 26.0688 19.3483 26.2274C19.4806 26.292 19.5739 26.2274 19.6921 26.2274C20.3883 26.2228 20.9523 26.6926 21.1444 27.2145C21.5333 28.2662 20.8387 29.3816 19.8469 29.4649C19.2472 29.5154 18.8466 29.279 18.5386 28.988C18.4499 28.9048 18.3636 28.757 18.2834 28.7881C18.1722 28.8325 18.2508 29.2222 18.2726 29.3645C18.3519 29.8942 18.4087 30.2878 18.6055 30.7172C18.6389 30.7903 18.7432 30.8961 18.6942 30.9389C18.2547 30.9132 17.7662 30.935 17.308 30.928L17.3096 30.9288Z" fill="black"/>
</svg>
