<svg width="37" height="55" viewBox="0 0 37 55" fill="none" xmlns="http://www.w3.org/2000/svg">
<path d="M2.70877 1.05151C2.70877 1.05151 2.71344 1.03051 2.73055 1.02973C3.63755 0.962835 4.57566 1.02973 5.48499 1.02973C14.5612 1.02973 23.761 1.02973 32.8302 1.02973C33.731 1.02973 34.2996 1.32998 34.7912 1.80059C35.2626 2.25254 35.5186 2.87484 35.5186 3.80595C35.5186 19.3066 35.5186 34.7138 35.5186 50.2728C35.5186 51.2257 35.468 51.9872 35.0557 52.5418C34.6785 53.049 34.1083 53.4426 33.3592 53.5772C32.9547 53.6503 32.453 53.599 31.9932 53.599C22.4029 53.599 12.8359 53.599 3.28206 53.599C2.37273 53.599 1.76988 53.3205 1.29927 52.8499C1.06824 52.6189 0.85588 52.3396 0.748534 52.0347C0.401604 51.0507 0.550178 49.4794 0.550178 48.1352C0.550178 33.6381 0.550178 18.9752 0.550178 4.40024C0.550178 3.41857 0.605408 2.70681 1.01301 2.13119C1.39417 1.59213 1.9029 1.20397 2.70955 1.05151H2.70877Z" fill="#FAF8F4" stroke="black" stroke-linejoin="round"/>
<path d="M3.57267 6.41233C4.0814 6.12996 4.64691 5.73791 4.70836 5.06039C4.90127 2.92202 1.13171 2.98348 1.57121 5.24941L2.13906 5.14129C1.85513 3.88425 3.89238 3.74501 4.08607 4.70879C4.25175 5.53489 3.48711 5.81259 3.00405 6.08795C2.27752 6.50178 1.58832 6.96539 1.53543 7.92606L1.53076 8.50324H4.68036V7.34266H4.09462V7.92606H2.19273C2.19662 6.98017 2.95893 6.75303 3.57189 6.41233H3.57267Z" fill="black"/>
<path d="M32.4656 48.2042C31.9569 48.4866 31.3906 48.8786 31.3299 49.5562C31.137 51.6945 34.9066 51.6331 34.4671 49.3672L33.8992 49.4753C34.1831 50.7323 32.1459 50.8716 31.9522 49.9078C31.7865 49.0817 32.5512 48.804 33.0335 48.5286C33.76 48.1148 34.4492 47.6512 34.5021 46.6897L34.5067 46.1125H31.3571V47.2731H31.9429V46.6897H33.8448C33.8409 47.6356 33.0786 47.8628 32.4656 48.2035V48.2042Z" fill="black"/>
<path fill-rule="evenodd" clip-rule="evenodd" d="M2.70823 12.745C2.85292 12.4876 3.02949 11.9182 2.96104 11.8956C2.9027 11.8761 2.80002 12.0286 2.76657 12.0574C2.59389 12.2067 2.37842 12.3149 2.05949 12.2907C1.57021 12.2534 1.22717 11.8334 1.2295 11.3176C1.23028 11.0563 1.32596 10.826 1.48231 10.6689C1.62311 10.5281 1.86891 10.3951 2.13728 10.3966C2.20417 10.3966 2.27418 10.434 2.33797 10.3966C2.3403 10.2994 2.27107 10.2372 2.24074 10.1633C1.99337 9.56198 2.43365 8.97314 2.98671 8.91168C3.60668 8.84323 4.1154 9.26483 4.06328 9.91047C4.05473 10.0131 4.02361 10.0972 3.99172 10.1703C3.9606 10.2418 3.9046 10.3041 3.90071 10.3974C3.9785 10.4348 4.03295 10.3974 4.1014 10.3974C4.509 10.3943 4.83882 10.6697 4.95161 10.9746C5.17875 11.5899 4.7727 12.2425 4.19241 12.2915C3.84159 12.3211 3.60668 12.1826 3.42699 12.0123C3.37487 11.9633 3.32431 11.8769 3.27764 11.8956C3.21229 11.9213 3.34609 12.4883 3.518 12.752C3.23018 12.752 3.00305 12.7458 2.70746 12.7458L2.70823 12.745Z" fill="black"/>
<path fill-rule="evenodd" clip-rule="evenodd" d="M33.3292 41.8716C33.1845 42.1299 33.0072 42.6985 33.0764 42.7211C33.1347 42.7405 33.2374 42.588 33.2709 42.5593C33.4436 42.4099 33.659 42.3018 33.978 42.3259C34.4672 42.3632 34.8103 42.7833 34.8079 43.299C34.8072 43.5604 34.7115 43.7906 34.5551 43.9478C34.4143 44.0886 34.1685 44.2216 33.9002 44.22C33.8333 44.22 33.7633 44.1827 33.6987 44.22C33.6964 44.3173 33.7656 44.3795 33.7959 44.4534C34.0433 45.0547 33.603 45.6435 33.05 45.705C32.43 45.7734 31.9213 45.3518 31.9734 44.7062C31.9819 44.6035 32.0131 44.5203 32.0449 44.4471C32.0761 44.3756 32.1321 44.3126 32.136 44.22C32.0589 44.1819 32.0037 44.22 31.9345 44.22C31.5277 44.2231 31.1971 43.9478 31.0851 43.6428C30.8579 43.0275 31.264 42.3749 31.8443 42.3259C32.1951 42.2963 32.43 42.4348 32.6097 42.6044C32.661 42.6534 32.7124 42.7397 32.759 42.7211C32.8244 42.6954 32.6906 42.1283 32.5194 41.8646C32.8073 41.8646 33.0344 41.8708 33.33 41.8708L33.3292 41.8716Z" fill="black"/>
<path fill-rule="evenodd" clip-rule="evenodd" d="M17.3096 14.1841C17.5562 13.743 17.6698 13.2312 17.753 12.5762C17.7748 12.4035 17.8596 12.083 17.7421 12.0442C17.6426 12.0115 17.4675 12.2713 17.4092 12.3211C17.1144 12.5754 16.7457 12.7613 16.2004 12.7201C15.3642 12.6571 14.7777 11.9384 14.7808 11.057C14.7823 10.6105 14.9449 10.2162 15.2133 9.94857C15.4544 9.70743 15.8737 9.48029 16.3334 9.48262C16.4478 9.48262 16.5668 9.54641 16.6772 9.48262C16.6803 9.31694 16.5629 9.21037 16.5108 9.08357C16.0876 8.05601 16.8406 7.04867 17.7857 6.94365C18.8451 6.82619 19.714 7.54729 19.6261 8.65108C19.6121 8.82688 19.5585 8.97001 19.504 9.09447C19.4511 9.21737 19.3554 9.32394 19.3484 9.48262C19.4807 9.54719 19.5748 9.48262 19.6922 9.48262C20.3884 9.47796 20.9524 9.94779 21.1445 10.4697C21.5327 11.5214 20.8388 12.6369 19.847 12.7201C19.2473 12.7707 18.8467 12.5342 18.5387 12.2433C18.45 12.1601 18.3636 12.0123 18.2835 12.0434C18.1723 12.0877 18.2509 12.4774 18.2726 12.6198C18.352 13.1487 18.4088 13.5431 18.6056 13.9725C18.639 14.0464 18.7432 14.1514 18.6942 14.1942C18.2547 14.1685 17.7662 14.1903 17.3081 14.1833L17.3096 14.1841Z" fill="black"/>
<path fill-rule="evenodd" clip-rule="evenodd" d="M18.7276 40.4325C18.481 40.8736 18.3674 41.3854 18.2842 42.0404C18.2624 42.2131 18.1776 42.5343 18.2951 42.5724C18.3946 42.6051 18.5697 42.3453 18.628 42.2955C18.9228 42.0404 19.2915 41.8553 19.8368 41.8965C20.673 41.9603 21.2595 42.6782 21.2564 43.5596C21.2549 44.0061 21.0923 44.4004 20.8239 44.668C20.5828 44.9092 20.1635 45.1363 19.7038 45.134C19.5894 45.134 19.4704 45.0694 19.36 45.134C19.3569 45.2997 19.4743 45.4062 19.5264 45.533C19.9496 46.5606 19.1966 47.5679 18.2515 47.6729C17.1921 47.7904 16.3232 47.0693 16.4111 45.9655C16.4251 45.7897 16.4787 45.6474 16.5332 45.5221C16.5861 45.3992 16.6818 45.2927 16.6888 45.134C16.5565 45.0694 16.4624 45.134 16.345 45.134C15.6488 45.1386 15.0848 44.6688 14.8927 44.1469C14.5045 43.0952 15.1984 41.9797 16.1902 41.8965C16.7899 41.8459 17.1905 42.0824 17.4985 42.3733C17.5872 42.4573 17.6736 42.6043 17.7537 42.5724C17.8649 42.5281 17.7863 42.1384 17.7646 41.996C17.6852 41.4663 17.6284 41.0727 17.4316 40.6433C17.3982 40.5702 17.294 40.4644 17.343 40.4216C17.7825 40.4473 18.271 40.4255 18.7291 40.4325H18.7276Z" fill="black"/>
</svg>
