<svg width="37" height="55" viewBox="0 0 37 55" fill="none" xmlns="http://www.w3.org/2000/svg">
<path d="M2.7095 1.0515C2.7095 1.0515 2.71416 1.03051 2.73128 1.02973C3.63825 0.962836 4.57712 1.02973 5.48566 1.02973C14.5616 1.02973 23.7613 1.02973 32.8303 1.02973C33.7303 1.02973 34.2997 1.32998 34.7913 1.80058C35.2626 2.25173 35.5186 2.87479 35.5186 3.80588C35.5186 19.3062 35.5186 34.7131 35.5186 50.2717C35.5186 51.2246 35.468 51.9861 35.0557 52.5407C34.6785 53.0479 34.1075 53.4415 33.3592 53.576C32.9548 53.6491 32.453 53.5978 31.9933 53.5978C22.4032 53.5978 12.8364 53.5978 3.28278 53.5978C2.37347 53.5978 1.77063 53.3193 1.29925 52.8487C1.06823 52.6177 0.855873 52.3385 0.748529 52.0335C0.401607 51.0496 0.550178 49.4783 0.550178 48.1342C0.550178 33.6373 0.550178 18.9748 0.550178 4.40016C0.550178 3.41851 0.605406 2.70677 1.013 2.13039C1.39415 1.59133 1.90286 1.20318 2.7095 1.05073V1.0515Z" fill="#FAF8F4" stroke="black" stroke-linejoin="round"/>
<path fill-rule="evenodd" clip-rule="evenodd" d="M2.70869 12.7451C2.85337 12.4868 3.02994 11.9182 2.96149 11.8956C2.90315 11.8762 2.80048 12.0287 2.76703 12.0574C2.59435 12.2068 2.37888 12.3149 2.05996 12.2908C1.57069 12.2535 1.22766 11.8334 1.22999 11.3177C1.23077 11.0564 1.32645 10.8261 1.48279 10.669C1.62359 10.5282 1.86939 10.3952 2.13775 10.3967C2.20464 10.3967 2.27465 10.4341 2.33921 10.3967C2.34077 10.2995 2.27232 10.2373 2.24198 10.1634C1.99384 9.56209 2.43488 8.97248 2.98794 8.91181C3.60789 8.84335 4.11583 9.26495 4.06449 9.91057C4.05593 10.014 4.02482 10.0973 3.99293 10.1704C3.96181 10.2427 3.9058 10.3049 3.90192 10.3975C3.97892 10.4348 4.03415 10.3975 4.1026 10.3975C4.50942 10.3944 4.84001 10.6698 4.95202 10.9747C5.17915 11.59 4.77311 12.2426 4.19283 12.2916C3.84202 12.3211 3.60711 12.1827 3.42743 12.0123C3.37609 11.9633 3.32475 11.877 3.27808 11.8956C3.21274 11.9213 3.34653 12.4884 3.51843 12.7521C3.23063 12.7521 3.0035 12.7458 2.70791 12.7458L2.70869 12.7451Z" fill="black"/>
<path fill-rule="evenodd" clip-rule="evenodd" d="M33.3289 41.871C33.1842 42.1293 33.0076 42.6979 33.0761 42.7204C33.1344 42.7399 33.2371 42.5874 33.2705 42.5586C33.4432 42.4093 33.6587 42.3012 33.9776 42.3253C34.4669 42.3626 34.8099 42.7827 34.8076 43.2984C34.8068 43.5597 34.7111 43.79 34.5548 43.9471C34.414 44.0879 34.1682 44.2209 33.8998 44.2194C33.8329 44.2194 33.7629 44.182 33.6991 44.2194C33.6968 44.3166 33.766 44.3788 33.7964 44.4527C34.0437 45.054 33.6034 45.6436 33.0504 45.7043C32.4304 45.7727 31.9217 45.3511 31.9739 44.7055C31.9824 44.6028 32.0135 44.5196 32.0454 44.4465C32.0765 44.3749 32.1325 44.3119 32.1364 44.2194C32.0594 44.1812 32.0042 44.2194 31.9357 44.2194C31.5281 44.2225 31.1983 43.9471 31.0855 43.6422C30.8584 43.0269 31.2644 42.3743 31.8447 42.3253C32.1955 42.2957 32.4297 42.4342 32.6101 42.6038C32.6615 42.6528 32.7128 42.7391 32.7595 42.7204C32.8248 42.6948 32.691 42.1277 32.5191 41.864C32.8069 41.864 33.0341 41.8702 33.3296 41.8702L33.3289 41.871Z" fill="black"/>
<path fill-rule="evenodd" clip-rule="evenodd" d="M17.3096 14.1842C17.5562 13.7431 17.6697 13.2313 17.7529 12.5763C17.7747 12.4036 17.8595 12.0824 17.7421 12.0443C17.6425 12.0116 17.4675 12.2714 17.4091 12.3212C17.1143 12.5756 16.7456 12.7615 16.2004 12.7202C15.3642 12.6572 14.7777 11.9385 14.7808 11.0572C14.7823 10.6107 14.9449 10.2163 15.2133 9.94874C15.4544 9.70761 15.8737 9.48048 16.3334 9.48281C16.4477 9.48281 16.5667 9.54737 16.6772 9.48281C16.6803 9.31713 16.5628 9.21056 16.5107 9.08377C16.0876 8.05623 16.8405 7.04891 17.7856 6.9439C18.8451 6.82644 19.7139 7.54752 19.626 8.65129C19.612 8.82708 19.5576 8.96943 19.5039 9.09466C19.451 9.21756 19.3553 9.32413 19.3483 9.48281C19.4806 9.54737 19.5747 9.48359 19.6921 9.48281C20.3883 9.47814 20.9523 9.94797 21.1444 10.4699C21.5325 11.5216 20.8387 12.637 19.8469 12.7202C19.2472 12.7708 18.8466 12.5343 18.5386 12.2434C18.4499 12.1602 18.3636 12.0124 18.2834 12.0443C18.1722 12.0878 18.2508 12.4783 18.2726 12.6207C18.3519 13.1504 18.4087 13.544 18.6055 13.9734C18.6389 14.0465 18.7432 14.1523 18.6941 14.195C18.2547 14.1694 17.7662 14.1912 17.308 14.1842H17.3096Z" fill="black"/>
<path fill-rule="evenodd" clip-rule="evenodd" d="M17.3096 30.9289C17.5562 30.4879 17.6697 29.976 17.7529 29.3211C17.7747 29.1484 17.8595 28.8271 17.7421 28.789C17.6425 28.7564 17.4675 29.0162 17.4091 29.0659C17.1143 29.3211 16.7456 29.5062 16.2004 29.465C15.3642 29.402 14.7777 28.6832 14.7808 27.8019C14.7823 27.3554 14.9449 26.9611 15.2133 26.6935C15.4544 26.4524 15.8737 26.2252 16.3334 26.2276C16.4477 26.2276 16.5667 26.2921 16.6772 26.2276C16.6803 26.0619 16.5628 25.9553 16.5107 25.8285C16.0876 24.801 16.8405 23.7937 17.7856 23.6886C18.8451 23.5712 19.7139 24.2923 19.626 25.396C19.612 25.5718 19.5576 25.7142 19.5039 25.8394C19.451 25.9623 19.3553 26.0689 19.3483 26.2276C19.4806 26.2921 19.5747 26.2276 19.6921 26.2276C20.3883 26.2229 20.9523 26.6927 21.1444 27.2147C21.5325 28.2663 20.8387 29.3818 19.8469 29.465C19.2472 29.5155 18.8466 29.2791 18.5386 28.9882C18.4499 28.9042 18.3636 28.7571 18.2834 28.7883C18.1722 28.8326 18.2508 29.2223 18.2726 29.3646C18.3519 29.8936 18.4087 30.288 18.6055 30.7173C18.6389 30.7904 18.7432 30.8962 18.6941 30.939C18.2547 30.9134 17.7662 30.9351 17.308 30.9281L17.3096 30.9289Z" fill="black"/>
<path fill-rule="evenodd" clip-rule="evenodd" d="M18.728 40.432C18.4814 40.8731 18.3678 41.3849 18.2846 42.0399C18.2628 42.2125 18.1788 42.5338 18.2955 42.5719C18.395 42.6046 18.5701 42.3448 18.6284 42.295C18.9232 42.0406 19.2919 41.8547 19.8372 41.896C20.6734 41.959 21.2599 42.6777 21.2568 43.559C21.2552 44.0055 21.0926 44.3999 20.8243 44.6674C20.5832 44.9086 20.1639 45.1357 19.7042 45.1334C19.5898 45.1334 19.4708 45.0688 19.3604 45.1334C19.3573 45.2991 19.4747 45.4056 19.5268 45.5324C19.95 46.56 19.197 47.5673 18.2519 47.6723C17.1925 47.7897 16.3236 47.0687 16.4115 45.9649C16.4255 45.7891 16.48 45.6468 16.5337 45.5215C16.5865 45.3986 16.6822 45.2921 16.6892 45.1334C16.557 45.0688 16.4629 45.1334 16.3454 45.1334C15.6492 45.138 15.0853 44.6682 14.8932 44.1463C14.505 43.0946 15.1989 41.9792 16.1906 41.896C16.7903 41.8454 17.1909 42.0819 17.499 42.3728C17.5876 42.456 17.674 42.6038 17.7541 42.5719C17.8653 42.5276 17.7868 42.1379 17.765 41.9955C17.6857 41.4666 17.6289 41.073 17.4321 40.6428C17.3986 40.5689 17.2944 40.4639 17.3434 40.4211C17.7829 40.4468 18.2714 40.425 18.7295 40.432H18.728Z" fill="black"/>
<path fill-rule="evenodd" clip-rule="evenodd" d="M31.6603 51.3127C31.6603 51.14 31.6579 50.9984 31.6579 50.7845C31.9667 50.3645 32.3191 50.0152 32.6715 49.6395C31.9512 49.4046 31.4121 48.9597 31.332 48.1367C31.1982 46.7583 32.8123 45.7246 34.0382 46.6883C34.2412 46.8478 34.3548 47.0555 34.5025 47.3169C34.2863 47.4234 34.1704 47.4763 34.0102 47.5627C33.8258 47.2678 33.7208 47.1411 33.4913 47.0158C32.8146 46.6471 32.0126 47.0959 31.9333 47.754C31.8438 48.4953 32.3666 49.2646 33.3544 49.011C33.4392 49.1627 33.5085 49.3307 33.573 49.5026C33.2168 49.9211 32.7967 50.275 32.4521 50.7052C32.8092 50.7106 33.4587 50.7067 33.8188 50.7052C33.8188 50.4656 33.8258 50.4205 33.8258 50.1101H34.4458V51.3057C31.6603 51.3127 32.5867 51.3127 31.6603 51.3127Z" fill="black"/>
<path fill-rule="evenodd" clip-rule="evenodd" d="M4.37743 3.30347C4.37743 3.47693 4.37976 3.61771 4.37976 3.83162C4.07096 4.25166 3.71859 4.60093 3.36623 4.97663C4.08652 5.21154 4.62557 5.65647 4.70569 6.47944C4.84025 7.85779 3.22543 8.89156 1.99954 7.9278C1.79652 7.76834 1.68295 7.56066 1.53516 7.2993C1.7514 7.19273 1.8673 7.13983 2.02754 7.05349C2.21189 7.3483 2.3169 7.47509 2.54714 7.60033C3.22388 7.96825 4.02584 7.52021 4.10519 6.86214C4.19464 6.12085 3.67192 5.35155 2.68405 5.60513C2.59926 5.45345 2.53003 5.28466 2.46547 5.11353C2.82173 4.69505 3.24254 4.34112 3.58635 3.91096C3.22932 3.90552 2.57981 3.90941 2.21967 3.91096C2.21967 4.15054 2.21267 4.19644 2.21267 4.50602H1.59272V3.31046C4.37821 3.30346 3.45178 3.30347 4.37821 3.30347H4.37743Z" fill="black"/>
</svg>
