<svg width="37" height="55" viewBox="0 0 37 55" fill="none" xmlns="http://www.w3.org/2000/svg">
<path d="M2.70877 1.05151C2.70877 1.05151 2.71343 1.03051 2.73054 1.02973C3.63754 0.962835 4.57565 1.02973 5.48499 1.02973C14.5612 1.02973 23.7611 1.02973 32.8302 1.02973C33.7302 1.02973 34.2996 1.32998 34.7912 1.80059C35.2626 2.25254 35.5186 2.87484 35.5186 3.80595C35.5186 19.3066 35.5186 34.7139 35.5186 50.2728C35.5186 51.2257 35.468 51.9872 35.0557 52.5419C34.6785 53.049 34.1083 53.4426 33.3592 53.5772C32.9547 53.6503 32.453 53.599 31.9933 53.599C22.4029 53.599 12.8359 53.599 3.28206 53.599C2.37273 53.599 1.76988 53.3205 1.29927 52.8499C1.06824 52.6189 0.855878 52.3396 0.748532 52.0347C0.401602 51.0507 0.55018 49.4794 0.55018 48.1352C0.55018 33.6381 0.55018 18.9752 0.55018 4.40024C0.55018 3.41857 0.605406 2.70681 1.01301 2.13041C1.39417 1.59135 1.90289 1.20319 2.70954 1.05073L2.70877 1.05151Z" fill="#FAF8F4" stroke="black" stroke-linejoin="round"/>
<path fill-rule="evenodd" clip-rule="evenodd" d="M2.70824 12.7451C2.85292 12.4868 3.0295 11.9182 2.96104 11.8956C2.9027 11.8762 2.80002 12.0287 2.76658 12.0574C2.59389 12.2068 2.37841 12.3149 2.05949 12.2908C1.57021 12.2535 1.22717 11.8334 1.2295 11.3177C1.23028 11.0563 1.32596 10.8261 1.48231 10.6689C1.62311 10.5281 1.86891 10.3951 2.13727 10.3967C2.20417 10.3967 2.27418 10.434 2.33875 10.3967C2.3403 10.2994 2.27185 10.2372 2.24151 10.1633C1.99415 9.56203 2.43442 8.9724 2.98749 8.91095C3.60745 8.8425 4.11618 9.2641 4.06406 9.90973C4.0555 10.0124 4.02439 10.0964 3.9925 10.1695C3.96139 10.2419 3.90538 10.3041 3.90149 10.3967C3.9785 10.434 4.03372 10.3967 4.10295 10.3967C4.50978 10.3936 4.84038 10.6689 4.95317 10.9739C5.18031 11.5892 4.77426 12.2418 4.19397 12.2908C3.84315 12.3204 3.60823 12.1819 3.42854 12.0115C3.37643 11.9625 3.32586 11.8762 3.27919 11.8949C3.21385 11.9205 3.34764 12.4876 3.51955 12.7513C3.23174 12.7513 3.00461 12.7451 2.70902 12.7451H2.70824Z" fill="black"/>
<path fill-rule="evenodd" clip-rule="evenodd" d="M33.3292 41.8717C33.1845 42.13 33.0079 42.6986 33.0764 42.7211C33.1347 42.7406 33.2374 42.5881 33.2709 42.5593C33.4436 42.41 33.659 42.3019 33.978 42.326C34.4672 42.3633 34.8103 42.7834 34.8079 43.2991C34.8072 43.5605 34.7115 43.7907 34.5551 43.9478C34.4143 44.0886 34.1685 44.2216 33.9002 44.2201C33.8333 44.2201 33.7633 44.1828 33.6987 44.2201C33.6964 44.3173 33.7656 44.3796 33.7959 44.4535C34.0433 45.0547 33.603 45.6444 33.05 45.705C32.43 45.7735 31.9213 45.3519 31.9734 44.7063C31.9819 44.6036 32.0131 44.5196 32.045 44.4472C32.0761 44.3749 32.1321 44.3127 32.136 44.2201C32.0589 44.182 32.0037 44.2201 31.9345 44.2201C31.5277 44.2232 31.1971 43.9478 31.0851 43.6429C30.8579 43.0276 31.264 42.375 31.8443 42.326C32.1951 42.2964 32.4292 42.4349 32.6097 42.6045C32.661 42.6535 32.7124 42.7398 32.759 42.7211C32.8244 42.6955 32.6906 42.1284 32.5187 41.8655C32.8065 41.8655 33.0336 41.8717 33.3292 41.8717Z" fill="black"/>
<path fill-rule="evenodd" clip-rule="evenodd" d="M24.3604 14.1842C24.607 13.7431 24.7206 13.2313 24.8038 12.5763C24.8256 12.4036 24.9104 12.0824 24.7929 12.0443C24.6933 12.0116 24.5183 12.2714 24.46 12.3212C24.1652 12.5756 23.7965 12.7615 23.2512 12.7202C22.415 12.6572 21.8284 11.9385 21.8316 11.0572C21.8331 10.6107 21.9957 10.2163 22.264 9.94869C22.5052 9.70755 22.9245 9.48041 23.3842 9.48274C23.4985 9.48274 23.6175 9.54731 23.728 9.48274C23.7311 9.31706 23.6137 9.21049 23.5615 9.0837C23.1384 8.05613 23.8914 7.04879 24.8365 6.94378C25.8959 6.82632 26.7648 7.54741 26.6769 8.65121C26.6629 8.827 26.6092 8.96935 26.5548 9.09459C26.5019 9.21749 26.4062 9.32406 26.3992 9.48274C26.5314 9.54731 26.6256 9.48352 26.743 9.48274C27.4392 9.47808 28.0032 9.94792 28.1953 10.4699C28.5835 11.5215 27.8896 12.637 26.8978 12.7202C26.2981 12.7708 25.8975 12.5343 25.5894 12.2434C25.5008 12.1602 25.4144 12.0124 25.3343 12.0435C25.2231 12.0878 25.3016 12.4776 25.3234 12.6199C25.4028 13.1489 25.4595 13.5432 25.6563 13.9726C25.6898 14.0457 25.794 14.1515 25.745 14.1943C25.3055 14.1686 24.817 14.1904 24.3589 14.1834L24.3604 14.1842Z" fill="black"/>
<path fill-rule="evenodd" clip-rule="evenodd" d="M25.7784 40.4326C25.5318 40.8737 25.4182 41.3855 25.335 42.0405C25.3132 42.2131 25.2284 42.5344 25.3459 42.5725C25.4454 42.6052 25.6204 42.3454 25.6788 42.2956C25.9736 42.0405 26.3423 41.8553 26.8876 41.8966C27.7238 41.9596 28.3103 42.6783 28.3072 43.5596C28.3057 44.0061 28.1431 44.4005 27.8747 44.6681C27.6336 44.9092 27.2143 45.1364 26.7546 45.1341C26.6402 45.1341 26.5212 45.0695 26.4108 45.1341C26.4077 45.3005 26.5251 45.4063 26.5772 45.5331C27.0004 46.5607 26.2474 47.568 25.3023 47.673C24.2428 47.7905 23.374 47.0694 23.4619 45.9656C23.4759 45.7898 23.5295 45.6474 23.584 45.5222C23.6369 45.3993 23.7326 45.2927 23.7396 45.1341C23.6073 45.0695 23.5132 45.1341 23.3957 45.1341C22.6995 45.1387 22.1356 44.6689 21.9435 44.1477C21.5553 43.096 22.2492 41.9806 23.2409 41.8973C23.8407 41.8468 24.2413 42.0832 24.5493 42.3742C24.638 42.4574 24.7243 42.6052 24.8045 42.5733C24.9157 42.529 24.8371 42.1392 24.8154 41.9969C24.736 41.4672 24.6792 41.0736 24.4824 40.6442C24.449 40.5711 24.3447 40.4653 24.3937 40.4225C24.8332 40.4482 25.3217 40.4264 25.7799 40.4334L25.7784 40.4326Z" fill="black"/>
<path fill-rule="evenodd" clip-rule="evenodd" d="M10.2584 14.1842C10.5049 13.7431 10.6185 13.2313 10.7018 12.5763C10.7235 12.4036 10.8075 12.0824 10.6909 12.0443C10.5913 12.0116 10.4163 12.2714 10.3579 12.3212C10.0631 12.5756 9.6944 12.7615 9.14912 12.7202C8.31291 12.6572 7.72639 11.9385 7.7295 11.0572C7.73106 10.6107 7.89364 10.2163 8.162 9.94869C8.40314 9.70755 8.82242 9.48041 9.28214 9.48274C9.39649 9.48274 9.5155 9.54731 9.62595 9.48274C9.62906 9.31706 9.5116 9.21049 9.45949 9.0837C9.03633 8.05613 9.78931 7.04879 10.7344 6.94378C11.7939 6.82632 12.6628 7.54741 12.5749 8.65121C12.5609 8.827 12.5064 8.96935 12.4527 9.09459C12.3998 9.21749 12.3042 9.32406 12.2972 9.48274C12.4294 9.54731 12.5235 9.48352 12.641 9.48274C13.3372 9.47808 13.9011 9.94792 14.0933 10.4699C14.4814 11.5215 13.7876 12.637 12.7958 12.7202C12.196 12.7708 11.7954 12.5343 11.4874 12.2434C11.3987 12.1602 11.3124 12.0124 11.2323 12.0435C11.121 12.0878 11.1996 12.4776 11.2214 12.6199C11.3007 13.1489 11.3575 13.5432 11.5543 13.9726C11.5877 14.0457 11.692 14.1515 11.643 14.1943C11.2035 14.1686 10.715 14.1904 10.2568 14.1834L10.2584 14.1842Z" fill="black"/>
<path fill-rule="evenodd" clip-rule="evenodd" d="M11.6763 40.4326C11.4297 40.8737 11.3161 41.3855 11.2329 42.0405C11.2111 42.2131 11.1263 42.5344 11.2438 42.5725C11.3434 42.6052 11.5184 42.3454 11.5767 42.2956C11.8715 42.0405 12.2403 41.8553 12.7855 41.8966C13.6218 41.9596 14.2083 42.6783 14.2052 43.5596C14.2036 44.0061 14.041 44.4005 13.7727 44.6681C13.5315 44.9092 13.1122 45.1364 12.6525 45.1341C12.5382 45.1341 12.4192 45.0695 12.3087 45.1341C12.3056 45.3005 12.4231 45.4063 12.4752 45.5331C12.8983 46.5607 12.1454 47.568 11.2002 47.673C10.1408 47.7905 9.27191 47.0694 9.35981 45.9656C9.37381 45.7898 9.42825 45.6474 9.48193 45.5222C9.53482 45.3993 9.6305 45.2927 9.6375 45.1341C9.50526 45.0695 9.41114 45.1341 9.29368 45.1341C8.59749 45.1387 8.03354 44.6689 7.8414 44.1477C7.45324 43.096 8.1471 41.9806 9.13888 41.8973C9.73862 41.8468 10.1392 42.0832 10.4473 42.3742C10.5359 42.4574 10.6223 42.6052 10.7024 42.5733C10.8136 42.529 10.7351 42.1392 10.7133 41.9969C10.634 41.4672 10.5772 41.0736 10.3804 40.6442C10.3469 40.5711 10.2427 40.4653 10.2917 40.4225C10.7312 40.4482 11.2197 40.4264 11.6779 40.4334L11.6763 40.4326Z" fill="black"/>
<path fill-rule="evenodd" clip-rule="evenodd" d="M4.17762 3.50171V6.72521H4.73612C4.75246 6.88856 4.75246 7.15615 4.73612 7.31173C4.55332 7.31173 4.34174 7.29928 4.18072 7.29928C4.18072 7.54431 4.17762 7.63765 4.17762 7.9138C4.29196 7.9138 4.41331 7.9169 4.51287 7.9169C4.51287 8.07481 4.50666 8.27395 4.50666 8.50342C4.02593 8.50342 3.67822 8.5003 3.20061 8.5003V7.9449C3.30562 7.9449 3.43941 7.9418 3.55687 7.9418C3.55687 7.70299 3.5631 7.60109 3.5631 7.30006H1.49941C1.49941 7.10792 1.49707 6.9539 1.49707 6.76954C2.17615 5.68908 2.83813 4.56662 3.53587 3.5056C3.76223 3.5056 3.9108 3.50249 4.17839 3.50249L4.17762 3.50171ZM2.30684 6.72521H3.56388C3.56388 5.97456 3.56698 5.51484 3.56698 4.73075L2.30761 6.72521H2.30684Z" fill="black"/>
<path fill-rule="evenodd" clip-rule="evenodd" d="M31.8589 51.1151V47.8916H31.3003C31.284 47.7283 31.284 47.4607 31.3003 47.3051C31.4831 47.3051 31.6947 47.3176 31.8557 47.3176C31.8557 47.0725 31.8589 46.9792 31.8589 46.703C31.7445 46.703 31.6232 46.6999 31.5236 46.6999C31.5236 46.542 31.5298 46.3429 31.5298 46.1134C32.0105 46.1134 32.3582 46.1165 32.8359 46.1165V46.6719C32.7308 46.6719 32.597 46.675 32.4788 46.675C32.4788 46.9138 32.4726 47.0165 32.4726 47.3176H34.5363C34.5363 47.5097 34.5386 47.6637 34.5386 47.848C33.8595 48.9285 33.1976 50.051 32.4998 51.1128C32.2735 51.1128 32.1249 51.1151 31.8573 51.1151H31.8589ZM33.7296 47.8916H32.4726C32.4726 48.6423 32.4695 49.102 32.4695 49.8868L33.7288 47.8916H33.7296Z" fill="black"/>
</svg>
