<svg width="37" height="55" viewBox="0 0 37 55" fill="none" xmlns="http://www.w3.org/2000/svg">
<path d="M2.7095 1.0515C2.7095 1.0515 2.71417 1.03051 2.73128 1.02973C3.63825 0.962836 4.57634 1.02973 5.48565 1.02973C14.5616 1.02973 23.7613 1.02973 32.8303 1.02973C33.7303 1.02973 34.2997 1.32998 34.7913 1.80058C35.2626 2.25173 35.5186 2.87479 35.5186 3.80588C35.5186 19.3062 35.5186 34.7131 35.5186 50.2717C35.5186 51.2246 35.468 51.9861 35.0557 52.5407C34.6785 53.0479 34.1083 53.4415 33.3592 53.576C32.9548 53.6491 32.453 53.5978 31.9933 53.5978C22.4032 53.5978 12.8364 53.5978 3.28277 53.5978C2.37346 53.5978 1.77063 53.3193 1.29925 52.8487C1.06823 52.6177 0.855876 52.3385 0.748532 52.0335C0.401609 51.0496 0.550176 49.4783 0.550176 48.1342C0.550176 33.6373 0.550176 18.9748 0.550176 4.40016C0.550176 3.41851 0.605399 2.70678 1.01299 2.13116C1.39414 1.59211 1.90286 1.20396 2.7095 1.0515Z" fill="#FAF8F4" stroke="black" stroke-linejoin="round"/>
<path fill-rule="evenodd" clip-rule="evenodd" d="M2.70869 12.7447C2.85337 12.4865 3.02994 11.9178 2.96149 11.8953C2.90315 11.8758 2.80048 12.0283 2.76703 12.0571C2.59435 12.2064 2.37888 12.3145 2.05996 12.2904C1.5707 12.2531 1.22766 11.8331 1.22999 11.3173C1.23077 11.056 1.32645 10.8257 1.48279 10.6686C1.62359 10.5278 1.86939 10.3948 2.13775 10.3964C2.20465 10.3964 2.27465 10.4337 2.33921 10.3964C2.34077 10.2991 2.27232 10.2369 2.24198 10.163C1.99462 9.56172 2.43488 8.97289 2.98794 8.91144C3.60789 8.84299 4.11661 9.26458 4.06449 9.9102C4.05594 10.0137 4.02482 10.0969 3.99293 10.17C3.96181 10.2416 3.9058 10.3038 3.90191 10.3971C3.97892 10.4353 4.03416 10.3971 4.10261 10.3971C4.50942 10.394 4.84001 10.6694 4.95202 10.9743C5.17915 11.5896 4.77311 12.2422 4.19283 12.2912C3.84202 12.3208 3.60789 12.1823 3.42743 12.012C3.37609 11.963 3.32475 11.8766 3.27808 11.8953C3.21274 11.921 3.34653 12.488 3.51844 12.7517C3.23063 12.7517 3.0035 12.7455 2.70791 12.7455L2.70869 12.7447Z" fill="black"/>
<path fill-rule="evenodd" clip-rule="evenodd" d="M33.3291 41.8706C33.1844 42.1289 33.0078 42.6975 33.0762 42.7201C33.1346 42.7395 33.2373 42.587 33.2707 42.5583C33.4434 42.4089 33.6589 42.3008 33.9778 42.3249C34.4671 42.3622 34.8101 42.7823 34.8078 43.298C34.807 43.5594 34.7113 43.7896 34.5549 43.9467C34.4142 44.0875 34.1684 44.2205 33.9 44.219C33.8331 44.219 33.7631 44.1817 33.6993 44.219C33.6978 44.3162 33.7662 44.3784 33.7965 44.4523C34.0439 45.0536 33.6036 45.6432 33.0506 45.7039C32.4306 45.7724 31.9219 45.3508 31.974 44.7051C31.9826 44.6025 32.0137 44.5185 32.0456 44.4453C32.0767 44.3738 32.1327 44.3108 32.1366 44.2182C32.0596 44.1809 32.0044 44.2182 31.9359 44.2182C31.5291 44.2213 31.1985 43.946 31.0865 43.641C30.8594 43.0258 31.2654 42.3731 31.8457 42.3241C32.1965 42.2946 32.4306 42.433 32.6111 42.6026C32.6632 42.6516 32.7138 42.738 32.7605 42.7193C32.8258 42.6936 32.692 42.1266 32.5201 41.8636C32.8079 41.8636 33.035 41.8699 33.3306 41.8699L33.3291 41.8706Z" fill="black"/>
<path fill-rule="evenodd" clip-rule="evenodd" d="M24.3608 14.1837C24.6074 13.7427 24.721 13.2309 24.8042 12.5759C24.826 12.4032 24.9108 12.082 24.7933 12.0439C24.6938 12.0112 24.5187 12.271 24.4604 12.3208C24.1656 12.5759 23.7969 12.761 23.2516 12.7198C22.4154 12.656 21.8289 11.9381 21.832 11.0568C21.8336 10.6103 21.9962 10.2159 22.2645 9.94833C22.5056 9.7072 22.9249 9.48006 23.3846 9.48318C23.499 9.48318 23.618 9.54696 23.7284 9.48318C23.7316 9.31749 23.6141 9.21093 23.562 9.08414C23.1388 8.05659 23.8918 7.04927 24.8369 6.94426C25.8963 6.82681 26.7652 7.54788 26.6773 8.65166C26.6633 8.82745 26.6088 8.97057 26.5552 9.09503C26.5023 9.21793 26.4066 9.32449 26.3996 9.48318C26.5318 9.54774 26.6259 9.48318 26.7434 9.48318C27.4396 9.47851 28.0035 9.94834 28.1956 10.4703C28.5838 11.5219 27.89 12.6374 26.8982 12.7206C26.2985 12.7712 25.8979 12.5347 25.5898 12.2438C25.5012 12.1605 25.4148 12.0128 25.3347 12.0439C25.2235 12.0882 25.302 12.4779 25.3238 12.6203C25.4032 13.1492 25.4599 13.5436 25.6567 13.9729C25.6902 14.0461 25.7944 14.1519 25.7454 14.1946C25.3059 14.169 24.8174 14.1907 24.3593 14.1837H24.3608Z" fill="black"/>
<path fill-rule="evenodd" clip-rule="evenodd" d="M25.7792 40.4315C25.5327 40.8726 25.4191 41.3844 25.3359 42.0394C25.3141 42.2121 25.2301 42.5333 25.3468 42.5714C25.4463 42.6041 25.6213 42.3443 25.6797 42.2945C25.9745 42.0394 26.3432 41.8542 26.8885 41.8955C27.7247 41.9593 28.3112 42.6772 28.308 43.5585C28.3065 44.005 28.1439 44.3994 27.8756 44.667C27.6344 44.9081 27.2151 45.1352 26.7554 45.1329C26.6411 45.1329 26.5221 45.0683 26.4116 45.1329C26.4085 45.2986 26.526 45.4051 26.5781 45.5319C27.0013 46.5595 26.2483 47.5668 25.3032 47.6718C24.2438 47.7893 23.3749 47.0682 23.4628 45.9644C23.4768 45.7886 23.5312 45.6463 23.5849 45.521C23.6378 45.3981 23.7335 45.2916 23.7405 45.1329C23.6082 45.0683 23.5141 45.1329 23.3967 45.1329C22.7005 45.1376 22.1366 44.6677 21.9444 44.1458C21.5563 43.0941 22.2501 41.9787 23.2419 41.8955C23.8416 41.8449 24.2422 42.0814 24.5502 42.3723C24.6389 42.4563 24.7253 42.6033 24.8054 42.5714C24.9166 42.5271 24.838 42.1374 24.8163 41.995C24.7369 41.4653 24.6801 41.0717 24.4833 40.6423C24.4499 40.5692 24.3457 40.4634 24.3947 40.4207C24.8342 40.4463 25.3226 40.4245 25.7808 40.4315H25.7792Z" fill="black"/>
<path fill-rule="evenodd" clip-rule="evenodd" d="M10.2588 14.1837C10.5054 13.7427 10.6189 13.2309 10.7022 12.5759C10.7239 12.4032 10.8087 12.082 10.6913 12.0439C10.5917 12.0112 10.4167 12.271 10.3584 12.3208C10.0635 12.5759 9.69485 12.761 9.14957 12.7198C8.31338 12.656 7.72688 11.9381 7.72999 11.0568C7.73155 10.6103 7.89411 10.2159 8.16247 9.94833C8.40361 9.7072 8.82287 9.48006 9.28258 9.48318C9.39693 9.48318 9.51594 9.54696 9.6264 9.48318C9.62951 9.31749 9.51205 9.21093 9.45994 9.08414C9.03678 8.05659 9.78975 7.04927 10.7348 6.94426C11.7943 6.82681 12.6631 7.54788 12.5752 8.65166C12.5612 8.82745 12.5068 8.97057 12.4531 9.09503C12.4002 9.21793 12.3045 9.32449 12.2975 9.48318C12.4298 9.54774 12.5239 9.48318 12.6413 9.48318C13.3375 9.47851 13.9015 9.94834 14.0936 10.4703C14.4818 11.5219 13.7879 12.6374 12.7961 12.7206C12.1964 12.7712 11.7958 12.5347 11.4878 12.2438C11.3991 12.1605 11.3128 12.0128 11.2327 12.0439C11.1214 12.0882 11.2 12.4779 11.2218 12.6203C11.3011 13.1492 11.3579 13.5436 11.5547 13.9729C11.5881 14.0461 11.6924 14.1519 11.6434 14.1946C11.2039 14.169 10.7154 14.1907 10.2572 14.1837H10.2588Z" fill="black"/>
<path fill-rule="evenodd" clip-rule="evenodd" d="M17.3096 30.9278C17.5562 30.4867 17.6697 29.9749 17.7529 29.3199C17.7747 29.1473 17.8587 28.826 17.7421 28.7879C17.6425 28.7552 17.4675 29.015 17.4091 29.0648C17.1143 29.3199 16.7456 29.5051 16.2004 29.4638C15.3642 29.4008 14.7777 28.6821 14.7808 27.8008C14.7823 27.3543 14.9449 26.9599 15.2133 26.6923C15.4544 26.4512 15.8737 26.2241 16.3334 26.2272C16.4477 26.2272 16.5667 26.2918 16.6772 26.2272C16.6803 26.0615 16.5628 25.9549 16.5107 25.8282C16.0876 24.8006 16.8405 23.7933 17.7856 23.6883C18.8451 23.5708 19.7139 24.2919 19.626 25.3957C19.612 25.5722 19.5583 25.7146 19.5039 25.839C19.451 25.9619 19.3553 26.0685 19.3483 26.2272C19.4806 26.2918 19.5739 26.2272 19.6921 26.2272C20.3883 26.2225 20.9523 26.6924 21.1444 27.2143C21.5333 28.266 20.8387 29.3814 19.8469 29.4646C19.2472 29.5152 18.8466 29.2787 18.5386 28.9878C18.4499 28.9038 18.3636 28.7568 18.2834 28.7879C18.1722 28.8322 18.2508 29.2219 18.2726 29.3643C18.3519 29.8932 18.4087 30.2876 18.6055 30.717C18.6389 30.7901 18.7432 30.8959 18.6942 30.9387C18.2547 30.913 17.7662 30.9348 17.308 30.9278H17.3096Z" fill="black"/>
<path fill-rule="evenodd" clip-rule="evenodd" d="M11.6772 40.4315C11.4306 40.8726 11.317 41.3844 11.2338 42.0394C11.212 42.2121 11.1272 42.5333 11.2447 42.5714C11.3443 42.6041 11.5193 42.3443 11.5776 42.2945C11.8724 42.0394 12.2411 41.8542 12.7864 41.8955C13.6226 41.9593 14.2091 42.6772 14.206 43.5585C14.2044 44.005 14.0419 44.3994 13.7735 44.667C13.5324 44.9081 13.1131 45.1352 12.6534 45.1329C12.539 45.1329 12.42 45.0683 12.3096 45.1329C12.3065 45.2986 12.4239 45.4051 12.476 45.5319C12.8992 46.5595 12.1462 47.5668 11.2011 47.6718C10.1417 47.7893 9.27285 47.0682 9.36075 45.9644C9.37475 45.7886 9.42841 45.6463 9.48286 45.521C9.53576 45.3981 9.63143 45.2916 9.63843 45.1329C9.5062 45.0683 9.41286 45.1329 9.29463 45.1329C8.59845 45.1376 8.0345 44.6677 7.84238 44.1458C7.45423 43.0941 8.14808 41.9787 9.13984 41.8955C9.73956 41.8449 10.1402 42.0814 10.4482 42.3723C10.5369 42.4563 10.6232 42.6033 10.7033 42.5714C10.8146 42.5271 10.736 42.1374 10.7142 41.995C10.6349 41.4653 10.5781 41.0717 10.3813 40.6423C10.3478 40.5692 10.2436 40.4634 10.2926 40.4207C10.7321 40.4463 11.2206 40.4245 11.6787 40.4315H11.6772Z" fill="black"/>
<path fill-rule="evenodd" clip-rule="evenodd" d="M4.20199 3.50146V4.08408C3.38991 4.08408 2.91309 4.08175 2.37871 4.08175C2.34059 4.44345 2.32659 4.64413 2.29547 5.02139C2.55528 4.9086 3.14723 4.80126 3.59449 4.93894C5.18831 5.42744 5.08486 8.45484 3.09744 8.50306C2.64084 8.51395 2.13835 8.28293 1.88166 8.03324C1.83188 7.98501 1.59463 7.71198 1.55029 7.50819C1.67786 7.42807 1.80932 7.35884 2.02012 7.25928C2.11968 7.43507 2.22469 7.54008 2.27214 7.59375C2.99399 8.41594 4.23933 7.7431 4.06509 6.37486C3.95619 5.51844 2.77697 5.0634 2.1858 5.87781C1.91978 5.76346 1.89178 5.74246 1.63353 5.60167C1.67398 4.92805 1.68486 4.24587 1.74398 3.50458C2.61751 3.50458 3.33624 3.50224 4.20355 3.50224L4.20199 3.50146Z" fill="black"/>
<path fill-rule="evenodd" clip-rule="evenodd" d="M31.8362 51.1139V50.5305C32.6483 50.5305 33.1244 50.5336 33.6595 50.5336C33.6976 50.1719 33.7116 49.9712 33.7428 49.5939C33.4829 49.7067 32.891 49.8141 32.4437 49.6772C30.8499 49.1887 30.9534 46.1613 32.9408 46.113C33.3974 46.1022 33.8999 46.3332 34.1566 46.5829C34.2064 46.6319 34.4436 46.9041 34.4879 47.1079C34.3604 47.188 34.2289 47.2565 34.0181 47.3568C33.9185 47.181 33.8135 47.076 33.7661 47.0224C33.0442 46.2002 31.7989 46.873 31.9731 48.2412C32.082 49.0977 33.2613 49.5527 33.8524 48.7383C34.1184 48.8526 34.1465 48.8736 34.4055 49.0144C34.365 49.688 34.3542 50.3702 34.295 51.1115C33.4215 51.1115 32.7028 51.1139 31.8355 51.1139H31.8362Z" fill="black"/>
</svg>
