<svg width="37" height="55" viewBox="0 0 37 55" fill="none" xmlns="http://www.w3.org/2000/svg">
<path d="M2.7095 1.0515C2.7095 1.0515 2.71416 1.03051 2.73127 1.02973C3.63824 0.962836 4.57713 1.02973 5.48566 1.02973C14.5616 1.02973 23.7613 1.02973 32.8303 1.02973C33.7303 1.02973 34.2997 1.32998 34.7913 1.80058C35.2627 2.25173 35.5186 2.87479 35.5186 3.80588C35.5186 19.3062 35.5186 34.7131 35.5186 50.2717C35.5186 51.2246 35.468 51.9861 35.0557 52.5407C34.6785 53.0479 34.1075 53.4415 33.3592 53.576C32.9548 53.6492 32.4531 53.5978 31.9933 53.5978C22.4032 53.5978 12.8364 53.5978 3.28199 53.5978C2.37268 53.5978 1.76985 53.3193 1.29925 52.8487C1.06823 52.6177 0.855865 52.3385 0.748521 52.0336C0.401599 51.0496 0.550184 49.4783 0.550184 48.1342C0.550184 33.6373 0.550184 18.9748 0.550184 4.40017C0.550184 3.41851 0.605408 2.70677 1.013 2.13039C1.39415 1.59211 1.90287 1.20318 2.7095 1.05073V1.0515Z" fill="#FAF8F4" stroke="black" stroke-linejoin="round"/>
<path fill-rule="evenodd" clip-rule="evenodd" d="M2.70869 12.7447C2.85337 12.4865 3.03072 11.9178 2.96149 11.8953C2.90316 11.8758 2.80048 12.0283 2.76703 12.0571C2.59435 12.2064 2.37888 12.3145 2.05996 12.2904C1.57069 12.2531 1.22766 11.8331 1.22999 11.3173C1.23077 11.056 1.32645 10.8257 1.48279 10.6686C1.62359 10.5278 1.86938 10.3948 2.13774 10.3964C2.20464 10.3964 2.27465 10.4337 2.33843 10.3964C2.34077 10.2991 2.27154 10.2369 2.2412 10.163C1.99384 9.56172 2.4341 8.97211 2.98715 8.91144C3.6071 8.84299 4.11582 9.26458 4.06371 9.9102C4.05515 10.0129 4.02404 10.0961 3.99215 10.1692C3.96104 10.2416 3.90502 10.3038 3.90113 10.3964C3.97814 10.4337 4.03337 10.3964 4.10182 10.3964C4.50942 10.3932 4.83922 10.6686 4.95201 10.9735C5.17914 11.5888 4.7731 12.2414 4.19282 12.2904C3.84201 12.32 3.60789 12.1815 3.42743 12.0112C3.37609 11.9622 3.32474 11.8758 3.27807 11.8945C3.21273 11.9202 3.34652 12.4872 3.51843 12.7509C3.23062 12.7509 3.0035 12.7447 2.70791 12.7447H2.70869Z" fill="black"/>
<path fill-rule="evenodd" clip-rule="evenodd" d="M33.3289 41.8706C33.1842 42.1289 33.0076 42.6975 33.0761 42.7201C33.1344 42.7395 33.2371 42.587 33.2705 42.5583C33.4432 42.4089 33.6587 42.3008 33.9776 42.3249C34.4669 42.3622 34.8099 42.7823 34.8076 43.298C34.8068 43.5594 34.7111 43.7896 34.5548 43.9467C34.414 44.0875 34.1682 44.2205 33.8998 44.219C33.8329 44.219 33.7629 44.1817 33.6991 44.219C33.6968 44.3162 33.766 44.3784 33.7964 44.4523C34.0437 45.0536 33.6035 45.6432 33.0504 45.7039C32.4304 45.7724 31.9217 45.3508 31.9739 44.7051C31.9824 44.6025 32.0135 44.5185 32.0454 44.4461C32.0765 44.3746 32.1325 44.3116 32.1364 44.219C32.0594 44.1817 32.0042 44.219 31.935 44.219C31.5281 44.2221 31.1975 43.9467 31.0855 43.6418C30.8584 43.0265 31.2644 42.3739 31.8447 42.3249C32.1955 42.2954 32.4305 42.4338 32.6101 42.6034C32.6615 42.6524 32.7128 42.7387 32.7595 42.7201C32.8248 42.6944 32.691 42.1273 32.5199 41.8636C32.8077 41.8636 33.0348 41.8699 33.3304 41.8699L33.3289 41.8706Z" fill="black"/>
<path fill-rule="evenodd" clip-rule="evenodd" d="M24.3608 14.1837C24.6074 13.7426 24.721 13.2308 24.8042 12.5758C24.826 12.4032 24.9108 12.0819 24.7933 12.0438C24.6938 12.0111 24.5188 12.2709 24.4604 12.3207C24.1656 12.5751 23.7969 12.761 23.2516 12.7197C22.4154 12.6567 21.8289 11.938 21.832 11.0567C21.8336 10.6102 21.9962 10.2158 22.2645 9.94826C22.5057 9.70712 22.9249 9.47999 23.3846 9.48232C23.499 9.48232 23.618 9.54688 23.7285 9.48232C23.7316 9.31664 23.6141 9.21007 23.562 9.08328C23.1388 8.05574 23.8918 7.04842 24.8369 6.94341C25.8963 6.82595 26.7652 7.54703 26.6773 8.6508C26.6633 8.8266 26.6088 8.96972 26.5552 9.09417C26.5023 9.21708 26.4066 9.32364 26.3996 9.48232C26.5318 9.54688 26.626 9.4831 26.7434 9.48232C27.4396 9.47766 28.0035 9.94748 28.1957 10.4694C28.5838 11.5211 27.89 12.6365 26.8982 12.7197C26.2985 12.7703 25.8979 12.5338 25.5899 12.2429C25.5012 12.1597 25.4148 12.0119 25.3347 12.0438C25.2235 12.0881 25.3021 12.4778 25.3238 12.6202C25.4032 13.1491 25.46 13.5435 25.6568 13.9729C25.6902 14.046 25.7944 14.1518 25.7454 14.1946C25.3059 14.1689 24.8174 14.1907 24.3593 14.1837H24.3608Z" fill="black"/>
<path fill-rule="evenodd" clip-rule="evenodd" d="M25.7789 40.4317C25.5323 40.8727 25.4188 41.3845 25.3355 42.0395C25.3138 42.2122 25.2298 42.5334 25.3464 42.5715C25.446 42.6042 25.621 42.3444 25.6793 42.2946C25.9741 42.0403 26.3428 41.8544 26.8881 41.8956C27.7243 41.9594 28.3108 42.6773 28.3077 43.5586C28.3061 44.0051 28.1436 44.3995 27.8752 44.6671C27.6341 44.9082 27.2148 45.1353 26.7551 45.133C26.6408 45.133 26.5218 45.0685 26.4113 45.133C26.4082 45.2987 26.5256 45.4053 26.5778 45.5321C27.0009 46.5596 26.2487 47.5669 25.3029 47.6719C24.2434 47.7894 23.3746 47.0683 23.4625 45.9645C23.4765 45.7887 23.5301 45.6464 23.5846 45.5212C23.6375 45.3983 23.7332 45.2917 23.7394 45.133C23.6071 45.0685 23.5138 45.1322 23.3956 45.133C22.6994 45.1377 22.1355 44.6679 21.9433 44.1459C21.5544 43.0943 22.2482 41.9788 23.2408 41.8956C23.8405 41.845 24.2411 42.0815 24.5491 42.3724C24.6378 42.4556 24.7241 42.6034 24.8043 42.5715C24.9155 42.5272 24.8369 42.1375 24.8152 41.9952C24.7358 41.4662 24.679 41.0718 24.4822 40.6425C24.4488 40.5694 24.3446 40.4636 24.3936 40.4208C24.833 40.4464 25.3215 40.4247 25.7797 40.4317H25.7789Z" fill="black"/>
<path fill-rule="evenodd" clip-rule="evenodd" d="M10.2588 14.1837C10.5054 13.7426 10.619 13.2308 10.7022 12.5758C10.724 12.4032 10.8087 12.0819 10.6913 12.0438C10.5917 12.0111 10.4167 12.2709 10.3584 12.3207C10.0636 12.5751 9.69485 12.761 9.14957 12.7197C8.31338 12.6567 7.72688 11.938 7.72999 11.0567C7.73155 10.6102 7.89412 10.2158 8.16248 9.94826C8.40362 9.70712 8.82289 9.47999 9.2826 9.48232C9.39695 9.48232 9.51595 9.54688 9.62641 9.48232C9.62952 9.31664 9.51205 9.21007 9.45994 9.08328C9.03679 8.05574 9.78898 7.04842 10.7348 6.94341C11.7943 6.82595 12.6631 7.54703 12.5752 8.6508C12.5612 8.8266 12.5068 8.96972 12.4531 9.09417C12.4002 9.21708 12.3046 9.32364 12.2976 9.48232C12.4298 9.54688 12.5239 9.4831 12.6414 9.48232C13.3375 9.47766 13.9015 9.94748 14.0936 10.4694C14.4825 11.5211 13.7887 12.6365 12.7962 12.7197C12.1964 12.7703 11.7958 12.5338 11.4878 12.2429C11.3991 12.1597 11.3128 12.0119 11.2327 12.0438C11.1214 12.0881 11.2 12.4778 11.2218 12.6202C11.3011 13.1491 11.3579 13.5435 11.5547 13.9729C11.5882 14.046 11.6924 14.1518 11.6434 14.1946C11.2039 14.1689 10.7154 14.1907 10.2572 14.1837H10.2588Z" fill="black"/>
<path fill-rule="evenodd" clip-rule="evenodd" d="M24.3608 30.9278C24.6074 30.4868 24.721 29.9749 24.8042 29.32C24.826 29.1473 24.9108 28.8261 24.7933 28.7879C24.6938 28.7553 24.5188 29.0151 24.4604 29.0648C24.1656 29.32 23.7969 29.5051 23.2516 29.4639C22.4154 29.4001 21.8289 28.6821 21.832 27.8008C21.8336 27.3543 21.9962 26.96 22.2645 26.6924C22.5057 26.4513 22.9249 26.2241 23.3846 26.2265C23.499 26.2265 23.618 26.291 23.7285 26.2265C23.7316 26.0608 23.6141 25.9542 23.562 25.8274C23.1388 24.7999 23.8918 23.7926 24.8369 23.6875C25.8963 23.5701 26.7652 24.2912 26.6773 25.3949C26.6633 25.5707 26.6088 25.7131 26.5552 25.8383C26.5023 25.9612 26.4066 26.0678 26.3996 26.2265C26.5318 26.291 26.626 26.2265 26.7434 26.2265C27.4396 26.2218 28.0035 26.6916 28.1957 27.2136C28.5838 28.2652 27.89 29.3807 26.8982 29.4639C26.2985 29.5144 25.8979 29.278 25.5899 28.9871C25.5012 28.9038 25.4148 28.756 25.3347 28.7879C25.2235 28.8315 25.3021 29.222 25.3238 29.3643C25.4032 29.8933 25.46 30.2876 25.6568 30.717C25.6902 30.7901 25.7944 30.8959 25.7454 30.9387C25.3059 30.913 24.8174 30.9348 24.3593 30.9278H24.3608Z" fill="black"/>
<path fill-rule="evenodd" clip-rule="evenodd" d="M11.6767 40.4317C11.4301 40.8727 11.3165 41.3845 11.2333 42.0395C11.2115 42.2122 11.1268 42.5334 11.2442 42.5715C11.3438 42.6042 11.5188 42.3444 11.5771 42.2946C11.8719 42.0403 12.2406 41.8544 12.7859 41.8956C13.6221 41.9594 14.2086 42.6773 14.2055 43.5586C14.2039 44.0051 14.0414 44.3995 13.773 44.6671C13.5319 44.9082 13.1126 45.1353 12.6529 45.133C12.5386 45.133 12.4195 45.0685 12.3091 45.133C12.306 45.2987 12.4234 45.4053 12.4755 45.5321C12.8987 46.5596 12.1457 47.5669 11.2007 47.6719C10.1412 47.7894 9.27236 47.0683 9.36026 45.9645C9.37426 45.7887 9.42792 45.6464 9.48237 45.5212C9.53526 45.3983 9.63094 45.2917 9.63794 45.133C9.5057 45.0685 9.41159 45.1322 9.29413 45.133C8.59795 45.1377 8.03402 44.6679 7.84189 44.1459C7.45374 43.0943 8.14758 41.9788 9.13934 41.8956C9.73907 41.845 10.1397 42.0815 10.4477 42.3724C10.5364 42.4556 10.6227 42.6034 10.7028 42.5715C10.8141 42.5272 10.7355 42.1375 10.7137 41.9952C10.6344 41.4662 10.5776 41.0718 10.3808 40.6425C10.3473 40.5694 10.2431 40.4636 10.2921 40.4208C10.7316 40.4464 11.2201 40.4247 11.6782 40.4317H11.6767Z" fill="black"/>
<path fill-rule="evenodd" clip-rule="evenodd" d="M10.2588 30.9278C10.5054 30.4868 10.619 29.9749 10.7022 29.32C10.724 29.1473 10.8087 28.8261 10.6913 28.7879C10.5917 28.7553 10.4167 29.0151 10.3584 29.0648C10.0636 29.32 9.69485 29.5051 9.14957 29.4639C8.31338 29.4001 7.72688 28.6821 7.72999 27.8008C7.73155 27.3543 7.89412 26.96 8.16248 26.6924C8.40362 26.4513 8.82289 26.2241 9.2826 26.2265C9.39695 26.2265 9.51595 26.291 9.62641 26.2265C9.62952 26.0608 9.51205 25.9542 9.45994 25.8274C9.03679 24.7999 9.78898 23.7926 10.7348 23.6875C11.7943 23.5701 12.6631 24.2912 12.5752 25.3949C12.5612 25.5707 12.5068 25.7131 12.4531 25.8383C12.4002 25.9612 12.3046 26.0678 12.2976 26.2265C12.4298 26.291 12.5239 26.2265 12.6414 26.2265C13.3375 26.2218 13.9015 26.6916 14.0936 27.2136C14.4825 28.2652 13.7887 29.3807 12.7962 29.4639C12.1964 29.5144 11.7958 29.278 11.4878 28.9871C11.3991 28.9038 11.3128 28.756 11.2327 28.7879C11.1214 28.8315 11.2 29.222 11.2218 29.3643C11.3011 29.8933 11.3579 30.2876 11.5547 30.717C11.5882 30.7901 11.6924 30.8959 11.6434 30.9387C11.2039 30.913 10.7154 30.9348 10.2572 30.9278H10.2588Z" fill="black"/>
<path fill-rule="evenodd" clip-rule="evenodd" d="M4.45866 4.36179C4.25642 4.46291 4.19342 4.4808 3.97406 4.57726C3.86127 4.40924 3.77648 4.22955 3.59758 4.14632C2.81194 3.78229 2.23399 4.6737 2.30555 5.35743C2.57936 5.15286 3.2141 5.02374 3.67848 5.19564C3.95306 5.29754 4.22452 5.5869 4.35131 5.78759C4.59011 6.16563 4.74647 7.04616 4.51311 7.6451C4.08996 8.72787 2.42612 8.82044 1.8754 7.726C1.59226 7.16439 1.58294 6.20997 1.65995 5.38467C1.7424 4.50103 2.10954 3.6555 2.87105 3.52793C3.63879 3.39881 4.23853 3.77295 4.45944 4.36257L4.45866 4.36179ZM2.27834 6.29942C2.19978 6.61523 2.2791 7.24217 2.44012 7.53776C2.55213 7.74311 2.84306 7.94691 3.05931 7.96869C4.36143 8.10015 4.33342 5.39166 2.89751 5.70825C2.61904 5.7697 2.35224 6.00384 2.27834 6.3002V6.29942Z" fill="black"/>
<path fill-rule="evenodd" clip-rule="evenodd" d="M31.578 50.2535C31.7803 50.1524 31.8433 50.1345 32.0626 50.0381C32.1754 50.2061 32.2602 50.3858 32.4399 50.469C33.2255 50.833 33.8035 49.9416 33.7319 49.2579C33.4581 49.4625 32.8234 49.5916 32.359 49.4197C32.0844 49.3178 31.8129 49.0284 31.6862 48.8277C31.4466 48.4497 31.291 47.5692 31.5244 46.971C31.9475 45.8882 33.6113 45.7957 34.162 46.8901C34.4452 47.4517 34.4545 48.4069 34.3775 49.2314C34.2951 50.1151 33.9279 50.9606 33.1664 51.0882C32.3986 51.2173 31.7989 50.8432 31.578 50.2535ZM33.7583 48.3159C33.8369 48.0001 33.7576 47.3732 33.5965 47.0776C33.4845 46.8722 33.1936 46.6692 32.9774 46.6466C31.6752 46.5152 31.7033 49.2237 33.1392 48.9071C33.4176 48.8456 33.6844 48.6115 33.7583 48.3151V48.3159Z" fill="black"/>
</svg>
