<svg width="37" height="55" viewBox="0 0 37 55" fill="none" xmlns="http://www.w3.org/2000/svg">
<path d="M2.7095 1.0515C2.7095 1.0515 2.71417 1.03051 2.73128 1.02973C3.63825 0.962836 4.57634 1.02973 5.48565 1.02973C14.5616 1.02973 23.7613 1.02973 32.8303 1.02973C33.7303 1.02973 34.2997 1.32998 34.7913 1.80058C35.2626 2.25251 35.5186 2.87479 35.5186 3.80588C35.5186 19.3062 35.5186 34.7131 35.5186 50.2717C35.5186 51.2246 35.468 51.9861 35.0557 52.5407C34.6785 53.0479 34.1083 53.4415 33.3592 53.576C32.9548 53.6491 32.453 53.5978 31.9933 53.5978C22.4032 53.5978 12.8364 53.5978 3.28278 53.5978C2.37347 53.5978 1.76986 53.3193 1.29926 52.8487C1.06824 52.6177 0.855876 52.3385 0.748532 52.0335C0.401609 51.0496 0.550176 49.4783 0.550176 48.1342C0.550176 33.6373 0.550176 18.9748 0.550176 4.40016C0.550176 3.41851 0.605399 2.70678 1.01299 2.13116C1.39414 1.59211 1.90286 1.20396 2.7095 1.0515Z" fill="#FAF8F4" stroke="black" stroke-linejoin="round"/>
<path fill-rule="evenodd" clip-rule="evenodd" d="M2.70849 12.7447C2.85317 12.4872 3.02974 11.9178 2.96129 11.8953C2.90295 11.8758 2.80027 12.0283 2.76683 12.0571C2.59414 12.2064 2.37869 12.3145 2.05977 12.2904C1.5705 12.2531 1.22745 11.8331 1.22901 11.3173C1.22979 11.056 1.32546 10.8257 1.48181 10.6686C1.6226 10.5278 1.86842 10.3948 2.13678 10.3964C2.20367 10.3964 2.27367 10.4337 2.33745 10.3964C2.33901 10.2991 2.27055 10.2369 2.24022 10.163C1.99286 9.56172 2.43313 8.97211 2.98619 8.91144C3.60613 8.84299 4.11408 9.26458 4.06274 9.9102C4.05496 10.0129 4.02306 10.0969 3.99117 10.17C3.96005 10.2416 3.90405 10.3046 3.90016 10.3971C3.97717 10.4345 4.0324 10.3971 4.10163 10.3971C4.50845 10.394 4.83903 10.6694 4.95182 10.9743C5.17895 11.5896 4.77291 12.2422 4.19264 12.2912C3.84182 12.3208 3.60768 12.1823 3.42722 12.012C3.37588 11.963 3.32455 11.8766 3.27788 11.8953C3.21254 11.921 3.34634 12.488 3.51824 12.7517C3.23044 12.7517 3.00329 12.7455 2.70771 12.7455L2.70849 12.7447Z" fill="black"/>
<path fill-rule="evenodd" clip-rule="evenodd" d="M33.3289 41.8706C33.1842 42.1289 33.0076 42.6975 33.0761 42.7201C33.1344 42.7395 33.2371 42.587 33.2705 42.5583C33.4432 42.4089 33.6587 42.3008 33.9776 42.3249C34.4669 42.3622 34.8099 42.7823 34.8076 43.298C34.8068 43.5594 34.7111 43.7896 34.5548 43.9467C34.414 44.0875 34.1682 44.2205 33.8998 44.219C33.8329 44.219 33.7629 44.1817 33.6991 44.219C33.6968 44.3162 33.766 44.3784 33.7964 44.4523C34.0437 45.0536 33.6034 45.6425 33.0504 45.7039C32.4304 45.7724 31.9217 45.3508 31.9738 44.7051C31.9824 44.6025 32.0135 44.5192 32.0454 44.4461C32.0765 44.3746 32.1325 44.3116 32.1364 44.219C32.0594 44.1817 32.0042 44.219 31.9357 44.219C31.5281 44.2221 31.1983 43.9467 31.0855 43.6418C30.8584 43.0265 31.2644 42.3739 31.8447 42.3249C32.1955 42.2954 32.4305 42.4338 32.6101 42.6034C32.6615 42.6524 32.7128 42.7387 32.7595 42.7201C32.8248 42.6944 32.691 42.1273 32.5199 41.8636C32.8077 41.8636 33.0348 41.8699 33.3304 41.8699L33.3289 41.8706Z" fill="black"/>
<path fill-rule="evenodd" clip-rule="evenodd" d="M24.3601 14.1838C24.6067 13.7427 24.7202 13.2309 24.8034 12.576C24.8252 12.4033 24.91 12.0828 24.7926 12.0439C24.693 12.0112 24.518 12.271 24.4596 12.3208C24.1648 12.5752 23.7961 12.7611 23.2509 12.7199C22.4147 12.6569 21.8282 11.9381 21.8321 11.0568C21.8336 10.6103 21.9962 10.216 22.2645 9.94838C22.5057 9.70724 22.9249 9.48011 23.3846 9.48244C23.499 9.48244 23.618 9.54701 23.7284 9.48244C23.7316 9.31676 23.6141 9.21019 23.562 9.0834C23.1388 8.05586 23.8918 7.04854 24.8369 6.94353C25.8963 6.82608 26.7652 7.54715 26.6773 8.65092C26.6633 8.82672 26.6096 8.96984 26.5552 9.0943C26.5023 9.2172 26.4066 9.32376 26.3996 9.48244C26.5318 9.54701 26.6259 9.48322 26.7434 9.48244C27.4396 9.47778 28.0035 9.9476 28.1957 10.4695C28.5846 11.5212 27.89 12.6366 26.8982 12.7199C26.2985 12.7704 25.8979 12.534 25.5899 12.243C25.5012 12.1598 25.4148 12.012 25.3347 12.0431C25.2235 12.0875 25.302 12.4772 25.3238 12.6195C25.4032 13.1485 25.4599 13.5428 25.6567 13.9722C25.6902 14.0453 25.7944 14.1511 25.7454 14.1939C25.3059 14.1682 24.8174 14.19 24.3593 14.183L24.3601 14.1838Z" fill="black"/>
<path fill-rule="evenodd" clip-rule="evenodd" d="M25.7779 40.4315C25.5314 40.8726 25.4178 41.3844 25.3346 42.0394C25.3128 42.2121 25.228 42.5333 25.3455 42.5714C25.445 42.6041 25.62 42.3443 25.6784 42.2945C25.9732 42.0394 26.3419 41.8542 26.8872 41.8955C27.7234 41.9593 28.3099 42.6772 28.3067 43.5585C28.3052 44.005 28.1426 44.3994 27.8743 44.667C27.6331 44.9081 27.2139 45.1352 26.7542 45.1329C26.6398 45.1329 26.5208 45.0683 26.4103 45.1329C26.4072 45.2986 26.5247 45.4051 26.5768 45.5319C27 46.5595 26.247 47.5668 25.3019 47.6718C24.2425 47.7893 23.3736 47.0682 23.4615 45.9644C23.4755 45.7886 23.5292 45.6463 23.5836 45.521C23.6365 45.3981 23.7322 45.2916 23.7384 45.1329C23.6062 45.0683 23.5128 45.1329 23.3946 45.1329C22.6984 45.1376 22.1345 44.6677 21.9423 44.1466C21.5534 43.0949 22.2473 41.9795 23.2398 41.8955C23.8395 41.8449 24.2401 42.0814 24.5482 42.3723C24.6368 42.4563 24.7232 42.6033 24.8033 42.5714C24.9145 42.5271 24.836 42.1374 24.8142 41.995C24.7349 41.4653 24.6781 41.0717 24.4813 40.6423C24.4478 40.5692 24.3436 40.4634 24.3926 40.4207C24.8321 40.4463 25.3206 40.4245 25.7787 40.4315H25.7779Z" fill="black"/>
<path fill-rule="evenodd" clip-rule="evenodd" d="M10.2583 14.1838C10.5049 13.7427 10.6184 13.2309 10.7017 12.576C10.7235 12.4033 10.8083 12.0828 10.6908 12.0439C10.5912 12.0112 10.4162 12.271 10.3579 12.3208C10.0631 12.5752 9.69436 12.7611 9.14909 12.7199C8.31289 12.6569 7.72639 11.9381 7.7295 11.0568C7.73106 10.6103 7.89364 10.216 8.162 9.94838C8.40313 9.70724 8.82238 9.48011 9.2821 9.48244C9.39644 9.48244 9.51546 9.54701 9.62592 9.48244C9.62903 9.31676 9.51156 9.21019 9.45945 9.0834C9.0363 8.05586 9.78927 7.04854 10.7344 6.94353C11.7938 6.82608 12.6627 7.54715 12.5748 8.65092C12.5608 8.82672 12.5071 8.96984 12.4526 9.0943C12.3997 9.2172 12.3041 9.32376 12.2978 9.48244C12.4301 9.54701 12.5234 9.48322 12.6416 9.48244C13.3378 9.47778 13.9018 9.9476 14.0939 10.4695C14.4821 11.5212 13.7882 12.6366 12.7964 12.7199C12.1967 12.7704 11.7961 12.534 11.4881 12.243C11.3994 12.1598 11.3131 12.012 11.233 12.0431C11.1217 12.0875 11.2003 12.4772 11.2221 12.6195C11.3014 13.1485 11.3582 13.5428 11.555 13.9722C11.5884 14.0453 11.6927 14.1511 11.6437 14.1939C11.2042 14.1682 10.7165 14.19 10.2575 14.183L10.2583 14.1838Z" fill="black"/>
<path fill-rule="evenodd" clip-rule="evenodd" d="M24.3601 30.9278C24.6067 30.4867 24.7202 29.9749 24.8034 29.3199C24.8252 29.1473 24.91 28.826 24.7926 28.7879C24.693 28.7552 24.518 29.015 24.4596 29.0648C24.1648 29.3199 23.7961 29.5051 23.2509 29.4638C22.4147 29.4001 21.8282 28.6821 21.8321 27.8008C21.8336 27.3543 21.9962 26.9599 22.2645 26.6923C22.5057 26.4512 22.9249 26.2241 23.3846 26.2272C23.499 26.2272 23.618 26.2918 23.7284 26.2272C23.7316 26.0615 23.6141 25.9549 23.562 25.8282C23.1388 24.8006 23.8918 23.7933 24.8369 23.6883C25.8963 23.5708 26.7652 24.2919 26.6773 25.3957C26.6633 25.5722 26.6096 25.7146 26.5552 25.839C26.5023 25.9619 26.4066 26.0685 26.3996 26.2272C26.5318 26.2918 26.6259 26.2272 26.7434 26.2272C27.4396 26.2225 28.0035 26.6924 28.1957 27.2143C28.5846 28.266 27.89 29.3814 26.8982 29.4646C26.2985 29.5152 25.8979 29.2787 25.5899 28.9878C25.5012 28.9046 25.4148 28.7568 25.3347 28.7887C25.2235 28.8322 25.302 29.2227 25.3238 29.3651C25.4032 29.894 25.4599 30.2884 25.6567 30.7177C25.6902 30.7909 25.7944 30.8966 25.7454 30.9394C25.3059 30.9138 24.8174 30.9355 24.3593 30.9285L24.3601 30.9278Z" fill="black"/>
<path fill-rule="evenodd" clip-rule="evenodd" d="M11.6765 40.4315C11.4299 40.8726 11.3164 41.3844 11.2331 42.0394C11.2114 42.2121 11.1273 42.5333 11.244 42.5714C11.3436 42.6041 11.5186 42.3443 11.5769 42.2945C11.8717 42.0394 12.2404 41.8542 12.7857 41.8955C13.6219 41.9593 14.2084 42.6772 14.2045 43.5585C14.203 44.005 14.0404 44.3994 13.772 44.667C13.5309 44.9081 13.1116 45.1352 12.6519 45.1329C12.5376 45.1329 12.4186 45.0683 12.3081 45.1329C12.305 45.2986 12.4225 45.4051 12.4746 45.5319C12.8977 46.5595 12.1448 47.5668 11.1997 47.6718C10.1403 47.7893 9.27138 47.0682 9.35928 45.9644C9.37328 45.7886 9.42774 45.6463 9.48141 45.521C9.5343 45.3981 9.62998 45.2916 9.63698 45.1329C9.50474 45.0683 9.41063 45.1329 9.29317 45.1329C8.597 45.1376 8.03304 44.6677 7.84091 44.1466C7.45276 43.0949 8.14662 41.9795 9.13838 41.8955C9.73811 41.8449 10.1387 42.0814 10.4467 42.3723C10.5354 42.4563 10.6217 42.6033 10.7019 42.5714C10.8131 42.5271 10.7345 42.1374 10.7128 41.995C10.6334 41.4653 10.5766 41.0717 10.3798 40.6423C10.3464 40.5692 10.2421 40.4634 10.2911 40.4207C10.7306 40.4463 11.2191 40.4245 11.6773 40.4315H11.6765Z" fill="black"/>
<path fill-rule="evenodd" clip-rule="evenodd" d="M10.2583 30.9278C10.5049 30.4867 10.6184 29.9749 10.7017 29.3199C10.7235 29.1473 10.8083 28.826 10.6908 28.7879C10.5912 28.7552 10.4162 29.015 10.3579 29.0648C10.0631 29.3199 9.69436 29.5051 9.14909 29.4638C8.31289 29.4001 7.72639 28.6821 7.7295 27.8008C7.73106 27.3543 7.89364 26.9599 8.162 26.6923C8.40313 26.4512 8.82238 26.2241 9.2821 26.2272C9.39644 26.2272 9.51546 26.2918 9.62592 26.2272C9.62903 26.0615 9.51156 25.9549 9.45945 25.8282C9.0363 24.8006 9.78927 23.7933 10.7344 23.6883C11.7938 23.5708 12.6627 24.2919 12.5748 25.3957C12.5608 25.5722 12.5071 25.7146 12.4526 25.839C12.3997 25.9619 12.3041 26.0685 12.2978 26.2272C12.4301 26.2918 12.5234 26.2272 12.6416 26.2272C13.3378 26.2225 13.9018 26.6924 14.0939 27.2143C14.4821 28.266 13.7882 29.3814 12.7964 29.4646C12.1967 29.5152 11.7961 29.2787 11.4881 28.9878C11.3994 28.9046 11.3131 28.7568 11.233 28.7887C11.1217 28.8322 11.2003 29.2227 11.2221 29.3651C11.3014 29.894 11.3582 30.2884 11.555 30.7177C11.5884 30.7909 11.6927 30.8966 11.6437 30.9394C11.2042 30.9138 10.7165 30.9355 10.2575 30.9285L10.2583 30.9278Z" fill="black"/>
<path fill-rule="evenodd" clip-rule="evenodd" d="M17.3096 22.5557C17.5562 22.1147 17.6697 21.6029 17.753 20.9479C17.7747 20.7752 17.8595 20.4548 17.7421 20.4159C17.6425 20.3832 17.4675 20.643 17.4091 20.6928C17.1143 20.9471 16.7456 21.133 16.2004 21.0918C15.3642 21.0288 14.7777 20.3101 14.7808 19.4288C14.7823 18.9831 14.9449 18.5887 15.2133 18.3203C15.4544 18.0792 15.8737 17.8521 16.3334 17.8544C16.4477 17.8544 16.5667 17.919 16.6772 17.8544C16.6803 17.6887 16.5629 17.5821 16.5107 17.4554C16.0876 16.4278 16.8405 15.4205 17.7856 15.3155C18.8451 15.198 19.7139 15.9191 19.626 17.0229C19.612 17.1987 19.5576 17.3418 19.5039 17.4662C19.451 17.5891 19.3546 17.6957 19.3483 17.8544C19.4806 17.919 19.5747 17.8544 19.6921 17.8544C20.3883 17.8497 20.9523 18.3196 21.1444 18.8415C21.5333 19.8931 20.8387 21.0086 19.8469 21.0918C19.248 21.1424 18.8466 20.9059 18.5386 20.615C18.4499 20.5318 18.3636 20.384 18.2834 20.4159C18.1722 20.4594 18.2508 20.8499 18.2726 20.9922C18.3519 21.522 18.4087 21.9156 18.6055 22.3449C18.6389 22.4181 18.7432 22.5238 18.6942 22.5666C18.2547 22.541 17.7662 22.5627 17.308 22.5557H17.3096Z" fill="black"/>
<path fill-rule="evenodd" clip-rule="evenodd" d="M4.71362 3.50146C4.72685 3.66793 4.70507 4.00396 4.71362 4.25599C3.71486 5.19174 3.25514 6.63388 3.28859 8.50306H2.6741C2.64998 6.55999 3.11748 5.11007 3.98712 4.08875H2.17083V4.70636C1.8768 4.70636 1.73679 4.70325 1.53221 4.70325C1.53221 4.19376 1.52832 3.97051 1.52832 3.50458C2.56598 3.50458 3.4325 3.50224 4.71362 3.50224V3.50146Z" fill="black"/>
<path fill-rule="evenodd" clip-rule="evenodd" d="M31.3227 51.1139C31.3095 50.9474 31.3313 50.6114 31.3227 50.3594C32.3215 49.4236 32.7812 47.9815 32.7478 46.1123H33.3623C33.3864 48.0562 32.9189 49.5061 32.0492 50.5266H33.8655V49.909C34.1596 49.909 34.2996 49.9121 34.5041 49.9121C34.5041 50.4216 34.508 50.6448 34.508 51.1108C33.4704 51.1108 32.6039 51.1131 31.3227 51.1131V51.1139Z" fill="black"/>
</svg>
