<svg width="37" height="55" viewBox="0 0 37 55" fill="none" xmlns="http://www.w3.org/2000/svg">
<path d="M2.70877 1.05151C2.70877 1.05151 2.71344 1.03051 2.73055 1.02973C3.63755 0.962835 4.57643 1.02973 5.48498 1.02973C14.5612 1.02973 23.761 1.02973 32.8302 1.02973C33.731 1.02973 34.2996 1.32998 34.7912 1.80059C35.2626 2.25176 35.5186 2.87484 35.5186 3.80595C35.5186 19.3066 35.5186 34.7138 35.5186 50.2728C35.5186 51.2257 35.468 51.9872 35.0557 52.5418C34.6785 53.049 34.1075 53.4426 33.3592 53.5772C32.9547 53.6503 32.453 53.599 31.9932 53.599C22.4029 53.599 12.8358 53.599 3.28205 53.599C2.37272 53.599 1.76987 53.3205 1.29926 52.8499C1.06823 52.6189 0.855883 52.3396 0.748537 52.0347C0.401607 51.0507 0.550176 49.4794 0.550176 48.1352C0.550176 33.6381 0.550176 18.9752 0.550176 4.40024C0.550176 3.41857 0.605401 2.70681 1.01301 2.13119C1.39416 1.5929 1.90211 1.20397 2.70877 1.05151Z" fill="#FAF8F4" stroke="black" stroke-linejoin="round"/>
<path fill-rule="evenodd" clip-rule="evenodd" d="M2.70775 12.7451C2.85243 12.4868 3.02901 11.9182 2.96056 11.8956C2.90222 11.8762 2.79954 12.0287 2.76609 12.0574C2.5934 12.2068 2.37792 12.3149 2.059 12.2908C1.56972 12.2535 1.22668 11.8334 1.22902 11.3177C1.22979 11.0563 1.32547 10.8261 1.48182 10.6689C1.62262 10.5281 1.86842 10.3951 2.13678 10.3967C2.20368 10.3967 2.2737 10.434 2.33748 10.3967C2.33981 10.2994 2.27058 10.2372 2.24025 10.1633C1.99288 9.56203 2.43317 8.9724 2.98623 8.91095C3.60619 8.8425 4.11491 9.2641 4.06279 9.90973C4.05423 10.0124 4.02313 10.0964 3.99123 10.1695C3.96012 10.2411 3.90412 10.3041 3.90023 10.3967C3.97802 10.434 4.03245 10.3967 4.10169 10.3967C4.50851 10.3936 4.83834 10.6689 4.95113 10.9739C5.17827 11.5892 4.77222 12.2418 4.19193 12.2908C3.84111 12.3204 3.60619 12.1819 3.4265 12.0115C3.37516 11.9625 3.32383 11.8762 3.27715 11.8949C3.21181 11.9205 3.34559 12.4876 3.5175 12.7513C3.22969 12.7513 3.00256 12.7451 2.70697 12.7451H2.70775Z" fill="black"/>
<path fill-rule="evenodd" clip-rule="evenodd" d="M33.3284 41.8717C33.1837 42.1299 33.0072 42.6985 33.0756 42.7211C33.1339 42.7406 33.2366 42.5881 33.2701 42.5593C33.4428 42.41 33.6582 42.3018 33.9772 42.3259C34.4664 42.3633 34.8095 42.7833 34.8071 43.2991C34.8064 43.5604 34.7115 43.7907 34.5543 43.9478C34.4135 44.0886 34.1677 44.2216 33.8994 44.2201C33.8325 44.2201 33.7625 44.1827 33.6987 44.2201C33.6964 44.3173 33.7656 44.3795 33.7959 44.4534C34.0441 45.0547 33.603 45.6443 33.05 45.705C32.43 45.7735 31.922 45.3519 31.9734 44.7062C31.9819 44.6036 32.013 44.5195 32.0449 44.4464C32.076 44.3749 32.1321 44.3119 32.136 44.2193C32.0589 44.1819 32.0037 44.2193 31.9345 44.2193C31.5277 44.2224 31.1971 43.947 31.0851 43.6421C30.8579 43.0268 31.264 42.3742 31.8443 42.3252C32.1951 42.2956 32.4292 42.4341 32.6097 42.6036C32.6618 42.6527 32.7124 42.739 32.759 42.7203C32.8244 42.6947 32.6906 42.1276 32.5187 41.8639C32.8065 41.8639 33.0336 41.8701 33.3292 41.8701L33.3284 41.8717Z" fill="black"/>
<path fill-rule="evenodd" clip-rule="evenodd" d="M24.3604 14.1842C24.607 13.7431 24.7206 13.2313 24.8038 12.5763C24.8256 12.4036 24.9104 12.0824 24.7929 12.0443C24.6933 12.0116 24.5183 12.2714 24.46 12.3212C24.1651 12.5756 23.7957 12.7615 23.2512 12.7202C22.415 12.6572 21.8284 11.9385 21.8316 11.0572C21.8331 10.6107 21.9957 10.2163 22.264 9.94869C22.5052 9.70755 22.9245 9.48041 23.3842 9.48274C23.4985 9.48274 23.6175 9.54731 23.728 9.48274C23.7311 9.31706 23.6137 9.21049 23.5615 9.0837C23.1384 8.05613 23.8913 7.04879 24.8365 6.94378C25.8959 6.82632 26.7656 7.54741 26.6769 8.65121C26.6629 8.827 26.6092 8.96935 26.5548 9.09459C26.5019 9.21749 26.4062 9.32406 26.3992 9.48274C26.5314 9.54731 26.6256 9.48352 26.743 9.48274C27.4392 9.47808 28.0032 9.94792 28.1953 10.4699C28.5835 11.5215 27.8896 12.637 26.8978 12.7202C26.2981 12.7708 25.8975 12.5343 25.5894 12.2434C25.5008 12.1602 25.4144 12.0124 25.3343 12.0443C25.2231 12.0878 25.3016 12.4783 25.3234 12.6207C25.4027 13.1496 25.4595 13.544 25.6563 13.9734C25.6898 14.0465 25.794 14.1523 25.745 14.1951C25.3055 14.1694 24.817 14.1912 24.3589 14.1842H24.3604Z" fill="black"/>
<path fill-rule="evenodd" clip-rule="evenodd" d="M25.7788 40.4326C25.5323 40.8737 25.4187 41.3855 25.3354 42.0405C25.3137 42.2132 25.2297 42.5345 25.3463 42.5726C25.4459 42.6052 25.6209 42.3454 25.6793 42.2956C25.9741 42.0405 26.3428 41.8554 26.8881 41.8966C27.7243 41.9604 28.3108 42.6784 28.3077 43.5597C28.3061 44.0062 28.1436 44.4006 27.8752 44.6682C27.6341 44.9093 27.2148 45.1364 26.7551 45.1341C26.6407 45.1341 26.5217 45.0695 26.4112 45.1341C26.4081 45.2998 26.5256 45.4064 26.5777 45.5331C27.0009 46.5607 26.2479 47.568 25.3028 47.6731C24.2433 47.7905 23.3744 47.0694 23.4623 45.9656C23.4763 45.7898 23.5308 45.6475 23.5845 45.5223C23.6374 45.3993 23.7338 45.2928 23.74 45.1341C23.6078 45.0695 23.5137 45.1333 23.3962 45.1341C22.7 45.1388 22.1361 44.6689 21.9439 44.147C21.5558 43.0953 22.2496 41.9798 23.2414 41.8966C23.8412 41.846 24.2418 42.0825 24.5498 42.3734C24.6385 42.4567 24.7248 42.6045 24.8049 42.5726C24.9162 42.5282 24.8376 42.1385 24.8158 41.9962C24.7365 41.4664 24.6797 41.0728 24.4829 40.6435C24.4495 40.5703 24.3452 40.4645 24.3942 40.4218C24.8345 40.4474 25.3222 40.4256 25.7804 40.4326H25.7788Z" fill="black"/>
<path fill-rule="evenodd" clip-rule="evenodd" d="M10.2579 14.1842C10.5045 13.7431 10.618 13.2313 10.7013 12.5763C10.723 12.4036 10.8078 12.0824 10.6904 12.0443C10.5908 12.0116 10.4158 12.2714 10.3574 12.3212C10.0626 12.5756 9.69314 12.7615 9.14863 12.7202C8.31242 12.6572 7.7259 11.9385 7.72902 11.0572C7.73057 10.6107 7.89315 10.2163 8.16152 9.94869C8.40266 9.70755 8.82192 9.48041 9.28086 9.48274C9.39521 9.48274 9.515 9.54731 9.62468 9.48274C9.62779 9.31706 9.51034 9.21049 9.45822 9.0837C9.03506 8.05613 9.78803 7.04879 10.7331 6.94378C11.7926 6.82632 12.6615 7.54741 12.5736 8.65121C12.5596 8.827 12.5059 8.96935 12.4515 9.09459C12.3986 9.21749 12.3029 9.32406 12.2967 9.48274C12.4289 9.54731 12.5222 9.48352 12.6405 9.48274C13.3367 9.47808 13.9006 9.94792 14.0928 10.4699C14.4809 11.5215 13.7871 12.637 12.7953 12.7202C12.1955 12.7708 11.7949 12.5343 11.4869 12.2434C11.3982 12.1602 11.3119 12.0124 11.2318 12.0443C11.1205 12.0878 11.1991 12.4783 11.2209 12.6207C11.3002 13.1496 11.357 13.544 11.5538 13.9734C11.5872 14.0465 11.6915 14.1523 11.6425 14.1951C11.203 14.1694 10.7145 14.1912 10.2563 14.1842H10.2579Z" fill="black"/>
<path fill-rule="evenodd" clip-rule="evenodd" d="M24.3604 30.9286C24.607 30.4875 24.7206 29.9757 24.8038 29.3207C24.8256 29.148 24.9104 28.8268 24.7929 28.7887C24.6933 28.756 24.5183 29.0158 24.46 29.0656C24.1651 29.3199 23.7957 29.5059 23.2512 29.4646C22.415 29.4016 21.8284 28.6829 21.8316 27.8015C21.8331 27.355 21.9957 26.9607 22.264 26.6931C22.5052 26.4519 22.9245 26.2248 23.3842 26.2271C23.4985 26.2271 23.6175 26.2917 23.728 26.2271C23.7311 26.0614 23.6137 25.9549 23.5615 25.8281C23.1384 24.8005 23.8913 23.7932 24.8365 23.6882C25.8959 23.5707 26.7656 24.2918 26.6769 25.3956C26.6629 25.5722 26.6092 25.7145 26.5548 25.839C26.5019 25.9619 26.4062 26.0684 26.3992 26.2271C26.5314 26.2917 26.6256 26.2271 26.743 26.2271C27.4392 26.2225 28.0032 26.6923 28.1953 27.2143C28.5835 28.2659 27.8896 29.3814 26.8978 29.4646C26.2981 29.5152 25.8975 29.2787 25.5894 28.9878C25.5008 28.9046 25.4144 28.7568 25.3343 28.7887C25.2231 28.833 25.3016 29.2227 25.3234 29.3651C25.4027 29.894 25.4595 30.2884 25.6563 30.7178C25.6898 30.7909 25.794 30.8967 25.745 30.9395C25.3055 30.9138 24.817 30.9356 24.3589 30.9286H24.3604Z" fill="black"/>
<path fill-rule="evenodd" clip-rule="evenodd" d="M11.6758 40.4326C11.4292 40.8737 11.3157 41.3855 11.2324 42.0405C11.2107 42.2132 11.1259 42.5345 11.2433 42.5726C11.3429 42.6052 11.5179 42.3454 11.5762 42.2956C11.8711 42.0405 12.2406 41.8554 12.7851 41.8966C13.6213 41.9604 14.2078 42.6784 14.2047 43.5597C14.2031 44.0062 14.0405 44.4006 13.7722 44.6682C13.531 44.9093 13.1118 45.1364 12.652 45.1341C12.5377 45.1341 12.4187 45.0695 12.3082 45.1341C12.3051 45.2998 12.4226 45.4064 12.4747 45.5331C12.8979 46.5607 12.1449 47.568 11.1998 47.6731C10.1403 47.7905 9.27142 47.0694 9.35932 45.9656C9.37332 45.7898 9.427 45.6475 9.48145 45.5223C9.53434 45.3993 9.63002 45.2928 9.63702 45.1341C9.50478 45.0695 9.41065 45.1333 9.29319 45.1341C8.597 45.1388 8.03305 44.6689 7.84091 44.147C7.45276 43.0953 8.14661 41.9798 9.1384 41.8966C9.73813 41.846 10.1387 42.0825 10.4468 42.3734C10.5355 42.4567 10.6218 42.6045 10.7019 42.5726C10.8132 42.5282 10.7346 42.1385 10.7128 41.9962C10.6335 41.4664 10.5767 41.0728 10.3799 40.6435C10.3464 40.5703 10.2422 40.4645 10.2912 40.4218C10.7315 40.4474 11.2192 40.4256 11.6774 40.4326H11.6758Z" fill="black"/>
<path fill-rule="evenodd" clip-rule="evenodd" d="M10.2579 30.9286C10.5045 30.4875 10.618 29.9757 10.7013 29.3207C10.723 29.148 10.8078 28.8268 10.6904 28.7887C10.5908 28.756 10.4158 29.0158 10.3574 29.0656C10.0626 29.3199 9.69314 29.5059 9.14863 29.4646C8.31242 29.4016 7.7259 28.6829 7.72902 27.8015C7.73057 27.355 7.89315 26.9607 8.16152 26.6931C8.40266 26.4519 8.82192 26.2248 9.28086 26.2271C9.39521 26.2271 9.515 26.2917 9.62468 26.2271C9.62779 26.0614 9.51034 25.9549 9.45822 25.8281C9.03506 24.8005 9.78803 23.7932 10.7331 23.6882C11.7926 23.5707 12.6615 24.2918 12.5736 25.3956C12.5596 25.5722 12.5059 25.7145 12.4515 25.839C12.3986 25.9619 12.3029 26.0684 12.2967 26.2271C12.4289 26.2917 12.5222 26.2271 12.6405 26.2271C13.3367 26.2225 13.9006 26.6923 14.0928 27.2143C14.4809 28.2659 13.7871 29.3814 12.7953 29.4646C12.1955 29.5152 11.7949 29.2787 11.4869 28.9878C11.3982 28.9046 11.3119 28.7568 11.2318 28.7887C11.1205 28.833 11.1991 29.2227 11.2209 29.3651C11.3002 29.894 11.357 30.2884 11.5538 30.7178C11.5872 30.7909 11.6915 30.8967 11.6425 30.9395C11.203 30.9138 10.7145 30.9356 10.2563 30.9286H10.2579Z" fill="black"/>
<path fill-rule="evenodd" clip-rule="evenodd" d="M17.3091 22.5564C17.5557 22.1153 17.6693 21.6035 17.7525 20.9485C17.7743 20.7758 17.8591 20.4554 17.7416 20.4165C17.6421 20.3838 17.4663 20.6436 17.4087 20.6934C17.1139 20.9477 16.7444 21.1337 16.1999 21.0924C15.3637 21.0294 14.7772 20.3107 14.7803 19.4293C14.7818 18.9828 14.9444 18.5885 15.2128 18.3209C15.4539 18.0797 15.8732 17.8526 16.3329 17.8549C16.4473 17.8549 16.5663 17.9195 16.6767 17.8549C16.6799 17.6893 16.5624 17.5827 16.5103 17.4559C16.0871 16.4283 16.8401 15.421 17.7852 15.316C18.8447 15.1985 19.7135 15.9196 19.6256 17.0234C19.6116 17.1992 19.5572 17.3423 19.5035 17.4668C19.4506 17.5897 19.3549 17.6963 19.3479 17.8549C19.4802 17.9195 19.5743 17.8557 19.6918 17.8549C20.388 17.8503 20.9519 18.3201 21.144 18.8421C21.5322 19.8937 20.8391 21.0092 19.8466 21.0924C19.2468 21.143 18.8462 20.9065 18.5382 20.6156C18.4495 20.5324 18.3632 20.3846 18.283 20.4165C18.1718 20.4608 18.2504 20.8505 18.2722 20.9929C18.3515 21.5226 18.4083 21.9162 18.6051 22.3456C18.6385 22.4187 18.7428 22.5245 18.6938 22.5673C18.2543 22.5416 17.7658 22.5634 17.3076 22.5564H17.3091Z" fill="black"/>
<path fill-rule="evenodd" clip-rule="evenodd" d="M18.7274 32.0605C18.4808 32.5015 18.3672 33.0133 18.284 33.6683C18.2622 33.841 18.1774 34.1615 18.2949 34.2004C18.3944 34.233 18.5695 33.9732 18.6278 33.9235C18.9226 33.6691 19.2921 33.4832 19.8366 33.5244C20.6728 33.5874 21.2593 34.3062 21.2562 35.1875C21.2547 35.634 21.0921 36.0284 20.8237 36.296C20.5826 36.5371 20.1633 36.7642 19.7036 36.7619C19.5893 36.7619 19.4703 36.6973 19.3598 36.7619C19.3567 36.9276 19.4741 37.0342 19.5263 37.161C19.9494 38.1885 19.1964 39.1959 18.2513 39.3009C17.1919 39.4183 16.3222 38.6972 16.4109 37.5934C16.4249 37.4176 16.4786 37.2745 16.533 37.1501C16.5859 37.0272 16.6824 36.9206 16.6886 36.7619C16.5563 36.6973 16.4622 36.7611 16.3448 36.7619C15.6486 36.7666 15.0846 36.296 14.8925 35.7748C14.5035 34.7231 15.1982 33.6076 16.19 33.5244C16.7897 33.4738 17.1903 33.7103 17.4983 34.0012C17.587 34.0845 17.6734 34.2323 17.7535 34.2004C17.8647 34.1568 17.7862 33.7663 17.7644 33.624C17.685 33.0942 17.6283 32.7006 17.4315 32.2713C17.398 32.1981 17.2938 32.0923 17.3428 32.0496C17.7823 32.0752 18.2708 32.0535 18.7289 32.0605H18.7274Z" fill="black"/>
<path fill-rule="evenodd" clip-rule="evenodd" d="M2.88412 3.51805C3.98247 3.35937 4.92914 4.38382 4.38464 5.3935C4.3333 5.48762 4.13027 5.68208 4.03615 5.76843C4.20106 5.86955 4.40486 6.13247 4.46476 6.22426C5.13684 7.25571 4.2384 8.56565 2.96424 8.50108C1.72199 8.43808 1.0678 6.88311 1.97324 5.98312C1.98491 5.97145 2.21049 5.8151 2.18715 5.79565C2.06658 5.69141 1.86433 5.45105 1.81221 5.33982C1.41394 4.49116 2.0378 3.64018 2.88412 3.51805ZM2.75033 5.47362C3.38274 5.73654 4.00271 5.2387 3.90236 4.64285C3.84091 4.27725 3.4823 3.97155 2.93779 4.08045C2.21437 4.22513 2.15059 5.2247 2.75033 5.47362ZM2.21437 7.45563C2.48429 7.96903 3.33684 8.11293 3.795 7.69677C4.54332 7.01769 3.80746 5.94112 2.83045 6.14336C2.29839 6.25304 1.90166 6.86134 2.21437 7.45641V7.45563Z" fill="black"/>
<path fill-rule="evenodd" clip-rule="evenodd" d="M33.152 51.0987C32.0537 51.2574 31.107 50.233 31.6515 49.2233C31.7029 49.1284 31.9059 48.9347 32 48.8484C31.8343 48.7472 31.6313 48.4843 31.5714 48.3925C30.8993 47.3611 31.7978 46.0511 33.0719 46.1157C34.3142 46.1787 34.9684 47.7337 34.0637 48.6337C34.0513 48.6453 33.8265 48.8017 33.849 48.8211C33.9696 48.9254 34.1718 49.165 34.2239 49.2762C34.6222 50.1248 33.9984 50.9758 33.152 51.098V51.0987ZM33.2858 49.1432C32.6534 48.8803 32.0335 49.3781 32.1338 49.9739C32.1953 50.3395 32.5539 50.6452 33.0984 50.5363C33.8218 50.3916 33.8856 49.3921 33.2858 49.1432ZM33.8218 47.1604C33.5519 46.647 32.6993 46.5031 32.2411 46.9192C31.4928 47.5991 32.2287 48.6749 33.2057 48.4734C33.7378 48.3637 34.1345 47.7555 33.8218 47.1604Z" fill="black"/>
</svg>
