<svg width="37" height="55" viewBox="0 0 37 55" fill="none" xmlns="http://www.w3.org/2000/svg">
<path d="M2.70878 1.05228C2.70878 1.05228 2.71343 1.03129 2.73054 1.02973C3.63754 0.962835 4.57644 1.02973 5.48499 1.02973C14.5612 1.02973 23.761 1.02973 32.8302 1.02973C33.731 1.02973 34.2996 1.32998 34.7912 1.80059C35.2626 2.25254 35.5186 2.87484 35.5186 3.80595C35.5186 19.3066 35.5178 34.7139 35.5186 50.2728C35.5186 51.2257 35.468 51.9872 35.0557 52.5419C34.6785 53.0498 34.1075 53.4426 33.3592 53.5772C32.9547 53.6503 32.453 53.599 31.9933 53.599C22.4029 53.599 12.8359 53.599 3.28206 53.599C2.37273 53.599 1.76988 53.3205 1.29926 52.8499C1.06824 52.6189 0.855873 52.3396 0.748526 52.0347C0.401596 51.0507 0.550185 49.4794 0.550185 48.1352C0.550185 33.6381 0.550185 18.9752 0.550185 4.40024C0.550185 3.41857 0.60541 2.70681 1.01301 2.13119C1.39417 1.59213 1.9029 1.20397 2.70955 1.05151L2.70878 1.05228Z" fill="#FAF8F4" stroke="black" stroke-linejoin="round"/>
<path fill-rule="evenodd" clip-rule="evenodd" d="M2.70824 12.7461C2.85292 12.4879 3.0295 11.9193 2.96104 11.8967C2.9027 11.8772 2.80003 12.0297 2.76658 12.0585C2.59389 12.2078 2.37841 12.316 2.05949 12.2918C1.57021 12.2545 1.22717 11.8345 1.2295 11.3187C1.23028 11.0574 1.32596 10.8271 1.48231 10.67C1.62311 10.5292 1.86891 10.3962 2.13727 10.3977C2.20417 10.3977 2.27418 10.4351 2.33797 10.3977C2.3403 10.3005 2.27107 10.2383 2.24074 10.1644C1.99259 9.56308 2.43364 8.97423 2.9867 8.91278C3.60666 8.84433 4.1154 9.26593 4.06328 9.91157C4.05472 10.0142 4.02362 10.0975 3.99172 10.1714C3.96061 10.2429 3.90459 10.3059 3.9007 10.3985C3.97771 10.4359 4.03294 10.3985 4.1014 10.3985C4.509 10.3954 4.83881 10.6708 4.95082 10.9757C5.17796 11.591 4.77269 12.2436 4.19162 12.2926C3.8408 12.3222 3.6059 12.1837 3.42621 12.0134C3.37487 11.9644 3.32352 11.878 3.27685 11.8967C3.2115 11.9224 3.3453 12.4894 3.51721 12.7531C3.2294 12.7531 3.00227 12.7469 2.70668 12.7469L2.70824 12.7461Z" fill="black"/>
<path fill-rule="evenodd" clip-rule="evenodd" d="M33.3291 41.8728C33.1844 42.1302 33.0079 42.6996 33.0763 42.7222C33.1347 42.7417 33.2373 42.5892 33.2708 42.5596C33.4435 42.4103 33.6589 42.3022 33.9779 42.3263C34.4671 42.3636 34.8102 42.7837 34.8078 43.2994C34.8071 43.5607 34.7114 43.791 34.555 43.9481C34.4142 44.0889 34.1684 44.2219 33.9001 44.2204C33.8332 44.2204 33.7632 44.183 33.6994 44.2204C33.697 44.3176 33.7663 44.3798 33.7966 44.4537C34.0447 45.055 33.6037 45.6447 33.0506 45.7053C32.4307 45.7738 31.922 45.3522 31.9741 44.7066C31.9826 44.6039 32.0137 44.5199 32.0456 44.4475C32.0767 44.376 32.1328 44.313 32.1366 44.2204C32.0596 44.183 32.0044 44.2204 31.9359 44.2204C31.5283 44.2235 31.1985 43.9481 31.0865 43.6432C30.8594 43.0279 31.2654 42.3753 31.8457 42.3263C32.1966 42.2967 32.4315 42.4352 32.6111 42.6047C32.6633 42.6538 32.7138 42.7401 32.7605 42.7214C32.8258 42.6958 32.6921 42.1279 32.5201 41.865C32.808 41.865 33.0351 41.8712 33.3307 41.8712L33.3291 41.8728Z" fill="black"/>
<path fill-rule="evenodd" clip-rule="evenodd" d="M24.3604 14.1852C24.607 13.7441 24.7206 13.2323 24.8038 12.5773C24.8256 12.4046 24.9104 12.0834 24.7929 12.0453C24.6933 12.0126 24.5183 12.2724 24.46 12.3222C24.1652 12.5773 23.7957 12.7624 23.2512 12.7212C22.415 12.6574 21.8284 11.9395 21.8316 11.0581C21.8331 10.6116 21.9957 10.2173 22.2641 9.94967C22.5052 9.70853 22.9245 9.48139 23.3834 9.48372C23.4977 9.48372 23.6176 9.54751 23.7272 9.48372C23.7303 9.31804 23.6129 9.21147 23.5608 9.08467C23.1376 8.05711 23.8906 7.04976 24.8357 6.94475C25.8952 6.82729 26.764 7.54838 26.6761 8.65218C26.6621 8.82798 26.6085 8.97111 26.554 9.09557C26.5011 9.21847 26.4054 9.32504 26.3992 9.48372C26.5314 9.54829 26.6248 9.48372 26.743 9.48372C27.4392 9.47905 28.0032 9.94889 28.1953 10.4708C28.5843 11.5225 27.8904 12.638 26.8978 12.7212C26.2981 12.7718 25.8975 12.5353 25.5895 12.2444C25.5008 12.1612 25.4144 12.0134 25.3343 12.0453C25.2231 12.0896 25.3016 12.4793 25.3234 12.6217C25.4028 13.1506 25.4596 13.545 25.6564 13.9744C25.6898 14.0475 25.794 14.1533 25.745 14.1961C25.3055 14.1704 24.817 14.1922 24.3589 14.1852H24.3604Z" fill="black"/>
<path fill-rule="evenodd" clip-rule="evenodd" d="M25.7784 40.4336C25.5318 40.8747 25.4182 41.3865 25.335 42.0415C25.3132 42.2142 25.2284 42.5346 25.3459 42.5735C25.4454 42.6062 25.6204 42.3464 25.6788 42.2966C25.9736 42.0423 26.3431 41.8564 26.8876 41.8976C27.7238 41.9606 28.3103 42.6793 28.3072 43.5607C28.3057 44.0072 28.1431 44.4015 27.8747 44.6691C27.6336 44.9103 27.2143 45.1374 26.7546 45.1351C26.6402 45.1351 26.5212 45.0705 26.4108 45.1351C26.4077 45.3008 26.5251 45.4073 26.5772 45.5341C27.0004 46.5617 26.2474 47.569 25.3023 47.674C24.2428 47.7915 23.374 47.0704 23.4619 45.9666C23.4759 45.7908 23.5295 45.6485 23.584 45.5232C23.6369 45.4003 23.7326 45.2938 23.7396 45.1351C23.6073 45.0705 23.5132 45.1343 23.3957 45.1351C22.6996 45.1397 22.1356 44.6699 21.9435 44.148C21.5553 43.0963 22.2492 41.9808 23.241 41.8976C23.8407 41.847 24.2413 42.0835 24.5493 42.3744C24.638 42.4576 24.7243 42.6054 24.8045 42.5735C24.9157 42.5292 24.8371 42.1395 24.8154 41.9971C24.736 41.4682 24.6792 41.0746 24.4824 40.6444C24.449 40.5713 24.3447 40.4655 24.3937 40.4227C24.834 40.4484 25.3217 40.4266 25.7799 40.4336H25.7784Z" fill="black"/>
<path fill-rule="evenodd" clip-rule="evenodd" d="M10.2584 14.1852C10.5049 13.7441 10.6185 13.2323 10.7018 12.5773C10.7235 12.4046 10.8083 12.0834 10.6909 12.0453C10.5913 12.0126 10.4155 12.2724 10.3579 12.3222C10.0631 12.5773 9.69441 12.7624 9.14912 12.7212C8.31291 12.6574 7.72639 11.9395 7.7295 11.0581C7.73106 10.6116 7.89364 10.2173 8.16201 9.94967C8.40314 9.70853 8.82321 9.48139 9.28215 9.48372C9.3965 9.48372 9.5155 9.54751 9.62596 9.48372C9.62907 9.31804 9.5116 9.21147 9.45949 9.08467C9.03633 8.05711 9.78932 7.04976 10.7344 6.94475C11.7939 6.82729 12.6628 7.54838 12.5749 8.65218C12.5609 8.82798 12.5072 8.97111 12.4528 9.09557C12.3999 9.21847 12.3042 9.32504 12.2972 9.48372C12.4294 9.54829 12.5228 9.48372 12.641 9.48372C13.3372 9.47905 13.9011 9.94889 14.0933 10.4708C14.4814 11.5225 13.7876 12.638 12.7958 12.7212C12.196 12.7718 11.7954 12.5353 11.4874 12.2444C11.3987 12.1612 11.3124 12.0134 11.2323 12.0453C11.121 12.0896 11.1996 12.4793 11.2214 12.6217C11.3007 13.1506 11.3575 13.545 11.5543 13.9744C11.5878 14.0475 11.692 14.1533 11.643 14.1961C11.2027 14.1704 10.715 14.1922 10.2568 14.1852H10.2584Z" fill="black"/>
<path fill-rule="evenodd" clip-rule="evenodd" d="M17.3096 30.9297C17.5562 30.4886 17.6698 29.9768 17.753 29.3218C17.7748 29.1491 17.8596 28.8287 17.7421 28.7898C17.6426 28.7571 17.4675 29.0169 17.4092 29.0667C17.1144 29.321 16.7449 29.507 16.2004 29.4657C15.3642 29.4027 14.7777 28.684 14.7808 27.8026C14.7823 27.3561 14.9449 26.9618 15.2133 26.6942C15.4544 26.453 15.8737 26.2259 16.3334 26.2282C16.4477 26.2282 16.5668 26.2928 16.6772 26.2282C16.6803 26.0625 16.5629 25.956 16.5108 25.8292C16.0876 24.8016 16.8406 23.7943 17.7857 23.6893C18.8451 23.5718 19.714 24.2929 19.6261 25.3967C19.6121 25.5725 19.5585 25.7156 19.504 25.8401C19.4511 25.963 19.3547 26.0695 19.3484 26.2282C19.4807 26.2928 19.574 26.229 19.6922 26.2282C20.3884 26.2236 20.9524 26.6934 21.1445 27.2154C21.5327 28.267 20.8388 29.3825 19.847 29.4657C19.2473 29.5163 18.8467 29.2798 18.5387 28.9889C18.45 28.9057 18.3636 28.7579 18.2835 28.7898C18.1723 28.8341 18.2508 29.2238 18.2726 29.3662C18.352 29.8951 18.4088 30.2895 18.6056 30.7189C18.639 30.792 18.7433 30.8978 18.6942 30.9406C18.2547 30.9149 17.7662 30.9367 17.3081 30.9297H17.3096Z" fill="black"/>
<path fill-rule="evenodd" clip-rule="evenodd" d="M11.6761 40.4336C11.4295 40.8747 11.3159 41.3865 11.2327 42.0415C11.2109 42.2142 11.1262 42.5346 11.2436 42.5735C11.3432 42.6062 11.5182 42.3464 11.5765 42.2966C11.8714 42.0423 12.24 41.8564 12.7853 41.8976C13.6215 41.9606 14.2081 42.6793 14.2049 43.5607C14.2034 44.0072 14.0408 44.4015 13.7725 44.6691C13.5313 44.9103 13.112 45.1374 12.6523 45.1351C12.538 45.1351 12.419 45.0705 12.3085 45.1351C12.3054 45.3008 12.4228 45.4073 12.475 45.5341C12.8981 46.5617 12.1452 47.569 11.2 47.674C10.1406 47.7915 9.27171 47.0704 9.35961 45.9666C9.37361 45.7908 9.42805 45.6485 9.48172 45.5232C9.53462 45.4003 9.63029 45.2938 9.63652 45.1351C9.50428 45.0705 9.41094 45.1343 9.2927 45.1351C8.59651 45.1397 8.03256 44.6699 7.84043 44.148C7.45227 43.0963 8.14612 41.9808 9.13791 41.8976C9.73765 41.847 10.1383 42.0835 10.4463 42.3744C10.535 42.4576 10.6213 42.6054 10.7014 42.5735C10.8127 42.5292 10.7341 42.1395 10.7123 41.9971C10.633 41.4682 10.5762 41.0746 10.3794 40.6444C10.3459 40.5713 10.2417 40.4655 10.2907 40.4227C10.7302 40.4484 11.2187 40.4266 11.6769 40.4336H11.6761Z" fill="black"/>
<path fill-rule="evenodd" clip-rule="evenodd" d="M11.6761 29.2852C11.4295 29.7262 11.3159 30.2381 11.2327 30.893C11.2109 31.0657 11.1262 31.387 11.2436 31.4251C11.3432 31.4578 11.5182 31.198 11.5765 31.1482C11.8714 30.893 12.24 30.7079 12.7853 30.7491C13.6215 30.8129 14.2081 31.5309 14.2049 32.4122C14.2034 32.8587 14.0408 33.2531 13.7725 33.5207C13.5313 33.7618 13.112 33.989 12.6523 33.9866C12.538 33.9866 12.419 33.9228 12.3085 33.9866C12.3054 34.1523 12.4228 34.2589 12.475 34.3857C12.8981 35.4132 12.1452 36.4206 11.2 36.5256C10.1406 36.6431 9.27171 35.922 9.35961 34.8182C9.37361 34.6416 9.42805 34.4992 9.48172 34.3748C9.53462 34.2519 9.63029 34.1453 9.63652 33.9866C9.50428 33.9221 9.41094 33.9866 9.2927 33.9866C8.59651 33.9913 8.03256 33.5215 7.84043 32.9995C7.45227 31.9478 8.14612 30.8324 9.13791 30.7491C9.73765 30.6986 10.1383 30.935 10.4463 31.226C10.535 31.3092 10.6213 31.457 10.7014 31.4251C10.8127 31.3808 10.7341 30.9911 10.7123 30.8487C10.633 30.3197 10.5762 29.9254 10.3794 29.496C10.3459 29.4229 10.2417 29.3171 10.2907 29.2743C10.7302 29.3 11.2187 29.2782 11.6769 29.2852H11.6761Z" fill="black"/>
<path fill-rule="evenodd" clip-rule="evenodd" d="M10.2584 25.3336C10.5049 24.8925 10.6185 24.3807 10.7018 23.7257C10.7235 23.553 10.8083 23.2325 10.6909 23.1936C10.5913 23.161 10.4155 23.4208 10.3579 23.4706C10.0631 23.7257 9.69441 23.9108 9.14912 23.8696C8.31291 23.8066 7.72639 23.0878 7.7295 22.2065C7.73106 21.76 7.89364 21.3656 8.16201 21.0981C8.40314 20.8569 8.82321 20.6298 9.28215 20.6329C9.3965 20.6329 9.5155 20.6975 9.62596 20.6329C9.62907 20.4672 9.5116 20.3606 9.45949 20.2338C9.03633 19.2063 9.78932 18.1989 10.7344 18.0939C11.7939 17.9765 12.6628 18.6975 12.5749 19.8013C12.5609 19.9771 12.5072 20.1195 12.4528 20.2447C12.3999 20.3676 12.3042 20.4742 12.2972 20.6329C12.4294 20.6975 12.5228 20.6329 12.641 20.6329C13.3372 20.6282 13.9011 21.0981 14.0933 21.62C14.4814 22.6717 13.7876 23.7872 12.7958 23.8704C12.196 23.9209 11.7954 23.6845 11.4874 23.3936C11.3987 23.3103 11.3124 23.1625 11.2323 23.1944C11.121 23.2388 11.1996 23.6285 11.2214 23.7708C11.3007 24.2998 11.3575 24.6942 11.5543 25.1235C11.5878 25.1967 11.692 25.3024 11.643 25.3452C11.2027 25.3196 10.715 25.3413 10.2568 25.3343L10.2584 25.3336Z" fill="black"/>
<path fill-rule="evenodd" clip-rule="evenodd" d="M25.7784 29.2852C25.5318 29.7262 25.4182 30.2381 25.335 30.893C25.3132 31.0657 25.2284 31.387 25.3459 31.4251C25.4454 31.4578 25.6204 31.198 25.6788 31.1482C25.9736 30.893 26.3431 30.7079 26.8876 30.7491C27.7238 30.8129 28.3103 31.5309 28.3072 32.4122C28.3057 32.8587 28.1431 33.2531 27.8747 33.5207C27.6336 33.7618 27.2143 33.989 26.7546 33.9866C26.6402 33.9866 26.5212 33.9228 26.4108 33.9866C26.4077 34.1523 26.5251 34.2589 26.5772 34.3857C27.0004 35.4132 26.2474 36.4206 25.3023 36.5256C24.2428 36.6431 23.374 35.922 23.4619 34.8182C23.4759 34.6416 23.5295 34.4992 23.584 34.3748C23.6369 34.2519 23.7326 34.1453 23.7396 33.9866C23.6073 33.9221 23.5132 33.9866 23.3957 33.9866C22.6996 33.9913 22.1356 33.5215 21.9435 32.9995C21.5553 31.9478 22.2492 30.8324 23.241 30.7491C23.8407 30.6986 24.2413 30.935 24.5493 31.226C24.638 31.3092 24.7243 31.457 24.8045 31.4251C24.9157 31.3808 24.8371 30.9911 24.8154 30.8487C24.736 30.3197 24.6792 29.9254 24.4824 29.496C24.449 29.4229 24.3447 29.3171 24.3937 29.2743C24.834 29.3 25.3217 29.2782 25.7799 29.2852H25.7784Z" fill="black"/>
<path fill-rule="evenodd" clip-rule="evenodd" d="M24.3604 25.3336C24.607 24.8925 24.7206 24.3807 24.8038 23.7257C24.8256 23.553 24.9104 23.2325 24.7929 23.1936C24.6933 23.161 24.5183 23.4208 24.46 23.4706C24.1652 23.7257 23.7957 23.9108 23.2512 23.8696C22.415 23.8066 21.8284 23.0878 21.8316 22.2065C21.8331 21.76 21.9957 21.3656 22.2641 21.0981C22.5052 20.8569 22.9245 20.6298 23.3834 20.6329C23.4977 20.6329 23.6176 20.6975 23.7272 20.6329C23.7303 20.4672 23.6129 20.3606 23.5608 20.2338C23.1376 19.2063 23.8906 18.1989 24.8357 18.0939C25.8952 17.9765 26.764 18.6975 26.6761 19.8013C26.6621 19.9771 26.6085 20.1195 26.554 20.2447C26.5011 20.3676 26.4054 20.4742 26.3992 20.6329C26.5314 20.6975 26.6248 20.6329 26.743 20.6329C27.4392 20.6282 28.0032 21.0981 28.1953 21.62C28.5843 22.6717 27.8904 23.7872 26.8978 23.8704C26.2981 23.9209 25.8975 23.6845 25.5895 23.3936C25.5008 23.3103 25.4144 23.1625 25.3343 23.1944C25.2231 23.2388 25.3016 23.6285 25.3234 23.7708C25.4028 24.2998 25.4596 24.6942 25.6564 25.1235C25.6898 25.1967 25.794 25.3024 25.745 25.3452C25.3055 25.3196 24.817 25.3413 24.3589 25.3343L24.3604 25.3336Z" fill="black"/>
<path fill-rule="evenodd" clip-rule="evenodd" d="M1.79254 7.61532C1.903 7.55698 2.10135 7.46287 2.27248 7.38041C2.37438 7.50643 2.53462 7.81913 2.79599 7.87902C3.60575 8.06571 3.85155 7.31507 3.95812 6.63754C3.6812 6.79856 3.55207 6.84445 3.29771 6.87557C2.12235 7.01636 1.42148 5.81845 1.66029 4.68353C1.88354 3.62096 3.30395 3.0679 4.09037 3.91733C4.2055 4.04179 4.37818 4.33271 4.43341 4.4984C4.95769 6.05647 4.48241 9.22862 2.47939 8.35352C2.20247 8.18083 2.09669 8.05716 1.79254 7.61377V7.61532ZM2.87533 6.26883C3.36617 6.43608 3.86478 6.12493 3.95812 5.71421C4.09347 5.11992 3.80645 4.27749 3.40351 4.10325C3.24327 4.03401 3.03713 4.06123 2.95468 4.07679C1.99089 4.25959 2.04612 5.98647 2.87533 6.26883Z" fill="black"/>
<path fill-rule="evenodd" clip-rule="evenodd" d="M34.2439 47.0035C34.1335 47.0618 33.9351 47.156 33.764 47.2384C33.6621 47.1124 33.5018 46.7997 33.2405 46.7398C32.4299 46.5531 32.1849 47.3037 32.0783 47.9813C32.3553 47.8203 32.4844 47.7736 32.7388 47.7433C33.9141 47.6025 34.615 48.8004 34.3762 49.9345C34.1529 50.9971 32.7325 51.5502 31.9469 50.7007C31.8318 50.5763 31.6591 50.2853 31.6038 50.1197C31.0796 48.5616 31.5548 45.3894 33.5579 46.2645C33.8348 46.4372 33.9406 46.5609 34.2447 47.0035H34.2439ZM33.1611 48.35C32.6703 48.1828 32.1717 48.4939 32.0783 48.9046C31.943 49.4989 32.23 50.3413 32.633 50.5156C32.7932 50.5848 32.9993 50.5576 33.0818 50.542C34.0456 50.36 33.9903 48.6331 33.1611 48.35Z" fill="black"/>
</svg>
