<svg width="19" height="15" viewBox="0 0 19 15" fill="none" xmlns="http://www.w3.org/2000/svg">
<path d="M18.1177 8.83725C18.1146 8.84779 18.1126 8.85833 18.1095 8.86887C18.0611 9.04598 18.0034 9.22098 17.9385 9.39388L17.9344 9.40336C17.9035 9.48454 17.8705 9.56572 17.8355 9.64584C17.8314 9.65532 17.8283 9.66376 17.8242 9.67114C17.7521 9.83454 17.6738 9.99584 17.5872 10.154C17.5872 10.154 17.5831 10.1603 17.5821 10.1635C17.4904 10.33 17.3915 10.4934 17.2834 10.6537C17.2834 10.6537 17.2813 10.6568 17.2803 10.6589C17.2236 10.7433 17.1649 10.8266 17.1031 10.9088C17.099 10.9141 17.0949 10.9193 17.0918 10.9246C16.9836 11.0701 16.8682 11.2124 16.7467 11.3505C16.7384 11.3611 16.7302 11.3705 16.722 11.38C16.6622 11.4475 16.6014 11.5139 16.5386 11.5793L16.5366 11.5814C16.4634 11.6573 16.3892 11.7321 16.312 11.8059H16.311C16.2347 11.8797 16.1564 11.9514 16.0771 12.021C16.074 12.0231 16.072 12.0263 16.0689 12.0284C15.9968 12.0916 15.9236 12.1538 15.8485 12.215C15.8423 12.2203 15.8361 12.2255 15.8289 12.2308C15.7599 12.2867 15.6909 12.3415 15.6187 12.3953C15.6187 12.3953 15.6126 12.4005 15.6095 12.4026C15.5229 12.468 15.4333 12.5323 15.3427 12.5945C15.3344 12.5998 15.3272 12.605 15.319 12.6103C15.2386 12.6662 15.1583 12.72 15.0759 12.7727C15.0718 12.7748 15.0677 12.7779 15.0635 12.7811H15.0615C14.8905 12.8907 14.7133 12.9951 14.531 13.0932C14.5155 13.1016 14.5001 13.11 14.4836 13.1185C14.3074 13.2123 14.1251 13.3008 13.9387 13.3852C13.9201 13.3936 13.9016 13.402 13.8841 13.4094C13.7934 13.4495 13.7018 13.4885 13.6101 13.5254C13.6101 13.5254 13.6018 13.5285 13.5967 13.5307C13.3927 13.6129 13.1836 13.6888 12.9694 13.7584C12.9611 13.7615 12.9529 13.7636 12.9436 13.7668C12.8334 13.8026 12.7211 13.8364 12.6078 13.8691L12.5851 13.8754C12.3513 13.9418 12.1113 13.9998 11.8672 14.0514C11.8631 14.0514 11.86 14.0525 11.8569 14.0536C11.7487 14.0757 11.6406 14.0968 11.5314 14.1168C6.71676 14.9644 1.82386 12.5281 0.603211 8.677C0.581579 8.60848 0.560978 8.5389 0.542436 8.47038C0.536256 8.44929 0.531105 8.42821 0.524925 8.40607C0.511534 8.35757 0.499173 8.30908 0.487842 8.25953C0.482691 8.23634 0.476511 8.21314 0.47136 8.1889C0.460029 8.13935 0.449728 8.08875 0.439428 8.0392C0.435307 8.02022 0.431187 8.00019 0.428097 7.98122C0.414706 7.91164 0.402345 7.84206 0.392044 7.77248C0.392044 7.77248 0.392044 7.77142 0.392044 7.77037C0.381743 7.70185 0.372472 7.63332 0.365261 7.56585C0.363201 7.54687 0.361141 7.5279 0.359081 7.50892C0.353931 7.45832 0.34878 7.40666 0.34466 7.35606C0.3426 7.33498 0.34157 7.31495 0.34054 7.29386C0.336419 7.2401 0.334359 7.18738 0.332299 7.13362C0.332299 7.1178 0.331269 7.10199 0.330239 7.08723C0.328178 7.01765 0.327148 6.94702 0.327148 6.87744V7.67022L0.329209 7.67654C0.334359 8.24055 0.421916 8.81616 0.605271 9.39177C1.82592 13.2439 6.71779 15.6792 11.5334 14.8316C15.627 14.1115 18.3464 11.2493 18.3196 8.04131V7.40877C18.3165 7.89582 18.2506 8.37339 18.126 8.83725H18.1177Z" fill="#723939"/>
<path d="M18.0346 5.60813C16.814 1.75705 11.9221 -0.679263 7.10644 0.168334C2.29183 1.01593 -0.622281 4.82484 0.597338 8.67698C1.81799 12.5291 6.71089 14.9644 11.5255 14.1168C16.3401 13.2692 19.2553 9.46027 18.0346 5.60813Z" fill="#CB5460"/>
<path d="M7.49728 1.40097C3.53248 2.09887 1.13342 5.23519 2.13775 8.40629C3.14208 11.5774 7.17074 13.5825 11.1355 12.8857C15.1003 12.1878 17.4994 9.05148 16.4951 5.88037C15.4897 2.70926 11.461 0.704129 7.49728 1.40097ZM11.0696 12.677C7.24903 13.3496 3.36767 11.4172 2.39939 8.36096C1.43111 5.30477 3.74262 2.28336 7.5632 1.61076C11.3838 0.938167 15.2651 2.87056 16.2334 5.92676C17.2017 8.98296 14.8902 12.0044 11.0696 12.677Z" fill="#FAF8F4"/>
<path d="M9.48389 1.01948C10.8158 1.07535 12.0962 1.40427 13.2138 1.95036L13.8545 1.09644C12.5535 0.459687 11.062 0.077003 9.5117 0.0126953L9.48389 1.01948Z" fill="url(#paint0_linear_1546_38966)"/>
<path d="M16.8037 5.82535C16.9685 6.34403 17.0447 6.86271 17.0416 7.37084L18.3117 7.4088C18.3159 6.81738 18.2262 6.21436 18.0346 5.60923C17.843 5.00516 17.5608 4.43483 17.2034 3.90771L16.0898 4.36419C16.3968 4.81751 16.6399 5.30667 16.8047 5.82535H16.8037Z" fill="url(#paint1_linear_1546_38966)"/>
<path d="M1.82898 8.45983C1.66417 7.94115 1.58794 7.42248 1.59103 6.91434L0.320937 6.87744C0.316816 7.46886 0.406434 8.07188 0.598029 8.677C0.789625 9.28213 1.07187 9.85141 1.43034 10.3785L2.54386 9.92204C2.23689 9.46873 1.99379 8.97957 1.83001 8.46089L1.82898 8.45983Z" fill="url(#paint2_linear_1546_38966)"/>
<path d="M2.71217 3.79813C3.38379 2.93683 4.33147 2.21574 5.48928 1.72236L4.8599 0.831543C3.51152 1.40715 2.40727 2.24631 1.62646 3.24888L2.71217 3.79919V3.79813Z" fill="url(#paint3_linear_1546_38966)"/>
<path d="M15.9192 10.4873C15.2476 11.3486 14.2999 12.0697 13.1421 12.5631L13.7704 13.4539C15.1188 12.8783 16.2231 12.0391 17.0049 11.0366L15.9192 10.4873Z" fill="url(#paint4_linear_1546_38966)"/>
<path d="M9.14799 13.2668C7.81609 13.2109 6.5357 12.882 5.41806 12.3359L4.77734 13.1899C6.07834 13.8266 7.5699 14.2093 9.12018 14.2736L9.14799 13.2668Z" fill="url(#paint5_linear_1546_38966)"/>
<path opacity="0.15" d="M17.2574 3.99315C15.3599 1.10668 11.2056 -0.552672 7.10588 0.169472C3.001 0.890562 0.280547 3.76649 0.321751 6.98504C3.44085 7.71878 10.9048 8.74981 17.2574 3.99315Z" fill="url(#paint6_linear_1546_38966)"/>
<path d="M9.114 14.9895V14.2758L9.11606 14.2737C7.56681 14.2083 6.07731 13.8256 4.77734 13.1899V13.9058C6.07628 14.5415 7.56578 14.9241 9.114 14.9895Z" fill="url(#paint7_linear_1546_38966)"/>
<path d="M16.9997 11.0461V11.0439C16.2189 12.0444 15.1167 12.8815 13.7725 13.455H13.7766V14.1697C15.1188 13.5962 16.2189 12.7602 16.9997 11.7619V11.0461Z" fill="url(#paint8_linear_1546_38966)"/>
<path d="M1.39949 10.3331C1.34798 10.2562 1.29854 10.1771 1.25013 10.098C1.23364 10.0717 1.21716 10.0443 1.20171 10.0179C1.14815 9.92724 1.09664 9.83657 1.0472 9.7438C1.03484 9.72166 1.02454 9.69847 1.01218 9.67633C0.968913 9.59199 0.927709 9.50765 0.887536 9.42226C0.879295 9.40329 0.870025 9.38536 0.860754 9.36639C0.816461 9.26729 0.774227 9.16714 0.735084 9.06593C0.725813 9.04274 0.717572 9.01955 0.708302 8.9953C0.669159 8.88988 0.631045 8.78446 0.597052 8.67693C0.405457 8.07285 0.31584 7.46878 0.31996 6.87842V7.67119L0.32202 7.67752C0.327171 8.24153 0.414728 8.81714 0.598083 9.39274C0.789678 9.99892 1.07295 10.5693 1.43142 11.0974V10.3816C1.42009 10.3658 1.41082 10.3489 1.39949 10.3331Z" fill="url(#paint9_linear_1546_38966)"/>
<defs>
<linearGradient id="paint0_linear_1546_38966" x1="9.48389" y1="0.981528" x2="13.8556" y2="0.981528" gradientUnits="userSpaceOnUse">
<stop stop-color="#D1D3D4"/>
<stop offset="0.16" stop-color="#E0E2E2"/>
<stop offset="0.4" stop-color="#F1F2F2"/>
<stop offset="0.67" stop-color="#FBFBFC"/>
<stop offset="1" stop-color="white"/>
</linearGradient>
<linearGradient id="paint1_linear_1546_38966" x1="16.0898" y1="5.65773" x2="18.3128" y2="5.65773" gradientUnits="userSpaceOnUse">
<stop stop-color="#808285"/>
<stop offset="0.02" stop-color="#858789"/>
<stop offset="0.15" stop-color="#AAABAD"/>
<stop offset="0.3" stop-color="#C9C9CB"/>
<stop offset="0.45" stop-color="#E0E1E2"/>
<stop offset="0.61" stop-color="#F1F1F2"/>
<stop offset="0.78" stop-color="#FBFBFB"/>
<stop offset="1" stop-color="white"/>
</linearGradient>
<linearGradient id="paint2_linear_1546_38966" x1="0.319906" y1="8.62851" x2="2.54283" y2="8.62851" gradientUnits="userSpaceOnUse">
<stop stop-color="#808285"/>
<stop offset="0.02" stop-color="#858789"/>
<stop offset="0.15" stop-color="#AAABAD"/>
<stop offset="0.3" stop-color="#C9C9CB"/>
<stop offset="0.45" stop-color="#E0E1E2"/>
<stop offset="0.61" stop-color="#F1F1F2"/>
<stop offset="0.78" stop-color="#FBFBFB"/>
<stop offset="1" stop-color="white"/>
</linearGradient>
<linearGradient id="paint3_linear_1546_38966" x1="1.62749" y1="2.31378" x2="5.49031" y2="2.31378" gradientUnits="userSpaceOnUse">
<stop stop-color="#D1D3D4"/>
<stop offset="0.16" stop-color="#E0E2E2"/>
<stop offset="0.4" stop-color="#F1F2F2"/>
<stop offset="0.67" stop-color="#FBFBFC"/>
<stop offset="1" stop-color="white"/>
</linearGradient>
<linearGradient id="paint4_linear_1546_38966" x1="13.1421" y1="11.9717" x2="17.0049" y2="11.9717" gradientUnits="userSpaceOnUse">
<stop stop-color="#808285"/>
<stop offset="0.02" stop-color="#858789"/>
<stop offset="0.15" stop-color="#AAABAD"/>
<stop offset="0.3" stop-color="#C9C9CB"/>
<stop offset="0.45" stop-color="#E0E1E2"/>
<stop offset="0.61" stop-color="#F1F1F2"/>
<stop offset="0.78" stop-color="#FBFBFB"/>
<stop offset="1" stop-color="white"/>
</linearGradient>
<linearGradient id="paint5_linear_1546_38966" x1="4.77734" y1="13.3048" x2="9.14799" y2="13.3048" gradientUnits="userSpaceOnUse">
<stop stop-color="#808285"/>
<stop offset="0.02" stop-color="#858789"/>
<stop offset="0.15" stop-color="#AAABAD"/>
<stop offset="0.3" stop-color="#C9C9CB"/>
<stop offset="0.45" stop-color="#E0E1E2"/>
<stop offset="0.61" stop-color="#F1F1F2"/>
<stop offset="0.78" stop-color="#FBFBFB"/>
<stop offset="1" stop-color="white"/>
</linearGradient>
<linearGradient id="paint6_linear_1546_38966" x1="14.2487" y1="-0.996156" x2="15.608" y2="11.9666" gradientUnits="userSpaceOnUse">
<stop stop-color="white"/>
<stop offset="0.09" stop-color="white"/>
<stop offset="1" stop-color="white"/>
</linearGradient>
<linearGradient id="paint7_linear_1546_38966" x1="4.77734" y1="14.0892" x2="9.11709" y2="14.0892" gradientUnits="userSpaceOnUse">
<stop stop-color="#414042"/>
<stop offset="0.07" stop-color="#59595A"/>
<stop offset="0.2" stop-color="#7E7E7F"/>
<stop offset="0.34" stop-color="#9C9D9E"/>
<stop offset="0.48" stop-color="#B3B4B6"/>
<stop offset="0.63" stop-color="#C4C5C6"/>
<stop offset="0.8" stop-color="#CDCFD0"/>
<stop offset="1" stop-color="#D1D3D4"/>
</linearGradient>
<linearGradient id="paint8_linear_1546_38966" x1="13.7725" y1="12.6074" x2="16.9997" y2="12.6074" gradientUnits="userSpaceOnUse">
<stop stop-color="#414042"/>
<stop offset="0.07" stop-color="#59595A"/>
<stop offset="0.2" stop-color="#7E7E7F"/>
<stop offset="0.34" stop-color="#9C9D9E"/>
<stop offset="0.48" stop-color="#B3B4B6"/>
<stop offset="0.63" stop-color="#C4C5C6"/>
<stop offset="0.8" stop-color="#CDCFD0"/>
<stop offset="1" stop-color="#D1D3D4"/>
</linearGradient>
<linearGradient id="paint9_linear_1546_38966" x1="0.31996" y1="8.98687" x2="1.43142" y2="8.98687" gradientUnits="userSpaceOnUse">
<stop stop-color="#414042"/>
<stop offset="0.07" stop-color="#59595A"/>
<stop offset="0.2" stop-color="#7E7E7F"/>
<stop offset="0.34" stop-color="#9C9D9E"/>
<stop offset="0.48" stop-color="#B3B4B6"/>
<stop offset="0.63" stop-color="#C4C5C6"/>
<stop offset="0.8" stop-color="#CDCFD0"/>
<stop offset="1" stop-color="#D1D3D4"/>
</linearGradient>
</defs>
</svg>
