<svg width="24" height="24" viewBox="0 0 24 24" fill="none" xmlns="http://www.w3.org/2000/svg">
<path fill-rule="evenodd" clip-rule="evenodd" d="M11.6812 2.27433C12.7134 1.76498 13.849 1.50003 15 1.5L15 2.625V1.5C16.9891 1.5 18.8968 2.29018 20.3033 3.6967C21.7098 5.10322 22.5 7.01088 22.5 9C22.5 10.9891 21.7098 12.8968 20.3033 14.3033C18.8968 15.7098 16.9891 16.5 15 16.5H14.994V16.5C14.5624 16.4977 14.1325 16.4586 13.7082 16.3828L12.4205 17.6705C12.2095 17.8815 11.9234 18 11.625 18H10.5V19.125C10.5 19.7463 9.99632 20.25 9.375 20.25H8.25V21.375C8.25 21.9963 7.74632 22.5 7.125 22.5H2.625C2.00368 22.5 1.5 21.9963 1.5 21.375V16.875C1.5 16.5766 1.61853 16.2905 1.8295 16.0795L7.61298 10.296C7.45333 9.386 7.46287 8.45233 7.64319 7.54227C7.8669 6.41321 8.34748 5.35079 9.04772 4.43728C9.74795 3.52377 10.649 2.78368 11.6812 2.27433ZM6 20.25V19.125C6 18.5037 6.50368 18 7.125 18H8.25V16.875C8.25 16.2537 8.75368 15.75 9.375 15.75H11.159L12.5545 14.3545C12.84 14.069 13.2567 13.9584 13.6463 14.0647C14.0883 14.1854 14.5432 14.2473 15.003 14.25C16.3943 14.2492 17.7285 13.6962 18.7123 12.7123C19.6969 11.7277 20.25 10.3924 20.25 9C20.25 7.60761 19.6969 6.27226 18.7123 5.28769C17.7278 4.30313 16.3924 3.75001 15 3.75M6 20.25H3.75V17.341L9.63949 11.4515C9.92398 11.167 10.0349 10.7523 9.93038 10.3638C9.72109 9.58571 9.69368 8.76993 9.85028 7.97959C10.0069 7.18925 10.3433 6.44555 10.8334 5.80609C11.3236 5.16664 11.9544 4.64858 12.6769 4.29203C13.3994 3.93549 14.1943 3.75002 15 3.75" fill="#F6E0B0"/>
<path fill-rule="evenodd" clip-rule="evenodd" d="M16.125 8.25C16.3321 8.25 16.5 8.08211 16.5 7.875C16.5 7.66789 16.3321 7.5 16.125 7.5C15.9179 7.5 15.75 7.66789 15.75 7.875C15.75 8.08211 15.9179 8.25 16.125 8.25ZM14.25 7.875C14.25 6.83947 15.0895 6 16.125 6C17.1605 6 18 6.83947 18 7.875C18 8.91053 17.1605 9.75 16.125 9.75C15.0895 9.75 14.25 8.91053 14.25 7.875Z" fill="#F6E0B0"/>
</svg>
