<svg width="20" height="16" viewBox="0 0 20 16" fill="none" xmlns="http://www.w3.org/2000/svg">
<g clip-path="url(#clip0_848_9623)">
<path d="M19.772 9.42641C19.7686 9.43765 19.7663 9.44889 19.7629 9.46014C19.7091 9.64906 19.645 9.83573 19.5729 10.0201C19.5718 10.0235 19.5706 10.0269 19.5695 10.0303C19.5351 10.1169 19.4985 10.2034 19.4596 10.2889C19.455 10.299 19.4516 10.308 19.447 10.3159C19.3669 10.4902 19.28 10.6622 19.1839 10.8309C19.1839 10.8309 19.1804 10.8377 19.1781 10.841C19.0763 11.0187 18.9664 11.193 18.8463 11.3639C18.8463 11.3639 18.844 11.3673 18.8429 11.3696C18.7799 11.4595 18.7147 11.5484 18.646 11.6361C18.6415 11.6417 18.638 11.6473 18.6335 11.6529C18.5133 11.8081 18.3852 11.9599 18.2501 12.1072C18.241 12.1185 18.2318 12.1286 18.2227 12.1387C18.1563 12.2107 18.0888 12.2815 18.019 12.3513L18.0167 12.3535C17.9355 12.4345 17.8531 12.5143 17.7684 12.593H17.7672C17.6826 12.6717 17.5956 12.7482 17.5075 12.8224C17.5041 12.8247 17.5018 12.8281 17.4983 12.8303C17.4182 12.8978 17.337 12.9641 17.2535 13.0293C17.2466 13.035 17.2397 13.0406 17.2317 13.0462C17.1551 13.1058 17.0784 13.1643 16.9994 13.2216C16.9994 13.2216 16.9926 13.2273 16.9891 13.2295C16.8919 13.2992 16.7935 13.3678 16.6928 13.4342C16.6836 13.4398 16.6756 13.4454 16.6665 13.451C16.5772 13.5106 16.4879 13.568 16.3964 13.6242C16.3918 13.6265 16.3873 13.6298 16.3827 13.6332H16.3804C16.1904 13.7502 15.9936 13.8615 15.7911 13.9661C15.7739 13.9751 15.7568 13.9841 15.7384 13.993C15.5428 14.0931 15.3414 14.1876 15.1343 14.2775C15.1137 14.2865 15.0942 14.2955 15.0736 14.3034C14.9729 14.3461 14.8722 14.3878 14.7692 14.4271L14.7544 14.4327C14.5278 14.5204 14.2955 14.6014 14.0587 14.6756C14.0495 14.679 14.0403 14.6812 14.03 14.6846C13.9076 14.7229 13.7829 14.7588 13.657 14.7937C13.649 14.7959 13.6398 14.7982 13.6318 14.8004C13.3721 14.8713 13.1066 14.9331 12.8343 14.9882C12.8308 14.9882 12.8263 14.9894 12.8228 14.9905C12.7027 15.0141 12.5825 15.0366 12.4612 15.058C7.11291 15.9621 1.67761 13.3633 0.321649 9.25548C0.29762 9.18239 0.274734 9.10817 0.252993 9.03507C0.246127 9.01258 0.240406 8.99009 0.234685 8.96648C0.219809 8.91475 0.206078 8.86302 0.193491 8.81017C0.187769 8.78543 0.180904 8.76069 0.175182 8.73483C0.162595 8.68198 0.151152 8.628 0.13971 8.57515C0.135133 8.55491 0.130556 8.53354 0.125979 8.5133C0.111103 8.43908 0.0973719 8.36487 0.0859292 8.29065V8.2884C0.0744865 8.21531 0.0641879 8.14221 0.0550338 8.07024C0.0527452 8.05 0.0504565 8.02976 0.048168 8.00952C0.0424466 7.95554 0.0367253 7.90044 0.0321482 7.84647C0.0298596 7.82398 0.0287153 7.80261 0.027571 7.78012C0.0229939 7.72277 0.0207056 7.66654 0.018417 7.60919C0.018417 7.59233 0.0161284 7.57546 0.0161284 7.55972C0.0138399 7.4855 0.0126953 7.41016 0.0126953 7.33594V8.18157L0.0149839 8.18832C0.0207053 8.78993 0.119113 9.40392 0.321649 10.0179C1.67761 14.1269 7.11177 16.7245 12.4612 15.8204C17.0097 15.0523 20.0306 11.9993 19.9997 8.5774V7.90269C19.9963 8.42222 19.9231 8.93162 19.7846 9.42641H19.772Z" fill="#1C75BC"/>
<path d="M19.6795 5.98204C18.3236 1.8742 12.8894 -0.72455 7.53992 0.179557C2.19158 1.08366 -1.04557 5.14653 0.309254 9.25549C1.66522 13.3645 7.09937 15.9621 12.4489 15.058C17.7972 14.1539 21.0355 10.091 19.6795 5.98204Z" fill="#00AEEF"/>
<path d="M7.97367 1.49418C3.56937 2.2386 0.904352 5.58402 2.02002 8.96656C3.13569 12.3491 7.61094 14.4879 12.0152 13.7446C16.4196 13.0002 19.0846 9.65476 17.9689 6.27223C16.8521 2.88969 12.3768 0.750873 7.97367 1.49418ZM11.942 13.522C7.69791 14.2394 3.38628 12.1782 2.31066 8.9182C1.23505 5.65824 3.80394 2.43539 8.04691 1.71795C12.291 1.00051 16.6026 3.06174 17.6783 6.3217C18.7539 9.58166 16.185 12.8045 11.942 13.522Z" fill="#FAF8F4"/>
<path d="M10.1803 1.08709C11.6599 1.14669 13.0822 1.49754 14.3238 2.08004L15.0355 1.16918C13.5903 0.489977 11.9334 0.0817788 10.2101 0.0131836L10.1792 1.08709H10.1803Z" fill="url(#paint0_linear_848_9623)"/>
<path d="M18.312 6.21346C18.4951 6.76672 18.5798 7.31998 18.5764 7.86199L19.9872 7.90247C19.9918 7.27162 19.8923 6.6284 19.6794 5.98293C19.4666 5.33859 19.1531 4.73022 18.756 4.16797L17.519 4.65488C17.8612 5.13842 18.1301 5.6602 18.3132 6.21346H18.312Z" fill="url(#paint1_linear_848_9623)"/>
<path d="M1.67628 9.02401C1.4932 8.47075 1.40852 7.91749 1.41195 7.37548L0.00106329 7.33612C-0.00236953 7.96697 0.0960378 8.61019 0.308873 9.25566C0.521708 9.90113 0.835239 10.5084 1.23345 11.0706L2.47041 10.5837C2.12941 10.1002 1.85936 9.5784 1.67742 9.02514L1.67628 9.02401Z" fill="url(#paint2_linear_848_9623)"/>
<path d="M2.65951 4.0511C3.40558 3.13237 4.45831 2.3632 5.74447 1.83693L5.04646 0.886719C3.54975 1.5007 2.32195 2.39581 1.45459 3.46522L2.66065 4.05222L2.65951 4.0511Z" fill="url(#paint3_linear_848_9623)"/>
<path d="M17.3291 11.186C16.583 12.1048 15.5303 12.8739 14.2441 13.4002L14.9421 14.3504C16.4389 13.7364 17.6655 12.8413 18.5352 11.7719L17.3291 11.186Z" fill="url(#paint4_linear_848_9623)"/>
<path d="M9.80779 14.1502C8.32824 14.0906 6.90591 13.7397 5.66438 13.1572L4.95264 14.0681C6.39785 14.7473 8.05476 15.1555 9.77689 15.2241L9.80779 14.1502Z" fill="url(#paint5_linear_848_9623)"/>
<path opacity="0.15" d="M18.8164 4.25922C16.7087 1.18031 12.0938 -0.589676 7.53963 0.180614C2.9797 0.94978 -0.0423284 4.01745 0.00344249 7.45058C3.4683 8.23324 11.7597 9.33302 18.8164 4.25922Z" fill="url(#paint6_linear_848_9623)"/>
<path d="M9.77003 15.9879V15.2266L9.77232 15.2244C8.05133 15.1546 6.39671 14.7464 4.95264 14.0684V14.8319C6.39671 15.51 8.05019 15.9182 9.77003 15.9879Z" fill="url(#paint7_linear_848_9623)"/>
<path d="M18.5284 11.782V11.7798C17.661 12.8469 16.4378 13.7398 14.9434 14.3515H14.9479V15.114C16.4389 14.5022 17.661 13.6105 18.5284 12.5456V11.782Z" fill="url(#paint8_linear_848_9623)"/>
<path d="M1.20049 11.0222C1.14328 10.9401 1.08835 10.8557 1.03343 10.7714C1.01512 10.7433 0.996813 10.714 0.979649 10.6859C0.920146 10.5892 0.862933 10.4925 0.808008 10.3936C0.794276 10.3699 0.782834 10.3452 0.769102 10.3216C0.721043 10.2316 0.675272 10.1417 0.630645 10.0506C0.621491 10.0303 0.611193 10.0112 0.600894 9.99098C0.551691 9.88527 0.504775 9.77844 0.461293 9.67049C0.450994 9.64575 0.44184 9.62101 0.431542 9.59515C0.388059 9.4827 0.345721 9.37024 0.30796 9.25554C0.0951253 8.6112 -0.0044263 7.96685 0.000150796 7.33713V8.18276L0.00243896 8.18951C0.00816033 8.79112 0.106568 9.4051 0.309104 10.0191C0.521939 10.6657 0.836614 11.274 1.23482 11.8374V11.0739C1.22223 11.057 1.21194 11.039 1.19935 11.0222H1.20049Z" fill="url(#paint9_linear_848_9623)"/>
</g>
<defs>
<linearGradient id="paint0_linear_848_9623" x1="10.1803" y1="1.04661" x2="15.0355" y2="1.04661" gradientUnits="userSpaceOnUse">
<stop stop-color="#D1D3D4"/>
<stop offset="0.16" stop-color="#E0E2E2"/>
<stop offset="0.4" stop-color="#F1F2F2"/>
<stop offset="0.67" stop-color="#FBFBFC"/>
<stop offset="1" stop-color="white"/>
</linearGradient>
<linearGradient id="paint1_linear_848_9623" x1="17.5179" y1="6.03466" x2="19.9872" y2="6.03466" gradientUnits="userSpaceOnUse">
<stop stop-color="#808285"/>
<stop offset="0.02" stop-color="#858789"/>
<stop offset="0.15" stop-color="#AAABAD"/>
<stop offset="0.3" stop-color="#C9C9CB"/>
<stop offset="0.45" stop-color="#E0E1E2"/>
<stop offset="0.61" stop-color="#F1F1F2"/>
<stop offset="0.78" stop-color="#FBFBFB"/>
<stop offset="1" stop-color="white"/>
</linearGradient>
<linearGradient id="paint2_linear_848_9623" x1="0.00106329" y1="9.20393" x2="2.46926" y2="9.20393" gradientUnits="userSpaceOnUse">
<stop stop-color="#808285"/>
<stop offset="0.02" stop-color="#858789"/>
<stop offset="0.15" stop-color="#AAABAD"/>
<stop offset="0.3" stop-color="#C9C9CB"/>
<stop offset="0.45" stop-color="#E0E1E2"/>
<stop offset="0.61" stop-color="#F1F1F2"/>
<stop offset="0.78" stop-color="#FBFBFB"/>
<stop offset="1" stop-color="white"/>
</linearGradient>
<linearGradient id="paint3_linear_848_9623" x1="1.45345" y1="2.46778" x2="5.74447" y2="2.46778" gradientUnits="userSpaceOnUse">
<stop stop-color="#D1D3D4"/>
<stop offset="0.16" stop-color="#E0E2E2"/>
<stop offset="0.4" stop-color="#F1F2F2"/>
<stop offset="0.67" stop-color="#FBFBFC"/>
<stop offset="1" stop-color="white"/>
</linearGradient>
<linearGradient id="paint4_linear_848_9623" x1="14.2441" y1="12.7693" x2="18.5352" y2="12.7693" gradientUnits="userSpaceOnUse">
<stop stop-color="#808285"/>
<stop offset="0.02" stop-color="#858789"/>
<stop offset="0.15" stop-color="#AAABAD"/>
<stop offset="0.3" stop-color="#C9C9CB"/>
<stop offset="0.45" stop-color="#E0E1E2"/>
<stop offset="0.61" stop-color="#F1F1F2"/>
<stop offset="0.78" stop-color="#FBFBFB"/>
<stop offset="1" stop-color="white"/>
</linearGradient>
<linearGradient id="paint5_linear_848_9623" x1="4.95264" y1="14.1907" x2="9.80779" y2="14.1907" gradientUnits="userSpaceOnUse">
<stop stop-color="#808285"/>
<stop offset="0.02" stop-color="#858789"/>
<stop offset="0.15" stop-color="#AAABAD"/>
<stop offset="0.3" stop-color="#C9C9CB"/>
<stop offset="0.45" stop-color="#E0E1E2"/>
<stop offset="0.61" stop-color="#F1F1F2"/>
<stop offset="0.78" stop-color="#FBFBFB"/>
<stop offset="1" stop-color="white"/>
</linearGradient>
<linearGradient id="paint6_linear_848_9623" x1="14.3568" y1="-0.95317" x2="15.7502" y2="12.8856" gradientUnits="userSpaceOnUse">
<stop stop-color="white"/>
<stop offset="0.09" stop-color="white"/>
<stop offset="1" stop-color="white"/>
</linearGradient>
<linearGradient id="paint7_linear_848_9623" x1="4.95264" y1="15.0276" x2="9.77232" y2="15.0276" gradientUnits="userSpaceOnUse">
<stop stop-color="#414042"/>
<stop offset="0.07" stop-color="#59595A"/>
<stop offset="0.2" stop-color="#7E7E7F"/>
<stop offset="0.34" stop-color="#9C9D9E"/>
<stop offset="0.48" stop-color="#B3B4B6"/>
<stop offset="0.63" stop-color="#C4C5C6"/>
<stop offset="0.8" stop-color="#CDCFD0"/>
<stop offset="1" stop-color="#D1D3D4"/>
</linearGradient>
<linearGradient id="paint8_linear_848_9623" x1="14.9445" y1="13.4474" x2="18.5295" y2="13.4474" gradientUnits="userSpaceOnUse">
<stop stop-color="#414042"/>
<stop offset="0.07" stop-color="#59595A"/>
<stop offset="0.2" stop-color="#7E7E7F"/>
<stop offset="0.34" stop-color="#9C9D9E"/>
<stop offset="0.48" stop-color="#B3B4B6"/>
<stop offset="0.63" stop-color="#C4C5C6"/>
<stop offset="0.8" stop-color="#CDCFD0"/>
<stop offset="1" stop-color="#D1D3D4"/>
</linearGradient>
<linearGradient id="paint9_linear_848_9623" x1="0.00129507" y1="9.58615" x2="1.23597" y2="9.58615" gradientUnits="userSpaceOnUse">
<stop stop-color="#414042"/>
<stop offset="0.07" stop-color="#59595A"/>
<stop offset="0.2" stop-color="#7E7E7F"/>
<stop offset="0.34" stop-color="#9C9D9E"/>
<stop offset="0.48" stop-color="#B3B4B6"/>
<stop offset="0.63" stop-color="#C4C5C6"/>
<stop offset="0.8" stop-color="#CDCFD0"/>
<stop offset="1" stop-color="#D1D3D4"/>
</linearGradient>
<clipPath id="clip0_848_9623">
<rect width="20" height="16" fill="white"/>
</clipPath>
</defs>
</svg>
