<svg width="20" height="16" viewBox="0 0 20 16" fill="none" xmlns="http://www.w3.org/2000/svg">
<g clip-path="url(#clip0_848_9540)">
<path d="M19.7836 9.42637C19.7802 9.43762 19.7767 9.44886 19.7744 9.46011C19.7206 9.64902 19.6565 9.83568 19.5844 10.0201C19.5832 10.0235 19.5821 10.0268 19.5809 10.0302C19.5466 10.1168 19.5099 10.2034 19.471 10.2888C19.4664 10.299 19.463 10.308 19.4584 10.3158C19.3783 10.4901 19.2912 10.6622 19.1951 10.8308C19.1951 10.8308 19.1916 10.8376 19.1893 10.8409C19.0874 11.0186 18.9775 11.1929 18.8573 11.3638C18.8573 11.3638 18.855 11.3672 18.8538 11.3694C18.7909 11.4594 18.7256 11.5482 18.6569 11.6359C18.6523 11.6416 18.6489 11.6472 18.6443 11.6528C18.5241 11.808 18.3958 11.9598 18.2607 12.1071C18.2516 12.1183 18.2424 12.1285 18.2332 12.1386C18.1668 12.2105 18.0993 12.2814 18.0294 12.3511L18.0271 12.3534C17.9458 12.4343 17.8634 12.5142 17.7775 12.5929H17.7764C17.6916 12.6716 17.6046 12.748 17.5165 12.8223C17.513 12.8245 17.5107 12.8279 17.5073 12.8301C17.4271 12.8976 17.3458 12.9639 17.2623 13.0292C17.2554 13.0348 17.2485 13.0404 17.2405 13.046C17.1638 13.1056 17.0871 13.1641 17.0081 13.2214C17.0081 13.2214 17.0012 13.2271 16.9978 13.2293C16.9016 13.299 16.802 13.3676 16.7012 13.434C16.692 13.4396 16.684 13.4452 16.6749 13.4508C16.5856 13.5104 16.4963 13.5678 16.4046 13.624C16.4001 13.6262 16.3955 13.6296 16.3909 13.633H16.3886C16.1985 13.7499 16.0016 13.8613 15.7989 13.9658C15.7818 13.9748 15.7646 13.9838 15.7463 13.9928C15.5505 14.0929 15.3478 14.1874 15.1417 14.2773C15.1211 14.2863 15.1016 14.2953 15.081 14.3032C14.9802 14.3459 14.8795 14.3875 14.7764 14.4269L14.7615 14.4325C14.5348 14.5202 14.3024 14.6012 14.0654 14.6754C14.0562 14.6787 14.0471 14.681 14.0368 14.6844C13.9142 14.7226 13.7894 14.7586 13.6635 14.7934L13.6383 14.8002C13.3784 14.871 13.1127 14.9329 12.8402 14.988C12.8368 14.988 12.8322 14.9891 12.8288 14.9902C12.7085 15.0138 12.5883 15.0374 12.4669 15.0577C7.10368 15.9606 1.66485 13.3631 0.309154 9.25433C0.285109 9.18124 0.262209 9.10702 0.240453 9.03393C0.233583 9.01144 0.227858 8.98896 0.220988 8.96534C0.206103 8.91362 0.192363 8.86189 0.179768 8.80904C0.174042 8.7843 0.167172 8.75956 0.161447 8.7337C0.148852 8.68085 0.137402 8.62688 0.125952 8.57403C0.121372 8.55379 0.116792 8.53242 0.113357 8.51218C0.0984714 8.43797 0.0847312 8.36375 0.073281 8.28954V8.28729C0.0618309 8.2142 0.0515257 8.14223 0.0423656 8.06914C0.0400756 8.0489 0.0377855 8.02866 0.0354955 8.00842C0.0297704 7.95445 0.0240453 7.89935 0.0194653 7.84538C0.0171752 7.82289 0.0160302 7.80152 0.0148852 7.77903C0.0103051 7.72168 0.00801511 7.66546 0.00572508 7.60811C0.00572508 7.59125 0.00458007 7.5755 0.00343505 7.55864C0.00114502 7.48442 0 7.40908 0 7.33487H0V8.18047L0.00229003 8.18721C0.00801511 8.7888 0.106487 9.40276 0.309154 10.0167C1.666 14.1255 7.10368 16.723 12.4566 15.819C17.0081 15.0509 20.0298 11.998 20 8.57515V7.90047C19.9966 8.41998 19.9233 8.92936 19.7847 9.42412L19.7836 9.42637Z" fill="#3C2415"/>
<path d="M19.6906 5.98214C18.3349 1.87335 12.8961 -0.724162 7.54428 0.179907C2.19133 1.08285 -1.04792 5.14667 0.308925 9.25433C1.66577 13.3631 7.10345 15.9606 12.4564 15.0566C17.8082 14.1525 21.0486 10.0898 19.6918 5.98102L19.6906 5.98214Z" fill="#3C2415"/>
<path d="M7.9775 1.49328C3.57033 2.23767 0.903588 5.58296 2.02112 8.96534C3.13752 12.3477 7.61567 14.4865 12.0228 13.7432C16.43 12.9988 19.0968 9.65351 17.9804 6.27113C16.8628 2.88761 12.3847 0.748884 7.9775 1.49328ZM11.9484 13.5205C7.70155 14.238 3.38713 12.1768 2.31081 8.91699C1.2345 5.65717 3.80506 2.43333 8.05193 1.71592C12.2988 0.998515 16.6132 3.05966 17.6895 6.31948C18.7658 9.5793 16.1953 12.802 11.9496 13.5194L11.9484 13.5205Z" fill="#FAF8F4"/>
<path d="M10.1872 1.08647C11.6677 1.14606 13.0909 1.4969 14.3333 2.07937L15.0455 1.16855C13.5982 0.490501 11.9413 0.0823205 10.217 0.0126038L10.186 1.08647H10.1872Z" fill="url(#paint0_linear_848_9540)"/>
<path d="M18.3228 6.21267C18.506 6.7659 18.5907 7.31914 18.5873 7.86113L19.9991 7.90161C20.0037 7.27079 19.9041 6.62759 19.6911 5.98215C19.4781 5.33783 19.1644 4.7295 18.7671 4.16727L17.5293 4.65416C17.8705 5.13768 18.1407 5.65943 18.3239 6.21267H18.3228Z" fill="url(#paint1_linear_848_9540)"/>
<path d="M1.67754 9.02382C1.49433 8.47058 1.4096 7.91735 1.41304 7.37535L8.67809e-05 7.336C-0.00334827 7.96682 0.0951231 8.61002 0.308096 9.25546C0.521069 9.9009 0.834804 10.5081 1.23327 11.0703L2.47103 10.5835C2.12982 10.0999 1.85959 9.57818 1.67754 9.02494V9.02382Z" fill="url(#paint2_linear_848_9540)"/>
<path d="M2.65997 4.05032C3.40652 3.13163 4.45994 2.3625 5.74694 1.83625L5.04733 0.886078C3.54851 1.50004 2.32105 2.39511 1.45312 3.46447L2.65997 4.05144V4.05032Z" fill="url(#paint3_linear_848_9540)"/>
<path d="M17.3389 11.1862C16.5924 12.1048 15.539 12.874 14.252 13.4002L14.9504 14.3504C16.4481 13.7364 17.6767 12.8414 18.5458 11.772L17.3389 11.1862Z" fill="url(#paint4_linear_848_9540)"/>
<path d="M9.81387 14.1502C8.33336 14.0907 6.91011 13.7398 5.66777 13.1573L4.95557 14.0682C6.40172 14.7473 8.05971 15.1555 9.78296 15.2241L9.81387 14.1502Z" fill="url(#paint5_linear_848_9540)"/>
<path opacity="0.15" d="M18.8258 4.25815C16.7155 1.17937 12.0976 -0.590536 7.54162 0.179722C2.97873 0.94998 -0.0464069 4.01639 0.000538733 7.44938C3.46765 8.23201 11.7644 9.33173 18.8258 4.25815Z" fill="url(#paint6_linear_848_9540)"/>
<path d="M9.77608 15.9865V15.2252L9.77838 15.223C8.05627 15.1533 6.40058 14.7451 4.95557 14.067V14.8306C6.39943 15.5086 8.05513 15.9168 9.77608 15.9865Z" fill="url(#paint7_linear_848_9540)"/>
<path d="M18.54 11.7821V11.7799C17.6721 12.847 16.448 13.7398 14.9526 14.3515H14.9572V15.1139C16.4492 14.5022 17.6721 13.6105 18.54 12.5456V11.7821Z" fill="url(#paint8_linear_848_9540)"/>
<path d="M1.20121 11.0209C1.14396 10.9388 1.089 10.8544 1.03518 10.7701C1.01686 10.742 0.99854 10.7128 0.981365 10.6847C0.921824 10.5879 0.864573 10.4912 0.809612 10.3923C0.795872 10.3687 0.783277 10.3439 0.770682 10.3203C0.722591 10.2304 0.67679 10.1404 0.632135 10.0493C0.622975 10.0291 0.61267 10.01 0.602364 9.98973C0.553129 9.88403 0.506183 9.77721 0.462672 9.66926C0.452367 9.64452 0.443207 9.61979 0.432902 9.59392C0.389391 9.48148 0.347026 9.36903 0.30924 9.25434C0.0962672 8.61002 -0.00334922 7.9657 8.58286e-05 7.336V8.1816L0.00237586 8.18834C0.00810094 8.78993 0.106572 9.40389 0.30924 10.0178C0.522213 10.6644 0.837093 11.2727 1.23556 11.8361V11.0726C1.22296 11.0557 1.21266 11.0377 1.20006 11.0209H1.20121Z" fill="url(#paint9_linear_848_9540)"/>
</g>
<defs>
<linearGradient id="paint0_linear_848_9540" x1="10.1872" y1="1.04599" x2="15.0455" y2="1.04599" gradientUnits="userSpaceOnUse">
<stop stop-color="#D1D3D4"/>
<stop offset="0.16" stop-color="#E0E2E2"/>
<stop offset="0.4" stop-color="#F1F2F2"/>
<stop offset="0.67" stop-color="#FBFBFC"/>
<stop offset="1" stop-color="white"/>
</linearGradient>
<linearGradient id="paint1_linear_848_9540" x1="17.5293" y1="6.03388" x2="20.0002" y2="6.03388" gradientUnits="userSpaceOnUse">
<stop stop-color="#808285"/>
<stop offset="0.02" stop-color="#858789"/>
<stop offset="0.15" stop-color="#AAABAD"/>
<stop offset="0.3" stop-color="#C9C9CB"/>
<stop offset="0.45" stop-color="#E0E1E2"/>
<stop offset="0.61" stop-color="#F1F1F2"/>
<stop offset="0.78" stop-color="#FBFBFB"/>
<stop offset="1" stop-color="white"/>
</linearGradient>
<linearGradient id="paint2_linear_848_9540" x1="8.67809e-05" y1="9.20261" x2="2.47103" y2="9.20261" gradientUnits="userSpaceOnUse">
<stop stop-color="#808285"/>
<stop offset="0.02" stop-color="#858789"/>
<stop offset="0.15" stop-color="#AAABAD"/>
<stop offset="0.3" stop-color="#C9C9CB"/>
<stop offset="0.45" stop-color="#E0E1E2"/>
<stop offset="0.61" stop-color="#F1F1F2"/>
<stop offset="0.78" stop-color="#FBFBFB"/>
<stop offset="1" stop-color="white"/>
</linearGradient>
<linearGradient id="paint3_linear_848_9540" x1="1.45427" y1="2.4682" x2="5.74808" y2="2.4682" gradientUnits="userSpaceOnUse">
<stop stop-color="#D1D3D4"/>
<stop offset="0.16" stop-color="#E0E2E2"/>
<stop offset="0.4" stop-color="#F1F2F2"/>
<stop offset="0.67" stop-color="#FBFBFC"/>
<stop offset="1" stop-color="white"/>
</linearGradient>
<linearGradient id="paint4_linear_848_9540" x1="14.252" y1="12.7683" x2="18.5458" y2="12.7683" gradientUnits="userSpaceOnUse">
<stop stop-color="#808285"/>
<stop offset="0.02" stop-color="#858789"/>
<stop offset="0.15" stop-color="#AAABAD"/>
<stop offset="0.3" stop-color="#C9C9CB"/>
<stop offset="0.45" stop-color="#E0E1E2"/>
<stop offset="0.61" stop-color="#F1F1F2"/>
<stop offset="0.78" stop-color="#FBFBFB"/>
<stop offset="1" stop-color="white"/>
</linearGradient>
<linearGradient id="paint5_linear_848_9540" x1="4.95442" y1="14.1907" x2="9.81387" y2="14.1907" gradientUnits="userSpaceOnUse">
<stop stop-color="#808285"/>
<stop offset="0.02" stop-color="#858789"/>
<stop offset="0.15" stop-color="#AAABAD"/>
<stop offset="0.3" stop-color="#C9C9CB"/>
<stop offset="0.45" stop-color="#E0E1E2"/>
<stop offset="0.61" stop-color="#F1F1F2"/>
<stop offset="0.78" stop-color="#FBFBFB"/>
<stop offset="1" stop-color="white"/>
</linearGradient>
<linearGradient id="paint6_linear_848_9540" x1="17.8919" y1="-1.30354" x2="19.2843" y2="12.5348" gradientUnits="userSpaceOnUse">
<stop stop-color="white"/>
<stop offset="0.09" stop-color="white"/>
<stop offset="1" stop-color="white"/>
</linearGradient>
<linearGradient id="paint7_linear_848_9540" x1="4.95442" y1="15.0273" x2="9.77838" y2="15.0273" gradientUnits="userSpaceOnUse">
<stop stop-color="#414042"/>
<stop offset="0.07" stop-color="#59595A"/>
<stop offset="0.2" stop-color="#7E7E7F"/>
<stop offset="0.34" stop-color="#9C9D9E"/>
<stop offset="0.48" stop-color="#B3B4B6"/>
<stop offset="0.63" stop-color="#C4C5C6"/>
<stop offset="0.8" stop-color="#CDCFD0"/>
<stop offset="1" stop-color="#D1D3D4"/>
</linearGradient>
<linearGradient id="paint8_linear_848_9540" x1="14.9526" y1="13.4463" x2="18.54" y2="13.4463" gradientUnits="userSpaceOnUse">
<stop stop-color="#414042"/>
<stop offset="0.07" stop-color="#59595A"/>
<stop offset="0.2" stop-color="#7E7E7F"/>
<stop offset="0.34" stop-color="#9C9D9E"/>
<stop offset="0.48" stop-color="#B3B4B6"/>
<stop offset="0.63" stop-color="#C4C5C6"/>
<stop offset="0.8" stop-color="#CDCFD0"/>
<stop offset="1" stop-color="#D1D3D4"/>
</linearGradient>
<linearGradient id="paint9_linear_848_9540" x1="8.58286e-05" y1="9.58605" x2="1.23556" y2="9.58605" gradientUnits="userSpaceOnUse">
<stop stop-color="#414042"/>
<stop offset="0.07" stop-color="#59595A"/>
<stop offset="0.2" stop-color="#7E7E7F"/>
<stop offset="0.34" stop-color="#9C9D9E"/>
<stop offset="0.48" stop-color="#B3B4B6"/>
<stop offset="0.63" stop-color="#C4C5C6"/>
<stop offset="0.8" stop-color="#CDCFD0"/>
<stop offset="1" stop-color="#D1D3D4"/>
</linearGradient>
<clipPath id="clip0_848_9540">
<rect width="20" height="16" fill="white"/>
</clipPath>
</defs>
</svg>
