<svg width="20" height="16" viewBox="0 0 20 16" fill="none" xmlns="http://www.w3.org/2000/svg">
<g clip-path="url(#clip0_848_9582)">
<path d="M19.7755 9.42641C19.7721 9.43765 19.7698 9.44889 19.7664 9.46014C19.7126 9.64906 19.6485 9.83573 19.5764 10.0201L19.5718 10.0303C19.5375 10.1169 19.5008 10.2034 19.4619 10.2889C19.4573 10.299 19.4539 10.308 19.4493 10.3159C19.3692 10.4902 19.2822 10.6622 19.1861 10.8309C19.1861 10.8309 19.1815 10.8377 19.1804 10.841C19.0785 11.0187 18.9686 11.193 18.8485 11.3639C18.8485 11.3639 18.8462 11.3673 18.845 11.3696C18.7821 11.4595 18.7168 11.5484 18.6482 11.6361C18.6436 11.6417 18.639 11.6473 18.6356 11.6529C18.5154 11.8081 18.3872 11.9599 18.2522 12.1072C18.243 12.1185 18.2338 12.1286 18.2247 12.1387C18.1583 12.2107 18.0908 12.2815 18.021 12.3513L18.0187 12.3535C17.9374 12.4345 17.855 12.5143 17.7692 12.593H17.768C17.6833 12.6717 17.5963 12.7482 17.5082 12.8224C17.5048 12.8247 17.5025 12.8281 17.4991 12.8303C17.4189 12.8978 17.3377 12.9641 17.2541 13.0293C17.2473 13.035 17.2404 13.0406 17.2324 13.0462C17.1557 13.1058 17.079 13.1643 16.9989 13.2216C16.9989 13.2216 16.992 13.2273 16.9886 13.2295C16.8925 13.2992 16.7929 13.3678 16.6922 13.4342C16.683 13.4398 16.675 13.4454 16.6658 13.451C16.5766 13.5106 16.4873 13.568 16.3957 13.6242C16.3911 13.6265 16.3866 13.6298 16.382 13.6332H16.3797C16.1897 13.7502 15.9928 13.8615 15.7903 13.9661C15.7731 13.9751 15.7559 13.9841 15.7376 13.993C15.5419 14.0931 15.3393 14.1876 15.1322 14.2775C15.1116 14.2865 15.091 14.2955 15.0715 14.3034C14.9708 14.3461 14.8689 14.3878 14.7671 14.4271C14.7671 14.4271 14.7579 14.4305 14.7522 14.4327C14.5256 14.5204 14.2932 14.6014 14.0552 14.6756C14.046 14.679 14.0368 14.6812 14.0265 14.6846C13.9041 14.7229 13.7793 14.7588 13.6534 14.7937L13.6282 14.8004C13.3684 14.8713 13.1018 14.9331 12.8305 14.9882C12.8259 14.9882 12.8225 14.9894 12.8191 14.9905C12.6989 15.0141 12.5787 15.0366 12.4574 15.058C7.10784 15.9621 1.67131 13.3633 0.315036 9.25548C0.291 9.18239 0.26811 9.10817 0.247508 9.03507C0.240641 9.01258 0.234919 8.99009 0.228051 8.96648C0.213172 8.91475 0.199438 8.86302 0.186848 8.81017C0.181125 8.78543 0.174258 8.76069 0.168536 8.73483C0.155946 8.68198 0.1445 8.628 0.133055 8.57515C0.128477 8.55491 0.123899 8.53354 0.120465 8.5133C0.105586 8.43908 0.0918518 8.36487 0.0804065 8.29065C0.0804065 8.29065 0.0804065 8.28952 0.0804065 8.2884C0.0689612 8.21531 0.0586601 8.14221 0.0506484 8.07024C0.0483593 8.05 0.0460705 8.02976 0.0437815 8.00952C0.0380588 7.95554 0.0323362 7.90044 0.0277581 7.84647C0.025469 7.82398 0.0243244 7.80261 0.0231798 7.78012C0.0186017 7.72277 0.0163124 7.66654 0.0140234 7.60919C0.0140234 7.59233 0.0128788 7.57546 0.0117342 7.55972C0.00944517 7.4855 0.00830078 7.41016 0.00830078 7.33594V8.18157L0.0105899 8.18832C0.0163126 8.78993 0.113598 9.40392 0.317325 10.0179C1.6736 14.1269 7.10898 16.7245 12.4597 15.8204C17.008 15.0523 20.0296 11.9993 19.9999 8.5774V7.90269C19.9964 8.42222 19.9232 8.93162 19.7847 9.42641H19.7755Z" fill="#723939"/>
<path d="M19.683 5.98204C18.3267 1.8742 12.8913 -0.72455 7.54065 0.179557C2.1911 1.08366 -1.04678 5.14653 0.308348 9.25549C1.66462 13.3645 7.10115 15.9621 12.4507 15.058C17.8002 14.1539 21.0393 10.091 19.683 5.98204Z" fill="#CB5460"/>
<path d="M7.97459 1.49369C3.56929 2.23811 0.903669 5.58354 2.01959 8.96607C3.13551 12.3486 7.61178 14.4874 12.0171 13.7441C16.4224 12.9997 19.088 9.65427 17.9721 6.27174C16.855 2.88921 12.3788 0.750385 7.97459 1.49369ZM11.9438 13.5215C7.69876 14.2389 3.38616 12.1777 2.3103 8.91771C1.23444 5.65775 3.80277 2.4349 8.04784 1.71746C12.2929 1.00003 16.6055 3.06126 17.6814 6.32122C18.7572 9.58118 16.1889 12.804 11.9438 13.5215Z" fill="#FAF8F4"/>
<path d="M10.1821 1.08709C11.662 1.14669 13.0847 1.49754 14.3265 2.08004L15.0384 1.16918C13.5928 0.489977 11.9356 0.0817788 10.213 0.0131836L10.1821 1.08709Z" fill="url(#paint0_linear_848_9582)"/>
<path d="M18.3156 6.21394C18.4987 6.7672 18.5834 7.32046 18.58 7.86248L19.9912 7.90296C19.9958 7.27211 19.8962 6.62889 19.6833 5.98342C19.4705 5.33907 19.1569 4.73071 18.7597 4.16846L17.5225 4.65537C17.8635 5.13891 18.1336 5.66068 18.3168 6.21394H18.3156Z" fill="url(#paint1_linear_848_9582)"/>
<path d="M1.67721 9.02377C1.49409 8.47051 1.40939 7.91725 1.41282 7.37524L0.00161567 7.33588C-0.00296246 7.96673 0.0966122 8.60995 0.309495 9.25542C0.522378 9.90089 0.83598 10.5081 1.23428 11.0704L2.47152 10.5835C2.13045 10.0999 1.86034 9.57815 1.67836 9.02489L1.67721 9.02377Z" fill="url(#paint2_linear_848_9582)"/>
<path d="M2.65946 4.0511C3.4057 3.13237 4.45867 2.3632 5.74512 1.83693L5.04581 0.886719C3.54762 1.5007 2.32068 2.39581 1.45312 3.46522L2.65946 4.05222V4.0511Z" fill="url(#paint3_linear_848_9582)"/>
<path d="M17.3322 11.1865C16.586 12.1052 15.533 12.8744 14.2466 13.4007L14.9447 14.3509C16.4429 13.7369 17.6699 12.8418 18.5386 11.7724L17.3322 11.1865Z" fill="url(#paint4_linear_848_9582)"/>
<path d="M9.80889 14.1507C8.32901 14.0911 6.90635 13.7402 5.66454 13.1577L4.95264 14.0686C6.39818 14.7478 8.05546 15.156 9.77799 15.2246L9.80889 14.1507Z" fill="url(#paint5_linear_848_9582)"/>
<path opacity="0.15" d="M18.8197 4.25922C16.7115 1.18031 12.0956 -0.589676 7.54036 0.180614C2.9794 0.94978 -0.0433153 4.01745 0.00246605 7.45058C3.46811 8.23324 11.7614 9.33302 18.8197 4.25922Z" fill="url(#paint6_linear_848_9582)"/>
<path d="M9.77112 15.9879V15.2266L9.77341 15.2244C8.05203 15.1546 6.39704 14.7464 4.95264 14.0684V14.8319C6.39589 15.51 8.05089 15.9182 9.77112 15.9879Z" fill="url(#paint7_linear_848_9582)"/>
<path d="M18.5326 11.782V11.7798C17.665 12.8469 16.4404 13.7398 14.9468 14.3515H14.9514V15.114C16.4427 14.5022 17.665 13.6105 18.5326 12.5456V11.782Z" fill="url(#paint8_linear_848_9582)"/>
<path d="M1.20011 11.0219C1.14288 10.9398 1.08795 10.8555 1.03415 10.7711C1.01584 10.743 0.997528 10.7138 0.98036 10.6857C0.920844 10.589 0.863617 10.4923 0.80868 10.3933C0.794945 10.3697 0.7835 10.345 0.769765 10.3213C0.721695 10.2314 0.675913 10.1414 0.631277 10.0503C0.62212 10.0301 0.61182 10.011 0.601519 9.99073C0.552304 9.88503 0.505378 9.7782 0.461886 9.67025C0.451585 9.64551 0.442429 9.62077 0.432128 9.5949C0.388636 9.48245 0.346288 9.37 0.308518 9.2553C0.0956352 8.61096 -0.00393902 7.96661 0.000639112 7.33688V8.18252L0.00292823 8.18926C0.0086509 8.79088 0.105936 9.40486 0.309663 10.0188C0.522546 10.6654 0.837293 11.2738 1.23559 11.8372V11.0736C1.223 11.0568 1.2127 11.0388 1.20011 11.0219Z" fill="url(#paint9_linear_848_9582)"/>
</g>
<defs>
<linearGradient id="paint0_linear_848_9582" x1="10.1821" y1="1.04661" x2="15.0395" y2="1.04661" gradientUnits="userSpaceOnUse">
<stop stop-color="#D1D3D4"/>
<stop offset="0.16" stop-color="#E0E2E2"/>
<stop offset="0.4" stop-color="#F1F2F2"/>
<stop offset="0.67" stop-color="#FBFBFC"/>
<stop offset="1" stop-color="white"/>
</linearGradient>
<linearGradient id="paint1_linear_848_9582" x1="17.5225" y1="6.03515" x2="19.9924" y2="6.03515" gradientUnits="userSpaceOnUse">
<stop stop-color="#808285"/>
<stop offset="0.02" stop-color="#858789"/>
<stop offset="0.15" stop-color="#AAABAD"/>
<stop offset="0.3" stop-color="#C9C9CB"/>
<stop offset="0.45" stop-color="#E0E1E2"/>
<stop offset="0.61" stop-color="#F1F1F2"/>
<stop offset="0.78" stop-color="#FBFBFB"/>
<stop offset="1" stop-color="white"/>
</linearGradient>
<linearGradient id="paint2_linear_848_9582" x1="0.000471141" y1="9.20369" x2="2.47037" y2="9.20369" gradientUnits="userSpaceOnUse">
<stop stop-color="#808285"/>
<stop offset="0.02" stop-color="#858789"/>
<stop offset="0.15" stop-color="#AAABAD"/>
<stop offset="0.3" stop-color="#C9C9CB"/>
<stop offset="0.45" stop-color="#E0E1E2"/>
<stop offset="0.61" stop-color="#F1F1F2"/>
<stop offset="0.78" stop-color="#FBFBFB"/>
<stop offset="1" stop-color="white"/>
</linearGradient>
<linearGradient id="paint3_linear_848_9582" x1="1.45427" y1="2.46778" x2="5.74627" y2="2.46778" gradientUnits="userSpaceOnUse">
<stop stop-color="#D1D3D4"/>
<stop offset="0.16" stop-color="#E0E2E2"/>
<stop offset="0.4" stop-color="#F1F2F2"/>
<stop offset="0.67" stop-color="#FBFBFC"/>
<stop offset="1" stop-color="white"/>
</linearGradient>
<linearGradient id="paint4_linear_848_9582" x1="14.2466" y1="12.7698" x2="18.5386" y2="12.7698" gradientUnits="userSpaceOnUse">
<stop stop-color="#808285"/>
<stop offset="0.02" stop-color="#858789"/>
<stop offset="0.15" stop-color="#AAABAD"/>
<stop offset="0.3" stop-color="#C9C9CB"/>
<stop offset="0.45" stop-color="#E0E1E2"/>
<stop offset="0.61" stop-color="#F1F1F2"/>
<stop offset="0.78" stop-color="#FBFBFB"/>
<stop offset="1" stop-color="white"/>
</linearGradient>
<linearGradient id="paint5_linear_848_9582" x1="4.95264" y1="14.1911" x2="9.80889" y2="14.1911" gradientUnits="userSpaceOnUse">
<stop stop-color="#808285"/>
<stop offset="0.02" stop-color="#858789"/>
<stop offset="0.15" stop-color="#AAABAD"/>
<stop offset="0.3" stop-color="#C9C9CB"/>
<stop offset="0.45" stop-color="#E0E1E2"/>
<stop offset="0.61" stop-color="#F1F1F2"/>
<stop offset="0.78" stop-color="#FBFBFB"/>
<stop offset="1" stop-color="white"/>
</linearGradient>
<linearGradient id="paint6_linear_848_9582" x1="15.4768" y1="-1.06273" x2="16.8699" y2="12.7761" gradientUnits="userSpaceOnUse">
<stop stop-color="white"/>
<stop offset="0.09" stop-color="white"/>
<stop offset="1" stop-color="white"/>
</linearGradient>
<linearGradient id="paint7_linear_848_9582" x1="4.95264" y1="15.0276" x2="9.77455" y2="15.0276" gradientUnits="userSpaceOnUse">
<stop stop-color="#414042"/>
<stop offset="0.07" stop-color="#59595A"/>
<stop offset="0.2" stop-color="#7E7E7F"/>
<stop offset="0.34" stop-color="#9C9D9E"/>
<stop offset="0.48" stop-color="#B3B4B6"/>
<stop offset="0.63" stop-color="#C4C5C6"/>
<stop offset="0.8" stop-color="#CDCFD0"/>
<stop offset="1" stop-color="#D1D3D4"/>
</linearGradient>
<linearGradient id="paint8_linear_848_9582" x1="14.9468" y1="13.4474" x2="18.5326" y2="13.4474" gradientUnits="userSpaceOnUse">
<stop stop-color="#414042"/>
<stop offset="0.07" stop-color="#59595A"/>
<stop offset="0.2" stop-color="#7E7E7F"/>
<stop offset="0.34" stop-color="#9C9D9E"/>
<stop offset="0.48" stop-color="#B3B4B6"/>
<stop offset="0.63" stop-color="#C4C5C6"/>
<stop offset="0.8" stop-color="#CDCFD0"/>
<stop offset="1" stop-color="#D1D3D4"/>
</linearGradient>
<linearGradient id="paint9_linear_848_9582" x1="0.000639112" y1="9.58591" x2="1.23559" y2="9.58591" gradientUnits="userSpaceOnUse">
<stop stop-color="#414042"/>
<stop offset="0.07" stop-color="#59595A"/>
<stop offset="0.2" stop-color="#7E7E7F"/>
<stop offset="0.34" stop-color="#9C9D9E"/>
<stop offset="0.48" stop-color="#B3B4B6"/>
<stop offset="0.63" stop-color="#C4C5C6"/>
<stop offset="0.8" stop-color="#CDCFD0"/>
<stop offset="1" stop-color="#D1D3D4"/>
</linearGradient>
<clipPath id="clip0_848_9582">
<rect width="20" height="16" fill="white"/>
</clipPath>
</defs>
</svg>
