<svg width="20" height="16" viewBox="0 0 20 16" fill="none" xmlns="http://www.w3.org/2000/svg">
<g clip-path="url(#clip0_848_9498)">
<path d="M19.7732 9.42717C19.7697 9.43841 19.7663 9.44966 19.764 9.4609C19.7102 9.64983 19.6461 9.83651 19.574 10.0209L19.5706 10.0311C19.5363 10.1177 19.4997 10.2042 19.4608 10.2897C19.4562 10.2998 19.4527 10.3088 19.4482 10.3167C19.3681 10.491 19.2811 10.6631 19.185 10.8318C19.185 10.8318 19.1815 10.8385 19.1792 10.8419C19.0774 11.0196 18.9675 11.1939 18.8474 11.3648C18.8474 11.3648 18.8451 11.3682 18.8439 11.3704C18.781 11.4604 18.7158 11.5492 18.6471 11.637C18.6425 11.6426 18.6379 11.6482 18.6345 11.6538C18.5143 11.809 18.3862 11.9608 18.2511 12.1082C18.242 12.1194 18.2328 12.1295 18.2237 12.1396C18.1573 12.2116 18.0898 12.2825 18.02 12.3522L18.0177 12.3544C17.9364 12.4354 17.854 12.5153 17.7682 12.594H17.7671C17.6824 12.6727 17.5954 12.7492 17.5073 12.8234C17.5038 12.8256 17.5016 12.829 17.4981 12.8313C17.418 12.8987 17.3368 12.9651 17.2532 13.0303C17.2464 13.0359 17.2395 13.0416 17.2315 13.0472C17.1548 13.1068 17.0781 13.1653 16.9992 13.2226C16.9992 13.2226 16.9923 13.2282 16.9889 13.2305C16.8927 13.3002 16.7932 13.3688 16.6925 13.4352C16.6833 13.4408 16.6753 13.4464 16.6662 13.452C16.5769 13.5116 16.4876 13.569 16.3961 13.6252C16.3915 13.6275 16.3869 13.6308 16.3823 13.6342C16.3823 13.6342 16.3812 13.6342 16.3801 13.6353C16.1901 13.7512 15.9933 13.8614 15.7907 13.966C15.7735 13.975 15.7564 13.984 15.7381 13.993C15.5424 14.093 15.3398 14.1875 15.1327 14.2775C15.1121 14.2865 15.0926 14.2955 15.072 14.3033C14.9713 14.3461 14.8706 14.3877 14.7676 14.427C14.7676 14.427 14.7585 14.4304 14.7527 14.4327C14.5262 14.5204 14.2938 14.6014 14.0558 14.6756C14.0467 14.6789 14.0375 14.6812 14.0272 14.6846C13.9047 14.7228 13.78 14.7588 13.6541 14.7937C13.6461 14.7959 13.637 14.7982 13.629 14.8004C13.3692 14.8713 13.1037 14.9331 12.8313 14.9882C12.8267 14.9882 12.8233 14.9893 12.8199 14.9905C12.6997 15.0141 12.5795 15.0366 12.4582 15.0579C7.10938 15.9621 1.67354 13.3632 0.317438 9.25511C0.293406 9.18201 0.270518 9.10779 0.249919 9.03469C0.243053 9.0122 0.237331 8.9897 0.230465 8.96609C0.215588 8.91436 0.201855 8.86263 0.189267 8.80977C0.183545 8.78503 0.176679 8.76029 0.170957 8.73443C0.158368 8.68157 0.146924 8.62759 0.13548 8.57473C0.130903 8.55449 0.126325 8.53313 0.122892 8.51288C0.108015 8.43866 0.0942826 8.36444 0.0828387 8.29022C0.0828387 8.29022 0.0828387 8.28909 0.0828387 8.28797C0.0713948 8.21487 0.0610955 8.14177 0.0530848 8.0698C0.0507961 8.04956 0.0485071 8.02931 0.0462184 8.00907C0.0404964 7.95509 0.0347746 7.89999 0.030197 7.84601C0.0279082 7.82352 0.0267637 7.80215 0.0256193 7.77966C0.0210418 7.7223 0.0187532 7.66608 0.0164645 7.60872C0.0164645 7.59185 0.01532 7.57498 0.0141756 7.55924C0.0118869 7.48502 0.0107422 7.40967 0.0107422 7.33545V8.18113L0.013031 8.18788C0.018753 8.78953 0.11717 9.40355 0.319727 10.0176C1.67583 14.1268 7.11052 16.7246 12.4605 15.8204C17.0083 15.0523 20.0295 11.9991 19.9998 8.57698V7.90224C19.9963 8.42179 19.9231 8.93123 19.7846 9.42604L19.7732 9.42717Z" fill="#231F20"/>
<path d="M19.6805 5.98255C18.3244 1.87446 12.8897 -0.724441 7.53969 0.17972C2.19083 1.08388 -1.04665 5.14698 0.308309 9.25507C1.66441 13.3643 7.0991 15.9621 12.4491 15.0579C17.798 14.1537 21.0366 10.0906 19.6805 5.98142V5.98255Z" fill="#414042"/>
<path d="M7.9738 1.49321C3.56906 2.23768 0.903778 5.5833 2.01956 8.96603C3.13533 12.3488 7.61103 14.4877 12.0158 13.7444C16.4205 12.9999 19.0858 9.65428 17.97 6.27154C16.8543 2.88881 12.3786 0.749861 7.9738 1.49321ZM11.9425 13.5217C7.69801 14.2392 3.38595 12.1778 2.31023 8.91768C1.23451 5.65752 3.80251 2.43448 8.04704 1.717C12.2916 0.999518 16.6036 3.06087 17.6794 6.32102C18.7551 9.58118 16.1859 12.8042 11.9425 13.5217Z" fill="#FAF8F4"/>
<path d="M10.1812 1.08716C11.6608 1.14676 13.0833 1.49763 14.325 2.08016L15.0368 1.16925C13.5914 0.490005 11.9344 0.0817829 10.2121 0.0131836L10.1812 1.08716Z" fill="url(#paint0_linear_848_9498)"/>
<path d="M18.3131 6.21407C18.4962 6.76736 18.5809 7.32065 18.5774 7.8627L19.9885 7.90318C19.993 7.27229 19.8935 6.62903 19.6806 5.98353C19.4678 5.33914 19.1542 4.73075 18.7571 4.16846L17.52 4.6554C17.861 5.13897 18.1311 5.66077 18.3142 6.21407H18.3131Z" fill="url(#paint1_linear_848_9498)"/>
<path d="M1.67602 9.02433C1.49292 8.47103 1.40824 7.91774 1.41167 7.37569L0.000639092 7.33633C-0.00393846 7.96722 0.0956235 8.61048 0.30848 9.25599C0.521336 9.9015 0.834898 10.5088 1.23314 11.0711L2.47023 10.5841C2.1292 10.1005 1.85912 9.57874 1.67717 9.02545L1.67602 9.02433Z" fill="url(#paint2_linear_848_9498)"/>
<path d="M2.65882 4.05031C3.40496 3.13153 4.4578 2.36231 5.74409 1.83601L5.04487 0.885742C3.54801 1.49976 2.32008 2.39493 1.45264 3.4644L2.65882 4.05143V4.05031Z" fill="url(#paint3_linear_848_9498)"/>
<path d="M17.3299 11.187C16.5838 12.1058 15.5309 12.875 14.2446 13.4013L14.9427 14.3516C16.4396 13.7376 17.6675 12.8424 18.5361 11.7729L17.3299 11.187Z" fill="url(#paint4_linear_848_9498)"/>
<path d="M9.80778 14.1512C8.32809 14.0916 6.90562 13.7407 5.66396 13.1582L4.95215 14.0691C6.39751 14.7484 8.05458 15.1566 9.77689 15.2252L9.80778 14.1512Z" fill="url(#paint5_linear_848_9498)"/>
<path opacity="0.15" d="M18.8178 4.25859C16.7099 1.17949 12.0946 -0.590596 7.53989 0.17974C2.97951 0.950076 -0.0428212 4.0168 0.00295426 7.45014C3.46816 8.23285 11.7604 9.33269 18.8178 4.25859Z" fill="url(#paint6_linear_848_9498)"/>
<path d="M9.77002 15.988V15.2267L9.77231 15.2244C8.05115 15.1547 6.39637 14.7465 4.95215 14.0684V14.8319C6.39522 15.5101 8.05 15.9183 9.77002 15.988Z" fill="url(#paint7_linear_848_9498)"/>
<path d="M18.5302 11.783V11.7808C17.6627 12.848 16.4382 13.7409 14.9448 14.3527H14.9494V15.1151C16.4405 14.5034 17.6627 13.6116 18.5302 12.5466V11.783Z" fill="url(#paint8_linear_848_9498)"/>
<path d="M1.19996 11.0231C1.14274 10.941 1.08666 10.8566 1.03402 10.7723C1.01571 10.7442 0.997401 10.7149 0.980235 10.6868C0.920727 10.5901 0.863507 10.4934 0.808577 10.3944C0.794844 10.3708 0.782256 10.3461 0.769668 10.3225C0.721603 10.2325 0.675828 10.1425 0.631197 10.0514C0.622042 10.0312 0.611742 10.0121 0.601443 9.99184C0.552234 9.88613 0.505314 9.77929 0.461828 9.67133C0.451528 9.64659 0.442373 9.62185 0.432073 9.59598C0.388586 9.48353 0.346244 9.37107 0.30848 9.25636C0.0956235 8.61198 -0.00393846 7.96759 0.000639092 7.33783V8.18351L0.00292792 8.19026C0.00864986 8.79191 0.107067 9.40593 0.309624 10.02C0.52248 10.6666 0.837186 11.275 1.23543 11.8384V11.0748C1.22284 11.0579 1.21255 11.0399 1.19996 11.0231Z" fill="url(#paint9_linear_848_9498)"/>
</g>
<defs>
<linearGradient id="paint0_linear_848_9498" x1="10.1812" y1="1.04667" x2="15.0368" y2="1.04667" gradientUnits="userSpaceOnUse">
<stop stop-color="#D1D3D4"/>
<stop offset="0.16" stop-color="#E0E2E2"/>
<stop offset="0.4" stop-color="#F1F2F2"/>
<stop offset="0.67" stop-color="#FBFBFC"/>
<stop offset="1" stop-color="white"/>
</linearGradient>
<linearGradient id="paint1_linear_848_9498" x1="17.5189" y1="6.03413" x2="19.9885" y2="6.03413" gradientUnits="userSpaceOnUse">
<stop stop-color="#808285"/>
<stop offset="0.02" stop-color="#858789"/>
<stop offset="0.15" stop-color="#AAABAD"/>
<stop offset="0.3" stop-color="#C9C9CB"/>
<stop offset="0.45" stop-color="#E0E1E2"/>
<stop offset="0.61" stop-color="#F1F1F2"/>
<stop offset="0.78" stop-color="#FBFBFB"/>
<stop offset="1" stop-color="white"/>
</linearGradient>
<linearGradient id="paint2_linear_848_9498" x1="0.000639092" y1="9.20313" x2="2.47023" y2="9.20313" gradientUnits="userSpaceOnUse">
<stop stop-color="#808285"/>
<stop offset="0.02" stop-color="#858789"/>
<stop offset="0.15" stop-color="#AAABAD"/>
<stop offset="0.3" stop-color="#C9C9CB"/>
<stop offset="0.45" stop-color="#E0E1E2"/>
<stop offset="0.61" stop-color="#F1F1F2"/>
<stop offset="0.78" stop-color="#FBFBFB"/>
<stop offset="1" stop-color="white"/>
</linearGradient>
<linearGradient id="paint3_linear_848_9498" x1="1.45264" y1="2.46802" x2="5.74409" y2="2.46802" gradientUnits="userSpaceOnUse">
<stop stop-color="#D1D3D4"/>
<stop offset="0.16" stop-color="#E0E2E2"/>
<stop offset="0.4" stop-color="#F1F2F2"/>
<stop offset="0.67" stop-color="#FBFBFC"/>
<stop offset="1" stop-color="white"/>
</linearGradient>
<linearGradient id="paint4_linear_848_9498" x1="14.2446" y1="12.7693" x2="18.5361" y2="12.7693" gradientUnits="userSpaceOnUse">
<stop stop-color="#808285"/>
<stop offset="0.02" stop-color="#858789"/>
<stop offset="0.15" stop-color="#AAABAD"/>
<stop offset="0.3" stop-color="#C9C9CB"/>
<stop offset="0.45" stop-color="#E0E1E2"/>
<stop offset="0.61" stop-color="#F1F1F2"/>
<stop offset="0.78" stop-color="#FBFBFB"/>
<stop offset="1" stop-color="white"/>
</linearGradient>
<linearGradient id="paint5_linear_848_9498" x1="4.95215" y1="14.1917" x2="9.80778" y2="14.1917" gradientUnits="userSpaceOnUse">
<stop stop-color="#808285"/>
<stop offset="0.02" stop-color="#858789"/>
<stop offset="0.15" stop-color="#AAABAD"/>
<stop offset="0.3" stop-color="#C9C9CB"/>
<stop offset="0.45" stop-color="#E0E1E2"/>
<stop offset="0.61" stop-color="#F1F1F2"/>
<stop offset="0.78" stop-color="#FBFBFB"/>
<stop offset="1" stop-color="white"/>
</linearGradient>
<linearGradient id="paint6_linear_848_9498" x1="16.0129" y1="-1.11627" x2="17.4063" y2="12.7233" gradientUnits="userSpaceOnUse">
<stop stop-color="white"/>
<stop offset="0.09" stop-color="white"/>
<stop offset="1" stop-color="white"/>
</linearGradient>
<linearGradient id="paint7_linear_848_9498" x1="4.95215" y1="15.0287" x2="9.77231" y2="15.0287" gradientUnits="userSpaceOnUse">
<stop stop-color="#414042"/>
<stop offset="0.07" stop-color="#59595A"/>
<stop offset="0.2" stop-color="#7E7E7F"/>
<stop offset="0.34" stop-color="#9C9D9E"/>
<stop offset="0.48" stop-color="#B3B4B6"/>
<stop offset="0.63" stop-color="#C4C5C6"/>
<stop offset="0.8" stop-color="#CDCFD0"/>
<stop offset="1" stop-color="#D1D3D4"/>
</linearGradient>
<linearGradient id="paint8_linear_848_9498" x1="14.9448" y1="13.4474" x2="18.5302" y2="13.4474" gradientUnits="userSpaceOnUse">
<stop stop-color="#414042"/>
<stop offset="0.07" stop-color="#59595A"/>
<stop offset="0.2" stop-color="#7E7E7F"/>
<stop offset="0.34" stop-color="#9C9D9E"/>
<stop offset="0.48" stop-color="#B3B4B6"/>
<stop offset="0.63" stop-color="#C4C5C6"/>
<stop offset="0.8" stop-color="#CDCFD0"/>
<stop offset="1" stop-color="#D1D3D4"/>
</linearGradient>
<linearGradient id="paint9_linear_848_9498" x1="0.000639092" y1="9.58699" x2="1.23543" y2="9.58699" gradientUnits="userSpaceOnUse">
<stop stop-color="#414042"/>
<stop offset="0.07" stop-color="#59595A"/>
<stop offset="0.2" stop-color="#7E7E7F"/>
<stop offset="0.34" stop-color="#9C9D9E"/>
<stop offset="0.48" stop-color="#B3B4B6"/>
<stop offset="0.63" stop-color="#C4C5C6"/>
<stop offset="0.8" stop-color="#CDCFD0"/>
<stop offset="1" stop-color="#D1D3D4"/>
</linearGradient>
<clipPath id="clip0_848_9498">
<rect width="20" height="16" fill="white"/>
</clipPath>
</defs>
</svg>
