<svg width="20" height="16" viewBox="0 0 20 16" fill="none" xmlns="http://www.w3.org/2000/svg">
<g clip-path="url(#clip0_848_9665)">
<path d="M19.773 9.42723C19.7696 9.43848 19.7661 9.44972 19.7638 9.46097C19.7101 9.64987 19.646 9.83653 19.5739 10.0209C19.5727 10.0243 19.5716 10.0277 19.5704 10.0311C19.5361 10.1176 19.4995 10.2042 19.4606 10.2897C19.456 10.2998 19.4526 10.3088 19.448 10.3167C19.3679 10.4909 19.2809 10.663 19.1848 10.8317C19.1848 10.8317 19.1813 10.8384 19.179 10.8418C19.0772 11.0194 18.9673 11.1937 18.8472 11.3646C18.8472 11.3646 18.8449 11.368 18.8437 11.3703C18.7808 11.4602 18.7156 11.549 18.6469 11.6367C18.6423 11.6424 18.6389 11.648 18.6343 11.6536C18.5141 11.8088 18.386 11.9606 18.2509 12.1079C18.2418 12.1191 18.2326 12.1292 18.2235 12.1394C18.1571 12.2113 18.0896 12.2822 18.0198 12.3519L18.0175 12.3541C17.9362 12.4351 17.8538 12.5149 17.768 12.5936H17.7669C17.6822 12.6723 17.5952 12.7488 17.5071 12.823C17.5036 12.8253 17.5013 12.8286 17.4979 12.8309C17.4178 12.8984 17.3366 12.9647 17.253 13.0299C17.2461 13.0355 17.2393 13.0412 17.2313 13.0468C17.1546 13.1064 17.0779 13.1648 16.999 13.2222C16.999 13.2222 16.9921 13.2278 16.9887 13.2301C16.8925 13.2998 16.793 13.3684 16.6923 13.4347C16.6831 13.4403 16.6751 13.446 16.6659 13.4516C16.5767 13.5112 16.4874 13.5685 16.3959 13.6247C16.3913 13.627 16.3867 13.6304 16.3821 13.6337H16.3798C16.1899 13.7507 15.993 13.862 15.7905 13.9666C15.7733 13.9756 15.7561 13.9846 15.7378 13.9936C15.5421 14.0936 15.3396 14.1881 15.1336 14.278C15.113 14.287 15.0935 14.296 15.0729 14.3039C14.9722 14.3466 14.8715 14.3882 14.7685 14.4276L14.7536 14.4332C14.527 14.5209 14.2947 14.6019 14.0578 14.6761C14.0487 14.6795 14.0395 14.6817 14.0292 14.6851C13.9068 14.7233 13.782 14.7593 13.6561 14.7942L13.631 14.8009C13.3712 14.8717 13.1057 14.9336 12.8333 14.9887C12.8299 14.9887 12.8253 14.9898 12.8219 14.9909C12.7017 15.0145 12.5815 15.0382 12.4602 15.0584C7.11129 15.9624 1.67536 13.3639 0.319243 9.25632C0.295211 9.18323 0.272323 9.10902 0.250579 9.03593C0.243712 9.01344 0.237991 8.99095 0.231124 8.96734C0.216247 8.91562 0.202514 8.86389 0.189926 8.81105C0.184204 8.78631 0.177337 8.76157 0.171615 8.73571C0.159027 8.68286 0.147582 8.62889 0.136138 8.57604C0.131561 8.5558 0.126983 8.53444 0.12355 8.5142C0.108673 8.43998 0.0949398 8.36577 0.0834958 8.29156V8.28931C0.0720517 8.21622 0.061752 8.14426 0.0525968 8.07117C0.050308 8.05093 0.048019 8.03069 0.0457302 8.01045C0.0400082 7.95648 0.0342862 7.90138 0.0297086 7.84741C0.0274198 7.82492 0.0262757 7.80355 0.0251313 7.78107C0.0205537 7.72372 0.0182647 7.6675 0.0159758 7.61015C0.0159758 7.59328 0.0148314 7.57754 0.013687 7.56068C0.0113982 7.48646 0.0102539 7.41113 0.0102539 7.33691V8.18249L0.0125428 8.18923C0.0182648 8.79081 0.116684 9.40475 0.319243 10.0187C1.67536 14.1274 7.11015 16.7248 12.4602 15.8208C17.0093 15.0528 20.0293 11.9999 19.9996 8.57716V7.9025C19.9962 8.42199 19.9229 8.93136 19.7844 9.42611L19.773 9.42723Z" fill="#3C2415"/>
<path d="M19.6806 5.98162C18.3245 1.87407 12.8897 -0.7245 7.53961 0.179544C2.19066 1.08359 -1.04687 5.14616 0.309253 9.25484C1.66537 13.3635 7.10016 15.961 12.4503 15.0569C17.7992 14.1529 21.0379 10.0903 19.6817 5.98162H19.6806Z" fill="#754C29"/>
<path d="M7.97341 1.49368C3.5686 2.23805 0.903277 5.58324 2.01907 8.96553C3.13487 12.3478 7.61064 14.4865 12.0155 13.7432C16.4203 12.9989 19.0856 9.65369 17.9698 6.27139C16.8529 2.8891 12.3782 0.750426 7.97341 1.49368ZM11.9422 13.5206C7.69761 14.238 3.38549 12.1769 2.30975 8.91718C1.23401 5.65745 3.8032 2.43483 8.04666 1.71744C12.2913 1.00005 16.6034 3.06114 17.6791 6.32087C18.7549 9.5806 16.1857 12.8032 11.9422 13.5206Z" fill="#FAF8F4"/>
<path d="M10.1812 1.08702C11.6609 1.14661 13.0834 1.49743 14.325 2.07989L15.0369 1.1691C13.5915 0.489943 11.9344 0.081774 10.2121 0.0131836L10.1812 1.08702Z" fill="url(#paint0_linear_848_9665)"/>
<path d="M18.3131 6.21331C18.4962 6.76653 18.5809 7.31975 18.5775 7.86173L19.9885 7.90221C19.9931 7.2714 19.8935 6.62823 19.6807 5.9828C19.4678 5.3385 19.1542 4.73019 18.7571 4.16797L17.52 4.65485C17.8611 5.13835 18.1311 5.66009 18.3142 6.21331H18.3131Z" fill="url(#paint1_linear_848_9665)"/>
<path d="M1.67647 9.02301C1.49337 8.46979 1.40868 7.91657 1.41212 7.37459L0.0010633 7.33524C-0.00236992 7.96604 0.0960492 8.60922 0.308909 9.25464C0.521768 9.90007 0.835335 10.5073 1.23359 11.0695L2.47069 10.5826C2.12966 10.0991 1.85958 9.57735 1.67762 9.02413L1.67647 9.02301Z" fill="url(#paint2_linear_848_9665)"/>
<path d="M2.65884 4.05087C3.40499 3.13221 4.45785 2.3631 5.74416 1.83686L5.04493 0.886719C3.5469 1.50066 2.3201 2.39571 1.45264 3.46504L2.65884 4.052V4.05087Z" fill="url(#paint3_linear_848_9665)"/>
<path d="M17.3299 11.1865C16.5838 12.1052 15.5309 12.8743 14.2446 13.4005L14.9427 14.3507C16.4396 13.7367 17.6675 12.8417 18.5361 11.7724L17.3299 11.1865Z" fill="url(#paint4_linear_848_9665)"/>
<path d="M9.80786 14.1491C8.32815 14.0895 6.90565 13.7387 5.66397 13.1562L4.95215 14.067C6.39753 14.7462 8.05463 15.1544 9.77696 15.223L9.80786 14.1491Z" fill="url(#paint5_linear_848_9665)"/>
<path opacity="0.15" d="M18.8175 4.25892C16.7095 1.18022 12.0941 -0.589635 7.53938 0.180602C2.97892 0.949714 -0.0434523 4.01717 0.00346833 7.45006C3.46873 8.23267 11.7611 9.33236 18.8186 4.25892H18.8175Z" fill="url(#paint6_linear_848_9665)"/>
<path d="M9.7701 15.9868V15.2255L9.77239 15.2233C8.0512 15.1536 6.39639 14.7454 4.95215 14.0674V14.8309C6.39524 15.5089 8.05006 15.9171 9.7701 15.9868Z" fill="url(#paint7_linear_848_9665)"/>
<path d="M18.5302 11.7811V11.7788C17.6628 12.8459 16.4394 13.7387 14.9448 14.3504H14.9494V15.1128C16.4406 14.5011 17.6628 13.6094 18.5302 12.5445V11.7811Z" fill="url(#paint8_linear_848_9665)"/>
<path d="M1.19949 11.0215C1.14227 10.9394 1.08734 10.8551 1.03355 10.7708C1.01524 10.7427 0.996928 10.7134 0.979762 10.6853C0.920253 10.5886 0.863032 10.4919 0.808101 10.393C0.794368 10.3694 0.78178 10.3446 0.769192 10.321C0.721126 10.2311 0.67535 10.1411 0.630718 10.05C0.621563 10.0298 0.611263 10.0107 0.600964 9.99042C0.551754 9.88473 0.504834 9.7779 0.461346 9.66996C0.451046 9.64522 0.441891 9.62048 0.431592 9.59462C0.388104 9.48218 0.345761 9.36974 0.307996 9.25504C0.0951363 8.61074 -0.00442681 7.96644 0.000150814 7.33676V8.18234L0.00243968 8.18908C0.0081617 8.79065 0.106581 9.40459 0.30914 10.0185C0.522 10.6651 0.836711 11.2734 1.23496 11.8367V11.0733C1.22238 11.0564 1.21208 11.0384 1.19949 11.0215Z" fill="url(#paint9_linear_848_9665)"/>
</g>
<defs>
<linearGradient id="paint0_linear_848_9665" x1="10.1812" y1="1.04654" x2="15.038" y2="1.04654" gradientUnits="userSpaceOnUse">
<stop stop-color="#D1D3D4"/>
<stop offset="0.16" stop-color="#E0E2E2"/>
<stop offset="0.4" stop-color="#F1F2F2"/>
<stop offset="0.67" stop-color="#FBFBFC"/>
<stop offset="1" stop-color="white"/>
</linearGradient>
<linearGradient id="paint1_linear_848_9665" x1="17.52" y1="6.03453" x2="19.9896" y2="6.03453" gradientUnits="userSpaceOnUse">
<stop stop-color="#808285"/>
<stop offset="0.02" stop-color="#858789"/>
<stop offset="0.15" stop-color="#AAABAD"/>
<stop offset="0.3" stop-color="#C9C9CB"/>
<stop offset="0.45" stop-color="#E0E1E2"/>
<stop offset="0.61" stop-color="#F1F1F2"/>
<stop offset="0.78" stop-color="#FBFBFB"/>
<stop offset="1" stop-color="white"/>
</linearGradient>
<linearGradient id="paint2_linear_848_9665" x1="-8.11084e-05" y1="9.20292" x2="2.46955" y2="9.20292" gradientUnits="userSpaceOnUse">
<stop stop-color="#808285"/>
<stop offset="0.02" stop-color="#858789"/>
<stop offset="0.15" stop-color="#AAABAD"/>
<stop offset="0.3" stop-color="#C9C9CB"/>
<stop offset="0.45" stop-color="#E0E1E2"/>
<stop offset="0.61" stop-color="#F1F1F2"/>
<stop offset="0.78" stop-color="#FBFBFB"/>
<stop offset="1" stop-color="white"/>
</linearGradient>
<linearGradient id="paint3_linear_848_9665" x1="1.45378" y1="2.46767" x2="5.7453" y2="2.46767" gradientUnits="userSpaceOnUse">
<stop stop-color="#D1D3D4"/>
<stop offset="0.16" stop-color="#E0E2E2"/>
<stop offset="0.4" stop-color="#F1F2F2"/>
<stop offset="0.67" stop-color="#FBFBFC"/>
<stop offset="1" stop-color="white"/>
</linearGradient>
<linearGradient id="paint4_linear_848_9665" x1="14.2446" y1="12.7686" x2="18.5361" y2="12.7686" gradientUnits="userSpaceOnUse">
<stop stop-color="#808285"/>
<stop offset="0.02" stop-color="#858789"/>
<stop offset="0.15" stop-color="#AAABAD"/>
<stop offset="0.3" stop-color="#C9C9CB"/>
<stop offset="0.45" stop-color="#E0E1E2"/>
<stop offset="0.61" stop-color="#F1F1F2"/>
<stop offset="0.78" stop-color="#FBFBFB"/>
<stop offset="1" stop-color="white"/>
</linearGradient>
<linearGradient id="paint5_linear_848_9665" x1="4.95215" y1="14.1896" x2="9.80786" y2="14.1896" gradientUnits="userSpaceOnUse">
<stop stop-color="#808285"/>
<stop offset="0.02" stop-color="#858789"/>
<stop offset="0.15" stop-color="#AAABAD"/>
<stop offset="0.3" stop-color="#C9C9CB"/>
<stop offset="0.45" stop-color="#E0E1E2"/>
<stop offset="0.61" stop-color="#F1F1F2"/>
<stop offset="0.78" stop-color="#FBFBFB"/>
<stop offset="1" stop-color="white"/>
</linearGradient>
<linearGradient id="paint6_linear_848_9665" x1="15.1675" y1="-1.03302" x2="16.5607" y2="12.8061" gradientUnits="userSpaceOnUse">
<stop stop-color="white"/>
<stop offset="0.09" stop-color="white"/>
<stop offset="1" stop-color="white"/>
</linearGradient>
<linearGradient id="paint7_linear_848_9665" x1="4.95215" y1="15.0265" x2="9.77353" y2="15.0265" gradientUnits="userSpaceOnUse">
<stop stop-color="#414042"/>
<stop offset="0.07" stop-color="#59595A"/>
<stop offset="0.2" stop-color="#7E7E7F"/>
<stop offset="0.34" stop-color="#9C9D9E"/>
<stop offset="0.48" stop-color="#B3B4B6"/>
<stop offset="0.63" stop-color="#C4C5C6"/>
<stop offset="0.8" stop-color="#CDCFD0"/>
<stop offset="1" stop-color="#D1D3D4"/>
</linearGradient>
<linearGradient id="paint8_linear_848_9665" x1="14.9448" y1="13.4463" x2="18.5302" y2="13.4463" gradientUnits="userSpaceOnUse">
<stop stop-color="#414042"/>
<stop offset="0.07" stop-color="#59595A"/>
<stop offset="0.2" stop-color="#7E7E7F"/>
<stop offset="0.34" stop-color="#9C9D9E"/>
<stop offset="0.48" stop-color="#B3B4B6"/>
<stop offset="0.63" stop-color="#C4C5C6"/>
<stop offset="0.8" stop-color="#CDCFD0"/>
<stop offset="1" stop-color="#D1D3D4"/>
</linearGradient>
<linearGradient id="paint9_linear_848_9665" x1="0.000150814" y1="9.58563" x2="1.23496" y2="9.58563" gradientUnits="userSpaceOnUse">
<stop stop-color="#414042"/>
<stop offset="0.07" stop-color="#59595A"/>
<stop offset="0.2" stop-color="#7E7E7F"/>
<stop offset="0.34" stop-color="#9C9D9E"/>
<stop offset="0.48" stop-color="#B3B4B6"/>
<stop offset="0.63" stop-color="#C4C5C6"/>
<stop offset="0.8" stop-color="#CDCFD0"/>
<stop offset="1" stop-color="#D1D3D4"/>
</linearGradient>
<clipPath id="clip0_848_9665">
<rect width="20" height="16" fill="white"/>
</clipPath>
</defs>
</svg>
