<svg width="20" height="16" viewBox="0 0 20 16" fill="none" xmlns="http://www.w3.org/2000/svg">
<g clip-path="url(#clip0_848_9686)">
<path d="M19.7722 9.42641C19.7687 9.43765 19.7664 9.44889 19.763 9.46014C19.7092 9.64906 19.6451 9.83573 19.573 10.0201C19.5719 10.0235 19.5708 10.0269 19.5696 10.0303C19.5353 10.1169 19.4987 10.2034 19.4598 10.2889C19.4552 10.299 19.4517 10.308 19.4472 10.3159C19.3671 10.4902 19.2801 10.6622 19.184 10.8309C19.184 10.8309 19.1805 10.8377 19.1783 10.841C19.0764 11.0187 18.9665 11.193 18.8464 11.3639C18.8464 11.3639 18.8441 11.3673 18.843 11.3696C18.78 11.4595 18.7148 11.5484 18.6461 11.6361C18.6416 11.6417 18.6381 11.6473 18.6335 11.6529C18.5134 11.8081 18.3852 11.9599 18.2502 12.1072C18.241 12.1185 18.2319 12.1286 18.2227 12.1387C18.1564 12.2107 18.0888 12.2815 18.019 12.3513L18.0167 12.3535C17.9355 12.4345 17.8531 12.5143 17.7684 12.593H17.7673C17.6826 12.6717 17.5956 12.7482 17.5075 12.8224C17.5041 12.8247 17.5018 12.8281 17.4984 12.8303C17.4183 12.8978 17.337 12.9641 17.2535 13.0293C17.2466 13.035 17.2397 13.0406 17.2317 13.0462C17.1551 13.1058 17.0784 13.1643 16.9994 13.2216C16.9994 13.2216 16.9926 13.2273 16.9891 13.2295C16.8919 13.2992 16.7935 13.3678 16.6927 13.4342C16.6836 13.4398 16.6756 13.4454 16.6664 13.451C16.5772 13.5106 16.4879 13.568 16.3964 13.6242C16.3918 13.6265 16.3872 13.6298 16.3826 13.6332H16.3803C16.1904 13.7502 15.9936 13.8615 15.791 13.9661C15.7738 13.9751 15.7567 13.9841 15.7384 13.993C15.5427 14.0931 15.3413 14.1876 15.1342 14.2775C15.1136 14.2865 15.0941 14.2955 15.0735 14.3034C14.9728 14.3461 14.8721 14.3878 14.7691 14.4271L14.7542 14.4327C14.5277 14.5204 14.2954 14.6014 14.0585 14.6756C14.0493 14.679 14.0402 14.6812 14.0299 14.6846C13.9074 14.7229 13.7827 14.7588 13.6568 14.7937C13.6488 14.7959 13.6397 14.7982 13.6316 14.8004C13.3719 14.8713 13.1064 14.9331 12.834 14.9882C12.8306 14.9882 12.826 14.9894 12.8226 14.9905C12.7024 15.0141 12.5823 15.0366 12.461 15.058C7.11234 15.9621 1.67673 13.3633 0.32069 9.25548C0.296659 9.18239 0.273773 9.10817 0.25203 9.03507C0.245164 9.01258 0.239442 8.99009 0.233721 8.96648C0.218844 8.91475 0.205112 8.86302 0.192525 8.81017C0.186803 8.78543 0.179937 8.76069 0.174215 8.73483C0.161627 8.68198 0.150184 8.628 0.13874 8.57515C0.134163 8.55491 0.129586 8.53354 0.125009 8.5133C0.110132 8.43908 0.0964002 8.36487 0.0849568 8.29065V8.2884C0.0735134 8.21531 0.0632143 8.14221 0.0540596 8.07024C0.0517709 8.05 0.0494821 8.02976 0.0471934 8.00952C0.0414717 7.95554 0.0357501 7.90044 0.0311727 7.84647C0.0288841 7.82398 0.0277396 7.80261 0.0265953 7.78012C0.0220179 7.72277 0.0197295 7.66654 0.0174408 7.60919C0.0174408 7.59233 0.0151521 7.57546 0.0151521 7.55972C0.0128634 7.4855 0.0117188 7.41016 0.0117188 7.33594V8.18157L0.0140075 8.18832C0.0197292 8.78993 0.118142 9.40392 0.32069 10.0179C1.67673 14.1269 7.1112 16.7245 12.461 15.8204C17.0097 15.0523 20.0308 11.9993 19.9999 8.5774V7.90269C19.9965 8.42222 19.9232 8.93162 19.7848 9.42641H19.7722Z" fill="#006838"/>
<path d="M19.6806 5.98204C18.3246 1.8742 12.8901 -0.72455 7.54031 0.179557C2.19052 1.08366 -1.04681 5.14653 0.309231 9.25549C1.66527 13.3645 7.09974 15.9621 12.4495 15.058C17.7982 14.1539 21.0366 10.091 19.6806 5.98204Z" fill="#39B54A"/>
<path d="M7.97403 1.49418C3.56947 2.2386 0.904303 5.58402 2.02003 8.96656C3.13576 12.3491 7.61127 14.4879 12.0158 13.7446C16.4204 13.0002 19.0856 9.65476 17.9698 6.27223C16.853 2.88969 12.3774 0.750873 7.97403 1.49418ZM11.9426 13.522C7.69824 14.2394 3.38637 12.1782 2.3107 8.9182C1.23502 5.65824 3.80406 2.43539 8.04727 1.71795C12.2916 1.00051 16.6035 3.06174 17.6792 6.3217C18.7548 9.58166 16.1858 12.8045 11.9426 13.522Z" fill="#FAF8F4"/>
<path d="M10.1808 1.0866C11.6605 1.1462 13.0829 1.49705 14.3245 2.07955L15.0363 1.16869C13.591 0.489488 11.934 0.0812905 10.2106 0.0126953L10.1797 1.0866H10.1808Z" fill="url(#paint0_linear_848_9686)"/>
<path d="M18.313 6.21346C18.4961 6.76672 18.5808 7.31998 18.5774 7.86199L19.9884 7.90247C19.9929 7.27162 19.8934 6.6284 19.6805 5.98293C19.4677 5.33859 19.1541 4.73022 18.757 4.16797L17.52 4.65488C17.8622 5.13842 18.1311 5.6602 18.3142 6.21346H18.313Z" fill="url(#paint1_linear_848_9686)"/>
<path d="M1.67638 9.02395C1.49328 8.47069 1.4086 7.91743 1.41203 7.37542L0.00106329 7.33606C-0.00236973 7.96691 0.0960437 8.61013 0.308891 9.2556C0.521738 9.90107 0.835286 10.5083 1.23352 11.0706L2.47055 10.5837C2.12953 10.1001 1.85947 9.57834 1.67752 9.02508L1.67638 9.02395Z" fill="url(#paint2_linear_848_9686)"/>
<path d="M2.65958 4.0511C3.40569 3.13237 4.45848 2.3632 5.74472 1.83693L5.04667 0.886719C3.54988 1.5007 2.322 2.39581 1.45459 3.46522L2.66072 4.05222L2.65958 4.0511Z" fill="url(#paint3_linear_848_9686)"/>
<path d="M17.3303 11.1865C16.5841 12.1052 15.5314 12.8744 14.2451 13.4007L14.9432 14.3509C16.44 13.7369 17.6667 12.8418 18.5364 11.7724L17.3303 11.1865Z" fill="url(#paint4_linear_848_9686)"/>
<path d="M9.80807 14.1502C8.32844 14.0906 6.90602 13.7397 5.66441 13.1572L4.95264 14.0681C6.39794 14.7473 8.05494 15.1555 9.77717 15.2241L9.80807 14.1502Z" fill="url(#paint5_linear_848_9686)"/>
<path opacity="0.15" d="M18.8175 4.25931C16.7097 1.1804 12.0946 -0.589585 7.54009 0.180706C2.97989 0.949872 -0.0434498 4.01754 0.0034681 7.45068C3.46853 8.23334 11.7604 9.33311 18.8175 4.25931Z" fill="url(#paint6_linear_848_9686)"/>
<path d="M9.7703 15.9884V15.2271L9.77259 15.2248C8.05151 15.1551 6.39679 14.7469 4.95264 14.0688V14.8324C6.39679 15.5105 8.05036 15.9187 9.7703 15.9884Z" fill="url(#paint7_linear_848_9686)"/>
<path d="M18.5291 11.782V11.7798C17.6617 12.8469 16.4384 13.7398 14.9438 14.3515H14.9484V15.114C16.4395 14.5022 17.6617 13.6105 18.5291 12.5456V11.782Z" fill="url(#paint8_linear_848_9686)"/>
<path d="M1.20056 11.0221C1.14335 10.94 1.08842 10.8557 1.03349 10.7713C1.01518 10.7432 0.99687 10.714 0.979705 10.6859C0.9202 10.5892 0.862983 10.4924 0.808054 10.3935C0.794322 10.3699 0.782879 10.3451 0.769147 10.3215C0.721085 10.2316 0.675311 10.1416 0.630682 10.0505C0.621527 10.0303 0.611228 10.0112 0.600929 9.99091C0.551722 9.88521 0.504804 9.77838 0.461319 9.67043C0.45102 9.64569 0.441866 9.62095 0.431567 9.59509C0.388082 9.48264 0.345741 9.37018 0.307978 9.25548C0.0951308 8.61114 -0.00442655 7.96679 0.000150805 7.33707V8.1827L0.00243954 8.18945C0.00816123 8.79106 0.106574 9.40504 0.309122 10.019C0.52197 10.6656 0.836663 11.274 1.23489 11.8374V11.0738C1.22231 11.057 1.21201 11.039 1.19942 11.0221H1.20056Z" fill="url(#paint9_linear_848_9686)"/>
</g>
<defs>
<linearGradient id="paint0_linear_848_9686" x1="10.1808" y1="1.04612" x2="15.0363" y2="1.04612" gradientUnits="userSpaceOnUse">
<stop stop-color="#D1D3D4"/>
<stop offset="0.16" stop-color="#E0E2E2"/>
<stop offset="0.4" stop-color="#F1F2F2"/>
<stop offset="0.67" stop-color="#FBFBFC"/>
<stop offset="1" stop-color="white"/>
</linearGradient>
<linearGradient id="paint1_linear_848_9686" x1="17.5189" y1="6.03466" x2="19.9884" y2="6.03466" gradientUnits="userSpaceOnUse">
<stop stop-color="#808285"/>
<stop offset="0.02" stop-color="#858789"/>
<stop offset="0.15" stop-color="#AAABAD"/>
<stop offset="0.3" stop-color="#C9C9CB"/>
<stop offset="0.45" stop-color="#E0E1E2"/>
<stop offset="0.61" stop-color="#F1F1F2"/>
<stop offset="0.78" stop-color="#FBFBFB"/>
<stop offset="1" stop-color="white"/>
</linearGradient>
<linearGradient id="paint2_linear_848_9686" x1="0.00106329" y1="9.20387" x2="2.4694" y2="9.20387" gradientUnits="userSpaceOnUse">
<stop stop-color="#808285"/>
<stop offset="0.02" stop-color="#858789"/>
<stop offset="0.15" stop-color="#AAABAD"/>
<stop offset="0.3" stop-color="#C9C9CB"/>
<stop offset="0.45" stop-color="#E0E1E2"/>
<stop offset="0.61" stop-color="#F1F1F2"/>
<stop offset="0.78" stop-color="#FBFBFB"/>
<stop offset="1" stop-color="white"/>
</linearGradient>
<linearGradient id="paint3_linear_848_9686" x1="1.45345" y1="2.46778" x2="5.74472" y2="2.46778" gradientUnits="userSpaceOnUse">
<stop stop-color="#D1D3D4"/>
<stop offset="0.16" stop-color="#E0E2E2"/>
<stop offset="0.4" stop-color="#F1F2F2"/>
<stop offset="0.67" stop-color="#FBFBFC"/>
<stop offset="1" stop-color="white"/>
</linearGradient>
<linearGradient id="paint4_linear_848_9686" x1="14.2451" y1="12.7698" x2="18.5364" y2="12.7698" gradientUnits="userSpaceOnUse">
<stop stop-color="#808285"/>
<stop offset="0.02" stop-color="#858789"/>
<stop offset="0.15" stop-color="#AAABAD"/>
<stop offset="0.3" stop-color="#C9C9CB"/>
<stop offset="0.45" stop-color="#E0E1E2"/>
<stop offset="0.61" stop-color="#F1F1F2"/>
<stop offset="0.78" stop-color="#FBFBFB"/>
<stop offset="1" stop-color="white"/>
</linearGradient>
<linearGradient id="paint5_linear_848_9686" x1="4.95264" y1="14.1907" x2="9.80807" y2="14.1907" gradientUnits="userSpaceOnUse">
<stop stop-color="#808285"/>
<stop offset="0.02" stop-color="#858789"/>
<stop offset="0.15" stop-color="#AAABAD"/>
<stop offset="0.3" stop-color="#C9C9CB"/>
<stop offset="0.45" stop-color="#E0E1E2"/>
<stop offset="0.61" stop-color="#F1F1F2"/>
<stop offset="0.78" stop-color="#FBFBFB"/>
<stop offset="1" stop-color="white"/>
</linearGradient>
<linearGradient id="paint6_linear_848_9686" x1="14.9158" y1="-1.00802" x2="16.3092" y2="12.8321" gradientUnits="userSpaceOnUse">
<stop stop-color="white"/>
<stop offset="0.09" stop-color="white"/>
<stop offset="1" stop-color="white"/>
</linearGradient>
<linearGradient id="paint7_linear_848_9686" x1="4.95264" y1="15.0281" x2="9.77259" y2="15.0281" gradientUnits="userSpaceOnUse">
<stop stop-color="#414042"/>
<stop offset="0.07" stop-color="#59595A"/>
<stop offset="0.2" stop-color="#7E7E7F"/>
<stop offset="0.34" stop-color="#9C9D9E"/>
<stop offset="0.48" stop-color="#B3B4B6"/>
<stop offset="0.63" stop-color="#C4C5C6"/>
<stop offset="0.8" stop-color="#CDCFD0"/>
<stop offset="1" stop-color="#D1D3D4"/>
</linearGradient>
<linearGradient id="paint8_linear_848_9686" x1="14.945" y1="13.4474" x2="18.5302" y2="13.4474" gradientUnits="userSpaceOnUse">
<stop stop-color="#414042"/>
<stop offset="0.07" stop-color="#59595A"/>
<stop offset="0.2" stop-color="#7E7E7F"/>
<stop offset="0.34" stop-color="#9C9D9E"/>
<stop offset="0.48" stop-color="#B3B4B6"/>
<stop offset="0.63" stop-color="#C4C5C6"/>
<stop offset="0.8" stop-color="#CDCFD0"/>
<stop offset="1" stop-color="#D1D3D4"/>
</linearGradient>
<linearGradient id="paint9_linear_848_9686" x1="0.000150805" y1="9.58609" x2="1.23604" y2="9.58609" gradientUnits="userSpaceOnUse">
<stop stop-color="#414042"/>
<stop offset="0.07" stop-color="#59595A"/>
<stop offset="0.2" stop-color="#7E7E7F"/>
<stop offset="0.34" stop-color="#9C9D9E"/>
<stop offset="0.48" stop-color="#B3B4B6"/>
<stop offset="0.63" stop-color="#C4C5C6"/>
<stop offset="0.8" stop-color="#CDCFD0"/>
<stop offset="1" stop-color="#D1D3D4"/>
</linearGradient>
<clipPath id="clip0_848_9686">
<rect width="20" height="16" fill="white"/>
</clipPath>
</defs>
</svg>
