<svg width="20" height="16" viewBox="0 0 20 16" fill="none" xmlns="http://www.w3.org/2000/svg">
<path d="M19.7755 9.42723C19.7721 9.43848 19.7698 9.44972 19.7664 9.46097C19.7126 9.64987 19.6485 9.83653 19.5764 10.0209L19.5718 10.0311C19.5375 10.1176 19.5008 10.2042 19.4619 10.2897C19.4573 10.2998 19.4539 10.3088 19.4493 10.3167C19.3692 10.4909 19.2822 10.663 19.1861 10.8317C19.1861 10.8317 19.1815 10.8384 19.1804 10.8418C19.0785 11.0194 18.9686 11.1937 18.8485 11.3646C18.8485 11.3646 18.8462 11.368 18.845 11.3703C18.7821 11.4602 18.7168 11.549 18.6482 11.6367C18.6436 11.6424 18.639 11.648 18.6356 11.6536C18.5154 11.8088 18.3872 11.9606 18.2522 12.1079C18.243 12.1191 18.2339 12.1292 18.2247 12.1394C18.1583 12.2113 18.0908 12.2822 18.021 12.3519C18.021 12.3519 18.021 12.353 18.0187 12.3541C17.9374 12.4351 17.855 12.5149 17.7692 12.5936H17.7681C17.6834 12.6723 17.5964 12.7488 17.5082 12.823C17.5048 12.8253 17.5025 12.8286 17.4991 12.8309C17.419 12.8984 17.3377 12.9647 17.2542 13.0299C17.2473 13.0355 17.2404 13.0412 17.2324 13.0468C17.1557 13.1064 17.0791 13.1648 16.9989 13.2222C16.9989 13.2222 16.9921 13.2278 16.9886 13.2301C16.8925 13.2998 16.7929 13.3684 16.6922 13.4347C16.6831 13.4403 16.6751 13.446 16.6659 13.4516C16.5766 13.5112 16.4874 13.5685 16.3958 13.6247C16.3912 13.627 16.3866 13.6304 16.3821 13.6337H16.3798C16.1898 13.7507 15.9929 13.862 15.7904 13.9666C15.7732 13.9756 15.756 13.9846 15.7377 13.9936C15.542 14.0936 15.3394 14.1881 15.1323 14.278C15.1117 14.287 15.0911 14.296 15.0716 14.3039C14.9709 14.3466 14.869 14.3882 14.7672 14.4276C14.7672 14.4276 14.758 14.431 14.7523 14.4332C14.5257 14.5209 14.2933 14.6019 14.0553 14.6761C14.0461 14.6795 14.037 14.6817 14.0267 14.6851C13.9042 14.7233 13.7795 14.7593 13.6536 14.7942L13.6284 14.8009C13.3686 14.8717 13.1019 14.9336 12.8307 14.9887C12.8261 14.9887 12.8227 14.9898 12.8192 14.9909C12.699 15.0145 12.5789 15.0382 12.4576 15.0584C7.10814 15.9624 1.67175 13.3639 0.315516 9.25632C0.291481 9.18323 0.268591 9.10902 0.24799 9.03593C0.241123 9.01344 0.235401 8.99095 0.228534 8.96734C0.213655 8.91562 0.199921 8.86389 0.187332 8.81105C0.181609 8.78631 0.174742 8.76157 0.16902 8.73571C0.15643 8.68286 0.144985 8.62889 0.13354 8.57604C0.128962 8.5558 0.124384 8.53444 0.120951 8.5142C0.106072 8.43998 0.0923379 8.36577 0.0808929 8.29156C0.0808929 8.29156 0.0808929 8.29043 0.0808929 8.28931C0.0694479 8.21622 0.0591475 8.14426 0.051136 8.07117C0.048847 8.05093 0.0465578 8.03069 0.0442688 8.01045C0.0385463 7.95648 0.0328239 7.90138 0.0282458 7.84741C0.0259568 7.82492 0.0248122 7.80355 0.0236677 7.78107C0.0190897 7.72372 0.0168009 7.6675 0.0145119 7.61015C0.0145119 7.59328 0.0133674 7.57754 0.0122229 7.56068C0.00993386 7.48646 0.00878906 7.41113 0.00878906 7.33691V8.18249L0.0110781 8.18923C0.0168006 8.79081 0.115228 9.40475 0.317805 10.0187C1.67404 14.1274 7.10929 16.7248 12.4598 15.8208C17.0081 15.0528 20.0296 11.9999 19.9998 8.57716V7.9025C19.9964 8.42199 19.9232 8.93136 19.7847 9.42611L19.7755 9.42723Z" fill="#4A2D7A"/>
<path d="M19.6825 5.98162C18.3263 1.87407 12.891 -0.7245 7.54046 0.179544C2.19105 1.08359 -1.04675 5.14616 0.30834 9.25484C1.66458 13.3635 7.09982 15.961 12.4504 15.0569C17.7998 14.1529 21.0387 10.0903 19.6825 5.98162Z" fill="#662D91"/>
<path d="M7.97443 1.49368C3.56924 2.23805 0.903691 5.58324 2.01958 8.96553C3.13547 12.3478 7.61163 14.4865 12.0168 13.7432C16.422 12.9989 19.0876 9.65369 17.9717 6.27139C16.8546 2.8891 12.3785 0.750426 7.97443 1.49368ZM11.9436 13.5206C7.69861 14.238 3.38612 12.1769 2.31029 8.91718C1.23445 5.65745 3.80272 2.43483 8.04768 1.71744C12.2926 1.00005 16.6051 3.06114 17.681 6.32087C18.7568 9.5806 16.1874 12.8032 11.9436 13.5206Z" fill="#FAF8F4"/>
<path d="M10.1816 1.08702C11.6615 1.14661 13.0841 1.49743 14.3259 2.07989L15.0378 1.1691C13.5923 0.489943 11.935 0.081774 10.2125 0.0131836L10.1816 1.08702Z" fill="url(#paint0_linear_848_9602)"/>
<path d="M18.3151 6.21331C18.4982 6.76653 18.5829 7.31975 18.5795 7.86173L19.9907 7.90221C19.9952 7.2714 19.8957 6.62823 19.6828 5.9828C19.4699 5.3385 19.1563 4.73019 18.7592 4.16797L17.522 4.65485C17.863 5.13835 18.1331 5.66009 18.3163 6.21331H18.3151Z" fill="url(#paint1_linear_848_9602)"/>
<path d="M1.67619 9.02304C1.49307 8.46982 1.40838 7.9166 1.41181 7.37462L0.000639107 7.33527C-0.00393891 7.96607 0.0956332 8.60925 0.308511 9.25467C0.521389 9.9001 0.834982 10.5073 1.23327 11.0695L2.47048 10.5826C2.12942 10.0991 1.85931 9.57738 1.67734 9.02416L1.67619 9.02304Z" fill="url(#paint2_linear_848_9602)"/>
<path d="M2.65943 4.05087C3.40565 3.13221 4.45859 2.3631 5.74501 1.83686L5.04572 0.886719C3.54871 1.50066 2.32066 2.39571 1.45312 3.46504L2.65943 4.052V4.05087Z" fill="url(#paint3_linear_848_9602)"/>
<path d="M17.3317 11.1865C16.5855 12.1052 15.5325 12.8743 14.2461 13.4005L14.9442 14.3507C16.4424 13.7367 17.6693 12.8417 18.538 11.7724L17.3317 11.1865Z" fill="url(#paint4_linear_848_9602)"/>
<path d="M9.80877 14.1496C8.32892 14.09 6.9063 13.7392 5.66452 13.1567L4.95264 14.0675C6.39814 14.7467 8.05539 15.1549 9.77786 15.2234L9.80877 14.1496Z" fill="url(#paint5_linear_848_9602)"/>
<path opacity="0.15" d="M18.8197 4.25901C16.7116 1.18031 12.0958 -0.589543 7.54066 0.180693C2.97981 0.949805 -0.0428258 4.01726 0.00295432 7.45015C3.46851 8.23276 11.7616 9.33245 18.8197 4.25901Z" fill="url(#paint6_linear_848_9602)"/>
<path d="M9.771 15.9873V15.226L9.77329 15.2238C8.05195 15.1541 6.397 14.7459 4.95264 14.0679V14.8314C6.39586 15.5094 8.05081 15.9176 9.771 15.9873Z" fill="url(#paint7_linear_848_9602)"/>
<path d="M18.532 11.7815V11.7793C17.6645 12.8464 16.4399 13.7392 14.9463 14.3509H14.9509V15.1132C16.4422 14.5015 17.6645 13.6099 18.532 12.545V11.7815Z" fill="url(#paint8_linear_848_9602)"/>
<path d="M1.20008 11.0216C1.14285 10.9395 1.08677 10.8551 1.03413 10.7708C1.01581 10.7427 0.997502 10.7135 0.980334 10.6854C0.92082 10.5887 0.863595 10.492 0.808659 10.393C0.794925 10.3694 0.782335 10.3446 0.769746 10.321C0.721677 10.2311 0.675897 10.1411 0.631261 10.05C0.622105 10.0298 0.611804 10.0107 0.601504 9.99045C0.55229 9.88476 0.505366 9.77794 0.461874 9.66999C0.451574 9.64525 0.442418 9.62051 0.432117 9.59465C0.388626 9.48221 0.34628 9.36977 0.308511 9.25507C0.0956332 8.61077 -0.00393891 7.96647 0.000639107 7.33679V8.18237L0.00292817 8.18911C0.00865069 8.79068 0.107078 9.40462 0.309655 10.0186C0.522533 10.6651 0.837271 11.2734 1.23556 11.8368V11.0733C1.22297 11.0564 1.21267 11.0384 1.20008 11.0216Z" fill="url(#paint9_linear_848_9602)"/>
<defs>
<linearGradient id="paint0_linear_848_9602" x1="10.1816" y1="1.04654" x2="15.0378" y2="1.04654" gradientUnits="userSpaceOnUse">
<stop stop-color="#D1D3D4"/>
<stop offset="0.16" stop-color="#E0E2E2"/>
<stop offset="0.4" stop-color="#F1F2F2"/>
<stop offset="0.67" stop-color="#FBFBFC"/>
<stop offset="1" stop-color="white"/>
</linearGradient>
<linearGradient id="paint1_linear_848_9602" x1="17.5208" y1="6.03453" x2="19.9907" y2="6.03453" gradientUnits="userSpaceOnUse">
<stop stop-color="#808285"/>
<stop offset="0.02" stop-color="#858789"/>
<stop offset="0.15" stop-color="#AAABAD"/>
<stop offset="0.3" stop-color="#C9C9CB"/>
<stop offset="0.45" stop-color="#E0E1E2"/>
<stop offset="0.61" stop-color="#F1F1F2"/>
<stop offset="0.78" stop-color="#FBFBFB"/>
<stop offset="1" stop-color="white"/>
</linearGradient>
<linearGradient id="paint2_linear_848_9602" x1="0.000639108" y1="9.20295" x2="2.47048" y2="9.20295" gradientUnits="userSpaceOnUse">
<stop stop-color="#808285"/>
<stop offset="0.02" stop-color="#858789"/>
<stop offset="0.15" stop-color="#AAABAD"/>
<stop offset="0.3" stop-color="#C9C9CB"/>
<stop offset="0.45" stop-color="#E0E1E2"/>
<stop offset="0.61" stop-color="#F1F1F2"/>
<stop offset="0.78" stop-color="#FBFBFB"/>
<stop offset="1" stop-color="white"/>
</linearGradient>
<linearGradient id="paint3_linear_848_9602" x1="1.45312" y1="2.46767" x2="5.74501" y2="2.46767" gradientUnits="userSpaceOnUse">
<stop stop-color="#D1D3D4"/>
<stop offset="0.16" stop-color="#E0E2E2"/>
<stop offset="0.4" stop-color="#F1F2F2"/>
<stop offset="0.67" stop-color="#FBFBFC"/>
<stop offset="1" stop-color="white"/>
</linearGradient>
<linearGradient id="paint4_linear_848_9602" x1="14.2461" y1="12.7686" x2="18.538" y2="12.7686" gradientUnits="userSpaceOnUse">
<stop stop-color="#808285"/>
<stop offset="0.02" stop-color="#858789"/>
<stop offset="0.15" stop-color="#AAABAD"/>
<stop offset="0.3" stop-color="#C9C9CB"/>
<stop offset="0.45" stop-color="#E0E1E2"/>
<stop offset="0.61" stop-color="#F1F1F2"/>
<stop offset="0.78" stop-color="#FBFBFB"/>
<stop offset="1" stop-color="white"/>
</linearGradient>
<linearGradient id="paint5_linear_848_9602" x1="4.95264" y1="14.1901" x2="9.80877" y2="14.1901" gradientUnits="userSpaceOnUse">
<stop stop-color="#808285"/>
<stop offset="0.02" stop-color="#858789"/>
<stop offset="0.15" stop-color="#AAABAD"/>
<stop offset="0.3" stop-color="#C9C9CB"/>
<stop offset="0.45" stop-color="#E0E1E2"/>
<stop offset="0.61" stop-color="#F1F1F2"/>
<stop offset="0.78" stop-color="#FBFBFB"/>
<stop offset="1" stop-color="white"/>
</linearGradient>
<linearGradient id="paint6_linear_848_9602" x1="14.617" y1="-0.978235" x2="16.0099" y2="12.8596" gradientUnits="userSpaceOnUse">
<stop stop-color="white"/>
<stop offset="0.09" stop-color="white"/>
<stop offset="1" stop-color="white"/>
</linearGradient>
<linearGradient id="paint7_linear_848_9602" x1="4.95264" y1="15.027" x2="9.77329" y2="15.027" gradientUnits="userSpaceOnUse">
<stop stop-color="#414042"/>
<stop offset="0.07" stop-color="#59595A"/>
<stop offset="0.2" stop-color="#7E7E7F"/>
<stop offset="0.34" stop-color="#9C9D9E"/>
<stop offset="0.48" stop-color="#B3B4B6"/>
<stop offset="0.63" stop-color="#C4C5C6"/>
<stop offset="0.8" stop-color="#CDCFD0"/>
<stop offset="1" stop-color="#D1D3D4"/>
</linearGradient>
<linearGradient id="paint8_linear_848_9602" x1="14.9463" y1="13.4468" x2="18.532" y2="13.4468" gradientUnits="userSpaceOnUse">
<stop stop-color="#414042"/>
<stop offset="0.07" stop-color="#59595A"/>
<stop offset="0.2" stop-color="#7E7E7F"/>
<stop offset="0.34" stop-color="#9C9D9E"/>
<stop offset="0.48" stop-color="#B3B4B6"/>
<stop offset="0.63" stop-color="#C4C5C6"/>
<stop offset="0.8" stop-color="#CDCFD0"/>
<stop offset="1" stop-color="#D1D3D4"/>
</linearGradient>
<linearGradient id="paint9_linear_848_9602" x1="0.000639108" y1="9.58566" x2="1.23556" y2="9.58566" gradientUnits="userSpaceOnUse">
<stop stop-color="#414042"/>
<stop offset="0.07" stop-color="#59595A"/>
<stop offset="0.2" stop-color="#7E7E7F"/>
<stop offset="0.34" stop-color="#9C9D9E"/>
<stop offset="0.48" stop-color="#B3B4B6"/>
<stop offset="0.63" stop-color="#C4C5C6"/>
<stop offset="0.8" stop-color="#CDCFD0"/>
<stop offset="1" stop-color="#D1D3D4"/>
</linearGradient>
</defs>
</svg>
