<svg width="20" height="16" viewBox="0 0 20 16" fill="none" xmlns="http://www.w3.org/2000/svg">
<g clip-path="url(#clip0_848_9561)">
<path d="M19.7836 9.42637C19.7802 9.43762 19.7779 9.44886 19.7744 9.46011C19.7206 9.64902 19.6565 9.83568 19.5844 10.0201L19.5798 10.0302C19.5454 10.1168 19.5088 10.2034 19.4699 10.2888C19.4653 10.299 19.4618 10.308 19.4573 10.3158C19.3771 10.4901 19.2901 10.6622 19.1939 10.8308C19.1939 10.8308 19.1893 10.8376 19.1882 10.8409C19.0863 11.0186 18.9764 11.1929 18.8561 11.3638C18.8561 11.3638 18.8538 11.3672 18.8527 11.3694C18.7897 11.4594 18.7244 11.5482 18.6557 11.6359C18.6512 11.6416 18.6466 11.6472 18.6432 11.6528C18.5229 11.808 18.3947 11.9598 18.2596 12.1071C18.2504 12.1183 18.2413 12.1285 18.2321 12.1386C18.1657 12.2105 18.0981 12.2814 18.0283 12.3511L18.026 12.3534C17.9447 12.4343 17.8623 12.5142 17.7764 12.5929H17.7752C17.6905 12.6716 17.6035 12.748 17.5153 12.8223C17.5119 12.8245 17.5096 12.8279 17.5062 12.8301C17.426 12.8976 17.3447 12.9639 17.2611 13.0292C17.2542 13.0348 17.2474 13.0404 17.2394 13.046C17.1626 13.1056 17.0859 13.1641 17.0058 13.2214C17.0058 13.2214 16.9989 13.2271 16.9955 13.2293C16.8993 13.299 16.7997 13.3676 16.6989 13.434C16.6898 13.4396 16.6817 13.4452 16.6726 13.4508C16.5833 13.5104 16.494 13.5678 16.4024 13.624C16.3978 13.6262 16.3932 13.6296 16.3886 13.633H16.3863C16.1963 13.7499 15.9993 13.8613 15.7966 13.9658C15.7795 13.9748 15.7623 13.9838 15.744 13.9928C15.5482 14.0929 15.3455 14.1874 15.1383 14.2773C15.1177 14.2863 15.097 14.2953 15.0776 14.3032C14.9768 14.3459 14.8749 14.3875 14.773 14.4269C14.773 14.4269 14.7638 14.4302 14.7581 14.4325C14.5314 14.5202 14.299 14.6012 14.0608 14.6754C14.0516 14.6787 14.0425 14.681 14.0322 14.6844C13.9097 14.7226 13.7849 14.7586 13.6589 14.7934L13.6337 14.8002C13.3738 14.871 13.107 14.9329 12.8356 14.988C12.8311 14.988 12.8276 14.9891 12.8242 14.9902C12.704 15.0138 12.5837 15.0363 12.4624 15.0577C7.10368 15.9606 1.66485 13.3631 0.309154 9.25433C0.285109 9.18124 0.262209 9.10702 0.241598 9.03393C0.234728 9.01144 0.229003 8.98896 0.222133 8.96534C0.207248 8.91362 0.193508 8.86189 0.180913 8.80904C0.175187 8.7843 0.168317 8.75956 0.162592 8.7337C0.149997 8.68085 0.138547 8.62688 0.127097 8.57403C0.122517 8.55379 0.117937 8.53242 0.114502 8.51218C0.0996164 8.43797 0.0858762 8.36375 0.0744261 8.28954C0.0744261 8.28954 0.0744261 8.28841 0.0744261 8.28729C0.0629759 8.2142 0.0526707 8.14111 0.0446556 8.06914C0.0423656 8.0489 0.0400756 8.02866 0.0377855 8.00842C0.0320605 7.95445 0.0263354 7.89935 0.0217553 7.84538C0.0194653 7.82289 0.0183203 7.80152 0.0171752 7.77903C0.0125952 7.72168 0.0103051 7.66546 0.00801511 7.60811C0.00801511 7.59125 0.0068701 7.57438 0.00572508 7.55864C0.00343505 7.48442 0.00229003 7.40908 0.00229003 7.33487H0V8.18047L0.00229003 8.18721C0.00801511 8.7888 0.105342 9.40276 0.309154 10.0167C1.666 14.1255 7.10368 16.723 12.4566 15.819C17.0069 15.0509 20.0298 11.998 20 8.57628V7.9016C19.9966 8.4211 19.9233 8.93048 19.7847 9.42525L19.7836 9.42637Z" fill="#67090E"/>
<path d="M19.6906 5.98214C18.3349 1.87335 12.8961 -0.724162 7.54428 0.179907C2.19133 1.08285 -1.04792 5.14667 0.308925 9.25433C1.66577 13.3631 7.1046 15.9606 12.4564 15.0566C17.8082 14.1525 21.0486 10.0898 19.6918 5.98102L19.6906 5.98214Z" fill="#950E14"/>
<path d="M7.9775 1.49328C3.57033 2.23767 0.903588 5.58296 2.02112 8.96534C3.13866 12.3477 7.61567 14.4865 12.0228 13.7432C16.43 12.9988 19.0968 9.65351 17.9804 6.27113C16.8628 2.88761 12.3847 0.748884 7.9775 1.49328ZM11.9484 13.5205C7.70155 14.238 3.38713 12.1768 2.31081 8.91699C1.2345 5.65717 3.80506 2.43333 8.05193 1.71592C12.2988 0.998515 16.6132 3.05966 17.6895 6.31948C18.7658 9.5793 16.1964 12.802 11.9496 13.5194L11.9484 13.5205Z" fill="#FAF8F4"/>
<path d="M10.1872 1.08647C11.6677 1.14606 13.0909 1.4969 14.3333 2.07937L15.0455 1.16855C13.5982 0.490501 11.9413 0.0823205 10.217 0.0126038L10.186 1.08647H10.1872Z" fill="url(#paint0_linear_848_9561)"/>
<path d="M18.3228 6.21267C18.506 6.7659 18.5907 7.31914 18.5873 7.86113L19.9991 7.90161C20.0037 7.27079 19.9041 6.62759 19.6911 5.98215C19.4781 5.33783 19.1644 4.7295 18.7671 4.16727L17.5293 4.65416C17.8705 5.13768 18.1407 5.65943 18.3239 6.21267H18.3228Z" fill="url(#paint1_linear_848_9561)"/>
<path d="M1.6776 9.02382C1.4944 8.47058 1.40967 7.91735 1.4131 7.37535L0.000150894 7.336C-0.00442917 7.96682 0.0951872 8.61002 0.30816 9.25546C0.521133 9.9009 0.834868 10.5081 1.23333 11.0703L2.4711 10.5835C2.12988 10.0999 1.85966 9.57818 1.6776 9.02494V9.02382Z" fill="url(#paint2_linear_848_9561)"/>
<path d="M2.66095 4.05032C3.4075 3.13163 4.46091 2.3625 5.74791 1.83625L5.04831 0.886078C3.54948 1.50004 2.32202 2.39511 1.4541 3.46447L2.66095 4.05144V4.05032Z" fill="url(#paint3_linear_848_9561)"/>
<path d="M17.3389 11.1862C16.5924 12.1048 15.539 12.874 14.252 13.4002L14.9504 14.3504C16.4492 13.7364 17.6767 12.8414 18.5458 11.772L17.3389 11.1862Z" fill="url(#paint4_linear_848_9561)"/>
<path d="M9.81387 14.1502C8.33336 14.0907 6.91011 13.7398 5.66777 13.1573L4.95557 14.0682C6.40172 14.7473 8.05971 15.1555 9.78296 15.2241L9.81387 14.1502Z" fill="url(#paint5_linear_848_9561)"/>
<path opacity="0.15" d="M18.8287 4.25834C16.7184 1.17955 12.1006 -0.590353 7.54455 0.179905C2.98166 0.950163 -0.0434772 4.01658 0.00346842 7.44957C3.47058 8.23219 11.7674 9.33192 18.8287 4.25834Z" fill="url(#paint6_linear_848_9561)"/>
<path d="M9.77608 15.9865V15.2252L9.77838 15.223C8.05627 15.1533 6.40058 14.7451 4.95557 14.067V14.8306C6.39943 15.5086 8.05513 15.9168 9.77608 15.9865Z" fill="url(#paint7_linear_848_9561)"/>
<path d="M18.54 11.7821V11.7799C17.6721 12.847 16.4469 13.7398 14.9526 14.3515H14.9572V15.1139C16.4492 14.5022 17.6721 13.6105 18.54 12.5456V11.7821Z" fill="url(#paint8_linear_848_9561)"/>
<path d="M1.20121 11.0209C1.14396 10.9388 1.089 10.8544 1.03518 10.7701C1.01686 10.742 0.99854 10.7128 0.981365 10.6847C0.921824 10.5879 0.864573 10.4912 0.809612 10.3923C0.795872 10.3687 0.784422 10.3439 0.770682 10.3203C0.722591 10.2304 0.67679 10.1404 0.632135 10.0493C0.622975 10.0291 0.61267 10.01 0.602364 9.98973C0.553129 9.88403 0.506183 9.77721 0.462672 9.66926C0.452367 9.64452 0.443207 9.61979 0.432902 9.59392C0.389391 9.48148 0.347026 9.36903 0.30924 9.25434C0.0962672 8.61002 -0.00334922 7.9657 8.58286e-05 7.336V8.1816L0.00237586 8.18834C0.00810094 8.78993 0.105427 9.40389 0.30924 10.0178C0.522213 10.6644 0.837093 11.2727 1.23556 11.8361V11.0726C1.22296 11.0557 1.21266 11.0377 1.20006 11.0209H1.20121Z" fill="url(#paint9_linear_848_9561)"/>
</g>
<defs>
<linearGradient id="paint0_linear_848_9561" x1="10.1872" y1="1.04599" x2="15.0455" y2="1.04599" gradientUnits="userSpaceOnUse">
<stop stop-color="#D1D3D4"/>
<stop offset="0.16" stop-color="#E0E2E2"/>
<stop offset="0.4" stop-color="#F1F2F2"/>
<stop offset="0.67" stop-color="#FBFBFC"/>
<stop offset="1" stop-color="white"/>
</linearGradient>
<linearGradient id="paint1_linear_848_9561" x1="17.5293" y1="6.03388" x2="20.0002" y2="6.03388" gradientUnits="userSpaceOnUse">
<stop stop-color="#808285"/>
<stop offset="0.02" stop-color="#858789"/>
<stop offset="0.15" stop-color="#AAABAD"/>
<stop offset="0.3" stop-color="#C9C9CB"/>
<stop offset="0.45" stop-color="#E0E1E2"/>
<stop offset="0.61" stop-color="#F1F1F2"/>
<stop offset="0.78" stop-color="#FBFBFB"/>
<stop offset="1" stop-color="white"/>
</linearGradient>
<linearGradient id="paint2_linear_848_9561" x1="0.000150894" y1="9.20261" x2="2.4711" y2="9.20261" gradientUnits="userSpaceOnUse">
<stop stop-color="#808285"/>
<stop offset="0.02" stop-color="#858789"/>
<stop offset="0.15" stop-color="#AAABAD"/>
<stop offset="0.3" stop-color="#C9C9CB"/>
<stop offset="0.45" stop-color="#E0E1E2"/>
<stop offset="0.61" stop-color="#F1F1F2"/>
<stop offset="0.78" stop-color="#FBFBFB"/>
<stop offset="1" stop-color="white"/>
</linearGradient>
<linearGradient id="paint3_linear_848_9561" x1="1.4541" y1="2.4682" x2="5.74791" y2="2.4682" gradientUnits="userSpaceOnUse">
<stop stop-color="#D1D3D4"/>
<stop offset="0.16" stop-color="#E0E2E2"/>
<stop offset="0.4" stop-color="#F1F2F2"/>
<stop offset="0.67" stop-color="#FBFBFC"/>
<stop offset="1" stop-color="white"/>
</linearGradient>
<linearGradient id="paint4_linear_848_9561" x1="14.252" y1="12.7683" x2="18.5458" y2="12.7683" gradientUnits="userSpaceOnUse">
<stop stop-color="#808285"/>
<stop offset="0.02" stop-color="#858789"/>
<stop offset="0.15" stop-color="#AAABAD"/>
<stop offset="0.3" stop-color="#C9C9CB"/>
<stop offset="0.45" stop-color="#E0E1E2"/>
<stop offset="0.61" stop-color="#F1F1F2"/>
<stop offset="0.78" stop-color="#FBFBFB"/>
<stop offset="1" stop-color="white"/>
</linearGradient>
<linearGradient id="paint5_linear_848_9561" x1="4.95442" y1="14.1907" x2="9.81387" y2="14.1907" gradientUnits="userSpaceOnUse">
<stop stop-color="#808285"/>
<stop offset="0.02" stop-color="#858789"/>
<stop offset="0.15" stop-color="#AAABAD"/>
<stop offset="0.3" stop-color="#C9C9CB"/>
<stop offset="0.45" stop-color="#E0E1E2"/>
<stop offset="0.61" stop-color="#F1F1F2"/>
<stop offset="0.78" stop-color="#FBFBFB"/>
<stop offset="1" stop-color="white"/>
</linearGradient>
<linearGradient id="paint6_linear_848_9561" x1="17.3218" y1="-1.2455" x2="18.7142" y2="12.5929" gradientUnits="userSpaceOnUse">
<stop stop-color="white"/>
<stop offset="0.09" stop-color="white"/>
<stop offset="1" stop-color="white"/>
</linearGradient>
<linearGradient id="paint7_linear_848_9561" x1="4.95442" y1="15.0273" x2="9.77838" y2="15.0273" gradientUnits="userSpaceOnUse">
<stop stop-color="#414042"/>
<stop offset="0.07" stop-color="#59595A"/>
<stop offset="0.2" stop-color="#7E7E7F"/>
<stop offset="0.34" stop-color="#9C9D9E"/>
<stop offset="0.48" stop-color="#B3B4B6"/>
<stop offset="0.63" stop-color="#C4C5C6"/>
<stop offset="0.8" stop-color="#CDCFD0"/>
<stop offset="1" stop-color="#D1D3D4"/>
</linearGradient>
<linearGradient id="paint8_linear_848_9561" x1="14.9526" y1="13.4463" x2="18.54" y2="13.4463" gradientUnits="userSpaceOnUse">
<stop stop-color="#414042"/>
<stop offset="0.07" stop-color="#59595A"/>
<stop offset="0.2" stop-color="#7E7E7F"/>
<stop offset="0.34" stop-color="#9C9D9E"/>
<stop offset="0.48" stop-color="#B3B4B6"/>
<stop offset="0.63" stop-color="#C4C5C6"/>
<stop offset="0.8" stop-color="#CDCFD0"/>
<stop offset="1" stop-color="#D1D3D4"/>
</linearGradient>
<linearGradient id="paint9_linear_848_9561" x1="8.58286e-05" y1="9.58605" x2="1.23556" y2="9.58605" gradientUnits="userSpaceOnUse">
<stop stop-color="#414042"/>
<stop offset="0.07" stop-color="#59595A"/>
<stop offset="0.2" stop-color="#7E7E7F"/>
<stop offset="0.34" stop-color="#9C9D9E"/>
<stop offset="0.48" stop-color="#B3B4B6"/>
<stop offset="0.63" stop-color="#C4C5C6"/>
<stop offset="0.8" stop-color="#CDCFD0"/>
<stop offset="1" stop-color="#D1D3D4"/>
</linearGradient>
<clipPath id="clip0_848_9561">
<rect width="20" height="16" fill="white"/>
</clipPath>
</defs>
</svg>
